<?xml version="1.0" encoding="UTF-8" standalone="no"?>
<!DOCTYPE svg PUBLIC "-//W3C//DTD SVG 20010904//EN"
              "http://www.w3.org/TR/2001/REC-SVG-20010904/DTD/svg10.dtd">

<svg xmlns="http://www.w3.org/2000/svg"
     width="65.8764mm" height="65.8764mm"
     viewBox="0 0 389 389">
  <path id="man-hair"
        fill="#2b3441" stroke="#2b3441" stroke-width="1"
        d="M 245.33,180.09
           C 244.08,180.36 243.13,179.29 243.98,178.60
             245.29,177.05 247.28,177.10 248.00,177.04
             249.64,176.96 251.91,176.98 253.02,177.04
             254.82,177.00 255.58,177.97 256.58,178.71
             257.24,179.29 258.93,182.02 258.93,182.02
             259.27,183.20 259.44,185.71 259.02,187.96
             258.62,189.64 257.31,191.35 256.33,192.58
             254.71,194.02 253.82,192.20 253.89,191.09
             253.80,189.03 255.07,187.96 254.93,186.73
             254.86,183.27 252.53,185.15 252.53,185.18
             251.73,185.93 250.93,188.62 250.16,188.02
             249.22,187.73 251.04,184.22 251.00,183.84
             250.29,182.16 247.76,179.61 245.33,180.09 Z" />
</svg>
