<?xml version="1.0" encoding="UTF-8" standalone="no"?>
<!DOCTYPE svg PUBLIC "-//W3C//DTD SVG 20010904//EN"
              "http://www.w3.org/TR/2001/REC-SVG-20010904/DTD/svg10.dtd">

<svg xmlns="http://www.w3.org/2000/svg"
     width="65.8764mm" height="65.8764mm"
     viewBox="0 0 389 389">
  <path id="man-head"
        fill="#e1a16a" stroke="#e1a16a" stroke-width="1"
        d="M 244.17,179.89
           C 243.40,180.04 246.00,186.22 241.17,188.50
             240.64,188.82 240.70,189.83 241.13,190.04
             243.72,190.15 243.59,192.41 242.22,194.53
             241.52,195.54 242.61,196.44 244.37,196.24
             247.10,196.48 254.33,190.40 254.89,188.29
             255.94,189.61 257.53,188.65 257.42,188.51
             257.42,188.51 257.31,181.71 257.31,181.71
             257.31,181.71 251.47,178.87 251.47,178.87
             251.47,178.87 247.82,178.29 247.82,178.29
             247.96,178.05 244.77,178.86 244.17,179.89 Z" />
</svg>
