<?xml version="1.0" encoding="UTF-8" standalone="no"?>
<!DOCTYPE svg PUBLIC "-//W3C//DTD SVG 20010904//EN"
              "http://www.w3.org/TR/2001/REC-SVG-20010904/DTD/svg10.dtd">

<svg xmlns="http://www.w3.org/2000/svg"
     width="65.8764mm" height="65.8764mm"
     viewBox="0 0 389 389">
  <path id="man-jacket"
        fill="#374559" stroke="#374559" stroke-width="1"
        d="M 254.87,199.00
           C 256.02,199.09 258.80,200.65 258.98,201.07
             258.98,201.07 260.98,205.09 260.98,205.09
             260.98,205.09 261.64,209.09 261.64,209.09
             261.64,209.09 260.45,236.36 260.45,236.36
             260.45,236.36 257.82,250.45 257.82,250.45
             257.79,250.45 258.83,267.81 259.27,267.91
             259.28,268.28 248.14,266.91 248.13,266.04
             247.88,262.44 247.50,243.47 247.09,242.09
             246.88,240.97 246.78,235.34 246.18,232.82
             245.98,231.25 245.02,222.60 245.00,222.09
             244.93,221.47 244.98,214.70 245.09,213.91
             245.22,212.07 246.56,207.18 247.00,205.96
             247.31,204.57 248.88,202.28 249.18,201.91
             251.07,199.72 254.23,198.96 254.87,199.00 Z" />
</svg>
