<?xml version="1.0" encoding="UTF-8" standalone="no"?>
<!DOCTYPE svg PUBLIC "-//W3C//DTD SVG 20010904//EN"
              "http://www.w3.org/TR/2001/REC-SVG-20010904/DTD/svg10.dtd">

<svg xmlns="http://www.w3.org/2000/svg"
     width="65.8764mm" height="65.8764mm"
     viewBox="0 0 389 389">
  <path id="man-right-shoe"
        fill="#2d384c" stroke="#2d384c" stroke-width="1"
        d="M 233.34,361.81
           C 233.43,363.33 231.22,364.56 230.00,364.62
             228.38,365.00 223.53,365.62 222.62,365.47
             219.88,365.85 221.24,367.18 222.56,367.00
             223.47,367.31 235.56,367.50 237.09,366.97
             237.48,366.65 237.27,361.51 237.09,361.66
             237.09,361.66 233.34,361.81 233.34,361.81 Z" />
  <path id="man-left-shoe"
        fill="#2d384c" stroke="#2d384c" stroke-width="1"
        d="M 247.44,361.50
           C 247.71,362.16 247.56,363.42 246.94,364.12
             246.38,364.96 245.50,365.40 244.20,365.44
             242.51,365.82 241.98,366.76 243.88,367.00
             243.71,367.13 251.89,367.13 252.12,366.94
             252.22,363.02 251.89,360.96 251.62,361.44
             251.69,361.44 247.44,361.50 247.44,361.50 Z" />
  <path id="man-right-leg"
        fill="#354255" stroke="#354255" stroke-width="1"
        d="M 237.82,250.91
           C 236.26,252.32 235.78,262.68 235.18,268.64
             234.31,274.69 232.21,298.20 232.31,302.93
             232.11,315.00 231.73,328.25 231.94,330.93
             232.30,339.60 233.12,360.44 233.00,361.91
             232.88,362.53 238.44,362.44 238.00,361.91
             237.81,359.19 238.25,349.56 238.45,346.55
             239.12,336.75 239.61,314.01 240.18,312.36
             240.75,309.26 241.31,302.25 242.00,298.00
             243.80,290.87 247.31,280.00 246.09,284.82
             246.09,284.82 245.91,257.82 245.91,257.82
             245.91,257.82 245.45,251.45 245.45,251.45
             245.45,251.45 237.82,250.91 237.82,250.91 Z" />
  <path id="man-left-leg"
        fill="#323e50" stroke="#323e50" stroke-width="1"
        d="M 243.12,253.81
           C 242.00,255.94 243.81,284.81 244.25,286.12
             244.56,292.88 244.38,314.88 244.69,318.06
             244.69,318.06 245.88,357.50 246.44,361.94
             247.19,362.69 251.69,362.38 252.38,361.81
             253.19,358.50 252.62,322.56 253.12,318.06
             253.44,309.81 254.31,299.06 254.94,286.00
             255.56,282.81 256.25,253.56 256.19,253.56
             256.19,253.56 243.12,253.81 243.12,253.81 Z" />
  <path id="man-right-hand"
        fill="#f5c48d" stroke="#f5c48d" stroke-width="1"
        d="M 205.36,241.09
           C 204.18,240.68 202.31,240.80 201.73,241.18
             200.64,242.04 196.69,241.33 196.00,242.18
             195.67,242.46 195.60,244.54 196.18,244.91
             196.92,245.87 197.99,247.14 198.82,247.18
             200.04,247.53 204.05,247.45 204.18,247.18
             207.91,245.83 208.82,245.00 208.82,245.00
             208.82,245.00 205.36,241.09 205.36,241.09 Z" />
  <path id="man-right-arm"
        fill="#364357" stroke="#364357" stroke-width="1"
        d="M 243.91,205.36
           C 243.91,205.36 240.82,206.73 240.82,206.73
             239.91,207.44 238.03,210.53 236.91,212.09
             235.84,213.75 235.16,215.75 233.73,218.18
             231.81,223.12 229.84,225.66 229.09,226.36
             227.80,227.80 223.04,231.63 221.16,232.62
             219.80,233.51 216.80,235.33 215.00,236.27
             211.93,238.07 207.49,240.04 204.64,240.27
             204.49,241.56 208.27,247.18 208.36,247.18
             209.73,247.19 216.36,244.40 218.82,242.91
             221.47,241.38 225.33,238.89 225.93,238.40
             228.20,236.85 229.84,235.46 231.47,234.20
             233.96,231.91 241.51,221.82 241.51,221.82
             241.51,221.82 243.91,205.36 243.91,205.36 Z" />
  <path id="man-neck"
        fill="#f0b97e" stroke="#f0b97e" stroke-width="1"
        d="M 248.70,199.04
           C 249.22,196.57 248.13,195.43 248.74,192.65
             248.74,192.65 251.91,184.70 251.91,184.70
             251.91,184.70 256.61,184.17 256.61,184.17
             255.43,187.13 255.66,195.29 255.96,198.83
             255.96,198.91 248.70,199.04 248.70,199.04 Z" />
  <path id="man-head"
        fill="#e1a16a" stroke="#e1a16a" stroke-width="1"
        d="M 244.17,179.89
           C 243.40,180.04 246.00,186.22 241.17,188.50
             240.64,188.82 240.70,189.83 241.13,190.04
             243.72,190.15 243.59,192.41 242.22,194.53
             241.52,195.54 242.61,196.44 244.37,196.24
             247.10,196.48 254.33,190.40 254.89,188.29
             255.94,189.61 257.53,188.65 257.42,188.51
             257.42,188.51 257.31,181.71 257.31,181.71
             257.31,181.71 251.47,178.87 251.47,178.87
             251.47,178.87 247.82,178.29 247.82,178.29
             247.96,178.05 244.77,178.86 244.17,179.89 Z" />
  <path id="man-hair"
        fill="#2b3441" stroke="#2b3441" stroke-width="1"
        d="M 245.33,180.09
           C 244.08,180.36 243.13,179.29 243.98,178.60
             245.29,177.05 247.28,177.10 248.00,177.04
             249.64,176.96 251.91,176.98 253.02,177.04
             254.82,177.00 255.58,177.97 256.58,178.71
             257.24,179.29 258.93,182.02 258.93,182.02
             259.27,183.20 259.44,185.71 259.02,187.96
             258.62,189.64 257.31,191.35 256.33,192.58
             254.71,194.02 253.82,192.20 253.89,191.09
             253.80,189.03 255.07,187.96 254.93,186.73
             254.86,183.27 252.53,185.15 252.53,185.18
             251.73,185.93 250.93,188.62 250.16,188.02
             249.22,187.73 251.04,184.22 251.00,183.84
             250.29,182.16 247.76,179.61 245.33,180.09 Z" />
  <path id="man-shirt"
        fill="#d4e4ef" stroke="#d4e4ef" stroke-width="1"
        d="M 236.25,252.25
           C 237.50,254.02 255.46,256.26 254.38,254.75
             254.25,254.75 256.62,199.38 256.62,199.38
             256.62,199.38 256.53,197.97 256.53,197.97
             255.19,197.50 248.96,198.15 249.16,198.47
             246.80,199.20 244.22,201.25 243.50,202.38
             240.09,206.31 239.38,210.56 239.25,211.62
             239.22,211.64 238.88,241.09 239.12,242.50
             239.27,247.00 236.14,252.68 236.25,252.25 Z" />
  <path id="man-tie"
        fill="#00b2cb" stroke="#00b2cb" stroke-width="1"
        d="M 248.80,199.11
           C 246.23,201.73 245.43,203.70 244.94,204.25
             243.52,206.48 242.57,209.21 242.25,210.25
             240.94,213.64 242.53,234.66 242.06,238.94
             242.00,240.94 242.00,242.69 241.06,244.44
             240.22,246.16 237.78,248.97 237.55,248.64
             237.42,247.73 238.30,243.17 239.04,241.81
             240.57,239.39 240.00,217.00 240.25,216.44
             240.24,216.41 240.50,209.83 241.00,209.06
             241.95,206.66 244.08,202.48 245.31,201.56
             246.46,200.52 248.80,199.11 248.80,199.11 Z" />
  <path id="man-jacket"
        fill="#374559" stroke="#374559" stroke-width="1"
        d="M 254.87,199.00
           C 256.02,199.09 258.80,200.65 258.98,201.07
             258.98,201.07 260.98,205.09 260.98,205.09
             260.98,205.09 261.64,209.09 261.64,209.09
             261.64,209.09 260.45,236.36 260.45,236.36
             260.45,236.36 257.82,250.45 257.82,250.45
             257.79,250.45 258.83,267.81 259.27,267.91
             259.28,268.28 248.14,266.91 248.13,266.04
             247.88,262.44 247.50,243.47 247.09,242.09
             246.88,240.97 246.78,235.34 246.18,232.82
             245.98,231.25 245.02,222.60 245.00,222.09
             244.93,221.47 244.98,214.70 245.09,213.91
             245.22,212.07 246.56,207.18 247.00,205.96
             247.31,204.57 248.88,202.28 249.18,201.91
             251.07,199.72 254.23,198.96 254.87,199.00 Z" />
  <path id="mid-man-left-hand"
        fill="#f5c48d" stroke="#f5c48d" stroke-width="1"
        d="M 249.71,263.93
           C 249.71,263.93 254.98,265.02 254.98,265.02
             256.90,272.00 253.98,274.91 253.62,275.20
             252.66,275.73 251.12,275.45 250.72,275.12
             250.10,274.71 249.66,271.40 249.67,271.04
             249.50,269.99 250.36,265.28 249.71,263.93 Z" />
  <path id="midman-left-arm"
        fill="#333f51" stroke="#333f51" stroke-width="1"
        d="M 248.74,264.78
           C 248.35,265.43 254.39,267.52 255.82,266.36
             258.29,256.22 260.00,245.36 260.73,238.09
             260.74,232.85 261.88,212.62 259.38,206.75
             258.52,203.06 256.62,201.38 254.12,201.12
             249.62,202.00 250.56,209.81 251.39,214.62
             252.44,219.31 252.52,223.27 252.27,231.15
             252.38,232.21 249.26,264.52 248.74,264.78 Z
           M 257.91,265.22" />
</svg>
