<?xml version="1.0" encoding="UTF-8" standalone="no"?>
<!DOCTYPE svg PUBLIC "-//W3C//DTD SVG 20010904//EN"
              "http://www.w3.org/TR/2001/REC-SVG-20010904/DTD/svg10.dtd">

<svg xmlns="http://www.w3.org/2000/svg"
     width="65.8764mm" height="65.8764mm"
     viewBox="0 0 389 389">
  <path id="man-right-leg"
        fill="#354255" stroke="#354255" stroke-width="1"
        d="M 237.82,250.91
           C 236.26,252.32 235.78,262.68 235.18,268.64
             234.31,274.69 232.21,298.20 232.31,302.93
             232.11,315.00 231.73,328.25 231.94,330.93
             232.30,339.60 233.12,360.44 233.00,361.91
             232.88,362.53 238.44,362.44 238.00,361.91
             237.81,359.19 238.25,349.56 238.45,346.55
             239.12,336.75 239.61,314.01 240.18,312.36
             240.75,309.26 241.31,302.25 242.00,298.00
             243.80,290.87 247.31,280.00 246.09,284.82
             246.09,284.82 245.91,257.82 245.91,257.82
             245.91,257.82 245.45,251.45 245.45,251.45
             245.45,251.45 237.82,250.91 237.82,250.91 Z" />
</svg>
