<?xml version="1.0" encoding="UTF-8" standalone="no"?>
<!DOCTYPE svg PUBLIC "-//W3C//DTD SVG 20010904//EN"
              "http://www.w3.org/TR/2001/REC-SVG-20010904/DTD/svg10.dtd">

<svg xmlns="http://www.w3.org/2000/svg"
     width="65.8764mm" height="65.8764mm"
     viewBox="0 0 389 389">
  <path id="man-right-arm"
        fill="#364357" stroke="#364357" stroke-width="1"
        d="M 243.91,205.36
           C 243.91,205.36 240.82,206.73 240.82,206.73
             239.91,207.44 238.03,210.53 236.91,212.09
             235.84,213.75 235.16,215.75 233.73,218.18
             231.81,223.12 229.84,225.66 229.09,226.36
             227.80,227.80 223.04,231.63 221.16,232.62
             219.80,233.51 216.80,235.33 215.00,236.27
             211.93,238.07 207.49,240.04 204.64,240.27
             204.49,241.56 208.27,247.18 208.36,247.18
             209.73,247.19 216.36,244.40 218.82,242.91
             221.47,241.38 225.33,238.89 225.93,238.40
             228.20,236.85 229.84,235.46 231.47,234.20
             233.96,231.91 241.51,221.82 241.51,221.82
             241.51,221.82 243.91,205.36 243.91,205.36 Z" />
</svg>
