<?xml version="1.0" encoding="UTF-8" standalone="no"?>
<!DOCTYPE svg PUBLIC "-//W3C//DTD SVG 20010904//EN"
              "http://www.w3.org/TR/2001/REC-SVG-20010904/DTD/svg10.dtd">

<svg xmlns="http://www.w3.org/2000/svg"
     width="65.8764mm" height="65.8764mm"
     viewBox="0 0 389 389">
  <path id="man-tie"
        fill="#00b2cb" stroke="#00b2cb" stroke-width="1"
        d="M 248.80,199.11
           C 246.23,201.73 245.43,203.70 244.94,204.25
             243.52,206.48 242.57,209.21 242.25,210.25
             240.94,213.64 242.53,234.66 242.06,238.94
             242.00,240.94 242.00,242.69 241.06,244.44
             240.22,246.16 237.78,248.97 237.55,248.64
             237.42,247.73 238.30,243.17 239.04,241.81
             240.57,239.39 240.00,217.00 240.25,216.44
             240.24,216.41 240.50,209.83 241.00,209.06
             241.95,206.66 244.08,202.48 245.31,201.56
             246.46,200.52 248.80,199.11 248.80,199.11 Z" />
</svg>
