<svg xmlns="http://www.w3.org/2000/svg" xmlns:xlink="http://www.w3.org/1999/xlink" viewBox="0 0 432 432"><defs><style>.cls-1{fill:none;}.cls-2{isolation:isolate;}.cls-3{opacity:0.3;}.cls-242,.cls-255,.cls-3{mix-blend-mode:multiply;}.cls-4{clip-path:url(#clip-path);}.cls-5{fill:#fff;}.cls-6{fill:#fcfcfc;}.cls-7{fill:#fbfbfb;}.cls-8{fill:#f9fafa;}.cls-9{fill:#f8f8f9;}.cls-10{fill:#f7f7f8;}.cls-11{fill:#f6f6f7;}.cls-12{fill:#f5f5f6;}.cls-13{fill:#f4f5f5;}.cls-14{fill:#f3f4f4;}.cls-15{fill:#f2f3f3;}.cls-16{fill:#f2f2f2;}.cls-17{fill:#f1f1f2;}.cls-18{fill:#f0f0f1;}.cls-19{fill:#eff0f0;}.cls-20{fill:#eeefef;}.cls-21{fill:#edeeef;}.cls-22{fill:#ededee;}.cls-23{fill:#ececed;}.cls-24{fill:#ebecec;}.cls-25{fill:#eaebec;}.cls-26{fill:#e9eaeb;}.cls-27{fill:#e8e9ea;}.cls-28{fill:#e8e8e9;}.cls-29{fill:#e7e7e8;}.cls-30{fill:#e6e7e8;}.cls-31{fill:#e5e6e7;}.cls-32{fill:#e4e5e6;}.cls-33{fill:#e3e4e5;}.cls-34{fill:#e2e3e4;}.cls-35{fill:#e1e2e3;}.cls-36{fill:#e0e1e2;}.cls-37{fill:#dfe0e1;}.cls-38{fill:#dedfe1;}.cls-39{fill:#dddfe0;}.cls-40{fill:#dddedf;}.cls-41{fill:#dcddde;}.cls-42{fill:#dbdcdd;}.cls-43{fill:#dadbdd;}.cls-44{fill:#d9dbdc;}.cls-45{fill:#d8dadb;}.cls-46{fill:#d8d9da;}.cls-47{fill:#d7d8da;}.cls-48{fill:#d6d7d9;}.cls-49{fill:#d5d6d8;}.cls-50{fill:#d4d6d7;}.cls-51{fill:#d4d5d6;}.cls-52{fill:#d3d4d6;}.cls-53{fill:#d2d3d5;}.cls-54{fill:#d1d2d4;}.cls-55{fill:#d0d2d3;}.cls-56{fill:#cfd1d2;}.cls-57{fill:#cfd0d2;}.cls-58{fill:#cecfd1;}.cls-59{fill:#cdced0;}.cls-60{fill:#cccecf;}.cls-61{fill:#caccce;}.cls-62{fill:#cacbcd;}.cls-63{fill:#c9cacc;}.cls-64{fill:#c8cacb;}.cls-65{fill:#c7c9cb;}.cls-66{fill:#c6c8ca;}.cls-67{fill:#c5c7c9;}.cls-68{fill:#c4c6c8;}.cls-69{fill:#c4c5c7;}.cls-70{fill:#c3c5c7;}.cls-71{fill:#c2c4c6;}.cls-72{fill:#c1c3c5;}.cls-73{fill:#c0c2c4;}.cls-74{fill:#c0c1c3;}.cls-75{fill:#bfc1c3;}.cls-76{fill:#bec0c2;}.cls-77{fill:#bdbfc1;}.cls-78{fill:#bcbec0;}.cls-79{fill:#bbbdbf;}.cls-80{fill:#bbbcbf;}.cls-81{fill:#babcbe;}.cls-82{fill:#b9bbbd;}.cls-83{fill:#b8babc;}.cls-84{fill:#b7b9bb;}.cls-85{fill:#b6b8bb;}.cls-86{fill:#b6b8ba;}.cls-87{fill:#b5b7b9;}.cls-88{fill:#b4b6b8;}.cls-89{fill:#b3b5b7;}.cls-90{fill:#b2b4b7;}.cls-91{fill:#b1b3b6;}.cls-92{fill:#b1b3b5;}.cls-93{fill:#b0b2b4;}.cls-94{fill:#afb1b3;}.cls-95{fill:#aeb0b3;}.cls-96{fill:#adafb2;}.cls-97{fill:#adafb1;}.cls-98{fill:#acaeb0;}.cls-99{fill:#abadaf;}.cls-100{fill:#aaacaf;}.cls-101{fill:#a5a7aa;}.cls-102{fill:#a4a7a9;}.cls-103{fill:#a4a6a8;}.cls-104{fill:#a3a5a8;}.cls-105{fill:#a2a4a7;}.cls-106{fill:#a1a3a6;}.cls-107{fill:#a1a3a5;}.cls-108{fill:#a0a2a4;}.cls-109{fill:#9fa1a4;}.cls-110{fill:#9ea0a3;}.cls-111{fill:#9da0a2;}.cls-112{fill:#9d9fa1;}.cls-113{fill:#9c9ea1;}.cls-114{fill:#9b9da0;}.cls-115{fill:#9a9c9f;}.cls-116{fill:#9a9c9e;}.cls-117{fill:#999b9d;}.cls-118{fill:#989a9d;}.cls-119{fill:#97999c;}.cls-120{fill:#96999b;}.cls-121{fill:#96989a;}.cls-122{fill:#95979a;}.cls-123{fill:#949699;}.cls-124{fill:#939598;}.cls-125{fill:#929497;}.cls-126{fill:#919396;}.cls-127{fill:#909295;}.cls-128{fill:#909294;}.cls-129{fill:#8f9194;}.cls-130{fill:#8e9093;}.cls-131{fill:#8d8f92;}.cls-132{fill:#8d8f91;}.cls-133{fill:#8c8e91;}.cls-134{fill:#8b8d90;}.cls-135{fill:#8a8c8f;}.cls-136{fill:#8a8c8e;}.cls-137{fill:#898b8d;}.cls-138{fill:#888a8d;}.cls-139{fill:#87898c;}.cls-140{fill:#87898b;}.cls-141{fill:#85878a;}.cls-142{fill:#848689;}.cls-143{fill:#848688;}.cls-144{fill:#838587;}.cls-145{fill:#828487;}.cls-146{fill:#818386;}.cls-147{fill:#818385;}.cls-148{fill:#808284;}.cls-149{fill:#808184;}.cls-150{fill:#808083;}.cls-151{fill:#7f8082;}.cls-152{fill:#7e8081;}.cls-153{fill:#7d7f81;}.cls-154{fill:#7d7e80;}.cls-155{fill:#7b7d7f;}.cls-156{fill:#7a7c7f;}.cls-157{fill:#7a7b7e;}.cls-158{fill:#797b7d;}.cls-159{fill:#787a7c;}.cls-160{fill:#77797c;}.cls-161{fill:#77787b;}.cls-162{fill:#76777a;}.cls-163{fill:#757779;}.cls-164{fill:#747678;}.cls-165{fill:#747578;}.cls-166{fill:#727476;}.cls-167{fill:#717375;}.cls-168{fill:#717275;}.cls-169{fill:#707174;}.cls-170{fill:#6f7073;}.cls-171{fill:#6e7072;}.cls-172{fill:#6d6f71;}.cls-173{fill:#6d6e70;}.cls-174{fill:#6c6d70;}.cls-175{fill:#6b6c6f;}.cls-176{fill:#6a6c6e;}.cls-177{fill:#696a6c;}.cls-178{fill:#68696c;}.cls-179{fill:#67686b;}.cls-180{fill:#66686a;}.cls-181{fill:#666769;}.cls-182{fill:#656668;}.cls-183{fill:#646567;}.cls-184{fill:#636467;}.cls-185{fill:#626366;}.cls-186{fill:#616264;}.cls-187{fill:#606163;}.cls-188{fill:#5f6062;}.cls-189{fill:#5e5f61;}.cls-190{fill:#5d5e60;}.cls-191{fill:#5c5d60;}.cls-192{fill:#5c5c5f;}.cls-193{fill:#5b5c5e;}.cls-194{fill:#5a5b5d;}.cls-195{fill:#58595b;}.cls-196{fill:#57585a;}.cls-197{fill:#565759;}.cls-198{fill:#555658;}.cls-199{fill:#555557;}.cls-200{fill:#545456;}.cls-201{fill:#535355;}.cls-202{fill:#525255;}.cls-203{fill:#515254;}.cls-204{fill:#4f5052;}.cls-205{fill:#4e4f51;}.cls-206{fill:#4d4e50;}.cls-207{fill:#4d4d4f;}.cls-208{fill:#4c4c4e;}.cls-209{fill:#4b4b4d;}.cls-210{fill:#4a4a4c;}.cls-211{fill:#49494b;}.cls-212{fill:#474749;}.cls-213{fill:#464648;}.cls-214{fill:#454547;}.cls-215{fill:#444446;}.cls-216{fill:#434345;}.cls-217{fill:#424244;}.cls-218{fill:#414142;}.cls-219{fill:#404041;}.cls-220{fill:#3e3e3f;}.cls-221{fill:#3d3c3e;}.cls-222{fill:#3c3b3d;}.cls-223{fill:#3b3a3c;}.cls-224{fill:#3a393a;}.cls-225{fill:#393839;}.cls-226{fill:#383638;}.cls-227{fill:#353435;}.cls-228{fill:#343334;}.cls-229{fill:#333133;}.cls-230{fill:#323031;}.cls-231{fill:#312f30;}.cls-232{fill:#302d2f;}.cls-233{fill:#2e2c2d;}.cls-234{fill:#2c292a;}.cls-235{fill:#2b2829;}.cls-236{fill:#292627;}.cls-237{fill:#282526;}.cls-238{fill:#272425;}.cls-239{fill:#262223;}.cls-240{fill:url(#New_Gradient_Swatch_5);}.cls-241{fill:#8dac3d;}.cls-242,.cls-255{opacity:0.42;}.cls-242{fill:url(#linear-gradient);}.cls-243{fill:url(#New_Gradient_Swatch_10);}.cls-244{fill:#35c1d5;}.cls-245{fill:#d24e57;}.cls-246{fill:url(#New_Gradient_Swatch_10-2);}.cls-247{fill:#c1d853;}.cls-248{fill:#00b5cd;}.cls-249{fill:url(#New_Gradient_Swatch_10-3);}.cls-250{fill:#526510;}.cls-251{fill:#006a84;}.cls-252{fill:#231f20;}.cls-253{fill:url(#linear-gradient-2);}.cls-254{clip-path:url(#clip-path-2);}.cls-255{fill:url(#linear-gradient-3);}.cls-256{fill:url(#New_Gradient_Swatch_6);}.cls-257{fill:url(#linear-gradient-4);}.cls-258{fill:url(#linear-gradient-5);}</style><clipPath id="clip-path"><polygon class="cls-1" points="48.29 266.07 -117 308.13 68.4 395.17 368.81 296.49 48.29 266.07"/></clipPath><linearGradient id="New_Gradient_Swatch_5" x1="377.35" y1="207.5" x2="28.93" y2="277.65" gradientUnits="userSpaceOnUse"><stop offset="0.14" stop-color="#35495e"/><stop offset="0.42" stop-color="#374b60"/><stop offset="0.58" stop-color="#3f5365"/><stop offset="0.71" stop-color="#4c616f"/><stop offset="0.82" stop-color="#5f747c"/><stop offset="0.87" stop-color="#6c8286"/><stop offset="0.93" stop-color="#7f9996"/><stop offset="1" stop-color="#99baad"/></linearGradient><linearGradient id="linear-gradient" x1="85.22" y1="318.3" x2="325.32" y2="218.84" gradientUnits="userSpaceOnUse"><stop offset="0" stop-color="#231f20"/><stop offset="1" stop-color="#fff"/></linearGradient><linearGradient id="New_Gradient_Swatch_10" x1="215.19" y1="260.47" x2="226.21" y2="260.47" gradientUnits="userSpaceOnUse"><stop offset="0.02" stop-color="#405f75"/><stop offset="0.34" stop-color="#436278"/><stop offset="0.62" stop-color="#4d6a83"/><stop offset="0.88" stop-color="#5e7895"/><stop offset="1" stop-color="#68809f"/></linearGradient><linearGradient id="New_Gradient_Swatch_10-2" x1="232.22" y1="245.15" x2="205.93" y2="250.45" xlink:href="#New_Gradient_Swatch_10"/><linearGradient id="New_Gradient_Swatch_10-3" x1="203.36" y1="252.96" x2="241.21" y2="230.7" xlink:href="#New_Gradient_Swatch_10"/><linearGradient id="linear-gradient-2" x1="535.53" y1="98.02" x2="-15.2" y2="340.93" gradientUnits="userSpaceOnUse"><stop offset="0.13" stop-color="#405f75"/><stop offset="0.15" stop-color="#45637a"/><stop offset="0.25" stop-color="#55708b"/><stop offset="0.37" stop-color="#607996"/><stop offset="0.54" stop-color="#667f9d"/><stop offset="1" stop-color="#68809f"/></linearGradient><clipPath id="clip-path-2"><polygon class="cls-1" points="141.26 281.23 209.2 239.56 175.66 167.01 208.7 107.17 295.96 107.17 259.31 234.11 218.82 270.18 141.26 281.23"/></clipPath><linearGradient id="linear-gradient-3" x1="149.12" y1="225.64" x2="-57.08" y2="345.54" gradientTransform="matrix(-1, -0.08, -3.82, 0.7, 1274.84, 79.56)" xlink:href="#linear-gradient"/><linearGradient id="New_Gradient_Swatch_6" x1="212.3" y1="128.33" x2="223.59" y2="128.33" gradientUnits="userSpaceOnUse"><stop offset="0" stop-color="#ce8759"/><stop offset="1" stop-color="#f0bc87"/></linearGradient><linearGradient id="linear-gradient-4" x1="184.79" y1="115.6" x2="208.68" y2="143.5" gradientTransform="translate(22.59)" gradientUnits="userSpaceOnUse"><stop offset="0.14" stop-color="#35495e"/><stop offset="0.41" stop-color="#374b60"/><stop offset="0.56" stop-color="#3e5365"/><stop offset="0.68" stop-color="#4a616f"/><stop offset="0.79" stop-color="#5c757c"/><stop offset="0.88" stop-color="#728e8e"/><stop offset="0.97" stop-color="#8daca3"/><stop offset="1" stop-color="#99baad"/></linearGradient><linearGradient id="linear-gradient-5" x1="280.26" y1="110.79" x2="197.56" y2="138.27" gradientUnits="userSpaceOnUse"><stop offset="0" stop-color="#99baad"/><stop offset="0.03" stop-color="#8daca3"/><stop offset="0.12" stop-color="#728e8e"/><stop offset="0.21" stop-color="#5c757c"/><stop offset="0.32" stop-color="#4a616f"/><stop offset="0.44" stop-color="#3e5365"/><stop offset="0.59" stop-color="#374b60"/><stop offset="0.86" stop-color="#35495e"/></linearGradient></defs><g class="cls-2"><g id="Layer_1" data-name="Layer 1"><g class="cls-3"><g class="cls-4"><rect class="cls-5" x="-117" y="266.07" width="485.81" height="129.11"/><path class="cls-5" d="M-100.41,265.16H369.71V366.87h1.52c-1.83.67-3.67,1.32-5.54,2q-5.6,1.94-11.4,3.75A476,476,0,0,1,304.87,385a604.39,604.39,0,0,1-113.33,11c-160.88.8-291.58-57.8-291.95-130.9Z"/><path class="cls-5" d="M-99.26,265.16h469v99.29h6.23q-10.72,4.1-22.29,7.7a470.45,470.45,0,0,1-49.23,12.4,601.45,601.45,0,0,1-112.89,10.92c-160.24.8-290.43-57.58-290.79-130.38Z"/><path class="cls-6" d="M-98.12,265.16H369.71v98.9h5.51q-10.7,4.06-22.21,7.67a471.84,471.84,0,0,1-49,12.35A599.35,599.35,0,0,1,191.53,395c-159.61.8-289.29-57.35-289.65-129.87Z"/><path class="cls-6" d="M-97,265.16H369.71v98.5h4.78q-10.65,4.05-22.13,7.64a465.93,465.93,0,0,1-48.83,12.3,596.58,596.58,0,0,1-112,10.83C32.55,395.22-96.62,337.31-97,265.08Z"/><path class="cls-7" d="M-95.84,265.16H369.71v98.1h4.05q-10.61,4-22,7.61a464.8,464.8,0,0,1-48.64,12.25,594.51,594.51,0,0,1-111.55,10.8c-158.35.78-287-56.9-287.37-128.85Z"/><path class="cls-7" d="M-94.7,265.16H369.71v97.71H373q-10.56,4-21.95,7.57a464.28,464.28,0,0,1-48.45,12.21A593.27,593.27,0,0,1,191.52,393.4C33.81,394.18-94.34,336.72-94.7,265.06Z"/><path class="cls-8" d="M-93.55,265.16H369.71v97.31h2.59q-10.51,4-21.86,7.55a461.74,461.74,0,0,1-48.25,12.15,590.5,590.5,0,0,1-110.67,10.71C34.43,393.66-93.2,336.43-93.55,265.06Z"/><path class="cls-9" d="M-92.41,265.16H369.71v96.91h1.86q-10.47,4-21.77,7.52a460.58,460.58,0,0,1-48.06,12.11,588.4,588.4,0,0,1-110.22,10.66c-156.46.78-283.58-56.22-283.93-127.31Z"/><path class="cls-10" d="M-91.27,265.16h461v96.52h1.13q-10.43,4-21.68,7.48a457.59,457.59,0,0,1-47.87,12.06,584.6,584.6,0,0,1-109.77,10.62c-155.83.77-282.44-56-282.79-126.79Z"/><path class="cls-10" d="M-90.13,265.16H369.71v96.12h.41q-10.39,4-21.6,7.46a456.92,456.92,0,0,1-47.67,12,582.69,582.69,0,0,1-109.34,10.58C36.32,392.09-89.78,335.55-90.13,265Z"/><path class="cls-11" d="M-89,265.16H369.71v93.73h4.8c-1.69.67-3.4,1.34-5.12,2q-10.35,3.94-21.51,7.43a456.41,456.41,0,0,1-47.48,12A580.59,580.59,0,0,1,191.51,390.8C37,391.57-88.64,335.26-89,265Z"/><path class="cls-12" d="M-87.84,265.16H369.71V358.5h4.05q-2.52,1-5.1,2-10.31,3.92-21.42,7.39A450.28,450.28,0,0,1,300,379.79a577.62,577.62,0,0,1-108.44,10.49C37.58,391.05-87.49,335-87.84,265Z"/><path class="cls-12" d="M-86.7,265.16H369.71v92.95H373q-2.52,1-5.08,2-10.26,3.9-21.33,7.36a452.25,452.25,0,0,1-47.1,11.87,576.36,576.36,0,0,1-108,10.44C38.2,390.53-86.35,334.68-86.7,265Z"/><path class="cls-13" d="M-85.56,265.16H369.71v92.56h2.55c-1.67.67-3.36,1.32-5.06,2Q357,363.57,346,367a451.59,451.59,0,0,1-46.9,11.81,572.78,572.78,0,0,1-107.56,10.4C38.83,390-85.21,334.39-85.56,265Z"/><path class="cls-14" d="M-84.41,265.16H369.71v92.17h1.8c-1.66.66-3.34,1.32-5,2q-10.17,3.88-21.15,7.31a446.08,446.08,0,0,1-46.71,11.76A570.63,570.63,0,0,1,191.5,388.73C39.46,389.48-84.07,334.09-84.41,265Z"/><path class="cls-15" d="M-83.27,265.16h453v89.77h6q-4.86,2-9.93,4-10.12,3.86-21.07,7.27a444.09,444.09,0,0,1-46.51,11.72A569.36,569.36,0,0,1,191.5,388.21C40.09,389-82.93,333.8-83.27,265Z"/><path class="cls-16" d="M-82.13,265.16H369.71v89.39h5.19q-4.83,2-9.88,3.95-10.09,3.84-21,7.25a444.06,444.06,0,0,1-46.31,11.66A566.67,566.67,0,0,1,191.5,387.69C40.72,388.44-81.79,333.51-82.13,265Z"/><path class="cls-16" d="M-81,265.16h450.7v89h4.42q-4.81,2-9.84,3.93-10.05,3.82-20.9,7.22a442.9,442.9,0,0,1-46.12,11.62,564.6,564.6,0,0,1-105.78,10.23C41.35,387.91-80.65,333.22-81,265Z"/><path class="cls-17" d="M-79.85,265.16H369.71v88.63h3.65q-4.8,2-9.8,3.92-10,3.81-20.81,7.18a439.9,439.9,0,0,1-45.93,11.57,561.63,561.63,0,0,1-105.33,10.19C42,387.39-79.51,332.92-79.85,265Z"/><path class="cls-18" d="M-78.7,265.16H369.71v88.25h2.88q-4.77,2-9.76,3.9-10,3.79-20.72,7.15A433.81,433.81,0,0,1,296.37,376a558.67,558.67,0,0,1-104.88,10.15C42.6,386.87-78.37,332.63-78.7,265Z"/><path class="cls-19" d="M-77.56,265.16H369.71V353h2.11q-4.76,2-9.72,3.88-9.93,3.78-20.63,7.13a438.73,438.73,0,0,1-45.54,11.47,556.76,556.76,0,0,1-104.44,10.1c-148.26.74-268.72-53.27-269-120.63Z"/><path class="cls-20" d="M-76.42,265.16H369.71v87.49h1.34q-4.74,2-9.68,3.87-9.89,3.75-20.54,7.09A432.59,432.59,0,0,1,295.48,375a553.82,553.82,0,0,1-104,10.06c-147.62.74-267.57-53-267.9-120.12Z"/><path class="cls-20" d="M-75.28,265.16h445v87.11h.57q-4.71,2-9.64,3.85-9.84,3.75-20.45,7.06A432.06,432.06,0,0,1,295,374.56a552.56,552.56,0,0,1-103.55,10C44.49,385.3-74.94,331.75-75.28,265Z"/><path class="cls-21" d="M-74.13,265.16H369.71V349.9h4.45q-2.3,1-4.65,2-4.69,2-9.59,3.83-9.81,3.73-20.37,7a432,432,0,0,1-45,11.32,549.79,549.79,0,0,1-103.11,10C45.11,384.78-73.8,331.46-74.13,265Z"/><path class="cls-22" d="M-73,265.16h442.7v84.37h3.66q-2.3,1-4.63,2-4.67,2-9.55,3.82-9.76,3.71-20.28,7a428.39,428.39,0,0,1-44.77,11.27,546.8,546.8,0,0,1-102.66,9.94C45.74,384.26-72.66,331.17-73,265Z"/><path class="cls-23" d="M-71.85,265.16H369.71v84h2.87q-2.28,1-4.61,2-4.65,2-9.51,3.8-9.72,3.69-20.19,7a427.87,427.87,0,0,1-44.58,11.23A545.56,545.56,0,0,1,191.47,383c-145.1.72-263-52.14-263.32-118.07Z"/><path class="cls-24" d="M-70.71,265.16H369.71v83.62h2.08c-1.51.67-3,1.32-4.59,2q-4.63,1.94-9.47,3.78-9.68,3.69-20.1,6.94a424.67,424.67,0,0,1-44.38,11.18,542.79,542.79,0,0,1-101.78,9.85C47,383.22-70.38,330.59-70.71,265Z"/><path class="cls-25" d="M-69.56,265.16H369.71v81.25h5.75c-47,21.64-112.07,35.21-184,35.57-143.84.71-260.71-51.69-261-117Z"/><path class="cls-25" d="M-68.42,265.16H369.71V346h4.94c-46.82,21.56-111.58,35.06-183.18,35.42C48.26,382.17-68.1,330-68.42,264.93Z"/><path class="cls-26" d="M-67.28,265.16h437v80.52h4.13c-46.61,21.46-111.09,34.91-182.38,35.26-142.58.71-258.42-51.23-258.74-116Z"/><path class="cls-27" d="M-66.14,265.16H369.71v80.16H373c-46.41,21.36-110.6,34.75-181.57,35.1-142,.71-257.28-51-257.6-115.5Z"/><path class="cls-28" d="M-65,265.16H369.71V345h2.51c-46.2,21.27-110.1,34.6-180.76,34.95-141.32.7-256.14-50.78-256.46-115Z"/><path class="cls-29" d="M-63.85,265.16H369.71v79.43h1.7c-46,21.17-109.61,34.44-180,34.79-140.69.7-255-50.55-255.31-114.47Z"/><path class="cls-30" d="M-62.71,265.16H369.71v79.07h.89c-45.79,21.08-109.12,34.29-179.15,34.63-140,.7-253.85-50.32-254.16-113.95Z"/><path class="cls-31" d="M-61.57,265.16H369.71v78.71h.08c-45.58,21-108.63,34.13-178.34,34.48C52,379-61.25,328.25-61.57,264.9Z"/><path class="cls-31" d="M-60.43,265.16H369.71v76.36h3.47q-2.07,1-4.2,2c-45.37,20.89-108.14,34-177.53,34.33C52.65,378.52-60.11,328-60.43,264.89Z"/><path class="cls-32" d="M-59.28,265.16h429v76h2.65q-2.07,1-4.19,2C323,363.93,260.53,377,191.44,377.31,53.28,378-59,327.66-59.28,264.89Z"/><path class="cls-33" d="M-58.14,265.16H369.71v73.65h5.88q-4,2-8.23,4c-45,20.69-107.15,33.67-175.92,34-137.53.68-249.27-49.42-249.58-111.91Z"/><path class="cls-34" d="M-57,265.16H369.71v73.3h5q-4,2-8.19,4C321.8,363,259.89,375.93,191.44,376.27,54.54,377-56.69,327.08-57,264.88Z"/><path class="cls-34" d="M-55.86,265.16H369.71v73h4.18q-4,2-8.15,3.93c-44.55,20.51-106.17,33.36-174.3,33.7-136.27.68-247-49-247.3-110.88Z"/><path class="cls-35" d="M-54.71,265.16H369.71v72.61h3.34q-4,2-8.12,3.92c-44.34,20.41-105.68,33.21-173.5,33.54C55.8,375.91-54.41,326.49-54.71,264.87Z"/><path class="cls-36" d="M-53.57,265.16H369.71v72.27h2.49c-2.62,1.32-5.32,2.62-8.08,3.89C320,361.64,258.94,374.38,191.43,374.71c-135,.67-244.7-48.51-245-109.85Z"/><path class="cls-37" d="M-52.43,265.16H369.71v71.92h1.64c-2.61,1.32-5.29,2.62-8,3.88-43.94,20.22-104.7,32.9-171.89,33.23-134.38.67-243.56-48.28-243.86-109.34Z"/><path class="cls-38" d="M-51.29,265.16h421v71.58h.8q-3.9,2-8,3.86c-43.73,20.13-104.21,32.74-171.08,33.07C57.68,374.34-51,325.62-51.29,264.85Z"/><path class="cls-38" d="M-50.15,265.16H369.71v69.25h3.78c-1.26.67-2.54,1.33-3.83,2q-3.89,2-8,3.85c-43.52,20-103.72,32.59-170.28,32.92-133.11.66-241.27-47.84-241.57-108.32Z"/><path class="cls-39" d="M-49,265.16H369.71v68.91h2.91q-1.87,1-3.81,2c-2.57,1.3-5.22,2.58-7.92,3.82-43.32,19.94-103.23,32.44-169.47,32.77C58.94,373.29-48.7,325-49,264.84Z"/><path class="cls-40" d="M-47.86,265.16H369.71v66.57h5.74q-7.27,4-15.37,7.78C317,359.35,257.35,371.79,191.42,372.12c-131.85.65-239-47.38-239.28-107.29Z"/><path class="cls-41" d="M-46.72,265.16H369.71V331.4h4.85c-4.82,2.69-9.93,5.28-15.29,7.75C316.37,358.9,257,371.27,191.42,371.6c-131.23.65-237.84-47.15-238.14-106.77Z"/><path class="cls-42" d="M-45.58,265.16H369.71v65.92h4c-4.8,2.68-9.89,5.25-15.22,7.7-42.7,19.66-101.75,32-167,32.3-130.59.65-236.69-46.93-237-106.26Z"/><path class="cls-43" d="M-44.43,265.16H369.71v65.59h3.09q-7.17,4-15.15,7.67C315.16,358,256.39,370.24,191.41,370.56c-130,.65-235.55-46.7-235.84-105.74Z"/><path class="cls-44" d="M-43.29,265.16h413v65.27h2.21c-4.76,2.65-9.8,5.19-15.08,7.63-42.28,19.46-100.77,31.66-165.43,32C62.08,370.68-43,323.57-43.29,264.81Z"/><path class="cls-45" d="M-42.15,265.16H369.71V330.1H371q-7.09,4-15,7.59C314,357.06,255.76,369.2,191.41,369.52c-128.7.64-233.27-46.24-233.56-104.72Z"/><path class="cls-46" d="M-41,265.16H369.71v64.62h.44c-4.71,2.62-9.7,5.14-14.93,7.55C313.35,356.61,255.44,368.69,191.4,369,63.34,369.64-40.72,323-41,264.8Z"/><path class="cls-47" d="M-39.86,265.16H369.71v62.31h3c-1.14.67-2.29,1.33-3.46,2q-7,3.92-14.86,7.52c-41.66,19.18-99.29,31.2-163,31.51-127.44.64-231-45.79-231.26-103.69Z"/><path class="cls-48" d="M-38.72,265.16H369.71v60h5.47c-2.2,1.35-4.46,2.67-6.8,4-4.66,2.6-9.6,5.1-14.78,7.49-41.46,19.08-98.8,31-162.2,31.36C64.59,368.6-38.44,322.4-38.72,264.79Z"/><path class="cls-49" d="M-37.58,265.16H369.71v59.68h4.55c-2.18,1.35-4.44,2.66-6.76,4q-7,3.87-14.71,7.44c-41.25,19-98.31,30.89-161.39,31.21-126.18.62-228.7-45.34-229-102.67Z"/><path class="cls-49" d="M-36.44,265.16H369.71v59.38h3.64c-2.18,1.33-4.42,2.65-6.73,3.93q-6.93,3.87-14.64,7.41c-41,18.89-97.81,30.74-160.59,31.05-125.54.62-227.54-45.11-227.83-102.15Z"/><path class="cls-50" d="M-35.3,265.16h405v59.07h2.72q-3.26,2-6.7,3.92-6.89,3.84-14.56,7.37c-40.84,18.8-97.32,30.58-159.78,30.89C66.48,367-35,321.52-35.3,264.77Z"/><path class="cls-51" d="M-34.15,265.16H369.71v58.77h1.8q-3.22,2-6.66,3.89-6.86,3.82-14.49,7.33c-40.63,18.71-96.83,30.43-159,30.74-124.28.62-225.26-44.66-225.54-101.13Z"/><path class="cls-52" d="M-33,265.16H369.71v58.46h.88q-3.21,2-6.62,3.87-6.83,3.81-14.42,7.3c-40.42,18.61-96.34,30.27-158.16,30.58C67.73,366-32.73,320.94-33,264.76Z"/><path class="cls-53" d="M-31.87,265.16H369.71v54.15h6.16a188,188,0,0,1-27.13,15.12c-40.22,18.51-95.85,30.12-157.36,30.42-123,.61-223-44.2-223.25-100.1Z"/><path class="cls-54" d="M-30.73,265.16H369.71V319h5.21a186.57,186.57,0,0,1-27,15c-40,18.42-95.35,30-156.55,30.27-122.39.61-221.83-44-222.11-99.58Z"/><path class="cls-55" d="M-29.58,265.16H369.71v53.58H374a186.13,186.13,0,0,1-26.85,15c-39.8,18.33-94.86,29.81-155.74,30.11-121.76.61-220.69-43.75-221-99.07Z"/><path class="cls-56" d="M-28.44,265.16H369.71v53.3H373a185.68,185.68,0,0,1-26.71,14.88c-39.6,18.23-94.37,29.65-154.93,30-121.13.61-219.55-43.52-219.82-98.55Z"/><path class="cls-57" d="M-27.3,265.16h397v53h2.36A184.69,184.69,0,0,1,345.51,333c-39.4,18.13-93.89,29.5-154.14,29.8-120.49.59-218.4-43.3-218.67-98Z"/><path class="cls-58" d="M-26.16,265.16H369.71v52.73h1.42a184.91,184.91,0,0,1-26.43,14.72c-39.19,18-93.4,29.35-153.33,29.65-119.87.59-217.26-43.07-217.53-97.54Z"/><path class="cls-59" d="M-25,265.16H369.71V317.6h.47a183.51,183.51,0,0,1-26.29,14.65c-39,17.94-92.9,29.19-152.52,29.49-119.24.59-216.12-42.85-216.38-97Z"/><path class="cls-60" d="M-23.87,265.16H369.71v48.17h5.08c-1.78,1.35-3.64,2.68-5.56,4a182.52,182.52,0,0,1-26.15,14.57c-38.78,17.85-92.41,29-151.72,29.33-118.6.59-215-42.62-215.23-96.51Z"/><path class="cls-61" d="M-21.59,265.16h391.3V312.8h3.13c-1.77,1.34-3.61,2.65-5.51,3.95a179.7,179.7,0,0,1-25.87,14.41c-38.37,17.66-91.43,28.73-150.1,29C74,360.76-21.32,318-21.59,264.7Z"/><path class="cls-62" d="M-20.45,265.16H369.71v47.38h2.15c-1.76,1.33-3.59,2.63-5.48,3.92a178.31,178.31,0,0,1-25.73,14.34c-38.16,17.56-90.94,28.57-149.29,28.86-116.72.58-211.54-41.94-211.81-95Z"/><path class="cls-63" d="M-19.3,265.16h389v43.09h6.21a123.34,123.34,0,0,1-10.49,7.92,176.9,176.9,0,0,1-25.59,14.26c-37.95,17.48-90.44,28.42-148.49,28.71C75.27,359.72-19,317.43-19.3,264.69Z"/><path class="cls-64" d="M-18.16,265.16H369.71V308h5.21a128.18,128.18,0,0,1-10.44,7.88A176.45,176.45,0,0,1,339,330.07c-37.75,17.38-89.95,28.27-147.68,28.55C75.9,359.2-17.9,317.14-18.16,264.68Z"/><path class="cls-65" d="M-17,265.16H369.71v42.6h4.2a123.79,123.79,0,0,1-10.37,7.84,175.72,175.72,0,0,1-25.32,14.11C300.68,347,248.76,357.82,191.35,358.1,76.53,358.67-16.76,316.85-17,264.68Z"/><path class="cls-66" d="M-15.88,265.16H369.71v42.36h3.2a124.77,124.77,0,0,1-10.32,7.8,176.24,176.24,0,0,1-25.18,14c-37.33,17.18-89,27.95-146.06,28.24-114.19.56-207-41-207.23-92.92Z"/><path class="cls-67" d="M-14.73,265.16H369.71v42.12h2.19A123.29,123.29,0,0,1,361.64,315a173.87,173.87,0,0,1-25,14c-37.13,17.09-88.48,27.8-145.26,28.09-113.55.56-205.82-40.81-206.07-92.4Z"/><path class="cls-68" d="M-13.59,265.16h383.3V307h1.18a124.1,124.1,0,0,1-10.2,7.71,172.88,172.88,0,0,1-24.9,13.87c-36.92,17-88,27.65-144.45,27.93C78.41,357.11-13.34,316-13.59,264.66Z"/><path class="cls-68" d="M-12.45,265.16H369.71v41.63h.18a120.17,120.17,0,0,1-10.15,7.67A172.45,172.45,0,0,1,335,328.26c-36.71,16.9-87.49,27.49-143.64,27.77C79,356.59-12.2,315.68-12.45,264.66Z"/><path class="cls-69" d="M-11.31,265.16h381v37.41h3.62q-2.13,2-4.45,4a123.15,123.15,0,0,1-10.09,7.63,171,171,0,0,1-24.62,13.71c-36.5,16.81-87,27.34-142.83,27.62-111.67.55-202.4-40.12-202.65-90.86Z"/><path class="cls-70" d="M-10.17,265.16H369.71v37.19h2.59q-2.12,2-4.42,4a123.58,123.58,0,0,1-10,7.58,169.63,169.63,0,0,1-24.48,13.64c-36.3,16.71-86.51,27.19-142,27.46-111,.55-201.24-39.9-201.5-90.35Z"/><path class="cls-71" d="M-9,265.16H369.71v32.93h5.54c-10.06,10.91-24.65,20.77-42.7,29.08-36.09,16.61-86,27-141.22,27.3C80.93,355-8.77,314.8-9,264.64Z"/><path class="cls-72" d="M-7.88,265.16H369.71v32.73h4.49c-10,10.85-24.51,20.65-42.46,28.91-35.88,16.53-85.52,26.88-140.41,27.15-109.77.55-199-39.44-199.21-89.32Z"/><path class="cls-73" d="M-6.74,265.16H369.71v32.53h3.43c-9.94,10.79-24.37,20.54-42.21,28.75-35.68,16.43-85,26.72-139.6,27C82.18,354-6.49,314.22-6.74,264.63Z"/><path class="cls-74" d="M-5.6,265.16H369.71V297.5h2.38c-9.89,10.72-24.23,20.41-42,28.58-35.47,16.33-84.54,26.57-138.8,26.83-108.51.54-196.67-39-196.92-88.29Z"/><path class="cls-75" d="M-4.45,265.16H369.71V297.3H371C361.2,308,347,317.6,329.31,325.72c-35.26,16.23-84.05,26.41-138,26.68C83.44,352.93-4.21,313.63-4.45,264.62Z"/><path class="cls-76" d="M-3.31,265.16h373V297.1H370c-9.77,10.61-23.94,20.18-41.48,28.25-35.06,16.14-83.56,26.26-137.18,26.53C84.07,352.41-3.07,313.34-3.31,264.61Z"/><path class="cls-77" d="M-2.17,265.16H369.71v23.65h5.67a68.84,68.84,0,0,1-6.45,8.09C359.21,307.45,345.12,317,327.69,325c-34.85,16.05-83.06,26.1-136.37,26.37C84.7,351.89-1.93,313.05-2.17,264.61Z"/><path class="cls-78" d="M-1,265.16H369.71v23.5h4.58a69,69,0,0,1-6.42,8c-9.65,10.48-23.66,19.94-41,27.92-34.65,15.95-82.58,25.95-135.58,26.21C85.33,351.37-.79,312.75-1,264.6Z"/><path class="cls-79" d="M.12,265.16H369.71v23.36h3.49a69.12,69.12,0,0,1-6.38,8c-9.6,10.42-23.52,19.83-40.74,27.75-34.45,15.86-82.09,25.8-134.77,26.06C86,350.84.35,312.46.12,264.59Z"/><path class="cls-80" d="M1.26,265.16H369.71v23.21h2.4a69.33,69.33,0,0,1-6.34,7.94c-9.55,10.36-23.38,19.71-40.5,27.59-34.24,15.76-81.6,25.64-134,25.9-104.73.52-189.82-37.63-190-85.21Z"/><path class="cls-81" d="M2.4,265.16H369.71V280h5.91a60,60,0,0,1-10.91,16.13c-9.48,10.29-23.24,19.59-40.25,27.42-34,15.66-81.11,25.48-133.15,25.74-104.1.52-188.67-37.4-188.91-84.7Z"/><path class="cls-82" d="M3.54,265.16H369.71v14.73h4.79a59.47,59.47,0,0,1-10.84,16c-9.43,10.23-23.1,19.47-40,27.26C289.82,338.75,243,348.51,191.3,348.76,87.84,349.28,3.78,311.59,3.54,264.58Z"/><path class="cls-83" d="M4.68,265.16h365v14.63h3.67a59.42,59.42,0,0,1-10.77,15.93c-9.37,10.17-23,19.35-39.77,27.09C289.22,338.29,242.72,348,191.3,348.24,88.47,348.75,4.92,311.29,4.68,264.57Z"/><path class="cls-84" d="M5.83,265.16H369.71l6.22-2.43c.12,23.22-20.49,44.34-53.9,59.72s-79.63,25-130.73,25.27C89.1,348.23,6.06,311,5.83,264.57Z"/><path class="cls-85" d="M7,265.16H369.71l5.08-2.43c.23,46.15-81.92,84-183.49,84.48S7.2,310.71,7,264.56Z"/><path class="cls-86" d="M8.11,265.16h361.6l3.94-2.42c.23,45.86-81.42,83.45-182.36,83.95S8.34,310.42,8.11,264.55Z"/><path class="cls-87" d="M9.25,265.16H369.71l2.8-2.42c.22,45.58-80.91,82.93-181.22,83.43S9.48,310.12,9.25,264.55Z"/><path class="cls-88" d="M10.4,265.16H369.71l1.65-2.41c.23,45.29-80.39,82.4-180.07,82.9S10.62,309.83,10.4,264.54Z"/><path class="cls-89" d="M11.54,265.16H369.71l.51-2.4c.23,45-79.89,81.88-178.93,82.37S11.76,309.54,11.54,264.54Z"/><path class="cls-90" d="M12.68,265.16h356.4v-2.4c.22,44.72-79.38,81.36-177.8,81.85S12.9,309.25,12.68,264.53Z"/><path class="cls-91" d="M13.82,265.16H367.94v-2.39c.22,44.43-78.87,80.84-176.66,81.32S14,309,13.82,264.53Z"/><path class="cls-92" d="M15,265.16H366.8v-2.39c.21,44.15-78.37,80.32-175.52,80.8S15.18,308.66,15,264.52Z"/><path class="cls-93" d="M16.11,265.16H365.65v-2.38c.22,43.85-77.85,79.79-174.38,80.27S16.33,308.37,16.11,264.51Z"/><path class="cls-94" d="M17.25,265.16H364.51v-2.38c.22,43.57-77.34,79.28-173.24,79.75s-173.8-34.45-174-78Z"/><path class="cls-95" d="M18.39,265.16h345v-2.37c.21,43.28-76.84,78.75-172.1,79.23S18.61,307.79,18.39,264.5Z"/><path class="cls-96" d="M19.53,265.16h342.7V262.8c.21,43-76.33,78.23-171,78.7s-171.52-34-171.74-77Z"/><path class="cls-97" d="M20.68,265.16h340.4V262.8c.22,42.71-75.81,77.71-169.82,78.18S20.89,307.2,20.68,264.49Z"/><path class="cls-98" d="M21.82,265.16H359.94v-2.35c.21,42.42-75.31,77.19-168.68,77.65S22,306.91,21.82,264.49Z"/><path class="cls-99" d="M23,265.16H358.8v-2.35C359,305,284,339.48,191.26,339.94S23.17,306.62,23,264.48Z"/><path class="cls-100" d="M24.1,265.16H357.66v-2.34c.2,41.85-74.3,76.14-166.4,76.6S24.31,306.32,24.1,264.47Z"/><path class="cls-101" d="M29.82,265.16H352v-2.31c.2,40.41-71.75,73.53-160.71,74S30,304.86,29.82,264.45Z"/><path class="cls-102" d="M31,265.16H350.8v-2.31c.2,40.13-71.24,73-159.56,73.46S31.16,304.57,31,264.44Z"/><path class="cls-103" d="M32.1,265.16H349.66v-2.3c.2,39.84-70.73,72.49-158.42,72.93S32.3,304.28,32.1,264.44Z"/><path class="cls-104" d="M33.24,265.16H348.52v-2.3c.19,39.56-70.22,72-157.28,72.41S33.44,304,33.24,264.43Z"/><path class="cls-105" d="M34.38,265.16h313v-2.29c.19,39.27-69.72,71.45-156.15,71.88S34.58,303.69,34.38,264.42Z"/><path class="cls-106" d="M35.53,265.16h310.7v-2.28c.2,39-69.2,70.92-155,71.35S35.72,303.4,35.53,264.42Z"/><path class="cls-107" d="M36.67,265.16H345.09v-2.28c.19,38.7-68.69,70.41-153.86,70.83s-154.37-30.6-154.56-69.3Z"/><path class="cls-108" d="M37.81,265.16H344v-2.27c.19,38.41-68.19,69.88-152.72,70.3S38,302.82,37.81,264.41Z"/><path class="cls-109" d="M39,265.16H342.81v-2.27c.19,38.12-67.68,69.37-151.59,69.78S39.14,302.52,39,264.4Z"/><path class="cls-110" d="M40.1,265.16H341.66V262.9c.19,37.83-67.16,68.84-150.44,69.25S40.28,302.23,40.1,264.4Z"/><path class="cls-111" d="M41.24,265.16H340.52V262.9c.19,37.55-66.66,68.33-149.3,68.74s-149.79-29.7-150-67.25Z"/><path class="cls-112" d="M42.38,265.16h297v-2.25c.18,37.26-66.15,67.8-148.16,68.21S42.57,301.65,42.38,264.38Z"/><path class="cls-113" d="M43.52,265.16H338.24v-2.24c.18,37-65.64,67.27-147,67.68S43.71,301.35,43.52,264.38Z"/><path class="cls-114" d="M44.67,265.16H337.1v-2.24c.18,36.69-65.14,66.76-145.89,67.16s-146.36-29-146.54-65.71Z"/><path class="cls-115" d="M45.81,265.16H336v-2.23c.18,36.4-64.62,66.23-144.74,66.63S46,300.77,45.81,264.37Z"/><path class="cls-116" d="M47,265.16H334.81v-2.23c.18,36.12-64.11,65.72-143.6,66.11S47.13,300.48,47,264.36Z"/><path class="cls-117" d="M48.09,265.16H333.67v-2.22c.18,35.83-63.61,65.19-142.47,65.58S48.27,300.19,48.09,264.36Z"/><path class="cls-118" d="M49.23,265.16h283.3v-2.22c.17,35.55-63.1,64.67-141.33,65.06s-141.79-28.11-142-63.65Z"/><path class="cls-119" d="M50.38,265.16h281V263c.18,35.26-62.58,64.15-140.18,64.53S50.55,299.6,50.38,264.34Z"/><path class="cls-120" d="M51.52,265.16H330.24V263c.18,35-62.08,63.63-139,64S51.69,299.31,51.52,264.34Z"/><path class="cls-121" d="M52.66,265.16H329.1V263c.17,34.68-61.57,63.11-137.91,63.49S52.83,299,52.66,264.33Z"/><path class="cls-122" d="M53.8,265.16H328V263c.17,34.39-61.07,62.58-136.77,63S54,298.72,53.8,264.33Z"/><path class="cls-123" d="M55,265.16H326.81V263c.17,34.11-60.55,62.07-135.62,62.44S55.12,298.43,55,264.32Z"/><path class="cls-124" d="M56.09,265.16H325.67V263c.17,33.82-60,61.54-134.49,61.91S56.26,298.14,56.09,264.32Z"/><path class="cls-125" d="M57.23,265.16h267.3V263c.17,33.54-59.54,61-133.35,61.39s-133.78-26.52-134-60.06Z"/><path class="cls-126" d="M58.37,265.16h265V263c.16,33.25-59,60.5-132.21,60.86S58.54,297.55,58.37,264.3Z"/><path class="cls-127" d="M59.52,265.16H322.25V263c.16,33-58.52,60-131.07,60.34s-131.5-26.07-131.66-59Z"/><path class="cls-128" d="M60.66,265.16H321.1V263c.17,32.68-58,59.46-129.93,59.81S60.82,297,60.66,264.29Z"/><path class="cls-129" d="M61.8,265.16H320V263c.16,32.39-57.5,58.93-128.79,59.28S62,296.68,61.8,264.29Z"/><path class="cls-130" d="M62.94,265.16H318.82V263c.16,32.1-57,58.41-127.65,58.76S63.1,296.39,62.94,264.28Z"/><path class="cls-131" d="M64.08,265.16h253.6V263c.15,31.81-56.49,57.89-126.51,58.24s-126.93-25.17-127.09-57Z"/><path class="cls-132" d="M65.23,265.16h251.3V263c.16,31.53-56,57.37-125.37,57.72S65.38,295.8,65.23,264.27Z"/><path class="cls-133" d="M66.37,265.16h249V263c.16,31.24-55.46,56.85-124.23,57.19s-124.64-24.71-124.79-56Z"/><path class="cls-134" d="M67.51,265.16H314.25V263c.15,31-55,56.33-123.09,56.67S67.67,295.22,67.51,264.26Z"/><path class="cls-135" d="M68.65,265.16H313.11V263c.15,30.67-54.45,55.8-122,56.14S68.81,294.92,68.65,264.25Z"/><path class="cls-136" d="M69.8,265.16H312v-2.11c.16,30.38-53.93,55.28-120.81,55.61S70,294.63,69.8,264.25Z"/><path class="cls-137" d="M70.94,265.16H310.82v-2.11c.15,30.1-53.43,54.76-119.67,55.09s-120.06-23.8-120.21-53.9Z"/><path class="cls-138" d="M72.08,265.16h237.6v-2.1c.15,29.81-52.92,54.24-118.53,54.56S72.23,294.05,72.08,264.24Z"/><path class="cls-139" d="M73.22,265.16H308.54v-2.1c.14,29.53-52.41,53.72-117.39,54S73.37,293.75,73.22,264.23Z"/><path class="cls-140" d="M74.37,265.16h233v-2.09c.14,29.24-51.91,53.2-116.26,53.51S74.51,293.46,74.37,264.23Z"/><path class="cls-141" d="M75.51,265.16H306.25v-2.09c.15,28.95-51.39,52.68-115.11,53S75.65,293.17,75.51,264.22Z"/><path class="cls-142" d="M76.65,265.16H305.11v-2.08c.14,28.66-50.88,52.15-114,52.47S76.79,292.88,76.65,264.21Z"/><path class="cls-143" d="M77.79,265.16H304v-2.07c.14,28.37-50.38,51.63-112.83,51.94S77.93,292.59,77.79,264.21Z"/><path class="cls-144" d="M78.93,265.16h223.9v-2.07c.14,28.09-49.87,51.11-111.7,51.42S79.07,292.29,78.93,264.2Z"/><path class="cls-145" d="M80.08,265.16h221.6V263.1c.14,27.8-49.35,50.59-110.55,50.89s-110.91-22-111-49.79Z"/><path class="cls-146" d="M81.22,265.16H300.54V263.1c.14,27.52-48.85,50.07-109.41,50.37S81.36,291.71,81.22,264.19Z"/><path class="cls-147" d="M82.36,265.16h217v-2.05c.13,27.23-48.34,49.54-108.27,49.84S82.5,291.42,82.36,264.19Z"/><path class="cls-148" d="M83.5,265.16H298.26v-2.05c.13,26.95-47.83,49-107.14,49.32S83.64,291.12,83.5,264.18Z"/><path class="cls-149" d="M84.65,265.16H297.11v-2c.14,26.66-47.32,48.5-106,48.79S84.78,290.83,84.65,264.17Z"/><path class="cls-150" d="M85.79,265.16H296v-2c.13,26.38-46.81,48-104.85,48.27S85.92,290.54,85.79,264.17Z"/><path class="cls-151" d="M86.93,265.16h207.9v-2c.13,26.08-46.31,47.46-103.72,47.75s-104-20.63-104.18-46.72Z"/><path class="cls-152" d="M88.07,265.16H293.69v-2c.13,25.79-45.8,46.93-102.58,47.22S88.2,290,88.07,264.16Z"/><path class="cls-153" d="M89.22,265.16H292.55v-2c.12,25.51-45.29,46.42-101.44,46.7S89.34,289.66,89.22,264.15Z"/><path class="cls-154" d="M90.36,265.16h201v-2c.13,25.22-44.78,45.89-100.29,46.17S90.48,289.37,90.36,264.15Z"/><path class="cls-155" d="M91.5,265.16H290.26v-2c.12,24.94-44.27,45.38-99.16,45.65s-99.48-19.72-99.6-44.66Z"/><path class="cls-156" d="M92.64,265.16H289.12v-2c.12,24.65-43.76,44.85-98,45.12s-98.34-19.49-98.46-44.15Z"/><path class="cls-157" d="M93.78,265.16H288v-2c.12,24.37-43.26,44.34-96.88,44.6s-97.19-19.27-97.32-43.63Z"/><path class="cls-158" d="M94.93,265.16h191.9v-2c.12,24.08-42.74,43.81-95.73,44.07s-96-19-96.17-43.12Z"/><path class="cls-159" d="M96.07,265.16H285.69v-2c.12,23.79-42.23,43.28-94.6,43.54s-94.9-18.81-95-42.6Z"/><path class="cls-160" d="M97.21,265.16H284.55v-2c.12,23.51-41.73,42.77-93.46,43s-93.76-18.58-93.88-42.09Z"/><path class="cls-161" d="M98.35,265.16H283.41v-2c.11,23.21-41.22,42.24-92.32,42.5s-92.62-18.37-92.74-41.58Z"/><path class="cls-162" d="M99.5,265.16H282.26v-2c.12,22.93-40.7,41.73-91.17,42S99.61,287,99.5,264.1Z"/><path class="cls-163" d="M100.64,265.16H281.12v-2c.11,22.64-40.2,41.2-90,41.45s-90.33-17.91-90.44-40.56Z"/><path class="cls-164" d="M101.78,265.16H280v-2c.11,22.36-39.69,40.68-88.9,40.93s-89.19-17.68-89.3-40Z"/><path class="cls-165" d="M102.92,265.16H278.84v-2c.11,22.07-39.18,40.16-87.76,40.4S103,286.15,102.92,264.08Z"/><path class="cls-166" d="M104.07,265.16H277.7v-1.94c.1,21.78-38.68,39.63-86.62,39.87s-86.91-17.23-87-39Z"/><path class="cls-167" d="M105.21,265.16H276.55v-1.94c.11,21.5-38.16,39.12-85.48,39.35s-85.76-17-85.86-38.5Z"/><path class="cls-168" d="M106.35,265.16H275.41v-1.93c.11,21.21-37.65,38.59-84.34,38.82s-84.61-16.77-84.72-38Z"/><path class="cls-169" d="M107.49,265.16H274.27v-1.93c.1,20.93-37.15,38.08-83.2,38.3S107.6,285,107.49,264.06Z"/><path class="cls-170" d="M108.63,265.16h164.5v-1.92c.1,20.64-36.64,37.55-82.06,37.77s-82.33-16.32-82.44-37Z"/><path class="cls-171" d="M109.78,265.16H272v-1.92c.11,20.36-36.12,37-80.92,37.26s-81.18-16.1-81.28-36.45Z"/><path class="cls-172" d="M110.92,265.16H270.84v-1.91c.1,20.06-35.62,36.51-79.78,36.73S111,284.11,110.92,264Z"/><path class="cls-173" d="M112.06,265.16H269.7v-1.9c.1,19.77-35.11,36-78.64,36.2s-78.9-15.64-79-35.42Z"/><path class="cls-174" d="M113.2,265.16H268.56v-1.9c.09,19.49-34.6,35.47-77.5,35.68S113.3,283.52,113.2,264Z"/><path class="cls-175" d="M114.35,265.16H267.41v-1.89c.1,19.2-34.09,34.94-76.36,35.15s-76.61-15.19-76.7-34.39Z"/><path class="cls-176" d="M115.49,265.16H266.27v-1.89c.1,18.92-33.58,34.42-75.22,34.63s-75.47-15-75.56-33.88Z"/><path class="cls-177" d="M116.63,265.16h148.5v-1.88c.09,18.63-33.08,33.9-74.08,34.1S116.72,282.65,116.63,264Z"/><path class="cls-178" d="M117.77,265.16H264v-1.88c.09,18.35-32.57,33.38-72.94,33.58S117.86,282.35,117.77,264Z"/><path class="cls-179" d="M118.92,265.16H262.85v-1.87c.09,18.06-32.06,32.86-71.81,33S119,282.06,118.92,264Z"/><path class="cls-180" d="M120.06,265.16H261.7V263.3c.09,17.77-31.55,32.33-70.66,32.52s-70.89-14.05-71-31.82Z"/><path class="cls-181" d="M121.2,265.16H260.56V263.3c.09,17.49-31,31.81-69.52,32S121.29,281.48,121.2,264Z"/><path class="cls-182" d="M122.34,265.16H259.42v-1.85c.08,17.19-30.53,31.29-68.38,31.48s-68.61-13.6-68.7-30.8Z"/><path class="cls-183" d="M123.48,265.16h134.8v-1.85c.08,16.91-30,30.77-67.25,31S123.57,280.89,123.48,264Z"/><path class="cls-184" d="M124.63,265.16h132.5v-1.84c.09,16.62-29.51,30.25-66.1,30.43S124.71,280.6,124.63,264Z"/><path class="cls-185" d="M125.77,265.16H256v-1.84c.08,16.34-29,29.73-65,29.91S125.85,280.31,125.77,264Z"/><path class="cls-186" d="M126.91,265.16H254.85v-1.83c.08,16.05-28.5,29.21-63.83,29.38S127,280,126.91,264Z"/><path class="cls-187" d="M128.05,265.16H253.71v-1.83c.08,15.77-28,28.69-62.69,28.86s-62.89-12.47-63-28.23Z"/><path class="cls-188" d="M129.2,265.16H252.56v-1.82c.08,15.48-27.47,28.16-61.54,28.33S129.27,279.43,129.2,264Z"/><path class="cls-189" d="M130.34,265.16H251.42v-1.81c.08,15.19-27,27.64-60.4,27.8s-60.61-12-60.68-27.2Z"/><path class="cls-190" d="M131.48,265.16h118.8v-1.81c.07,14.91-26.46,27.12-59.27,27.28s-59.46-11.78-59.53-26.69Z"/><path class="cls-191" d="M132.62,265.16H249.14v-1.8C249.21,278,223.19,290,191,290.12s-58.31-11.57-58.39-26.18Z"/><path class="cls-192" d="M133.77,265.16H248v-1.8c.07,14.33-25.45,26.08-57,26.24s-57.17-11.34-57.24-25.67Z"/><path class="cls-193" d="M134.91,265.16H246.85v-1.79c.07,14-24.93,25.55-55.84,25.71s-56-11.11-56.1-25.16Z"/><path class="cls-194" d="M136.05,265.16H245.71v-1.79c.07,13.76-24.42,25-54.71,25.19s-54.88-10.88-54.95-24.64Z"/><path class="cls-195" d="M137.19,265.16H244.57v-1.78c.07,13.47-23.92,24.51-53.57,24.66s-53.74-10.65-53.81-24.13Z"/><path class="cls-196" d="M138.33,265.16h105.1v-1.77c.06,13.18-23.41,24-52.43,24.13s-52.6-10.43-52.67-23.61Z"/><path class="cls-197" d="M139.48,265.16h102.8v-1.77c.07,12.9-22.89,23.47-51.28,23.61s-51.46-10.2-51.52-23.1Z"/><path class="cls-198" d="M140.62,265.16H241.14V263.4c.06,12.61-22.39,22.94-50.15,23.08s-50.31-10-50.37-22.58Z"/><path class="cls-199" d="M141.76,265.16H240V263.4c.06,12.33-21.88,22.43-49,22.56s-49.17-9.74-49.23-22.07Z"/><path class="cls-200" d="M142.9,265.16h96v-1.75c.06,12-21.37,21.9-47.87,22s-48-9.52-48.09-21.56Z"/><path class="cls-201" d="M144.05,265.16h93.66v-1.75c.06,11.76-20.86,21.39-46.72,21.52s-46.89-9.3-46.94-21.05Z"/><path class="cls-202" d="M145.19,265.16h91.38v-1.74c.06,11.47-20.35,20.86-45.59,21s-45.73-9.07-45.79-20.54Z"/><path class="cls-203" d="M146.33,265.16h89.1v-1.73c.06,11.17-19.84,20.34-44.45,20.46s-44.59-8.84-44.65-20Z"/><path class="cls-204" d="M147.47,265.16h86.82v-1.73c.05,10.89-19.34,19.82-43.31,19.94s-43.45-8.62-43.51-19.51Z"/><path class="cls-205" d="M148.62,265.16h84.53v-1.72c0,10.6-18.83,19.29-42.17,19.41s-42.31-8.39-42.36-19Z"/><path class="cls-206" d="M149.76,265.16H232v-1.72c.05,10.32-18.32,18.78-41,18.89s-41.16-8.16-41.21-18.48Z"/><path class="cls-207" d="M150.9,265.16h80v-1.71c0,10-17.81,18.25-39.89,18.36s-40-7.93-40.07-18Z"/><path class="cls-208" d="M152,265.16h77.68v-1.71c.05,9.75-17.3,17.74-38.75,17.84s-38.88-7.7-38.93-17.45Z"/><path class="cls-209" d="M153.18,265.16h75.4v-1.7c0,9.46-16.8,17.21-37.61,17.31s-37.74-7.48-37.79-16.94Z"/><path class="cls-210" d="M154.33,265.16h73.1v-1.69c0,9.17-16.28,16.68-36.47,16.78s-36.59-7.25-36.63-16.42Z"/><path class="cls-211" d="M155.47,265.16h70.82v-1.69c.05,8.89-15.77,16.17-35.33,16.27s-35.45-7-35.49-15.92Z"/><path class="cls-212" d="M156.61,265.16h68.54v-1.68c0,8.6-15.27,15.64-34.19,15.74s-34.31-6.8-34.35-15.4Z"/><path class="cls-213" d="M157.75,265.16H224v-1.68c0,8.31-14.76,15.13-33,15.22s-33.17-6.58-33.21-14.89Z"/><path class="cls-214" d="M158.9,265.16h64v-1.67c0,8-14.24,14.6-31.91,14.69s-32-6.35-32-14.37Z"/><path class="cls-215" d="M160,265.16h61.68v-1.67c0,7.74-13.74,14.09-30.77,14.17S160.08,271.54,160,263.8Z"/><path class="cls-216" d="M161.18,265.16h59.4V263.5c0,7.45-13.23,13.56-29.63,13.64s-29.73-5.89-29.77-13.35Z"/><path class="cls-217" d="M162.32,265.16h57.12V263.5c0,7.17-12.72,13-28.5,13.12s-28.58-5.67-28.62-12.83Z"/><path class="cls-218" d="M163.47,265.16H218.3v-1.65c0,6.88-12.22,12.52-27.36,12.59s-27.44-5.44-27.47-12.32Z"/><path class="cls-219" d="M164.61,265.16h52.54v-1.64c0,6.59-11.7,12-26.21,12.06s-26.3-5.21-26.33-11.8Z"/><path class="cls-220" d="M165.75,265.16H216v-1.64c0,6.31-11.19,11.48-25.07,11.54s-25.16-5-25.19-11.29Z"/><path class="cls-221" d="M166.89,265.16h48v-1.63c0,6-10.69,11-23.94,11s-24-4.76-24-10.78Z"/><path class="cls-222" d="M168,265.16h45.7v-1.63c0,5.74-10.18,10.43-22.8,10.5s-22.87-4.54-22.9-10.27Z"/><path class="cls-223" d="M169.18,265.16h43.4v-1.62c0,5.44-9.66,9.91-21.65,10s-21.73-4.31-21.75-9.76Z"/><path class="cls-224" d="M170.32,265.16h41.12v-1.62c0,5.16-9.16,9.39-20.51,9.45s-20.59-4.08-20.61-9.24Z"/><path class="cls-225" d="M171.46,265.16H210.3v-1.61c0,4.87-8.65,8.87-19.38,8.92s-19.43-3.85-19.46-8.73Z"/><path class="cls-226" d="M172.6,265.16h36.56v-1.6c0,4.58-8.14,8.34-18.24,8.39s-18.29-3.63-18.32-8.21Z"/><path class="cls-227" d="M173.75,265.16H208v-1.6c0,4.3-7.64,7.82-17.1,7.87s-17.15-3.4-17.17-7.7Z"/><path class="cls-228" d="M174.89,265.16h32v-1.59c0,4-7.12,7.3-16,7.34s-16-3.17-16-7.18Z"/><path class="cls-229" d="M176,265.16h29.7v-1.59c0,3.73-6.61,6.78-14.82,6.82s-14.86-2.94-14.88-6.67Z"/><path class="cls-230" d="M177.17,265.16h27.42v-1.58c0,3.44-6.11,6.26-13.68,6.29s-13.72-2.72-13.74-6.16Z"/><path class="cls-231" d="M178.32,265.16h25.13v-1.58c0,3.16-5.6,5.74-12.54,5.78s-12.58-2.5-12.59-5.65Z"/><path class="cls-232" d="M179.46,265.16H202.3v-1.57c0,2.87-5.09,5.22-11.39,5.25s-11.44-2.27-11.45-5.14Z"/><path class="cls-233" d="M180.6,265.16h20.56V263.6c0,2.58-4.58,4.69-10.26,4.72s-10.29-2-10.3-4.62Z"/><path class="cls-234" d="M181.74,265.16H200V263.6c0,2.29-4.07,4.17-9.12,4.2s-9.15-1.81-9.16-4.11Z"/><path class="cls-235" d="M182.88,265.16h16v-1.55c0,2-3.57,3.65-8,3.67s-8-1.59-8-3.59Z"/><path class="cls-236" d="M184,265.16h13.7v-1.55c0,1.72-3,3.13-6.83,3.15S184,265.4,184,263.68Z"/><path class="cls-237" d="M185.17,265.16h11.42v-1.54c0,1.43-2.54,2.61-5.7,2.62s-5.71-1.13-5.72-2.56Z"/><path class="cls-238" d="M186.31,265.16h9.14v-1.54c0,1.15-2,2.09-4.56,2.1s-4.57-.9-4.58-2.05Z"/><path class="cls-239" d="M187.45,265.16h6.86v-1.53c0,.86-1.53,1.56-3.42,1.57s-3.43-.68-3.44-1.54Z"/></g></g><polygon class="cls-240" points="51.01 270.07 51.01 236.67 51.01 226.93 81.48 205.09 121.37 193.65 178.15 184.5 232.57 183.37 283.6 187.18 332.95 196.63 374.39 211.25 389.39 225.49 392.23 236.21 391.34 270.07 288.67 248.37 172.4 242.4 87.23 252.85 51.01 270.07"/><path class="cls-241" d="M221.18,320.89C120.89,320.89,51,294.11,51,270.08s69.88-50.82,170.17-50.82S391.34,246,391.34,270.08,321.46,320.89,221.18,320.89Z"/><polygon class="cls-242" points="202.26 271.69 240.43 245.9 168.82 272.6 110.88 308.13 187.26 281.83 223.65 272.02 215.19 268.8 202.26 271.69"/><path class="cls-243" d="M215.19,248.55v21.53c0,1.27,2.47,2.3,5.51,2.3s5.51-1,5.51-2.3V248.55Z"/><polygon class="cls-244" points="211.24 242.84 282.85 216.15 229.68 252.07 211.24 242.84"/><polygon class="cls-245" points="211.24 242.84 132.5 291.14 229.68 252.07 211.24 242.84"/><path class="cls-246" d="M229.68,252.07c5-2.62,4.79-6.75-.36-9.23s-13-2.41-18.08,0-5.45,6.61-.43,9.23S224.51,254.77,229.68,252.07Z"/><polygon class="cls-247" points="211.24 238.31 282.85 211.61 229.68 247.54 211.24 238.31"/><polygon class="cls-248" points="211.24 238.31 132.5 286.6 229.68 247.54 211.24 238.31"/><path class="cls-249" d="M229.68,247.54c5-2.63,4.79-6.76-.36-9.23s-13-2.42-18.08,0-5.45,6.6-.43,9.23S224.51,250.23,229.68,247.54Z"/><polygon class="cls-250" points="282.85 211.61 282.85 216.15 229.68 252.07 229.68 247.54 282.85 211.61"/><polygon class="cls-251" points="229.68 247.54 229.68 252.07 132.5 291.14 132.5 286.6 229.68 247.54"/><path class="cls-252" d="M391.34,236.67c0,24-69.88,50.81-170.16,50.81S51,260.7,51,236.67H48.29v29.4c0,30.27,77.4,54.82,172.89,54.82s172.88-24.55,172.88-54.82v-29.4Z"/><path class="cls-253" d="M221.18,181.85c-95.49,0-172.89,24.54-172.89,54.82s77.4,54.82,172.89,54.82,172.88-24.55,172.88-54.82S316.66,181.85,221.18,181.85Zm0,105.63C120.89,287.48,51,260.7,51,236.67s69.88-50.81,170.17-50.81,170.16,26.78,170.16,50.81S321.46,287.48,221.18,287.48Z"/><g class="cls-254"><path class="cls-255" d="M41.93,311.85l-2,.8S23.85,317.37,18.8,320A2.45,2.45,0,0,0,20.35,323c2.15,1,10.31-.41,10.31-.41s2.75-1.25,5.59-2.23c3.52-1.21,7.3-2.22,7.68-2.47.68-.46-.39-.67-.39-.67s7.45-2.52,7.84-2.88-4.37-.41-4.37-.41l1.55-1.29,4.22-1h0c6.31-1.47,20.61-7.27,39.41-13.86,22.87-8,39.55-15.75,39.55-15.75l-1.9-.72,89.41-36.44c1.39.41,7.93-3.17,7.93-3.17l-7.28,2.19c-.38-.37-.72-.69-.91-.86l.14-.05-.25,0,0,0-2.11-.51-.14,0h-.07l-93.34,37.15-4.21-.9a99.65,99.65,0,0,1-19.82,8.67c-11.12,3.43-41.63,15-54.53,23.5l5.09,1.08h0l-5.09-1.08Zm112.89-42.54L215,244.63C215.44,244.79,154.82,269.31,154.82,269.31Z"/><path class="cls-256" d="M222.6,121.26a14.49,14.49,0,0,0,0,3.51c.31,2,1.13,3.88,1,4.22-.31.62-1.37.61-1.37.61s.74,4.21.41,4.66-3.58-.52-3.58-.52l-1.1,1.66-5.62-.69v-1.25l4.17-10.06Z"/><polygon class="cls-247" points="212.3 136.39 212.3 134.71 217.92 135.4 219.02 137.36 217.46 136.39 212.3 136.39"/><path class="cls-257" d="M210.58,121.26c-1.07,3.83,1.72,12.2,1.72,12.2l.74.13a3.47,3.47,0,0,0,4-3.42h0s-1.34-1.87-.8-2.77.58-1.24,1.36-.89,1.38,2.23,1.38,2.23l1-.44s-.36-3.39,0-4a36.56,36.56,0,0,1,2.58-3s-3.09-3.21-6.13-2.67A16.07,16.07,0,0,0,210.58,121.26Z"/><path class="cls-252" d="M227.17,241.64a43,43,0,0,0-5.94.33c1-.42,1.63-.74,1.33-.82a19.44,19.44,0,0,0-3.3.1l.32-56.78,3-.14a107,107,0,0,0-.53-24.11c-.81-6-1.12-11.45-1.53-15.63l-.56-4.32c-.46-2.45-1.14-3.88-2.35-3.88h-5.3a36.61,36.61,0,0,0-2.5,7.09l-7.67,17.44,7.51,18.31A15.57,15.57,0,0,1,208,184.8h4.27v59.5h.08v.08l2.24-.06.07,0H215v-.09l2-.68,0,1.34,2.24-.06S228.17,241.89,227.17,241.64Zm-21.39-80.07,2.29-4.83a74.25,74.25,0,0,0,.51,11.84ZM215,241.62l1.24-38.51.67,38.34Z"/><polygon class="cls-258" points="222.95 126.39 267.46 120.23 266.71 112.3 222.6 124.77 222.95 126.39"/><polygon class="cls-252" points="214.94 143.46 232.02 153.88 246.44 122.9 240.86 121.55 230.35 147.14 216.04 137.38 214.94 143.46"/></g></g></g></svg>