<svg xmlns="http://www.w3.org/2000/svg" xmlns:xlink="http://www.w3.org/1999/xlink" viewBox="0 0 432 432"><defs><style>.cls-1{isolation:isolate;}.cls-2{opacity:0.46;fill:url(#linear-gradient);}.cls-2,.cls-9{mix-blend-mode:multiply;}.cls-3{fill:url(#New_Gradient_Swatch_3);}.cls-4{fill:url(#linear-gradient-2);}.cls-5{fill:#687f37;}.cls-6{fill:url(#linear-gradient-3);}.cls-7{fill:url(#linear-gradient-4);}.cls-8{fill:url(#linear-gradient-5);}.cls-9{fill:url(#linear-gradient-6);}.cls-10{fill:url(#New_Gradient_Swatch_3-2);}.cls-11{fill:url(#linear-gradient-7);}.cls-12{fill:#8dac3d;}.cls-13{fill:url(#linear-gradient-8);}.cls-14{fill:url(#linear-gradient-9);}.cls-15{fill:url(#linear-gradient-10);}</style><linearGradient id="linear-gradient" x1="175.09" y1="24.88" x2="409.2" y2="438.09" gradientUnits="userSpaceOnUse"><stop offset="0" stop-color="#1d1d1b"/><stop offset="0.16" stop-color="#535352"/><stop offset="0.36" stop-color="#90908f"/><stop offset="0.54" stop-color="#c0c0bf"/><stop offset="0.69" stop-color="#e2e2e2"/><stop offset="0.82" stop-color="#f7f7f7"/><stop offset="0.91" stop-color="#fff"/></linearGradient><linearGradient id="New_Gradient_Swatch_3" x1="253.81" y1="95.72" x2="270.76" y2="95.72" gradientUnits="userSpaceOnUse"><stop offset="0" stop-color="#d08859"/><stop offset="1" stop-color="#f2bd88"/></linearGradient><linearGradient id="linear-gradient-2" x1="361.3" y1="-18.56" x2="361.3" y2="368.25" gradientTransform="translate(-99.47)" gradientUnits="userSpaceOnUse"><stop offset="0.13" stop-color="#2b3747"/><stop offset="0.51" stop-color="#2d3948"/><stop offset="0.72" stop-color="#35414b"/><stop offset="0.89" stop-color="#424f51"/><stop offset="1" stop-color="#505d57"/></linearGradient><linearGradient id="linear-gradient-3" x1="344.91" y1="75.47" x2="386.39" y2="123.9" gradientTransform="translate(-99.47)" gradientUnits="userSpaceOnUse"><stop offset="0.14" stop-color="#39485d"/><stop offset="0.41" stop-color="#3b4a5f"/><stop offset="0.55" stop-color="#435265"/><stop offset="0.67" stop-color="#4f606f"/><stop offset="0.77" stop-color="#61747d"/><stop offset="0.87" stop-color="#798d8f"/><stop offset="0.95" stop-color="#95aba5"/><stop offset="1" stop-color="#a9c1b5"/></linearGradient><linearGradient id="linear-gradient-4" x1="185.26" y1="149.34" x2="360.45" y2="149.34" gradientUnits="userSpaceOnUse"><stop offset="0" stop-color="#8dac3d"/><stop offset="0.11" stop-color="#7aa74c"/><stop offset="0.33" stop-color="#489a72"/><stop offset="0.62" stop-color="#0187aa"/><stop offset="0.84" stop-color="#026077"/></linearGradient><linearGradient id="linear-gradient-5" x1="258.35" y1="116.12" x2="258.35" y2="225.56" gradientTransform="matrix(1, 0, 0, 1, 0, 0)" xlink:href="#linear-gradient-2"/><linearGradient id="linear-gradient-6" x1="148.63" y1="291.04" x2="148.63" y2="291.1" gradientUnits="userSpaceOnUse"><stop offset="0" stop-color="#1d1d1b"/><stop offset="0.13" stop-color="#343432"/><stop offset="0.41" stop-color="#6f6f6e"/><stop offset="0.8" stop-color="#cdcdcc"/><stop offset="1" stop-color="#fff"/></linearGradient><linearGradient id="New_Gradient_Swatch_3-2" x1="150.81" y1="119.91" x2="167.77" y2="119.91" xlink:href="#New_Gradient_Swatch_3"/><linearGradient id="linear-gradient-7" x1="466.95" y1="5.63" x2="466.95" y2="392.44" gradientTransform="matrix(-1, 0, 0, 1, 626.69, 0)" xlink:href="#linear-gradient-2"/><linearGradient id="linear-gradient-8" x1="450.57" y1="99.66" x2="492.04" y2="148.09" gradientTransform="matrix(-1, 0, 0, 1, 626.69, 0)" xlink:href="#linear-gradient-3"/><linearGradient id="linear-gradient-9" x1="65.27" y1="181.23" x2="241.22" y2="181.23" gradientUnits="userSpaceOnUse"><stop offset="0" stop-color="#8dac3d"/><stop offset="0.11" stop-color="#7aa74c"/><stop offset="0.33" stop-color="#489a72"/><stop offset="0.61" stop-color="#0187aa"/><stop offset="0.84" stop-color="#026077"/></linearGradient><linearGradient id="linear-gradient-10" x1="364" y1="146.98" x2="364" y2="256.42" gradientTransform="matrix(-1, 0, 0, 1, 527.23, 0)" xlink:href="#linear-gradient-2"/></defs><g class="cls-1"><g id="Layer_1" data-name="Layer 1"><path class="cls-2" d="M453.3,341.13l3.1,1.11,2.32.83s11.62,6.49,20.21,8.65a90.55,90.55,0,0,0,13.17-.27c5.23-.7,3.6-3.89,3.6-3.89s-3.83-1.15-6.5-2.31c-3.29-1.44-5.61-2.95-6.48-3.12a7.87,7.87,0,0,0-3,.07s-6.77-3-8.07-3.22-4,1.58-4,1.58l-4.61-.71-2.1-1.68h0c-2.89-2.45-19.43-8.23-37.16-15.72l21-2.25,24.81,11.93L513,303.08,386.67,292.26l24.81,11.94-29.22,3.14c-3.45-1.09-5.52-1.69-5.52-1.69l-4.05.63L268.63,270.12c2.46-.47,7.16-3.7,7.48-3.88s-7.81,2.18-10,2.26c4-.73,2.48-1.65,3-1.92.93-.5-6.49.62-6.49.62l-3.23.73,2.45.89-4.08.25-.17-.05-.35.09h-.15l-3.24.74.16,0-.11,0,108,38.65-6,1.47.34.07-74.8,8,27.21,13.1-23.24,3.6-.17-.1-7.42.17L166.23,292.86h-.13l-.16-.06-3.79-1-.08,0h-.44l.15.06c-.45.11-2.25-1.29-3.21-1L157,292.64l-1.78-1.55s-8.29-.57-10-.7c1.31.15,12,5.08,14.57,4.93l106,40.13-3.66.34s1.59.72,4.52,2L245.58,341,209.1,329.62l-.46,28.56,122.29,9.55-36.48-11.42L309.63,354c22.2,7.55,38.37,13.86,46.6,15.82h0l5.57,1.36,1.17,1.23s-7.46-.57-7.19-.23,9.4,3.32,9.4,3.32-1.87,0-1.25.49c.34.25,5.24,1.55,9.52,3,3.48,1.16,6.54,2.51,6.54,2.51s11.35,2.17,15.63,1.67,5.26-2.15,5.26-2.15c-5.27-2.79-25.71-8.66-25.71-8.66l-2.34-.9-3.12-1.2h0c-7.78-5.62-33.47-13.29-49.12-19.06l67.82-9.38L351.46,330.2l47.06-5.05C413,330.61,434,337.37,453.3,341.13ZM260.67,270.62c.94-.17,2,.05,3.08-.14l71.47,25.24Zm-97.19,24.47,3-.21,72.12,27.75Z"/></g><g id="Layer_2" data-name="Layer 2"><path class="cls-3" d="M269.29,85.1a21.58,21.58,0,0,0,0,5.28c.47,3,1.69,5.82,1.44,6.34-.47.93-2.07.91-2.07.91s1.12,6.33.63,7-5.38-.79-5.38-.79l-1.66,2.49-8.44-1v-1.89l6.26-15.11Z"/><path class="cls-4" d="M276.15,265.94c-.79-.2-5.08.13-8.93.49,1.52-.63,2.45-1.12,2-1.23a29.74,29.74,0,0,0-5,.15l.48-83.93,3.7-.5a144.9,144.9,0,0,0,0-37.29c-2.71-19.88-1.71-35.8-6.68-35.8h-8c-8.45,17.41-7,45.25-4.47,54.2s-2,19.89-2,19.89h6.42v88h.12v.13l3.37-.09.1,0h.39v-.12l3-1,0,2,3.36-.09S277.65,266.31,276.15,265.94Zm-16.37-57.88,1,57.58-2.86.27Z"/><polygon class="cls-5" points="253.81 107.85 253.81 105.33 262.25 106.35 263.91 109.3 261.56 107.84 253.81 107.85"/><path class="cls-6" d="M251.22,85.1c-1.6,5.76,2.59,18.33,2.59,18.33l7.18,1.21V98.48s-2-2.81-1.2-4.14.88-1.88,2-1.34,2.08,3.34,2.08,3.34l1.5-.67s-.54-5.08,0-6a58.55,58.55,0,0,1,3.88-4.55s-4.65-4.81-9.22-4A24.19,24.19,0,0,0,251.22,85.1Z"/><polygon class="cls-7" points="360.45 185.41 309.27 119.9 299.94 142.98 197.75 101.7 185.26 132.62 287.45 173.9 278.13 196.99 360.45 185.41"/><path class="cls-8" d="M254.84,108.56l3,69s4.65-1.77,3.84-1.77.49-66.75.09-67.25S254.84,108.56,254.84,108.56Z"/><path class="cls-9" d="M148.78,291.1h0C148.35,291.07,148.42,291.07,148.78,291.1Z"/><path class="cls-10" d="M152.29,109.29a21.58,21.58,0,0,1,0,5.28c-.47,3-1.7,5.82-1.44,6.34.46.93,2.06.91,2.06.91s-1.12,6.33-.62,7,5.38-.79,5.38-.79l1.66,2.49,8.44-1v-1.89l-6.26-15.11Z"/><path class="cls-11" d="M157.34,294.89l3.37.09,0-2,3,1v.13h.38l.11,0,3.37.09v-.13h.12v-88h6.41s-4.43-10.94-1.94-19.89,4-36.79-4.47-54.2h-8c-5,0-4,15.92-6.68,35.8a144.9,144.9,0,0,0,0,37.29l3.7.5.48,83.93a29.74,29.74,0,0,0-4.95-.15c-.46.11.48.6,2,1.23-3.85-.36-8.14-.69-8.94-.49C143.93,290.5,157.34,294.89,157.34,294.89Zm6.32-4.79-2.86-.27,1-57.58Z"/><polygon class="cls-12" points="167.77 132.03 167.77 129.51 159.33 130.53 157.67 133.48 160.01 132.02 167.77 132.03"/><path class="cls-13" d="M170.35,109.29c1.61,5.76-2.58,18.33-2.58,18.33l-7.18,1.21v-6.16s2-2.81,1.2-4.14-.88-1.88-2-1.34-2.08,3.34-2.08,3.34l-1.5-.67s.54-5.08,0-6a58.55,58.55,0,0,0-3.88-4.55s4.65-4.81,9.22-4A24.2,24.2,0,0,1,170.35,109.29Z"/><polygon class="cls-14" points="65.27 146.97 147.41 134.18 138.43 157.4 241.22 197.17 229.18 228.28 126.39 188.5 117.41 211.72 65.27 146.97"/><path class="cls-15" d="M166.74,139.42l-3,69s-4.65-1.77-3.84-1.77-.49-66.75-.09-67.25S166.74,139.42,166.74,139.42Z"/></g></g></svg>