<svg xmlns="http://www.w3.org/2000/svg" xmlns:xlink="http://www.w3.org/1999/xlink" viewBox="0 0 648 648"><defs><style>.cls-1{fill:none;}.cls-2{isolation:isolate;}.cls-3{opacity:0.5;}.cls-3,.cls-95{mix-blend-mode:multiply;}.cls-101,.cls-4,.cls-98{fill:#fff;}.cls-4{opacity:0;}.cls-5{fill:#fdfdfd;opacity:0.01;}.cls-6{fill:#fbfbfb;opacity:0.02;}.cls-7{fill:#f9f9f9;opacity:0.04;}.cls-8{fill:#f7f7f7;opacity:0.05;}.cls-9{fill:#f5f5f5;opacity:0.06;}.cls-10{fill:#f3f3f3;opacity:0.07;}.cls-11{fill:#f1f1f1;opacity:0.09;}.cls-12{fill:#efefef;opacity:0.1;}.cls-13{fill:#eceded;opacity:0.11;}.cls-14{fill:#eaebeb;opacity:0.12;}.cls-15{fill:#e8e8e9;opacity:0.14;}.cls-16{fill:#e6e6e7;opacity:0.15;}.cls-17{fill:#e4e4e5;opacity:0.16;}.cls-18{fill:#e2e2e3;opacity:0.17;}.cls-19{fill:#e0e0e1;opacity:0.19;}.cls-20{fill:#dededf;opacity:0.2;}.cls-21{fill:#dcdcdd;opacity:0.21;}.cls-22{fill:#dadadb;opacity:0.22;}.cls-23{fill:#d8d8d9;opacity:0.23;}.cls-24{fill:#d6d6d7;opacity:0.25;}.cls-25{fill:#d4d4d4;opacity:0.26;}.cls-26{fill:#d2d2d2;opacity:0.27;}.cls-27{fill:#d0d0d0;opacity:0.28;}.cls-28{fill:#cecece;opacity:0.3;}.cls-29{fill:#cbcccc;opacity:0.31;}.cls-30{fill:#c9caca;opacity:0.32;}.cls-31{fill:#c7c8c8;opacity:0.33;}.cls-32{fill:#c5c6c6;opacity:0.35;}.cls-33{fill:#c3c4c4;opacity:0.36;}.cls-34{fill:#c1c2c2;opacity:0.37;}.cls-35{fill:#bfbfc0;opacity:0.38;}.cls-36{fill:#bdbdbe;opacity:0.4;}.cls-37{fill:#bbbbbc;opacity:0.41;}.cls-38{fill:#b9b9ba;opacity:0.42;}.cls-39{fill:#b7b7b8;opacity:0.43;}.cls-40{fill:#b5b5b6;opacity:0.44;}.cls-41{fill:#b3b3b4;opacity:0.46;}.cls-42{fill:#b1b1b2;opacity:0.47;}.cls-43{fill:#afafb0;opacity:0.48;}.cls-44{fill:#adadae;opacity:0.49;}.cls-45{fill:#aaabac;opacity:0.51;}.cls-46{fill:#a8a9aa;opacity:0.52;}.cls-47{fill:#a6a7a8;opacity:0.53;}.cls-48{fill:#a4a5a6;opacity:0.54;}.cls-49{fill:#a2a3a4;opacity:0.56;}.cls-50{fill:#a0a1a2;opacity:0.57;}.cls-51{fill:#9e9fa0;opacity:0.58;}.cls-52{fill:#9c9d9e;opacity:0.59;}.cls-53{fill:#9a9b9c;opacity:0.6;}.cls-54{fill:#98999a;opacity:0.62;}.cls-55{fill:#969698;opacity:0.63;}.cls-56{fill:#949496;opacity:0.64;}.cls-57{fill:#929294;opacity:0.65;}.cls-58{fill:#909092;opacity:0.67;}.cls-59{fill:#8e8e90;opacity:0.68;}.cls-60{fill:#8c8c8e;opacity:0.69;}.cls-61{fill:#898a8c;opacity:0.7;}.cls-62{fill:#87888a;opacity:0.72;}.cls-63{fill:#858688;opacity:0.73;}.cls-64{fill:#838486;opacity:0.74;}.cls-65{fill:#818283;opacity:0.75;}.cls-66{fill:#7f8081;opacity:0.77;}.cls-67{fill:#7d7e7f;opacity:0.78;}.cls-68{fill:#7b7c7d;opacity:0.79;}.cls-69{fill:#797a7b;opacity:0.8;}.cls-70{fill:#777879;opacity:0.81;}.cls-71{fill:#757677;opacity:0.83;}.cls-72{fill:#737475;opacity:0.84;}.cls-73{fill:#717273;opacity:0.85;}.cls-74{fill:#6f7071;opacity:0.86;}.cls-75{fill:#6d6d6f;opacity:0.88;}.cls-76{fill:#6b6b6d;opacity:0.89;}.cls-77{fill:#68696b;opacity:0.9;}.cls-78{fill:#666769;opacity:0.91;}.cls-79{fill:#646567;opacity:0.93;}.cls-80{fill:#626365;opacity:0.94;}.cls-81{fill:#606163;opacity:0.95;}.cls-82{fill:#5e5f61;opacity:0.96;}.cls-83{fill:#5c5d5f;opacity:0.98;}.cls-84{fill:#5a5b5d;opacity:0.99;}.cls-85{fill:#58595b;}.cls-86,.cls-93{fill:#63a8b2;}.cls-86{opacity:0.39;}.cls-87{fill:url(#New_Gradient_Swatch_2);}.cls-88{fill:#231f20;}.cls-89{fill:url(#linear-gradient);}.cls-90{fill:#006984;}.cls-91{fill:#153f49;}.cls-92{fill:url(#linear-gradient-2);}.cls-100,.cls-93{opacity:0.12;}.cls-94{clip-path:url(#clip-path);}.cls-95{opacity:0.42;fill:url(#linear-gradient-3);}.cls-96{fill:url(#linear-gradient-4);}.cls-97{fill:url(#linear-gradient-5);}.cls-99{fill:url(#linear-gradient-6);}.cls-100{fill:#b1c1be;}.cls-101{opacity:0.1;}</style><linearGradient id="New_Gradient_Swatch_2" x1="177.76" y1="423.62" x2="222.12" y2="423.62" gradientTransform="translate(358.09 -17.31) rotate(45)" gradientUnits="userSpaceOnUse"><stop offset="0" stop-color="#35495e"/><stop offset="1" stop-color="#22313f"/></linearGradient><linearGradient id="linear-gradient" x1="42.15" y1="497.25" x2="210.46" y2="497.25" gradientTransform="translate(388.6 56.33) rotate(45)" gradientUnits="userSpaceOnUse"><stop offset="0.13" stop-color="#026077"/><stop offset="0.37" stop-color="#4b8e6a"/><stop offset="0.59" stop-color="#88b560"/><stop offset="0.7" stop-color="#a0c45c"/></linearGradient><linearGradient id="linear-gradient-2" x1="183.75" y1="195.7" x2="473.69" y2="383.99" gradientUnits="userSpaceOnUse"><stop offset="0.15" stop-color="#a5c75b"/><stop offset="0.2" stop-color="#86b360"/><stop offset="0.31" stop-color="#4d906a"/><stop offset="0.4" stop-color="#247671"/><stop offset="0.48" stop-color="#0b6675"/><stop offset="0.52" stop-color="#026077"/><stop offset="0.61" stop-color="#085568"/><stop offset="0.79" stop-color="#173841"/><stop offset="0.92" stop-color="#231f20"/></linearGradient><clipPath id="clip-path"><path class="cls-1" d="M331.34,439.5A149.49,149.49,0,1,1,483.19,292.41,149.48,149.48,0,0,1,331.34,439.5Z"/></clipPath><linearGradient id="linear-gradient-3" x1="-30.15" y1="306.87" x2="-312.32" y2="470.94" gradientTransform="matrix(-1.06, -0.23, -0.19, 0.9, 310.13, 44.88)" gradientUnits="userSpaceOnUse"><stop offset="0" stop-color="#231f20"/><stop offset="1" stop-color="#fff"/></linearGradient><linearGradient id="linear-gradient-4" x1="320.86" y1="211.97" x2="335.99" y2="211.97" gradientUnits="userSpaceOnUse"><stop offset="0" stop-color="#d08859"/><stop offset="0.1" stop-color="#d59161"/><stop offset="0.44" stop-color="#e5a976"/><stop offset="0.75" stop-color="#efb883"/><stop offset="1" stop-color="#f2bd88"/></linearGradient><linearGradient id="linear-gradient-5" x1="427.48" y1="110" x2="427.48" y2="455.14" gradientTransform="translate(-99.47)" gradientUnits="userSpaceOnUse"><stop offset="0.14" stop-color="#35495e"/><stop offset="0.41" stop-color="#374b60"/><stop offset="0.56" stop-color="#3e5365"/><stop offset="0.68" stop-color="#4a616f"/><stop offset="0.79" stop-color="#5c757c"/><stop offset="0.88" stop-color="#728e8e"/><stop offset="0.97" stop-color="#8daca3"/><stop offset="1" stop-color="#99baad"/></linearGradient><linearGradient id="linear-gradient-6" x1="412.86" y1="193.9" x2="449.87" y2="237.12" xlink:href="#linear-gradient-5"/></defs><g class="cls-2"><g id="Layer_1" data-name="Layer 1"><g class="cls-3"><path class="cls-4" d="M526.89,483a149.49,149.49,0,1,1,0-211.42A149.49,149.49,0,0,1,526.89,483Zm16.49-227.91A172.82,172.82,0,0,0,293,493.18l-11.73,11.73-11.45-11.45L263,500.29l3.66,3.66-137,137,27.87,27.88,137-137,3.67,3.67,6.83-6.83-11.46-11.45,11.74-11.74A172.81,172.81,0,0,0,543.38,255.08Z"/><path class="cls-5" d="M525.81,481.91a149.49,149.49,0,1,1,0-211.42A149.49,149.49,0,0,1,525.81,481.91ZM542.3,254A172.82,172.82,0,0,0,291.91,492.1l-11.73,11.73-11.45-11.45-6.83,6.83,3.66,3.66-137,137,27.87,27.87,137-137,3.67,3.67,6.83-6.83-11.46-11.45,11.74-11.74A172.81,172.81,0,0,0,542.3,254Z"/><path class="cls-6" d="M524.73,480.83a149.49,149.49,0,1,1,0-211.42A149.49,149.49,0,0,1,524.73,480.83Zm16.49-227.91A172.82,172.82,0,0,0,290.83,491L279.1,502.75,267.65,491.3l-6.83,6.83,3.66,3.66-137,137,27.87,27.87,137-137,3.67,3.67,6.83-6.83L291.4,515.05l11.73-11.74A172.81,172.81,0,0,0,541.22,252.92Z"/><path class="cls-7" d="M523.65,479.75a149.49,149.49,0,1,1,0-211.42A149.49,149.49,0,0,1,523.65,479.75Zm16.49-227.91a172.82,172.82,0,0,0-250.39,238.1L278,501.67l-11.45-11.45-6.83,6.83,3.66,3.66-137,137,27.87,27.87,137-137,3.67,3.67,6.83-6.83L290.32,514l11.73-11.74A172.81,172.81,0,0,0,540.14,251.84Z"/><path class="cls-8" d="M522.57,478.67a149.49,149.49,0,1,1,0-211.41A149.49,149.49,0,0,1,522.57,478.67Zm16.49-227.91a172.82,172.82,0,0,0-250.39,238.1l-11.73,11.73-11.45-11.45L258.66,496l3.66,3.66-137,137,27.87,27.87,137-137,3.67,3.67,6.83-6.83-11.45-11.45L301,501.15A172.81,172.81,0,0,0,539.06,250.76Z"/><path class="cls-9" d="M521.49,477.59a149.49,149.49,0,1,1,0-211.41A149.49,149.49,0,0,1,521.49,477.59ZM538,249.68a172.82,172.82,0,0,0-250.39,238.1l-11.73,11.73-11.45-11.45-6.83,6.83,3.66,3.66-137,137,27.87,27.87,137-137,3.67,3.67,6.83-6.83-11.45-11.45,11.73-11.74A172.81,172.81,0,0,0,538,249.68Z"/><path class="cls-10" d="M520.41,476.51a149.49,149.49,0,1,1,0-211.41A149.49,149.49,0,0,1,520.41,476.51Zm16.5-227.91a172.82,172.82,0,0,0-250.4,238.1l-11.73,11.73L263.33,487l-6.83,6.83,3.66,3.66-137,137L151,662.37l137-137L291.7,529l6.83-6.83-11.45-11.45L298.81,499a172.82,172.82,0,0,0,238.1-250.4Z"/><path class="cls-11" d="M519.33,475.43a149.49,149.49,0,1,1,0-211.41A149.49,149.49,0,0,1,519.33,475.43Zm16.5-227.91a172.82,172.82,0,0,0-250.4,238.1L273.7,497.35,262.25,485.9l-6.83,6.83,3.66,3.66-137,137,27.87,27.87,137-137,3.67,3.66,6.83-6.83L286,509.65l11.73-11.73a172.82,172.82,0,0,0,238.1-250.4Z"/><path class="cls-12" d="M518.25,474.35a149.49,149.49,0,1,1,0-211.41A149.49,149.49,0,0,1,518.25,474.35Zm16.5-227.91a172.82,172.82,0,0,0-250.4,238.1l-11.73,11.73-11.45-11.45-6.83,6.83,3.66,3.66-137,137,27.87,27.87,137-137,3.67,3.66,6.83-6.83-11.45-11.45,11.73-11.73a172.82,172.82,0,0,0,238.1-250.4Z"/><path class="cls-13" d="M517.17,473.27a149.49,149.49,0,1,1,0-211.41A149.49,149.49,0,0,1,517.17,473.27Zm16.5-227.91a172.82,172.82,0,0,0-250.4,238.1l-11.73,11.73-11.45-11.45-6.83,6.83,3.66,3.66-137,137,27.87,27.87,137-137,3.67,3.66,6.83-6.83-11.45-11.45,11.73-11.73a172.82,172.82,0,0,0,238.1-250.4Z"/><path class="cls-14" d="M516.09,472.19a149.49,149.49,0,1,1,0-211.41A149.49,149.49,0,0,1,516.09,472.19Zm16.5-227.91a172.82,172.82,0,0,0-250.4,238.1l-11.73,11.73L259,482.66l-6.83,6.83,3.66,3.66-137,137,27.87,27.87,137-137,3.66,3.66,6.83-6.83-11.45-11.45,11.73-11.73a172.82,172.82,0,0,0,238.1-250.4Z"/><path class="cls-15" d="M515,471.11a149.49,149.49,0,1,1,0-211.41A149.49,149.49,0,0,1,515,471.11Zm16.5-227.91a172.82,172.82,0,0,0-250.4,238.1L269.38,493l-11.45-11.45-6.83,6.83,3.66,3.66-137,137L145.61,657l137-137,3.66,3.66,6.83-6.83-11.45-11.45,11.73-11.73a172.82,172.82,0,0,0,238.1-250.4Z"/><path class="cls-16" d="M513.93,470a149.49,149.49,0,1,1,0-211.41A149.49,149.49,0,0,1,513.93,470Zm16.5-227.91A172.82,172.82,0,0,0,280,480.22L268.3,492,256.85,480.5,250,487.33l3.66,3.66-137,137,27.87,27.87,137-137,3.66,3.66,6.83-6.83L280.6,504.25l11.73-11.73a172.82,172.82,0,0,0,238.1-250.4Z"/><path class="cls-17" d="M512.85,469a149.49,149.49,0,1,1,0-211.41A149.49,149.49,0,0,1,512.85,469ZM529.35,241A172.82,172.82,0,0,0,279,479.14l-11.73,11.73-11.45-11.45-6.83,6.83,3.66,3.66-137,137,27.87,27.87,137-137,3.66,3.66,6.83-6.83-11.45-11.45,11.73-11.73A172.82,172.82,0,0,0,529.35,241Z"/><path class="cls-18" d="M511.77,467.87a149.49,149.49,0,1,1,0-211.41A149.49,149.49,0,0,1,511.77,467.87ZM528.27,240a172.82,172.82,0,0,0-250.4,238.1l-11.73,11.73-11.45-11.45-6.83,6.83,3.66,3.66-137,137,27.87,27.87,137-137,3.66,3.66,6.83-6.83-11.45-11.45,11.73-11.73A172.82,172.82,0,0,0,528.27,240Z"/><path class="cls-19" d="M510.69,466.79a149.49,149.49,0,1,1,0-211.41A149.49,149.49,0,0,1,510.69,466.79Zm16.5-227.91A172.82,172.82,0,0,0,276.79,477l-11.73,11.73-11.45-11.45-6.83,6.83,3.66,3.66-137,137,27.87,27.87,137-137,3.66,3.66,6.83-6.83L277.36,501l11.73-11.73a172.82,172.82,0,0,0,238.1-250.4Z"/><path class="cls-20" d="M509.61,465.71a149.49,149.49,0,1,1,0-211.41A149.49,149.49,0,0,1,509.61,465.71Zm16.5-227.91a172.82,172.82,0,0,0-250.4,238.1L264,487.63l-11.45-11.45L245.7,483l3.66,3.66-137,137,27.87,27.87,137-137,3.66,3.66,6.83-6.83-11.45-11.45L288,488.2a172.82,172.82,0,0,0,238.1-250.4Z"/><path class="cls-21" d="M508.53,464.63a149.49,149.49,0,1,1,0-211.41A149.49,149.49,0,0,1,508.53,464.63ZM525,236.72a172.82,172.82,0,0,0-250.4,238.1L262.9,486.55,251.45,475.1l-6.83,6.83,3.66,3.66-137,137,27.87,27.87,137-137,3.66,3.66,6.83-6.83L275.2,498.85l11.73-11.73A172.82,172.82,0,0,0,525,236.72Z"/><path class="cls-22" d="M507.45,463.55a149.49,149.49,0,1,1,0-211.41A149.49,149.49,0,0,1,507.45,463.55ZM524,235.64a172.82,172.82,0,0,0-250.4,238.1l-11.73,11.73L250.37,474l-6.83,6.83,3.66,3.67-137,137,27.87,27.87,137-137,3.66,3.66,6.83-6.83-11.45-11.45L285.85,486A172.82,172.82,0,0,0,524,235.64Z"/><path class="cls-23" d="M506.37,462.47a149.49,149.49,0,1,1,0-211.41A149.49,149.49,0,0,1,506.37,462.47Zm16.5-227.9a172.82,172.82,0,0,0-250.4,238.09l-11.73,11.73-11.45-11.45-6.83,6.83,3.66,3.67-137,137L137,648.33l137-137,3.66,3.66,6.83-6.83L273,496.69,284.77,485a172.82,172.82,0,0,0,238.1-250.39Z"/><path class="cls-24" d="M505.29,461.39a149.49,149.49,0,1,1,0-211.41A149.49,149.49,0,0,1,505.29,461.39Zm16.5-227.9a172.82,172.82,0,0,0-250.4,238.09l-11.73,11.73-11.45-11.45-6.83,6.83,3.67,3.67-137,137,27.87,27.87,137-137,3.66,3.66,6.83-6.83L272,495.61l11.73-11.73a172.82,172.82,0,0,0,238.1-250.39Z"/><path class="cls-25" d="M504.21,460.31a149.49,149.49,0,1,1,0-211.41A149.49,149.49,0,0,1,504.21,460.31Zm16.5-227.9A172.82,172.82,0,0,0,270.31,470.5l-11.73,11.73-11.45-11.45-6.83,6.83,3.67,3.67-137,137,27.87,27.87,137-137,3.66,3.66,6.83-6.83-11.45-11.45,11.73-11.73a172.82,172.82,0,0,0,238.1-250.39Z"/><path class="cls-26" d="M503.13,459.23a149.49,149.49,0,1,1,0-211.41A149.49,149.49,0,0,1,503.13,459.23Zm16.5-227.9a172.82,172.82,0,0,0-250.4,238.09L257.5,481.15,246.05,469.7l-6.83,6.83,3.67,3.67-137,137,27.87,27.87,137-137,3.66,3.66,6.83-6.83L269.8,493.45l11.73-11.73a172.82,172.82,0,0,0,238.1-250.39Z"/><path class="cls-27" d="M502.05,458.15a149.49,149.49,0,1,1,0-211.41A149.49,149.49,0,0,1,502.05,458.15Zm16.5-227.9a172.82,172.82,0,0,0-250.4,238.09l-11.73,11.73L245,468.62l-6.83,6.83,3.67,3.67-137,137L132.65,644l137-137,3.66,3.66,6.83-6.83-11.45-11.45,11.73-11.73a172.82,172.82,0,0,0,238.1-250.39Z"/><path class="cls-28" d="M501,457.07a149.49,149.49,0,1,1,0-211.41A149.5,149.5,0,0,1,501,457.07Zm16.49-227.9a172.82,172.82,0,0,0-250.4,238.09L255.34,479l-11.45-11.46-6.83,6.83,3.67,3.67-137,137,27.87,27.87,137-137,3.66,3.66,6.83-6.83-11.45-11.45,11.73-11.73a172.82,172.82,0,0,0,238.1-250.39Z"/><path class="cls-29" d="M499.9,456a149.49,149.49,0,1,1,0-211.41A149.5,149.5,0,0,1,499.9,456Zm16.49-227.9A172.82,172.82,0,0,0,266,466.18l-11.73,11.74-11.45-11.46L236,473.29l3.67,3.67-137,137,27.87,27.87,137-137,3.66,3.66,6.83-6.83-11.45-11.45,11.73-11.73a172.82,172.82,0,0,0,238.1-250.39Z"/><path class="cls-30" d="M498.82,454.91a149.49,149.49,0,1,1,0-211.41A149.5,149.5,0,0,1,498.82,454.91ZM515.31,227A172.81,172.81,0,0,0,264.92,465.1l-11.74,11.74-11.45-11.46-6.83,6.83,3.67,3.67-137,137,27.87,27.87,137-137,3.66,3.66,6.83-6.83-11.45-11.45,11.73-11.73A172.82,172.82,0,0,0,515.31,227Z"/><path class="cls-31" d="M497.74,453.83a149.49,149.49,0,1,1,0-211.41A149.5,149.5,0,0,1,497.74,453.83Zm16.49-227.9A172.81,172.81,0,0,0,263.84,464L252.1,475.76,240.65,464.3l-6.83,6.83,3.67,3.67-137,137,27.87,27.87,137-137,3.66,3.66,6.83-6.82L264.4,488.05l11.73-11.73a172.82,172.82,0,0,0,238.1-250.39Z"/><path class="cls-32" d="M496.66,452.75a149.49,149.49,0,1,1,0-211.41A149.5,149.5,0,0,1,496.66,452.75Zm16.49-227.9A172.81,172.81,0,0,0,262.76,462.94L251,474.68l-11.45-11.46-6.83,6.83,3.67,3.67-137,137,27.87,27.87,137-137,3.66,3.66,6.83-6.82L263.32,487l11.73-11.73a172.82,172.82,0,0,0,238.1-250.39Z"/><path class="cls-33" d="M495.58,451.67a149.49,149.49,0,1,1,0-211.41A149.5,149.5,0,0,1,495.58,451.67Zm16.49-227.9A172.81,172.81,0,0,0,261.68,461.86L249.94,473.6l-11.45-11.46L231.66,469l3.67,3.67-137,137,27.87,27.87,137-137,3.66,3.66,6.83-6.82-11.45-11.46L274,474.16a172.82,172.82,0,0,0,238.1-250.39Z"/><path class="cls-34" d="M494.5,450.59a149.49,149.49,0,1,1,0-211.41A149.5,149.5,0,0,1,494.5,450.59ZM511,222.69A172.81,172.81,0,0,0,260.6,460.78l-11.74,11.74-11.45-11.46-6.83,6.83,3.67,3.67-137,137,27.88,27.87,137-137,3.66,3.67,6.83-6.83-11.45-11.46,11.73-11.73A172.82,172.82,0,0,0,511,222.69Z"/><path class="cls-35" d="M493.42,449.51a149.49,149.49,0,1,1,0-211.41A149.5,149.5,0,0,1,493.42,449.51Zm16.49-227.9A172.81,172.81,0,0,0,259.52,459.7l-11.74,11.74L236.33,460l-6.83,6.83,3.67,3.67-137,137L124,635.37l137-137L264.7,502l6.83-6.83-11.45-11.46L271.81,472a172.82,172.82,0,0,0,238.1-250.39Z"/><path class="cls-36" d="M492.34,448.43a149.49,149.49,0,1,1,0-211.41A149.5,149.5,0,0,1,492.34,448.43Zm16.49-227.9A172.81,172.81,0,0,0,258.44,458.62L246.7,470.36,235.25,458.9l-6.83,6.83,3.67,3.67-137,137,27.88,27.87,137-137,3.66,3.67,6.83-6.83L259,482.65l11.73-11.73a172.82,172.82,0,0,0,238.1-250.39Z"/><path class="cls-37" d="M491.26,447.35a149.49,149.49,0,1,1,0-211.41A149.5,149.5,0,0,1,491.26,447.35Zm16.49-227.9A172.81,172.81,0,0,0,257.36,457.54l-11.74,11.74-11.45-11.46-6.83,6.83,3.67,3.67-137,137,27.88,27.87,137-137,3.66,3.67,6.83-6.83-11.45-11.46,11.73-11.73a172.82,172.82,0,0,0,238.1-250.39Z"/><path class="cls-38" d="M490.18,446.27a149.49,149.49,0,1,1,0-211.41A149.48,149.48,0,0,1,490.18,446.27Zm16.49-227.9A172.81,172.81,0,0,0,256.28,456.46L244.54,468.2l-11.45-11.46-6.83,6.83,3.67,3.67-137,137,27.88,27.87,137-137,3.66,3.67,6.83-6.83-11.45-11.46,11.73-11.73a172.82,172.82,0,0,0,238.1-250.39Z"/><path class="cls-39" d="M489.1,445.19a149.49,149.49,0,1,1,0-211.41A149.48,149.48,0,0,1,489.1,445.19Zm16.49-227.9A172.81,172.81,0,0,0,255.2,455.38l-11.74,11.74L232,455.66l-6.83,6.83,3.67,3.67-137,137,27.88,27.87,137-137,3.67,3.67,6.82-6.83-11.45-11.46,11.73-11.73a172.82,172.82,0,0,0,238.1-250.39Z"/><path class="cls-40" d="M488,444.11a149.49,149.49,0,1,1,0-211.41A149.48,149.48,0,0,1,488,444.11Zm16.49-227.9A172.81,172.81,0,0,0,254.12,454.3L242.38,466l-11.45-11.46-6.83,6.83,3.67,3.67-137,137L118.62,630l137-137,3.67,3.67,6.82-6.83-11.45-11.46,11.73-11.73a172.82,172.82,0,0,0,238.1-250.39Z"/><path class="cls-41" d="M486.94,443a149.49,149.49,0,1,1,0-211.41A149.48,149.48,0,0,1,486.94,443Zm16.49-227.9A172.81,172.81,0,0,0,253,453.22L241.3,465,229.85,453.5,223,460.33l3.67,3.67-137,137,27.88,27.87,137-137,3.67,3.67,6.82-6.83L253.6,477.25l11.73-11.73a172.82,172.82,0,0,0,238.1-250.39Z"/><path class="cls-42" d="M485.86,442a149.49,149.49,0,1,1,0-211.41A149.48,149.48,0,0,1,485.86,442Zm16.49-227.9A172.82,172.82,0,0,0,252,452.15l-11.73,11.73-11.46-11.46-6.83,6.83,3.67,3.67-137,137,27.88,27.87,137-137,3.67,3.67,6.82-6.83-11.45-11.46,11.73-11.73a172.82,172.82,0,0,0,238.1-250.39Z"/><path class="cls-43" d="M484.78,440.87a149.49,149.49,0,1,1,0-211.41A149.48,149.48,0,0,1,484.78,440.87ZM501.27,213a172.82,172.82,0,0,0-250.39,238.1L239.15,462.8l-11.46-11.46-6.83,6.83,3.67,3.67-137,137,27.88,27.87,137-137,3.67,3.67,6.82-6.83-11.45-11.46,11.73-11.73A172.82,172.82,0,0,0,501.27,213Z"/><path class="cls-44" d="M483.7,439.79a149.49,149.49,0,1,1,0-211.41A149.48,149.48,0,0,1,483.7,439.79Zm16.49-227.9A172.82,172.82,0,0,0,249.8,450l-11.73,11.73-11.46-11.46-6.83,6.83,3.67,3.67-137,137,27.87,27.87,137-137L255,492.3l6.83-6.83L250.36,474l11.73-11.73a172.82,172.82,0,0,0,238.1-250.39Z"/><path class="cls-45" d="M482.62,438.71a149.49,149.49,0,1,1,0-211.41A149.48,149.48,0,0,1,482.62,438.71Zm16.49-227.9a172.82,172.82,0,0,0-250.39,238.1L237,460.64l-11.46-11.46L218.7,456l3.67,3.67-137,137,27.87,27.87,137-137,3.67,3.67,6.83-6.83-11.46-11.46L261,461.2a172.82,172.82,0,0,0,238.1-250.39Z"/><path class="cls-46" d="M481.54,437.63a149.49,149.49,0,1,1,0-211.41A149.48,149.48,0,0,1,481.54,437.63ZM498,209.73a172.82,172.82,0,0,0-250.39,238.1l-11.73,11.73-11.46-11.45-6.83,6.82,3.67,3.67-137,137,27.87,27.87,137-137,3.67,3.67,6.83-6.83L248.2,471.85l11.73-11.73A172.82,172.82,0,0,0,498,209.73Z"/><path class="cls-47" d="M480.46,436.56a149.5,149.5,0,1,1,0-211.42A149.5,149.5,0,0,1,480.46,436.56ZM497,208.65a172.82,172.82,0,0,0-250.39,238.1l-11.73,11.73L223.37,447l-6.83,6.82,3.67,3.67-137,137,27.87,27.88,137-137,3.67,3.67,6.83-6.83-11.46-11.46L258.85,459A172.82,172.82,0,0,0,497,208.65Z"/><path class="cls-48" d="M479.38,435.48a149.49,149.49,0,1,1,0-211.42A149.49,149.49,0,0,1,479.38,435.48Zm16.49-227.91a172.82,172.82,0,0,0-250.39,238.1L233.75,457.4,222.29,446l-6.83,6.82,3.67,3.67-137,137L110,621.34l137-137,3.67,3.67,6.83-6.83L246,469.69,257.77,458a172.82,172.82,0,0,0,238.1-250.39Z"/><path class="cls-49" d="M478.3,434.4a149.49,149.49,0,1,1,0-211.42A149.49,149.49,0,0,1,478.3,434.4Zm16.49-227.91A172.82,172.82,0,0,0,244.4,444.59l-11.73,11.73-11.46-11.45-6.83,6.83,3.67,3.66-137,137,27.87,27.88,137-137,3.67,3.67,6.83-6.83L245,468.62l11.73-11.74a172.82,172.82,0,0,0,238.1-250.39Z"/><path class="cls-50" d="M477.22,433.32a149.49,149.49,0,1,1,0-211.42A149.49,149.49,0,0,1,477.22,433.32Zm16.49-227.91a172.82,172.82,0,0,0-250.39,238.1l-11.73,11.73-11.46-11.45-6.83,6.83,3.67,3.66L80,591.3l27.87,27.88,137-137,3.67,3.67,6.83-6.83-11.46-11.45,11.73-11.74a172.82,172.82,0,0,0,238.1-250.39Z"/><path class="cls-51" d="M476.14,432.24a149.49,149.49,0,1,1,0-211.42A149.49,149.49,0,0,1,476.14,432.24Zm16.49-227.91a172.82,172.82,0,0,0-250.39,238.1l-11.73,11.73-11.46-11.45-6.83,6.83,3.67,3.66-137,137,27.87,27.88,137-137,3.67,3.67,6.83-6.83L242.8,466.46l11.73-11.74a172.82,172.82,0,0,0,238.1-250.39Z"/><path class="cls-52" d="M475.06,431.16a149.49,149.49,0,1,1,0-211.42A149.49,149.49,0,0,1,475.06,431.16Zm16.49-227.91a172.82,172.82,0,0,0-250.39,238.1l-11.73,11.73L218,441.63l-6.83,6.83,3.67,3.66-137,137L105.66,617l137-137,3.67,3.67,6.83-6.83-11.46-11.45,11.74-11.74A172.81,172.81,0,0,0,491.55,203.25Z"/><path class="cls-53" d="M474,430.08a149.49,149.49,0,1,1,0-211.42A149.49,149.49,0,0,1,474,430.08Zm16.49-227.91a172.82,172.82,0,0,0-250.39,238.1L228.35,452l-11.46-11.45-6.82,6.83,3.66,3.66-137,137,27.87,27.88,137-137,3.67,3.67,6.83-6.83L240.64,464.3l11.74-11.74A172.81,172.81,0,0,0,490.47,202.17Z"/><path class="cls-54" d="M472.9,429a149.49,149.49,0,1,1,0-211.42A149.49,149.49,0,0,1,472.9,429Zm16.49-227.91A172.82,172.82,0,0,0,239,439.19l-11.73,11.73-11.46-11.45L209,446.3l3.66,3.66-137,137,27.87,27.88,137-137,3.67,3.67,6.83-6.83-11.46-11.45,11.74-11.74A172.81,172.81,0,0,0,489.39,201.09Z"/><path class="cls-55" d="M471.82,427.92a149.49,149.49,0,1,1,0-211.42A149.49,149.49,0,0,1,471.82,427.92ZM488.31,200a172.82,172.82,0,0,0-250.39,238.1l-11.73,11.73-11.46-11.45-6.82,6.83,3.66,3.66-137,137,27.87,27.88,137-137,3.67,3.67,6.83-6.83-11.46-11.45,11.74-11.74A172.81,172.81,0,0,0,488.31,200Z"/><path class="cls-56" d="M470.74,426.84a149.49,149.49,0,1,1,0-211.42A149.49,149.49,0,0,1,470.74,426.84Zm16.49-227.91A172.82,172.82,0,0,0,236.84,437l-11.73,11.73-11.46-11.45-6.82,6.83,3.66,3.66-137,137,27.87,27.88,137-137,3.67,3.67,6.83-6.83L237.4,461.06l11.74-11.74A172.81,172.81,0,0,0,487.23,198.93Z"/><path class="cls-57" d="M469.66,425.76a149.49,149.49,0,1,1,0-211.42A149.49,149.49,0,0,1,469.66,425.76Zm16.49-227.91A172.82,172.82,0,0,0,235.76,436L224,447.68l-11.46-11.45-6.82,6.83,3.66,3.66-137,137,27.87,27.88,137-137,3.67,3.67,6.83-6.83L236.32,460l11.74-11.74A172.81,172.81,0,0,0,486.15,197.85Z"/><path class="cls-58" d="M468.58,424.68a149.49,149.49,0,1,1,0-211.42A149.49,149.49,0,0,1,468.58,424.68Zm16.49-227.91a172.82,172.82,0,0,0-250.39,238.1L223,446.6,211.5,435.15,204.67,442l3.66,3.66-137,137,27.87,27.88,137-137,3.67,3.67,6.83-6.83L235.24,458.9,247,447.16A172.81,172.81,0,0,0,485.07,196.77Z"/><path class="cls-59" d="M467.5,423.6a149.49,149.49,0,1,1,0-211.42A149.49,149.49,0,0,1,467.5,423.6ZM484,195.69A172.82,172.82,0,0,0,233.6,433.79l-11.73,11.73-11.45-11.45-6.83,6.83,3.66,3.66-137,137L98.1,609.46l137-137,3.67,3.67,6.83-6.83-11.46-11.45,11.74-11.74A172.81,172.81,0,0,0,484,195.69Z"/><path class="cls-60" d="M466.42,422.52a149.49,149.49,0,1,1,0-211.42A149.49,149.49,0,0,1,466.42,422.52Zm16.49-227.91a172.82,172.82,0,0,0-250.39,238.1l-11.73,11.73L209.34,433l-6.83,6.83,3.66,3.66-137,137L97,608.38l137-137,3.67,3.67,6.83-6.83-11.46-11.45L244.82,445A172.81,172.81,0,0,0,482.91,194.61Z"/><path class="cls-61" d="M465.34,421.44a149.49,149.49,0,1,1,0-211.42A149.49,149.49,0,0,1,465.34,421.44Zm16.49-227.91a172.82,172.82,0,0,0-250.39,238.1l-11.73,11.73-11.45-11.45-6.83,6.83,3.66,3.66-137,137L95.94,607.3l137-137,3.67,3.67,6.83-6.83L232,455.66l11.74-11.74A172.81,172.81,0,0,0,481.83,193.53Z"/><path class="cls-62" d="M464.26,420.36a149.49,149.49,0,1,1,0-211.41A149.49,149.49,0,0,1,464.26,420.36Zm16.49-227.91a172.82,172.82,0,0,0-250.39,238.1l-11.73,11.73-11.45-11.45-6.83,6.83,3.66,3.66-137,137,27.87,27.87,137-137,3.67,3.67,6.83-6.83-11.46-11.45,11.74-11.74A172.81,172.81,0,0,0,480.75,192.45Z"/><path class="cls-63" d="M463.18,419.28a149.49,149.49,0,1,1,0-211.41A149.49,149.49,0,0,1,463.18,419.28Zm16.49-227.91a172.82,172.82,0,0,0-250.39,238.1L217.55,441.2,206.1,429.75l-6.83,6.83,3.66,3.66-137,137,27.87,27.87,137-137,3.67,3.67L241.3,465,229.85,453.5l11.73-11.74A172.81,172.81,0,0,0,479.67,191.37Z"/><path class="cls-64" d="M462.1,418.2a149.49,149.49,0,1,1,0-211.41A149.49,149.49,0,0,1,462.1,418.2Zm16.49-227.91A172.82,172.82,0,0,0,228.2,428.39l-11.73,11.73L205,428.67l-6.83,6.83,3.66,3.66-137,137L92.7,604.06l137-137,3.67,3.66,6.83-6.83-11.45-11.45,11.73-11.73a172.82,172.82,0,0,0,238.09-250.4Z"/><path class="cls-65" d="M461,417.12a149.49,149.49,0,1,1,0-211.41A149.49,149.49,0,0,1,461,417.12Zm16.5-227.91a172.82,172.82,0,0,0-250.4,238.1L215.39,439l-11.45-11.45-6.83,6.83,3.66,3.66-137,137L91.62,603l137-137,3.67,3.66,6.83-6.83-11.45-11.45,11.73-11.73a172.82,172.82,0,0,0,238.1-250.4Z"/><path class="cls-66" d="M459.94,416a149.49,149.49,0,1,1,0-211.41A149.49,149.49,0,0,1,459.94,416Zm16.5-227.91A172.82,172.82,0,0,0,226,426.23L214.31,438l-11.45-11.45L196,433.34l3.66,3.66-137,137L90.54,601.9l137-137,3.67,3.66,6.83-6.83-11.45-11.45,11.73-11.73a172.82,172.82,0,0,0,238.1-250.4Z"/><path class="cls-67" d="M458.86,415a149.49,149.49,0,1,1,0-211.41A149.49,149.49,0,0,1,458.86,415Zm16.5-227.91A172.82,172.82,0,0,0,225,425.15l-11.73,11.73-11.45-11.45L195,432.26l3.66,3.66-137,137,27.87,27.87,137-137,3.67,3.66,6.83-6.83-11.45-11.45,11.73-11.73a172.82,172.82,0,0,0,238.1-250.4Z"/><path class="cls-68" d="M457.78,413.88a149.49,149.49,0,1,1,0-211.41A149.49,149.49,0,0,1,457.78,413.88ZM474.28,186a172.82,172.82,0,0,0-250.4,238.1L212.15,435.8,200.7,424.35l-6.83,6.83,3.66,3.66-137,137,27.87,27.87,137-137,3.67,3.66,6.83-6.83L224.45,448.1l11.73-11.73A172.82,172.82,0,0,0,474.28,186Z"/><path class="cls-69" d="M456.7,412.8a149.49,149.49,0,1,1,0-211.41A149.49,149.49,0,0,1,456.7,412.8Zm16.5-227.91A172.82,172.82,0,0,0,222.8,423l-11.73,11.73-11.45-11.45-6.83,6.83,3.66,3.66-137,137L87.3,598.66l137-137L228,465.3l6.83-6.83L223.37,447l11.73-11.73a172.82,172.82,0,0,0,238.1-250.4Z"/><path class="cls-70" d="M455.62,411.72a149.49,149.49,0,1,1,0-211.41A149.49,149.49,0,0,1,455.62,411.72Zm16.5-227.91a172.82,172.82,0,0,0-250.4,238.1L210,433.64l-11.45-11.45L191.71,429l3.66,3.66-137,137,27.87,27.87,137-137,3.66,3.66,6.83-6.83-11.45-11.45L234,434.21a172.82,172.82,0,0,0,238.1-250.4Z"/><path class="cls-71" d="M454.54,410.64a149.49,149.49,0,1,1,0-211.41A149.49,149.49,0,0,1,454.54,410.64ZM471,182.73a172.82,172.82,0,0,0-250.4,238.1l-11.73,11.73-11.45-11.45-6.83,6.83,3.66,3.66-137,137L85.14,596.5l137-137,3.66,3.66,6.83-6.83-11.45-11.45,11.73-11.73A172.82,172.82,0,0,0,471,182.73Z"/><path class="cls-72" d="M453.46,409.56a149.49,149.49,0,1,1,0-211.41A149.49,149.49,0,0,1,453.46,409.56ZM470,181.65a172.82,172.82,0,0,0-250.4,238.1l-11.73,11.73L196.38,420l-6.83,6.83,3.66,3.66-137,137,27.87,27.87,137-137,3.66,3.66,6.83-6.83-11.45-11.45,11.73-11.73A172.82,172.82,0,0,0,470,181.65Z"/><path class="cls-73" d="M452.38,408.48a149.49,149.49,0,1,1,0-211.41A149.49,149.49,0,0,1,452.38,408.48Zm16.5-227.91a172.82,172.82,0,0,0-250.4,238.1L206.75,430.4,195.3,419l-6.83,6.83,3.66,3.66-137,137L83,594.34l137-137,3.66,3.66,6.83-6.83L219.05,442.7,230.78,431a172.82,172.82,0,0,0,238.1-250.4Z"/><path class="cls-74" d="M451.3,407.4a149.49,149.49,0,1,1,0-211.41A149.49,149.49,0,0,1,451.3,407.4Zm16.5-227.91a172.82,172.82,0,0,0-250.4,238.1l-11.73,11.73-11.45-11.45-6.83,6.83,3.66,3.66-137,137L81.9,593.26l137-137,3.66,3.66,6.83-6.83L218,441.62l11.73-11.73a172.82,172.82,0,0,0,238.1-250.4Z"/><path class="cls-75" d="M450.22,406.32a149.49,149.49,0,1,1,0-211.41A149.49,149.49,0,0,1,450.22,406.32Zm16.5-227.91a172.82,172.82,0,0,0-250.4,238.1l-11.73,11.73-11.45-11.45-6.83,6.83,3.66,3.66-137,137,27.87,27.87,137-137,3.66,3.66,6.83-6.83-11.45-11.45,11.73-11.73a172.82,172.82,0,0,0,238.1-250.4Z"/><path class="cls-76" d="M449.14,405.24a149.49,149.49,0,1,1,0-211.41A149.49,149.49,0,0,1,449.14,405.24Zm16.5-227.91a172.82,172.82,0,0,0-250.4,238.1l-11.73,11.73-11.45-11.45-6.83,6.83,3.66,3.67-137,137L79.74,591.1l137-137,3.66,3.66,6.83-6.83-11.45-11.45,11.73-11.73a172.82,172.82,0,0,0,238.1-250.4Z"/><path class="cls-77" d="M448.06,404.16a149.49,149.49,0,1,1,0-211.41A149.49,149.49,0,0,1,448.06,404.16Zm16.5-227.9a172.82,172.82,0,0,0-250.4,238.09l-11.73,11.73L191,414.63l-6.83,6.83,3.66,3.67-137,137L78.66,590l137-137,3.66,3.66,6.83-6.83-11.45-11.45,11.73-11.73a172.82,172.82,0,0,0,238.1-250.39Z"/><path class="cls-78" d="M447,403.08a149.49,149.49,0,1,1,0-211.41A149.49,149.49,0,0,1,447,403.08Zm16.5-227.9a172.82,172.82,0,0,0-250.4,238.09L201.35,425,189.9,413.55l-6.83,6.83,3.67,3.67-137,137,27.87,27.87,137-137,3.66,3.66,6.83-6.83L213.65,437.3l11.73-11.73a172.82,172.82,0,0,0,238.1-250.39Z"/><path class="cls-79" d="M445.9,402a149.49,149.49,0,1,1,0-211.41A149.49,149.49,0,0,1,445.9,402Zm16.5-227.9A172.82,172.82,0,0,0,212,412.19l-11.73,11.73-11.45-11.45L182,419.3l3.67,3.67-137,137L76.5,587.86l137-137,3.66,3.66,6.83-6.83-11.45-11.45,11.73-11.73A172.82,172.82,0,0,0,462.4,174.1Z"/><path class="cls-80" d="M444.82,400.92a149.49,149.49,0,1,1,0-211.41A149.49,149.49,0,0,1,444.82,400.92ZM461.32,173a172.82,172.82,0,0,0-250.4,238.09l-11.73,11.73-11.45-11.45-6.83,6.83,3.67,3.67-137,137,27.87,27.87,137-137,3.66,3.66,6.83-6.83-11.45-11.45,11.73-11.73A172.82,172.82,0,0,0,461.32,173Z"/><path class="cls-81" d="M443.74,399.84a149.49,149.49,0,1,1,0-211.41A149.49,149.49,0,0,1,443.74,399.84Zm16.5-227.9A172.82,172.82,0,0,0,209.84,410l-11.73,11.73-11.45-11.45-6.83,6.83,3.67,3.67-137,137L74.34,585.7l137-137,3.66,3.66,6.83-6.83-11.45-11.45,11.73-11.73a172.82,172.82,0,0,0,238.1-250.39Z"/><path class="cls-82" d="M442.66,398.76a149.49,149.49,0,1,1,0-211.41A149.49,149.49,0,0,1,442.66,398.76Zm16.5-227.9A172.82,172.82,0,0,0,208.76,409L197,420.68l-11.45-11.45-6.83,6.83,3.67,3.67-137,137,27.87,27.87,137-137,3.66,3.66,6.83-6.83L209.33,433l11.73-11.73a172.82,172.82,0,0,0,238.1-250.39Z"/><path class="cls-83" d="M441.59,397.68a149.49,149.49,0,1,1,0-211.41A149.5,149.5,0,0,1,441.59,397.68Zm16.49-227.9a172.82,172.82,0,0,0-250.4,238.09L196,419.6,184.5,408.15,177.67,415l3.67,3.67-137,137,27.87,27.87,137-137,3.66,3.66,6.83-6.83L208.25,431.9,220,420.17a172.82,172.82,0,0,0,238.1-250.39Z"/><path class="cls-84" d="M440.51,396.6a149.49,149.49,0,1,1,0-211.41A149.5,149.5,0,0,1,440.51,396.6ZM457,168.7A172.81,172.81,0,0,0,206.61,406.79l-11.74,11.73-11.45-11.45-6.83,6.83,3.67,3.67-137,137L71.1,582.46l137-137,3.66,3.66,6.83-6.83-11.45-11.45,11.73-11.73A172.82,172.82,0,0,0,457,168.7Z"/><path class="cls-85" d="M439.43,395.52a149.49,149.49,0,1,1,0-211.41A149.5,149.5,0,0,1,439.43,395.52Zm16.49-227.9A172.81,172.81,0,0,0,205.53,405.71l-11.74,11.74L182.34,406l-6.83,6.83,3.67,3.67-137,137L70,581.38l137-137,3.66,3.66,6.83-6.83-11.45-11.45L217.82,418a172.82,172.82,0,0,0,238.1-250.39Z"/></g></g><g id="Layer_3" data-name="Layer 3"><path class="cls-85" d="M439.43,395.55a149.49,149.49,0,1,1,0-211.41A149.5,149.5,0,0,1,439.43,395.55Zm16.49-227.91a172.82,172.82,0,0,0-250.39,238.1l-11.74,11.73L182.34,406l-6.83,6.83,3.67,3.66-137,137L70,581.41l137-137,3.66,3.66,6.83-6.83-11.45-11.45L217.82,418a172.82,172.82,0,0,0,238.1-250.4Z"/></g><g id="Layer_2" data-name="Layer 2"><circle class="cls-86" cx="333.72" cy="290.03" r="149.49" transform="translate(-107.34 320.92) rotate(-45)"/><rect class="cls-87" x="177.27" y="414.93" width="45.35" height="17.39" transform="translate(-240.98 265.44) rotate(-45)"/><rect class="cls-88" x="180.34" y="422.35" width="45.35" height="8.69" transform="translate(-242.25 268.51) rotate(-45)"/><rect class="cls-89" x="27" y="477.54" width="198.61" height="39.42" transform="translate(-314.61 234.95) rotate(-45)"/><rect class="cls-88" x="33.97" y="494.37" width="198.61" height="19.71" transform="translate(-317.5 241.91) rotate(-45)"/><rect class="cls-90" x="191.7" y="402.14" width="9.66" height="49.78" transform="translate(-244.4 264.04) rotate(-45)"/><rect class="cls-91" x="200.5" y="423.39" width="9.66" height="24.89" transform="translate(-248.04 272.84) rotate(-45)"/><path class="cls-92" d="M476.85,200.84A172.81,172.81,0,1,0,417.73,438,172.81,172.81,0,0,0,476.85,200.84ZM405.71,418a149.49,149.49,0,1,1,51.15-205.13A149.49,149.49,0,0,1,405.71,418Z"/><circle class="cls-93" cx="333.72" cy="290.03" r="149.49" transform="translate(-107.34 320.92) rotate(-45)"/><g class="cls-94"><path class="cls-95" d="M505.64,512.84l2.12,1.69s8.25,9.51,17,15.32c0,0,9.67,4.65,17,7.27s8.5.23,8.5.23-3.72-2.68-5.95-4.72c-2.74-2.51-4.16-4.51-5.1-5.07a19.16,19.16,0,0,0-4-1.67s-5.55-5.2-7-6-6.7-1.52-6.7-1.52l-5.16-2.92-1-1.95h0c-1.23-2.81-17-15.13-32.3-28.84-18.59-16.67-42-33.36-42-33.36l-5.78-2L332.65,368.18c3.61,1.16,8.5-3.39,8.15-4.33l-9,1.67-2.69,2.22.23-1c-2.36-.95-.23-1.29-1.31-1.73l-2.22.87-1.37.14c-.11,0,.56.94.56.94l-4.86-1.48.14.11.59,1.78,98.44,76.9-9.07-2.66s18.59,11.62,25.16,18.6,35.85,31.26,67.41,50.34l11,3.22h0l-11-3.22ZM398.26,423.4l-67.83-52.53C331.79,371.32,398.26,423.4,398.26,423.4Z"/><path class="cls-96" d="M334.67,202.5a19.19,19.19,0,0,0,0,4.71c.42,2.69,1.51,5.19,1.28,5.65-.41.83-1.84.82-1.84.82s1,5.65.56,6.25-4.8-.71-4.8-.71l-1.48,2.23-7.53-.92v-1.67l5.59-13.49Z"/><path class="cls-97" d="M340.8,363.85a57,57,0,0,0-8,.44c1.36-.56,2.19-1,1.79-1.1a26.45,26.45,0,0,0-4.42.14l.43-74.89,3.3-.44a129.3,129.3,0,0,0,0-33.28c-2.41-17.74-1.53-31.94-6-31.94h-7.1c-7.54,15.53-6.21,40.37-4,48.36s-1.74,17.74-1.74,17.74h5.73v78.53h.1v.11l3-.08.1,0h.34v-.12l2.71-.91,0,1.8,3-.08S342.13,364.18,340.8,363.85Zm-14.62-51.64.89,51.38-2.55.24Z"/><polygon class="cls-98" points="320.86 222.78 320.86 220.53 328.39 221.45 329.87 224.08 327.78 222.78 320.86 222.78"/><path class="cls-99" d="M318.55,202.5c-1.43,5.13,2.31,16.36,2.31,16.36l6.41,1.07v-5.49s-1.8-2.51-1.08-3.7.79-1.67,1.83-1.2,1.85,3,1.85,3l1.33-.6s-.47-4.54,0-5.37a51.67,51.67,0,0,1,3.47-4.06s-4.15-4.3-8.22-3.58A21.51,21.51,0,0,0,318.55,202.5Z"/></g><path class="cls-100" d="M331.34,439.5A149.49,149.49,0,1,1,483.19,292.41,149.48,149.48,0,0,1,331.34,439.5Z"/><path class="cls-101" d="M187.23,260.11c82.9,21.81,173.64-12.06,220.46-89,1.65-2.7,3.21-5.42,4.71-8.17a149.55,149.55,0,0,0-225.17,97.21Z"/></g></g></svg>