<svg xmlns="http://www.w3.org/2000/svg" xmlns:xlink="http://www.w3.org/1999/xlink" viewBox="0 0 480 480"><defs><style>.cls-1{isolation:isolate;}.cls-2{opacity:0.3;fill:url(#linear-gradient);}.cls-2,.cls-28,.cls-29,.cls-69,.cls-70,.cls-71,.cls-72,.cls-73,.cls-74{mix-blend-mode:multiply;}.cls-3{fill:url(#New_Gradient_Swatch_2);}.cls-4{fill:#c1d853;}.cls-5{fill:url(#linear-gradient-2);}.cls-6{fill:url(#New_Gradient_Swatch_2-2);}.cls-7{fill:#e5f5f8;}.cls-8{fill:url(#New_Gradient_Swatch_2-3);}.cls-9{fill:#8dac3d;}.cls-10{fill:url(#linear-gradient-3);}.cls-11{fill:url(#New_Gradient_Swatch_3);}.cls-12{fill:#adc94a;}.cls-13{fill:url(#linear-gradient-4);}.cls-14{fill:#231f20;}.cls-15{fill:url(#linear-gradient-5);}.cls-16{fill:url(#linear-gradient-6);}.cls-17{fill:url(#linear-gradient-7);}.cls-18{fill:#22313f;}.cls-19{fill:url(#linear-gradient-8);}.cls-20{fill:url(#linear-gradient-9);}.cls-21{fill:url(#linear-gradient-10);}.cls-22{fill:url(#linear-gradient-11);}.cls-23{fill:#d4e4ef;}.cls-24{fill:#036076;}.cls-25{fill:#e5f1fa;}.cls-26{fill:url(#linear-gradient-12);}.cls-27{fill:url(#linear-gradient-13);}.cls-28,.cls-29,.cls-69,.cls-70,.cls-71,.cls-72,.cls-73,.cls-74{opacity:0.42;}.cls-28{fill:url(#linear-gradient-14);}.cls-29{fill:url(#linear-gradient-15);}.cls-30{fill:url(#New_Gradient_Swatch_5);}.cls-31{fill:url(#linear-gradient-16);}.cls-32{fill:url(#New_Gradient_Swatch_5-2);}.cls-33{fill:url(#linear-gradient-17);}.cls-34{fill:url(#linear-gradient-18);}.cls-35{fill:url(#linear-gradient-19);}.cls-36{fill:url(#linear-gradient-20);}.cls-37{fill:#0087aa;}.cls-38{fill:url(#New_Gradient_Swatch_5-3);}.cls-39{fill:url(#New_Gradient_Swatch_5-4);}.cls-40{fill:url(#New_Gradient_Swatch_5-5);}.cls-41{fill:url(#New_Gradient_Swatch_5-6);}.cls-42{fill:url(#New_Gradient_Swatch_5-7);}.cls-43{fill:url(#linear-gradient-21);}.cls-44{fill:url(#New_Gradient_Swatch_5-8);}.cls-45{fill:url(#linear-gradient-22);}.cls-46{fill:url(#linear-gradient-23);}.cls-47{fill:#35495e;}.cls-48{fill:url(#linear-gradient-24);}.cls-49{fill:url(#New_Gradient_Swatch_1);}.cls-50{fill:url(#New_Gradient_Swatch_1-2);}.cls-51{fill:url(#New_Gradient_Swatch_1-3);}.cls-52{fill:url(#linear-gradient-25);}.cls-53{fill:url(#linear-gradient-26);}.cls-54{fill:url(#linear-gradient-27);}.cls-55{fill:url(#linear-gradient-28);}.cls-56{fill:url(#linear-gradient-29);}.cls-57{fill:url(#linear-gradient-30);}.cls-58{fill:#94a4a5;}.cls-59{fill:url(#linear-gradient-31);}.cls-60{fill:url(#linear-gradient-32);}.cls-61{fill:url(#linear-gradient-33);}.cls-62{fill:url(#New_Gradient_Swatch_3-2);}.cls-63{fill:url(#New_Gradient_Swatch_3-3);}.cls-64{fill:url(#New_Gradient_Swatch_1-4);}.cls-65{fill:url(#New_Gradient_Swatch_1-5);}.cls-66{fill:url(#linear-gradient-34);}.cls-67{fill:url(#New_Gradient_Swatch_3-4);}.cls-68{fill:url(#linear-gradient-35);}.cls-69{fill:url(#linear-gradient-36);}.cls-70{fill:url(#linear-gradient-37);}.cls-71{fill:url(#linear-gradient-38);}.cls-72{fill:url(#linear-gradient-39);}.cls-73{fill:url(#linear-gradient-40);}.cls-74{fill:url(#linear-gradient-41);}</style><linearGradient id="linear-gradient" x1="-76.15" y1="347.84" x2="-534.56" y2="637.94" gradientTransform="matrix(-1, 0.1, 0.1, 1, 160.7, -12.38)" gradientUnits="userSpaceOnUse"><stop offset="0" stop-color="#231f20"/><stop offset="0.05" stop-color="#4c494a"/><stop offset="0.11" stop-color="#7b7979"/><stop offset="0.18" stop-color="#a4a2a3"/><stop offset="0.24" stop-color="#c5c4c4"/><stop offset="0.31" stop-color="#dedede"/><stop offset="0.38" stop-color="#f1f0f0"/><stop offset="0.45" stop-color="#fbfbfb"/><stop offset="0.53" stop-color="#fff"/></linearGradient><linearGradient id="New_Gradient_Swatch_2" x1="130.39" y1="193.59" x2="130.39" y2="365.5" gradientUnits="userSpaceOnUse"><stop offset="0.22" stop-color="#8eac2a"/><stop offset="0.23" stop-color="#8aaa2c"/><stop offset="0.68" stop-color="#297561"/><stop offset="0.88" stop-color="#036076"/></linearGradient><linearGradient id="linear-gradient-2" x1="202.9" y1="365.72" x2="205.84" y2="197.55" gradientUnits="userSpaceOnUse"><stop offset="0" stop-color="#12100b"/><stop offset="0.07" stop-color="#272e37"/><stop offset="0.12" stop-color="#344153"/><stop offset="0.15" stop-color="#39485d"/><stop offset="0.72" stop-color="#35495e"/></linearGradient><linearGradient id="New_Gradient_Swatch_2-2" x1="283.55" y1="180.95" x2="283.55" y2="318.49" xlink:href="#New_Gradient_Swatch_2"/><linearGradient id="New_Gradient_Swatch_2-3" x1="369.25" y1="260.82" x2="369.25" y2="379.24" xlink:href="#New_Gradient_Swatch_2"/><linearGradient id="linear-gradient-3" x1="254.94" y1="356.26" x2="254.94" y2="404.11" gradientUnits="userSpaceOnUse"><stop offset="0.04" stop-color="#8eac2a"/><stop offset="0.56" stop-color="#3a7e58"/><stop offset="0.92" stop-color="#036076"/></linearGradient><linearGradient id="New_Gradient_Swatch_3" x1="108.97" y1="102.33" x2="116.69" y2="102.33" gradientUnits="userSpaceOnUse"><stop offset="0" stop-color="#d08859"/><stop offset="1" stop-color="#f2bd88"/></linearGradient><linearGradient id="linear-gradient-4" x1="-821.64" y1="76.77" x2="-802.13" y2="99.56" gradientTransform="matrix(-1, 0, 0, 1, -701.1, 17.52)" gradientUnits="userSpaceOnUse"><stop offset="0.14" stop-color="#35495e"/><stop offset="0.41" stop-color="#374b60"/><stop offset="0.56" stop-color="#3e5365"/><stop offset="0.68" stop-color="#4a616f"/><stop offset="0.79" stop-color="#5c757c"/><stop offset="0.88" stop-color="#728e8e"/><stop offset="0.97" stop-color="#8daca3"/><stop offset="1" stop-color="#99baad"/></linearGradient><linearGradient id="linear-gradient-5" x1="318.86" y1="184.27" x2="325.03" y2="184.27" gradientUnits="userSpaceOnUse"><stop offset="0" stop-color="#d08859"/><stop offset="0.06" stop-color="#d79262"/><stop offset="0.21" stop-color="#e3a573"/><stop offset="0.38" stop-color="#ebb37f"/><stop offset="0.59" stop-color="#f1bb86"/><stop offset="1" stop-color="#f2bd88"/></linearGradient><linearGradient id="linear-gradient-6" x1="509.61" y1="143.27" x2="530.57" y2="167.74" gradientTransform="matrix(-0.98, -0.18, -0.18, 0.98, 859.18, 126.59)" xlink:href="#linear-gradient-4"/><linearGradient id="linear-gradient-7" x1="328.53" y1="214.13" x2="334.29" y2="214.13" xlink:href="#linear-gradient-5"/><linearGradient id="linear-gradient-8" x1="48.59" y1="218.6" x2="48.59" y2="277.65" gradientTransform="matrix(-1, 0.03, 0.03, 1, 365.51, 2.6)" gradientUnits="userSpaceOnUse"><stop offset="0" stop-color="#35495e"/><stop offset="0.26" stop-color="#2d3f51"/><stop offset="0.65" stop-color="#253443"/><stop offset="1" stop-color="#22313f"/></linearGradient><linearGradient id="linear-gradient-9" x1="48.5" y1="218.56" x2="48.5" y2="277.62" xlink:href="#linear-gradient-8"/><linearGradient id="linear-gradient-10" x1="54.06" y1="224.34" x2="54.06" y2="274.19" gradientTransform="matrix(-1, 0.03, 0.03, 1, 365.51, 2.6)" gradientUnits="userSpaceOnUse"><stop offset="0" stop-color="#35495e"/><stop offset="0.15" stop-color="#34485c"/><stop offset="1" stop-color="#314458"/></linearGradient><linearGradient id="linear-gradient-11" x1="51.1" y1="224.42" x2="51.1" y2="274.98" xlink:href="#linear-gradient-10"/><linearGradient id="linear-gradient-12" x1="316.35" y1="224.49" x2="320.97" y2="224.49" xlink:href="#linear-gradient-5"/><linearGradient id="linear-gradient-13" x1="314.16" y1="231.24" x2="318.64" y2="231.24" xlink:href="#linear-gradient-5"/><linearGradient id="linear-gradient-14" x1="211.17" y1="127.79" x2="105.06" y2="189.48" gradientTransform="matrix(-0.97, 0.23, 0.23, 0.97, 270.31, 5.34)" gradientUnits="userSpaceOnUse"><stop offset="0" stop-color="#231f20"/><stop offset="0.41" stop-color="#838182"/><stop offset="0.82" stop-color="#dcdbdc"/><stop offset="1" stop-color="#fff"/></linearGradient><linearGradient id="linear-gradient-15" x1="148.71" y1="124.01" x2="45.81" y2="183.84" xlink:href="#linear-gradient-14"/><linearGradient id="New_Gradient_Swatch_5" x1="200.94" y1="100.4" x2="206.79" y2="100.4" gradientUnits="userSpaceOnUse"><stop offset="0.23" stop-color="#a5532a"/><stop offset="0.38" stop-color="#a8572d"/><stop offset="0.53" stop-color="#b06338"/><stop offset="0.68" stop-color="#bf774a"/><stop offset="0.83" stop-color="#d39262"/><stop offset="0.97" stop-color="#edb682"/><stop offset="1" stop-color="#f2bd88"/></linearGradient><linearGradient id="linear-gradient-16" x1="643.81" y1="91.2" x2="664.13" y2="114.93" gradientTransform="matrix(-0.98, -0.21, -0.21, 0.98, 862.27, 139.04)" xlink:href="#linear-gradient-4"/><linearGradient id="New_Gradient_Swatch_5-2" x1="209.28" y1="129.64" x2="215.04" y2="129.64" xlink:href="#New_Gradient_Swatch_5"/><linearGradient id="linear-gradient-17" x1="168.16" y1="137.63" x2="168.16" y2="194.96" gradientTransform="matrix(-1, 0, 0, 1, 372.62, 0)" xlink:href="#linear-gradient-8"/><linearGradient id="linear-gradient-18" x1="168.12" y1="137.6" x2="168.12" y2="194.93" gradientTransform="matrix(-1, 0, 0, 1, 372.62, 0)" xlink:href="#linear-gradient-8"/><linearGradient id="linear-gradient-19" x1="173.27" y1="143.19" x2="173.27" y2="191.59" gradientTransform="matrix(-1, 0, 0, 1, 372.62, 0)" xlink:href="#linear-gradient-10"/><linearGradient id="linear-gradient-20" x1="171.7" y1="143.19" x2="171.7" y2="191.59" gradientTransform="matrix(-1, 0, 0, 1, 372.62, 0)" xlink:href="#linear-gradient-10"/><linearGradient id="New_Gradient_Swatch_5-3" x1="195.31" y1="141.61" x2="202.29" y2="141.61" xlink:href="#New_Gradient_Swatch_5"/><linearGradient id="New_Gradient_Swatch_5-4" x1="135.42" y1="108.06" x2="142.22" y2="108.06" gradientTransform="translate(2.7 -1.39) rotate(0.53)" xlink:href="#New_Gradient_Swatch_5"/><linearGradient id="New_Gradient_Swatch_5-5" x1="128.59" y1="137.63" x2="134.11" y2="137.63" gradientTransform="translate(2.7 -1.39) rotate(0.53)" xlink:href="#New_Gradient_Swatch_5"/><linearGradient id="New_Gradient_Swatch_5-6" x1="140.48" y1="187.91" x2="145.64" y2="187.91" gradientTransform="translate(2.7 -1.39) rotate(0.53)" xlink:href="#New_Gradient_Swatch_5"/><linearGradient id="New_Gradient_Swatch_5-7" x1="136.5" y1="187.88" x2="141.19" y2="187.88" gradientTransform="translate(2.7 -1.39) rotate(0.53)" xlink:href="#New_Gradient_Swatch_5"/><linearGradient id="linear-gradient-21" x1="145.19" y1="148.63" x2="116.03" y2="207.37" gradientTransform="translate(2.7 -1.39) rotate(0.53)" gradientUnits="userSpaceOnUse"><stop offset="0" stop-color="#35495e"/><stop offset="0.41" stop-color="#2c3e50"/><stop offset="1" stop-color="#22313f"/></linearGradient><linearGradient id="New_Gradient_Swatch_5-8" x1="133.5" y1="137.72" x2="138.99" y2="137.72" gradientTransform="translate(2.7 -1.39) rotate(0.53)" xlink:href="#New_Gradient_Swatch_5"/><linearGradient id="linear-gradient-22" x1="234.64" y1="78.33" x2="251.03" y2="78.33" gradientTransform="matrix(0.81, -0.03, 0, 1, 50.54, 9.73)" gradientUnits="userSpaceOnUse"><stop offset="0" stop-color="#d08859"/><stop offset="0.07" stop-color="#da9867"/><stop offset="0.17" stop-color="#e5a976"/><stop offset="0.31" stop-color="#ecb480"/><stop offset="0.49" stop-color="#f1bb86"/><stop offset="1" stop-color="#f2bd88"/></linearGradient><linearGradient id="linear-gradient-23" x1="247.42" y1="149.17" x2="250.89" y2="149.17" gradientUnits="userSpaceOnUse"><stop offset="0" stop-color="#d08859"/><stop offset="0.07" stop-color="#d89564"/><stop offset="0.2" stop-color="#e4a774"/><stop offset="0.35" stop-color="#ecb380"/><stop offset="0.56" stop-color="#f1bb86"/><stop offset="1" stop-color="#f2bd88"/></linearGradient><linearGradient id="linear-gradient-24" x1="250.63" y1="149.74" x2="254.1" y2="149.74" xlink:href="#linear-gradient-23"/><linearGradient id="New_Gradient_Swatch_1" x1="676.22" y1="86.67" x2="676.22" y2="156.81" gradientTransform="translate(-424.58 -12.94) rotate(1.1)" gradientUnits="userSpaceOnUse"><stop offset="0.13" stop-color="#233446"/><stop offset="0.51" stop-color="#253647"/><stop offset="0.71" stop-color="#2d3e4a"/><stop offset="0.88" stop-color="#3a4c50"/><stop offset="1" stop-color="#495c56"/></linearGradient><linearGradient id="New_Gradient_Swatch_1-2" x1="676.25" y1="114.56" x2="676.25" y2="156.17" xlink:href="#New_Gradient_Swatch_1"/><linearGradient id="New_Gradient_Swatch_1-3" x1="261.33" y1="116.95" x2="271.04" y2="116.95" gradientTransform="matrix(1, -0.08, 0.08, 1.06, -30.33, -3.34)" xlink:href="#New_Gradient_Swatch_1"/><linearGradient id="linear-gradient-25" x1="286.13" y1="88.2" x2="292.79" y2="88.2" gradientTransform="matrix(-1, 0, 0, 1, 574.62, 0)" gradientUnits="userSpaceOnUse"><stop offset="0" stop-color="#d08859"/><stop offset="0.07" stop-color="#d99665"/><stop offset="0.19" stop-color="#e4a775"/><stop offset="0.34" stop-color="#ecb480"/><stop offset="0.54" stop-color="#f1bb86"/><stop offset="1" stop-color="#f2bd88"/></linearGradient><linearGradient id="linear-gradient-26" x1="293.84" y1="112.5" x2="299.95" y2="112.5" xlink:href="#linear-gradient-25"/><linearGradient id="linear-gradient-27" x1="286.58" y1="161.76" x2="290.49" y2="161.76" xlink:href="#linear-gradient-25"/><linearGradient id="linear-gradient-28" x1="290.71" y1="161.57" x2="294.24" y2="161.57" xlink:href="#linear-gradient-25"/><linearGradient id="linear-gradient-29" x1="-274.82" y1="158.57" x2="-287.98" y2="188.92" gradientTransform="matrix(0.99, 0.12, -0.13, 1.12, 586.72, -26.78)" xlink:href="#linear-gradient-10"/><linearGradient id="linear-gradient-30" x1="-278.62" y1="126.05" x2="-308.18" y2="185.59" gradientTransform="translate(570 6.48) rotate(2.25)" xlink:href="#linear-gradient-21"/><linearGradient id="linear-gradient-31" x1="290.71" y1="98.07" x2="295.48" y2="98.07" gradientTransform="matrix(1, 0, 0, 1, 0, 0)" xlink:href="#linear-gradient-25"/><linearGradient id="linear-gradient-32" x1="-300.55" y1="112.7" x2="-256.62" y2="63.75" gradientTransform="translate(570 6.48) rotate(2.25)" xlink:href="#linear-gradient-4"/><linearGradient id="linear-gradient-33" x1="450.54" y1="168.9" x2="467.35" y2="168.9" gradientTransform="matrix(-0.87, 0.01, -0.01, 1, 768.15, -1.1)" gradientUnits="userSpaceOnUse"><stop offset="0" stop-color="#f2bd88"/><stop offset="0.26" stop-color="#efb883"/><stop offset="0.57" stop-color="#e5a976"/><stop offset="0.9" stop-color="#d59061"/><stop offset="1" stop-color="#d08859"/></linearGradient><linearGradient id="New_Gradient_Swatch_3-2" x1="407.59" y1="242.85" x2="411.16" y2="242.85" gradientTransform="matrix(-1, 0, 0, 1, 778.08, 0)" xlink:href="#New_Gradient_Swatch_3"/><linearGradient id="New_Gradient_Swatch_3-3" x1="404.3" y1="242.75" x2="407.86" y2="242.75" gradientTransform="matrix(-1, 0, 0, 1, 778.08, 0)" xlink:href="#New_Gradient_Swatch_3"/><linearGradient id="New_Gradient_Swatch_1-4" x1="37.82" y1="190.28" x2="37.82" y2="260.61" gradientTransform="translate(336 -12.94) rotate(1.1)" xlink:href="#New_Gradient_Swatch_1"/><linearGradient id="New_Gradient_Swatch_1-5" x1="37.75" y1="218.87" x2="37.75" y2="261.56" gradientTransform="translate(336 -12.94) rotate(1.1)" xlink:href="#New_Gradient_Swatch_1"/><linearGradient id="linear-gradient-34" x1="40.43" y1="178.75" x2="11.54" y2="207.64" gradientTransform="translate(336 -12.94) rotate(1.1)" xlink:href="#linear-gradient-4"/><linearGradient id="New_Gradient_Swatch_3-4" x1="197.82" y1="84.69" x2="205.54" y2="84.69" gradientTransform="matrix(-1, 0, 0, 1, 374.83, 0)" xlink:href="#New_Gradient_Swatch_3"/><linearGradient id="linear-gradient-35" x1="-910.52" y1="59.3" x2="-891.01" y2="82.08" gradientTransform="matrix(1, 0, 0, 1, 1075.93, 17.52)" xlink:href="#linear-gradient-4"/><linearGradient id="linear-gradient-36" x1="-27.63" y1="270.36" x2="-77.81" y2="299.54" xlink:href="#linear-gradient-14"/><linearGradient id="linear-gradient-37" x1="28.44" y1="273.02" x2="-39.63" y2="312.6" xlink:href="#linear-gradient-14"/><linearGradient id="linear-gradient-38" x1="184.75" y1="157.94" x2="114.88" y2="198.56" xlink:href="#linear-gradient-14"/><linearGradient id="linear-gradient-39" x1="35.34" y1="163.84" x2="-5.25" y2="187.44" xlink:href="#linear-gradient-14"/><linearGradient id="linear-gradient-40" x1="69.3" y1="150.97" x2="8.56" y2="186.29" xlink:href="#linear-gradient-14"/><linearGradient id="linear-gradient-41" x1="119.22" y1="164.44" x2="95.77" y2="178.07" gradientTransform="matrix(-0.97, 0.23, 0.23, 0.97, 270.31, 5.34)" gradientUnits="userSpaceOnUse"><stop offset="0" stop-color="#231f20"/><stop offset="0.1" stop-color="#292526"/><stop offset="0.24" stop-color="#393536"/><stop offset="0.39" stop-color="#535051"/><stop offset="0.56" stop-color="#787677"/><stop offset="0.73" stop-color="#a8a6a7"/><stop offset="0.91" stop-color="#e1e1e1"/><stop offset="1" stop-color="#fff"/></linearGradient></defs><g class="cls-1"><g id="Layer_1" data-name="Layer 1"><polygon class="cls-2" points="203.8 401.1 369.64 450.83 416.84 446.2 650 520 650 406.84 417.42 312.78 203.8 401.1"/><path class="cls-3" d="M70.18,193.59l.6,2.47c1.86,6.12,7.09,12.38,16,18.5C108.46,229.5,147.22,240.31,190,245l.6,120.47C147.81,360.78,109.05,350,87.35,335c-12-8.29-17.36-16.84-16.69-24.94Z"/><path class="cls-4" d="M348.74,181l-131,16.81.39.26L190,245c-42.78-4.72-81.54-15.53-103.24-30.47-37.71-25.95-9.63-54.52,62.71-63.8S311,155,348.74,181Z"/><polygon class="cls-5" points="190.6 365.5 190 245.03 217.75 197.76 218.73 318.49 190.6 365.5"/><polygon class="cls-6" points="349.34 301.42 348.75 180.95 217.75 197.76 218.73 318.49 349.34 301.42"/><path class="cls-7" d="M397.85,233.89c46,31.68,11.76,66.54-76.55,77.87L238,254.4Z"/><path class="cls-8" d="M321.3,311.76c63.44-8.14,97.57-26.59,96.92-50.94h0l-1,67.41v0h0c2.07,22.53-33.48,42.81-96.91,50.95l1.06-67.17Z"/><polygon class="cls-9" points="237.95 320.03 237.95 254.4 321.3 311.76 320.27 379.24 237.95 320.03"/><path class="cls-4" d="M232.72,304.07l75.83,52.19c-34.29,4.4-72,4.18-107.22.25Z"/><path class="cls-10" d="M308.55,356.26v44.6c-34.29,4.4-72,4.18-107.22.25v-44.6C236.55,360.44,274.26,360.66,308.55,356.26Z"/><path class="cls-11" d="M109.63,97.27a10.28,10.28,0,0,1,0,2.51c-.21,1.44-.76,2.78-.65,3,.21.45.94.44.94.44s-.5,3-.27,3.34,2.44-.38,2.44-.38l.76,1.19,3.84-.5V106l-2.86-7.2Z"/><polygon class="cls-12" points="116.69 108.09 116.69 106.89 112.85 107.39 112.1 108.79 113.16 108.1 116.69 108.09"/><path class="cls-13" d="M117.85,97.25c.74,2.74-1.16,8.74-1.16,8.74l-3.27.58v-2.93s.91-1.34.54-2-.4-.89-.93-.64-.94,1.6-.94,1.6l-.68-.32a11.4,11.4,0,0,0,0-2.87,27.41,27.41,0,0,0-1.77-2.16s2.11-2.3,4.19-1.93A10.81,10.81,0,0,1,117.85,97.25Z"/><path class="cls-14" d="M112.08,185.75l1.53,0,0-1,1.38.48v.07h.18l0,0,1.53,0v-.06h0l-.07-42h2.93a21.63,21.63,0,0,1-1.12-4.64l5.12-13.12-5.27-12.48a26.15,26.15,0,0,0-1.72-5.08h-3.62c-.83,0-1.29,1-1.6,2.78l-.38,3.1c-.27,3-.48,6.89-1,11.19a71.92,71.92,0,0,0,0,17.78l1.68.23.29,40a13.72,13.72,0,0,0-2.25-.07c-.21.06.22.29.91.59a28.58,28.58,0,0,0-4.07-.23C106,183.67,112.08,185.75,112.08,185.75Zm7.19-54.61a54.56,54.56,0,0,0,.34-8.48l1.57,3.46Zm-5.62,52.2.41-27.46.89,27.58Z"/><path class="cls-15" d="M319,177.1a9.32,9.32,0,0,1,.1,3.43c-.57,1.94-.05,1.8,0,2.08.14.52-.12,2.63.06,3s.89.49.89.49l.79,4.05,3.76,1.25.38-4.56-1.66-8.26Z"/><path class="cls-16" d="M328,177.81c.26,3.08-2.92,9.06-2.92,9.06s-3.8-.2-4-.67a16.2,16.2,0,0,1-.25-3.14,1.83,1.83,0,0,0,.41-1.56c-.27-.75-.56-.56-.56-.56-.48.14-.34.79-.34.79l-.44-.28a31.09,31.09,0,0,0-.15-3.74.92.92,0,0,0-.64-.61s1.17-2.77,5-2.17C326.28,175.29,328,177.81,328,177.81Z"/><polygon class="cls-17" points="331.98 209.65 328.85 215.12 328.53 218.62 334.29 212.45 331.98 209.65"/><path class="cls-18" d="M321.78,280.57l.06,2.19-2,.06v-.3a9.55,9.55,0,0,1-2.09.37l-2.29.07a.64.64,0,0,1,.28-.79c.64-.49,2-.46,2.86-1A7.26,7.26,0,0,0,320,280l1.75-.05Z"/><path class="cls-18" d="M327.31,280.39l.06,2.19-1.88.06v-.3a8.15,8.15,0,0,1-2,.36l-2.17.07a.66.66,0,0,1,.26-.79c.61-.49,1.9-.46,2.7-1a6.58,6.58,0,0,0,1.33-1.16l1.66-.05Z"/><path class="cls-19" d="M327.45,280l-2.57.08s-4.33-32.66-3.36-33,5.14-.16,6,9.31S327.45,280,327.45,280Z"/><path class="cls-20" d="M321.75,253.33S320,240,319.43,233.22a77,77,0,0,1-.28-10.27l9.3-.56s0,17.68-.14,21-.76,13-.76,13Z"/><path class="cls-21" d="M321.92,280.18l-2.57.08s-3.77-32.68-2.8-33,4.12-.12,5,9.35S321.92,280.18,321.92,280.18Z"/><path class="cls-22" d="M316.39,247.88s-.22-8.24-.42-15a75.3,75.3,0,0,1,.23-10.26l10.42.17L321,253.17Z"/><path class="cls-23" d="M329.46,194.52s8.52,12.28,8.32,13.15-3.49,4.78-3.49,4.78a31,31,0,0,1-3-2.72c.05-.18,1.73-1.91,1.73-1.91l-4.36-4.68Z"/><polygon class="cls-24" points="334.29 212.45 335.52 211.96 331.66 208 330.77 209.57 334.29 212.45"/><path class="cls-25" d="M328.43,222.92s1.7-26.69,1-28.4a6.51,6.51,0,0,0-2.74-3.66c-.85-.46-.78-.91-1.51-1.16-2.37-.82-3.36-.09-4.44.2-.34.09-.7.68-1.11,1-2.12,1.54-3.15,7.19-3.35,8.42a85.41,85.41,0,0,0-.79,16.25c.23,3.29.6,7.78.6,7.78l5.53.42Z"/><polygon class="cls-24" points="326.29 190.57 325.25 189.05 320.52 189.21 319.43 191.05 324.44 191.39 326.29 190.57"/><polygon class="cls-23" points="323.23 194.09 322.66 208.88 320.14 223.69 322.18 223.73 324.12 212.82 323.23 194.09"/><path class="cls-25" d="M321.73,193.17l1.47.18s.1,17.5.07,18.83a66.18,66.18,0,0,1-1.83,7.13l-3.53-.33,1-6.2-1.78-15.61s0-3.09,1.05-4.16S321.73,193.17,321.73,193.17Z"/><polygon class="cls-24" points="321.94 220.59 322.45 218.63 317.54 217.96 317.68 218.88 321.94 220.59"/><polygon class="cls-26" points="320.97 220.21 318.59 230.01 316.35 227.97 317.91 218.98 320.97 220.21"/><path class="cls-27" d="M315.92,229a12.39,12.39,0,0,0-1.25,1.83c-.34.73-.79,2.81-.28,2.86s.79-2.27.79-2.27l-.35,2.07s-.64,1.06-.31,1.27.48-.08.69-.26c.5-.41.42,1,1,.31s.47.85,1.07-.35c.38-.76.61.33.89-.56a21.39,21.39,0,0,0,.43-3.24l.06-3.12-2.29.46Z"/><path class="cls-28" d="M211,210.06l-94.36-25.52c-4-.95-5.73.83-5.73.83L206.43,216"/><path class="cls-29" d="M267.43,191.46l-91.36-24.67c-4-.95-5.73.82-5.73.82l81.47,25.86"/><path class="cls-30" d="M201.23,93.36a9,9,0,0,1,0,3.34c-.6,1.86-.09,1.74,0,2,.13.51-.19,2.56,0,2.94s.84.5.84.5l.66,4,3.61,1.33.5-4.42L205.41,95Z"/><path class="cls-31" d="M209.88,94.33c.16,3-3.09,8.7-3.09,8.7s-3.69-.31-3.91-.78a15.47,15.47,0,0,1-.14-3,1.81,1.81,0,0,0,.44-1.5c-.24-.74-.53-.56-.53-.56-.47.12-.35.75-.35.75l-.42-.28a28.43,28.43,0,0,0,0-3.63.87.87,0,0,0-.6-.62s1.22-2.65,4.92-1.94C208.33,91.83,209.88,94.33,209.88,94.33Z"/><polygon class="cls-32" points="212.88 125.34 209.69 130.56 209.28 133.94 215.04 128.14 212.88 125.34"/><path class="cls-18" d="M201,193.84V196H199v-.29a9.35,9.35,0,0,1-2,.29h-2.23a.61.61,0,0,1,.29-.76c.64-.46,2-.39,2.8-.89a6.84,6.84,0,0,0,1.4-1.08H201Z"/><path class="cls-18" d="M206.35,193.84V196h-1.83v-.29a8.39,8.39,0,0,1-1.92.29h-2.11a.63.63,0,0,1,.28-.76c.6-.46,1.85-.39,2.65-.89a6.88,6.88,0,0,0,1.32-1.08h1.61Z"/><path class="cls-33" d="M206.49,193.46H204s-3.27-31.82-2.33-32.13,5,0,5.6,9.21S206.49,193.46,206.49,193.46Z"/><path class="cls-34" d="M201.72,167.41s-1.34-13-1.67-19.59a72.09,72.09,0,0,1,0-10l9-.26s-.54,17.15-.73,20.34-1.1,12.6-1.1,12.6Z"/><path class="cls-35" d="M201.13,193.46h-2.5s-2.73-31.82-1.78-32.13,4.45,0,5.05,9.21S201.13,193.46,201.13,193.46Z"/><path class="cls-36" d="M196.67,162s0-8,0-14.59a72.53,72.53,0,0,1,.52-10l8,.42s-2.25,16.34-2.6,19.52-1.18,9.46-1.18,9.46Z"/><path class="cls-23" d="M210.87,110.59s7.92,12.18,7.7,13-3.53,4.53-3.53,4.53a29.79,29.79,0,0,1-2.79-2.73c.06-.18,1.73-1.8,1.73-1.8l-4.1-4.68Z"/><polygon class="cls-37" points="215.04 128.14 216.25 127.7 212.62 123.74 211.71 125.23 215.04 128.14"/><path class="cls-25" d="M209.1,137s2.37-24.72,1.77-26.4a6.34,6.34,0,0,0-2.55-3.63c-.82-.48-.74-.92-1.44-1.18-2.27-.87-3.25-.19-4.31,0-.33.08-.7.65-1.1.92-2.11,1.42-3.27,6.88-3.49,8.06a82.58,82.58,0,0,0-1.23,15.75c.13,3.19.39,6.44.39,6.44l5.36.58Z"/><polygon class="cls-37" points="209.1 137.97 209.1 136.99 202.5 137.26 197.14 137 197.08 137.79 202.55 138.2 209.1 137.97"/><polygon class="cls-37" points="207.91 106.66 206.94 105.16 202.35 105.16 201.23 106.91 206.09 107.4 207.91 106.66"/><polygon class="cls-23" points="204.83 109.98 203.87 124.31 201.38 137.2 203.28 137.23 205.17 128.18 204.83 109.98"/><path class="cls-25" d="M203.41,109l1.42.22s-.4,17-.47,18.27a63.14,63.14,0,0,1-2,6.86L199,134l1.15-6-1.28-15.2s.08-3,1.14-4S203.41,109,203.41,109Z"/><path class="cls-38" d="M202.29,135.17l-2.94-1.28-1.77,8.68-.44,1a11.79,11.79,0,0,0-1.27,1.74c-.35.7-.84,2.7-.35,2.76.27,0,.5-.64.64-1.24l-.21,1.07s-.65,1-.33,1.22.46-.07.67-.23c.49-.39.38.95,1,.33s.42.84,1-.31c.39-.73.59.34.88-.51a20.58,20.58,0,0,0,.51-3.14l0-.6Z"/><polygon class="cls-37" points="202.83 135.66 203.38 133.76 198.64 132.97 198.75 133.86 202.83 135.66"/><path class="cls-39" d="M143,100.61a18.59,18.59,0,0,0,.4,3.66c.12.44.56,1,.56,1.24s-.32.18-.37.37c-.13.55.07,2.68-.12,3.1s-2.57,0-3,.6c-.72,1.24.19,3.92.19,3.92l-2.36,1.77-1.24-4.87,1.58-7.34Z"/><polygon class="cls-40" points="131.24 133.71 135.52 139.8 135.35 141.18 130.04 135.44 131.24 133.71"/><path class="cls-23" d="M135,144.14s.38-5.23.45-6.62a60.76,60.76,0,0,0,.29-7.09c-.15-6.15-1.71-14.68-1-15.75.44-.72,3.53-2.19,3.53-2.19l2,0s1.73,3,2.43,4a9.45,9.45,0,0,1,1.75,3.89c0,2.07-1.1,1.87-1.25,2.6-1.35,6.51.49,12.83.67,14.05.25,1.77.37,8.3.37,8.3l-3.61.2Z"/><path class="cls-41" d="M146.33,203.09s-2.05-.79-2.31-1.42c-.07-.16.6-9.51.88-15.58.24-5.39.16-12.6.16-12.6s-2.1-2-2.55-1.46c-1,1.24-1.33,4.73-.52,15.05.22,2.85.8,15,.8,15l1.22,1.22,2.45.46Z"/><path class="cls-18" d="M142.79,202.05a1.81,1.81,0,0,0,0,1,1.34,1.34,0,0,1,0,.86h1v-.41l2.91.44h1.52s0-.3-.66-.56a4.17,4.17,0,0,0-1.18-.3v.33a5.94,5.94,0,0,1-1.83-.39A4.57,4.57,0,0,1,142.79,202.05Z"/><path class="cls-42" d="M141.89,203.05s-2-.83-2.28-1.47c-.07-.15.77-9.49,1.16-15.56.34-5.38.39-12.6.39-12.6s-2.06-2.06-2.52-1.5c-1,1.22-1.42,4.7-.8,15,.17,2.85.53,15,.53,15l1.2,1.24,2.44.51Z"/><path class="cls-18" d="M138.35,202a1.81,1.81,0,0,0,0,1,1.34,1.34,0,0,1,0,.86h1v-.41l2.9.43,1.52,0s0-.31-.66-.57a4,4,0,0,0-1.18-.29v.33a5.82,5.82,0,0,1-1.83-.4A4.48,4.48,0,0,1,138.35,202Z"/><path class="cls-43" d="M146.52,156.54c-.83-8.86-2.79-11.86-2.79-11.86s-3.42-.14-4.34-.34-4.1-.61-4.1-.61-1.88,2.41-2.44,7.83-2.91,21.7-2.91,21.7-.79.7,2.07,1.23h0a36.32,36.32,0,0,0,4.85.75l1.19,0h0a72.24,72.24,0,0,0,8.85-.38A167.8,167.8,0,0,0,146.52,156.54Z"/><path class="cls-23" d="M134.66,114.68s-8.31,15.32-8.11,16.09,3.39,4.81,3.39,4.81l1.3-1.87-1.76-3.09,5.34-9.67Z"/><path class="cls-14" d="M143.16,100.29a6.08,6.08,0,0,0-5-2.45c-3.67,0-4.55,2.33-4.57,4.61,0,3.57-7.14,2.18-5,10.46,1.06,4,6.76,4.69,8.25,3.73,3.31-2.14-.28-5.91,1.91-7.68,1.67-1.34,2.54-6.76,2.54-6.76a2.89,2.89,0,0,0,1.43-.81A1.82,1.82,0,0,0,143.16,100.29Z"/><path class="cls-12" d="M134.41,145.24,135,143s5.3,1.36,5.76,1.37l3.33,0,.18,1.28a19,19,0,0,1-5.13.36Z"/><path class="cls-44" d="M136.17,133.87l4.1,5.84a.7.7,0,0,1,.12.51l-.13,1.09L135,135.57l1.18-1.7A0,0,0,0,1,136.17,133.87Z"/><path class="cls-23" d="M139.57,114.81s-8.31,15.32-8.1,16.09,3.38,4.81,3.38,4.81l1.3-1.87-1.76-3.09,5.34-9.67Z"/><path class="cls-45" d="M251.66,76.16a22.68,22.68,0,0,0,1.24,2.34A11,11,0,0,0,254.42,80s-1.3.25-1.31,1.3.16,1.66-.11,2.07-.92.77-2.31.54-1-.25-1-.25a5.13,5.13,0,0,0-.38,1.18c0,.43.07,1.77.07,1.77s-.38,0-1.09,1-7.26-4.8-7.17-8.26,2.06-6.31,3.49-6.94c2.86-1.27,4-.19,4.34.16a2.73,2.73,0,0,1,.4,1.19s1.65-.08,2.09.84A2.2,2.2,0,0,1,251.66,76.16Z"/><polygon class="cls-46" points="247.42 128.9 247.79 166.21 248.68 168.79 250.89 169.45 249.56 167.13 250.37 129.27 247.42 128.9"/><path class="cls-47" d="M247.79,166.21a3.3,3.3,0,0,0-.6,1.19c-.2.72.33,1,.34,1.41s0,2.6,0,2.6h.12l.26-2.4a5.44,5.44,0,0,1,1.09.74c.74.59.83,1.81,1.64,1.92s2.66.18,2.66.18a12.41,12.41,0,0,1-1.92-1.68c-.36-.55-.5-.82-.5-.82a4.31,4.31,0,0,1-1.83-1.08A4.78,4.78,0,0,1,247.79,166.21Z"/><polygon class="cls-48" points="250.63 129.47 251 166.78 251.89 169.35 254.1 170.02 252.78 167.7 253.59 129.84 250.63 129.47"/><path class="cls-49" d="M244.18,87.27s-.21,11,1.66,19c.71,3.06-2.42,10.54-2.42,10.54l11.73-.44s-1.8-1.73-2.27-6.56c-.18-1.82.75-7.88.31-11.23-.16-1.27,1.83-.29,1.11-4.16-.4-2.15-3.48-6.87-3.48-6.87Z"/><polygon class="cls-12" points="244.18 87.27 244.81 85.87 251 86.92 253.46 92.13 250.04 88.04 244.18 87.27"/><path class="cls-50" d="M245.4,114.89s-1.55,3.38-1.42,5c.31,3.91,2,5.82,2.07,7s0,5.51,0,5.51l7.61.19s1.12-12.62.8-14.58-.52-2.93-.52-2.93Z"/><path class="cls-47" d="M251,166.78a3.5,3.5,0,0,0-.6,1.18c-.2.73.33,1,.35,1.41s0,2.61,0,2.61h.12l.26-2.39a5.21,5.21,0,0,1,1.09.73c.75.6.83,1.81,1.64,1.93s2.67.18,2.67.18a12,12,0,0,1-1.93-1.69c-.35-.54-.49-.82-.49-.82a4.4,4.4,0,0,1-1.84-1.07A4.78,4.78,0,0,1,251,166.78Z"/><ellipse class="cls-14" cx="243.6" cy="75.41" rx="4.66" ry="4.91"/><ellipse class="cls-14" cx="246.78" cy="73.56" rx="3.38" ry="3.56"/><ellipse class="cls-14" cx="242.21" cy="79.07" rx="3.65" ry="3.84"/><ellipse class="cls-14" cx="244.87" cy="82.7" rx="3.38" ry="3.56"/><ellipse class="cls-14" cx="246.92" cy="78.81" rx="2.24" ry="2.36"/><ellipse class="cls-14" cx="250.04" cy="75.29" rx="2.42" ry="2.55"/><path class="cls-51" d="M248.33,89.77c-.47-1.22-1.75-1.23-2.07-.58-2.22,4.46-6.62,14.21-6.38,14.79a31.22,31.22,0,0,0,3.67,4c.31.31,5.2,5.3,5.45,4.93l.56-.86c.18-.27-4.22-5.7-4.42-6l-1.63-2.11a.8.8,0,0,1-.07-.84s4.32-8.34,5.19-10.15a1.12,1.12,0,0,0,.08-.7Z"/><path class="cls-52" d="M287.71,81.29a18.28,18.28,0,0,0,.28,3.5c.1.42.51,1,.5,1.19s-.31.17-.36.35c-.14.52,0,2.56-.2,3s-2.45-.13-2.83.48c-.71,1.16.08,3.74.08,3.74l-2.3,1.62-1.05-4.68,1.71-7Z"/><polygon class="cls-53" points="275.83 108.81 280.78 115.06 280.59 116.18 274.68 110.19 275.83 108.81"/><path class="cls-23" d="M279.73,115.83s-.16,0-.05-1.26c.12-1.45.29-3.11.31-6.47,0-5.73-1.2-13.71-.55-14.69.43-.65,3.34-1.93,3.34-1.93l.72.08s4.81,5.18,4.88,7-1.32,2.15-1.48,2.82c-1.43,6,.26,12,.39,13.1a8.17,8.17,0,0,1,.08,2.23l-2.86.3Z"/><path class="cls-54" d="M287.93,176s-1.88-.8-2.11-1.4c-.05-.14.82-8.82,1.24-14.46.37-5,.48-11.73.48-11.73s-1.89-1.94-2.33-1.42c-.93,1.12-1.36,4.35-.89,14,.13,2.66.35,14,.35,14l1.1,1.17,2.27.5Z"/><path class="cls-18" d="M284.67,174.93a1.7,1.7,0,0,0,0,.93,1.22,1.22,0,0,1,0,.79l.91,0v-.38l2.69.49,1.41.06s0-.29-.6-.55a3.59,3.59,0,0,0-1.09-.3l0,.3a5.54,5.54,0,0,1-1.69-.42A4.23,4.23,0,0,1,284.67,174.93Z"/><path class="cls-55" d="M283.81,175.84s-1.87-.84-2.09-1.44c-.05-.14,1-8.8,1.5-14.44.46-5,.69-11.71.69-11.71s-1.85-2-2.29-1.47c-1,1.11-1.45,4.33-1.15,14,.08,2.65.09,13.95.09,13.95l1.09,1.19,2.25.54Z"/><path class="cls-18" d="M280.54,174.76a1.73,1.73,0,0,0,0,.93,1.22,1.22,0,0,1,0,.79l.9,0v-.38l2.69.49,1.42.06s0-.29-.6-.55a3.59,3.59,0,0,0-1.09-.3l0,.3a5.47,5.47,0,0,1-1.69-.42A4.22,4.22,0,0,1,280.54,174.76Z"/><path class="cls-56" d="M287.38,117.14a30.34,30.34,0,0,1-3.88-.22c-.85-.21-3.79-.69-3.79-.69a107.11,107.11,0,0,1-3.21,15.93c-2,6.29-5.42,15.52-5.42,15.52a43.32,43.32,0,0,0,8.79,2.13,63.08,63.08,0,0,0,9.36,0s.42-10.46.43-18.14A51.36,51.36,0,0,0,287.38,117.14Z"/><path class="cls-12" d="M279.71,116.23l0-.4s4.12.74,4.54.76l3.1.13v.42a14.44,14.44,0,0,1-3.17.06Z"/><path class="cls-57" d="M271.08,147.68a25.41,25.41,0,0,0,4.29,1.3c2.65.57,5.62.92,5.62.92s2-12.58,2-18.31S283,117,283,117l-3.24-.72a58,58,0,0,0-3.28,11.46C275.76,132.72,271.08,147.68,271.08,147.68Z"/><path class="cls-23" d="M279.44,93.41s-8.08,12.23-7.9,12.86a33.78,33.78,0,0,0,3,4l1.25-1.49-1.56-2.56,5.17-7.72Z"/><polygon class="cls-58" points="274.4 110.7 276.36 108.84 275.83 107.59 273.94 110.68 274.4 110.7"/><path class="cls-25" d="M281,98.78s7.18,11.17,8.08,11.1c1.26-.1,3.15-6.26,3.15-6.26l-1.49-1.1L289,106.67s-4.68-8.62-4.93-8.8-1.84.14-2.91-.11S280.61,98.34,281,98.78Z"/><path class="cls-59" d="M295.34,94.58c.28-.75-.29-.13-.21-.69s-.43,0-.44-.41.06-.37-.12-.47-.41.42-.74.82a3.74,3.74,0,0,0-.58,1.06s.16-1.16-.07-1.36-.41.9-.49,1.38a5.13,5.13,0,0,0,.12,1.4l-.11.85-2,5.36,1.64.61L293.92,98l.52-1.29s.71-1,1-1.43S295.16,95.06,295.34,94.58Z"/><polygon class="cls-58" points="292.89 102.96 292.34 104.3 290.55 102.3 290.57 101.77 292.89 102.96"/><path class="cls-60" d="M287.88,81a5.8,5.8,0,0,0-4.7-2.48c-3.49-.15-4.39,2.08-4.48,4.25-.12,3.4,1.21,4.19-1.56,5.58-2.54,1.28-2.65,3.11-2.73,5.29,0,0-4.54,1.5-2.3,6.67,1,2.38,4.4,2.83,5.72,1.34,1.73-2,2.79-.75,3.86-.54a2.8,2.8,0,0,0,2.75-.81c1.23-1.08,1.76-3.59.62-6.76-.23-.64-2.69-3.24-.56-4.86,1.63-1.23,1.59-5.92,1.59-5.92a2.74,2.74,0,0,0,1.38-.72A1.74,1.74,0,0,0,287.88,81Z"/><path class="cls-61" d="M371.51,168a8.93,8.93,0,0,0,1.33,2.43,6.16,6.16,0,0,0,1.66.9,3.79,3.79,0,0,0-.76,2c0,1.08.16,1.7-.14,2.12s-1,.77-2.53.49-1.83-.29-1.83-.29a4.71,4.71,0,0,0-.42,1.2c0,.44.07,1.81.07,1.81s-.43,0-1.22,1a17.32,17.32,0,0,0-1.33,2.1l-.34.58s-.49.69-1.68,2.43-4.54-10.22-4.41-13.77,2.32-6.42,3.88-7c3.14-1.23,4.41-.09,4.75.28a2.65,2.65,0,0,1,.43,1.23s1.8,0,2.27.91A2.22,2.22,0,0,1,371.51,168Z"/><polygon class="cls-62" points="366.92 222.05 367.3 260.32 368.21 262.97 370.49 263.65 369.13 261.27 369.95 222.43 366.92 222.05"/><path class="cls-47" d="M367.3,260.32a3.62,3.62,0,0,0-.61,1.22c-.21.75.34,1,.35,1.45s0,2.67,0,2.67h.12l.27-2.46a5.3,5.3,0,0,1,1.11.75c.77.61.85,1.86,1.69,2s2.73.19,2.73.19a12.31,12.31,0,0,1-2-1.74,9.27,9.27,0,0,1-.51-.84,4.41,4.41,0,0,1-1.88-1.1A4.89,4.89,0,0,1,367.3,260.32Z"/><polygon class="cls-63" points="370.22 221.95 370.6 260.22 371.51 262.87 373.78 263.55 372.42 261.17 373.25 222.33 370.22 221.95"/><path class="cls-64" d="M364.25,178.66s1.52,11.68,1.71,20.2c.07,3.3-1.84,9.44-1.84,9.44l11.38.23a17.43,17.43,0,0,1-2.17-7.47c-.18-1.87.62-7.34.17-10.78-.17-1.3,2.69-1.37,2.14-4.69-.36-2.21-4.57-6.62-4.57-6.62Z"/><polygon class="cls-9" points="364.25 178.66 364.9 177.22 371.25 178.3 373.78 183.64 370.27 179.45 364.25 178.66"/><path class="cls-65" d="M365.5,207s-1.59,3.47-1.45,5.18c.32,4,2.05,6,2.12,7.13s.05,5.4.05,5.4l7.77.45s1.16-13,.83-15-.53-3-.53-3Z"/><path class="cls-47" d="M370.6,260.22a3.42,3.42,0,0,0-.61,1.22c-.21.75.33,1,.35,1.45s0,2.67,0,2.67h.12l.27-2.46a5.14,5.14,0,0,1,1.12.75c.77.61.85,1.86,1.68,2s2.74.19,2.74.19a12.72,12.72,0,0,1-2-1.74,8.49,8.49,0,0,1-.5-.84,4.35,4.35,0,0,1-1.88-1.1A4.89,4.89,0,0,1,370.6,260.22Z"/><path class="cls-66" d="M372.24,166c-.55-1-2.63-1-2.63-1a2.54,2.54,0,0,0-.51-1.23c-.4-.38-1.89-1.55-5.48-.37-1.79.59-4.26,3.44-4.36,7s2.19,7.82,2.3,9.73c.22,3.81-4.3,2.65-4.3,2.65s1.75,3.48,3.51,3.9c2.14.51,6.28-1.3,7.62-3l.72-.91-1.14-3.6a31.71,31.71,0,0,1-1-6.34c0-2.47,2.12-2.77,3.9-2.91s1.74-2.37,1.74-2.37A2,2,0,0,0,372.24,166Z"/><path class="cls-67" d="M176.35,79.63a10.91,10.91,0,0,0,0,2.51c.21,1.44.77,2.78.65,3-.21.44-.94.43-.94.43s.5,3,.28,3.34-2.45-.38-2.45-.38l-.76,1.19-3.84-.5v-.89l2.86-7.2Z"/><polygon class="cls-12" points="169.29 90.45 169.29 89.25 173.13 89.75 173.89 91.16 172.82 90.46 169.29 90.45"/><path class="cls-68" d="M168.13,79.61c-.74,2.75,1.16,8.75,1.16,8.75l3.27.58V86s-.91-1.34-.54-2,.4-.89.93-.63,1,1.59,1,1.59l.68-.31a11.34,11.34,0,0,1,0-2.87c.25-.45,1.77-2.17,1.77-2.17s-2.11-2.3-4.19-1.92A10.87,10.87,0,0,0,168.13,79.61Z"/><path class="cls-14" d="M179.33,165.85a28.64,28.64,0,0,0-4.07.23c.7-.3,1.12-.53.92-.58a12.33,12.33,0,0,0-2.26.06l.29-40,1.68-.24a71.92,71.92,0,0,0,0-17.78c-.55-4.3-.75-8.2-1-11.19l-.38-3.1c-.32-1.76-.78-2.78-1.61-2.78h-3.62a26.83,26.83,0,0,0-1.72,5.08L162.3,108l5.12,13.13a21.79,21.79,0,0,1-1.11,4.63h2.92l-.07,42h.05v.06l1.53,0,0,0H171v-.06c.28-.1.79-.27,1.38-.49l0,1,1.53,0S180,166,179.33,165.85ZM164.8,108.48l1.57-3.46a54.5,54.5,0,0,0,.34,8.48ZM171,165.83l.89-27.58.41,27.45Z"/></g><g id="shadows"><path class="cls-69" d="M414,277.45l-37.8-11.56a83.44,83.44,0,0,1-9.27-1L410.7,281"/><path class="cls-70" d="M379.77,298.18,327,281.89c-2.51.07-11.57.93-11.57.93L371,301.29"/><path class="cls-71" d="M203.66,221.42l-56.43-17.31a26.55,26.55,0,0,0-9.15,0l62.28,23.14"/><path class="cls-72" d="M318,184.86l-29.81-9.06a44.75,44.75,0,0,0-8.63.1l29.28,10.16"/><path class="cls-73" d="M304.19,186.65l-47.51-15a67.5,67.5,0,0,0-9.24-.94l46.26,17.33"/><path class="cls-74" d="M217.66,198.22l-11.4-3.66c-2.51.07-11.56.93-11.56.93l20.58,6.86"/></g></g></svg>