<svg xmlns="http://www.w3.org/2000/svg" xmlns:xlink="http://www.w3.org/1999/xlink" viewBox="0 0 498.04 498.04"><defs><style>.cls-1{fill:none;}.cls-2{fill:#adc94a;}.cls-3{isolation:isolate;}.cls-4,.cls-6,.cls-7,.cls-70{opacity:0.3;}.cls-13,.cls-14,.cls-15,.cls-24,.cls-25,.cls-27,.cls-4,.cls-6,.cls-7,.cls-70{mix-blend-mode:multiply;}.cls-4{fill:url(#linear-gradient);}.cls-5{fill:#fff;}.cls-6{fill:url(#linear-gradient-2);}.cls-7{fill:url(#linear-gradient-3);}.cls-8{fill:url(#linear-gradient-4);}.cls-9{fill:#006984;}.cls-10{fill:url(#linear-gradient-5);}.cls-11{fill:url(#linear-gradient-6);}.cls-12{clip-path:url(#clip-path);}.cls-13,.cls-14,.cls-15,.cls-24,.cls-25,.cls-27{opacity:0.2;}.cls-13{fill:url(#linear-gradient-7);}.cls-14{fill:url(#linear-gradient-8);}.cls-15{fill:url(#linear-gradient-9);}.cls-16{fill:url(#linear-gradient-10);}.cls-17{fill:#8dac3d;}.cls-18{fill:url(#linear-gradient-11);}.cls-19{fill:url(#New_Gradient_Swatch_3);}.cls-20{fill:url(#New_Gradient_Swatch_1);}.cls-21{fill:#00b5cd;}.cls-22{fill:url(#linear-gradient-12);}.cls-23{clip-path:url(#clip-path-2);}.cls-24{fill:url(#linear-gradient-13);}.cls-25{fill:url(#linear-gradient-14);}.cls-26{clip-path:url(#clip-path-3);}.cls-27{fill:url(#linear-gradient-15);}.cls-28{fill:url(#linear-gradient-16);}.cls-29{fill:url(#linear-gradient-17);}.cls-30{fill:#35495e;}.cls-31{fill:url(#linear-gradient-18);}.cls-32{fill:url(#New_Gradient_Swatch_1-2);}.cls-33{fill:url(#New_Gradient_Swatch_1-3);}.cls-34{fill:url(#New_Gradient_Swatch_5);}.cls-35{fill:url(#New_Gradient_Swatch_5-2);}.cls-36{fill:#e5f1fa;}.cls-37{fill:url(#New_Gradient_Swatch_5-3);}.cls-38{fill:#22313f;}.cls-39{fill:url(#New_Gradient_Swatch_5-4);}.cls-40{fill:url(#linear-gradient-19);}.cls-41{fill:#d4e4ef;}.cls-42{fill:#231f20;}.cls-43{fill:url(#New_Gradient_Swatch_5-5);}.cls-44{fill:url(#linear-gradient-20);}.cls-45{fill:url(#New_Gradient_Swatch_5-6);}.cls-46{fill:url(#linear-gradient-21);}.cls-47{fill:url(#linear-gradient-22);}.cls-48{fill:url(#linear-gradient-23);}.cls-49{fill:url(#linear-gradient-24);}.cls-50{fill:#0087aa;}.cls-51{fill:url(#New_Gradient_Swatch_5-7);}.cls-52{fill:url(#linear-gradient-25);}.cls-53{fill:url(#linear-gradient-26);}.cls-54{fill:url(#linear-gradient-27);}.cls-55{fill:url(#linear-gradient-28);}.cls-56{fill:#ded9d2;}.cls-57{fill:url(#linear-gradient-29);}.cls-58{fill:url(#linear-gradient-30);}.cls-59{fill:#94a4a5;}.cls-60{fill:url(#linear-gradient-31);}.cls-61{fill:url(#linear-gradient-32);}.cls-62{fill:url(#linear-gradient-33);}.cls-63{fill:url(#linear-gradient-34);}.cls-64{fill:url(#New_Gradient_Swatch_3-2);}.cls-65{fill:url(#New_Gradient_Swatch_3-3);}.cls-66{fill:url(#New_Gradient_Swatch_1-4);}.cls-67{fill:url(#New_Gradient_Swatch_1-5);}.cls-68{fill:url(#linear-gradient-35);}.cls-69{fill:url(#New_Gradient_Swatch_5-8);}.cls-70{fill:url(#linear-gradient-36);}.cls-71{fill:url(#New_Gradient_Swatch_1-6);}.cls-72{fill:url(#New_Gradient_Swatch_1-7);}</style><linearGradient id="linear-gradient" x1="391.55" y1="366.95" x2="452.36" y2="506.32" gradientUnits="userSpaceOnUse"><stop offset="0" stop-color="#231f20"/><stop offset="1" stop-color="#fff"/></linearGradient><linearGradient id="linear-gradient-2" x1="325.05" y1="343.17" x2="358.36" y2="413.46" xlink:href="#linear-gradient"/><linearGradient id="linear-gradient-3" x1="259.67" y1="297.21" x2="297.6" y2="362.95" xlink:href="#linear-gradient"/><linearGradient id="linear-gradient-4" x1="203.49" y1="281.91" x2="242.57" y2="281.91" gradientUnits="userSpaceOnUse"><stop offset="0.07" stop-color="#afcd4b"/><stop offset="0.65" stop-color="#408767"/><stop offset="1" stop-color="#026077"/></linearGradient><linearGradient id="linear-gradient-5" x1="131.44" y1="362.68" x2="242.57" y2="362.68" gradientUnits="userSpaceOnUse"><stop offset="0.01" stop-color="#afcd4b"/><stop offset="0.05" stop-color="#a6c74d"/><stop offset="0.39" stop-color="#609b5f"/><stop offset="0.67" stop-color="#2d7b6c"/><stop offset="0.88" stop-color="#0e6774"/><stop offset="1" stop-color="#026077"/></linearGradient><linearGradient id="linear-gradient-6" x1="47.54" y1="421.05" x2="242.57" y2="421.05" gradientUnits="userSpaceOnUse"><stop offset="0.07" stop-color="#afcd4b"/><stop offset="0.15" stop-color="#9ec24f"/><stop offset="0.56" stop-color="#4a8e65"/><stop offset="0.86" stop-color="#166d72"/><stop offset="1" stop-color="#026077"/></linearGradient><clipPath id="clip-path"><polygon class="cls-1" points="437.6 365.11 242.57 297.54 47.54 365.11 242.57 432.68 437.6 365.11"/></clipPath><linearGradient id="linear-gradient-7" x1="570.43" y1="347.74" x2="304.18" y2="502.55" gradientTransform="matrix(1.02, -0.09, 3.96, 0.64, -1919.18, 170.79)" xlink:href="#linear-gradient"/><linearGradient id="linear-gradient-8" x1="123.43" y1="367.79" x2="-145.25" y2="524.01" gradientTransform="matrix(-0.97, 0.23, 0.23, 0.97, 269.99, 5.37)" xlink:href="#linear-gradient"/><linearGradient id="linear-gradient-9" x1="451.07" y1="405.83" x2="182.98" y2="561.72" gradientTransform="matrix(1.02, -0.09, 3.96, 0.64, -1919.18, 170.79)" xlink:href="#linear-gradient"/><linearGradient id="linear-gradient-10" x1="233.38" y1="79.2" x2="247.92" y2="79.2" gradientUnits="userSpaceOnUse"><stop offset="0" stop-color="#d08859"/><stop offset="0.07" stop-color="#d99665"/><stop offset="0.19" stop-color="#e4a775"/><stop offset="0.34" stop-color="#ecb480"/><stop offset="0.54" stop-color="#f1bb86"/><stop offset="1" stop-color="#f2bd88"/></linearGradient><linearGradient id="linear-gradient-11" x1="325.67" y1="61.82" x2="361.25" y2="103.38" gradientTransform="translate(-99.47)" gradientUnits="userSpaceOnUse"><stop offset="0.14" stop-color="#35495e"/><stop offset="0.41" stop-color="#374b60"/><stop offset="0.56" stop-color="#3e5365"/><stop offset="0.68" stop-color="#4a616f"/><stop offset="0.79" stop-color="#5c757c"/><stop offset="0.88" stop-color="#728e8e"/><stop offset="0.97" stop-color="#8daca3"/><stop offset="1" stop-color="#99baad"/></linearGradient><linearGradient id="New_Gradient_Swatch_3" x1="303.64" y1="172.24" x2="318.18" y2="172.24" gradientUnits="userSpaceOnUse"><stop offset="0" stop-color="#d08859"/><stop offset="1" stop-color="#f2bd88"/></linearGradient><linearGradient id="New_Gradient_Swatch_1" x1="409.98" y1="74.19" x2="409.98" y2="406.06" gradientTransform="translate(-99.47)" gradientUnits="userSpaceOnUse"><stop offset="0.13" stop-color="#233446"/><stop offset="0.51" stop-color="#253647"/><stop offset="0.71" stop-color="#2d3e4a"/><stop offset="0.88" stop-color="#3a4c50"/><stop offset="1" stop-color="#495c56"/></linearGradient><linearGradient id="linear-gradient-12" x1="395.93" y1="154.87" x2="431.51" y2="196.42" xlink:href="#linear-gradient-11"/><clipPath id="clip-path-2"><polygon class="cls-1" points="353.69 321.75 242.57 283.25 131.44 321.75 242.57 360.26 353.69 321.75"/></clipPath><linearGradient id="linear-gradient-13" x1="789.82" y1="310.38" x2="518.25" y2="468.28" gradientTransform="matrix(1.02, -0.09, 3.96, 0.64, -1919.18, 170.79)" xlink:href="#linear-gradient"/><linearGradient id="linear-gradient-14" x1="77.93" y1="286.98" x2="-192.2" y2="444.05" gradientTransform="matrix(-0.97, 0.23, 0.23, 0.97, 269.99, 5.37)" xlink:href="#linear-gradient"/><clipPath id="clip-path-3"><polyline class="cls-2" points="203.49 228.53 242.57 242.07 281.64 228.53 242.57 214.99"/></clipPath><linearGradient id="linear-gradient-15" x1="126.68" y1="181.95" x2="-144.63" y2="339.71" gradientTransform="matrix(-0.97, 0.23, 0.23, 0.97, 269.99, 5.37)" xlink:href="#linear-gradient"/><linearGradient id="linear-gradient-16" x1="275.53" y1="270.92" x2="301.36" y2="270.92" gradientTransform="matrix(0.81, -0.03, 0, 1, 48.41, 9.25)" gradientUnits="userSpaceOnUse"><stop offset="0" stop-color="#d08859"/><stop offset="0.07" stop-color="#da9867"/><stop offset="0.17" stop-color="#e5a976"/><stop offset="0.31" stop-color="#ecb480"/><stop offset="0.49" stop-color="#f1bb86"/><stop offset="1" stop-color="#f2bd88"/></linearGradient><linearGradient id="linear-gradient-17" x1="281.25" y1="374.37" x2="286.72" y2="374.37" gradientUnits="userSpaceOnUse"><stop offset="0" stop-color="#d08859"/><stop offset="0.07" stop-color="#d89564"/><stop offset="0.2" stop-color="#e4a774"/><stop offset="0.35" stop-color="#ecb380"/><stop offset="0.56" stop-color="#f1bb86"/><stop offset="1" stop-color="#f2bd88"/></linearGradient><linearGradient id="linear-gradient-18" x1="286.31" y1="375.22" x2="291.79" y2="375.22" xlink:href="#linear-gradient-17"/><linearGradient id="New_Gradient_Swatch_1-2" x1="716.65" y1="279.41" x2="716.65" y2="384.94" gradientTransform="translate(-426.12 -12.78) rotate(1.1)" xlink:href="#New_Gradient_Swatch_1"/><linearGradient id="New_Gradient_Swatch_1-3" x1="716.69" y1="321.37" x2="716.69" y2="383.95" gradientTransform="translate(-426.12 -12.78) rotate(1.1)" xlink:href="#New_Gradient_Swatch_1"/><linearGradient id="New_Gradient_Swatch_5" x1="382.41" y1="224.26" x2="392.94" y2="224.26" gradientUnits="userSpaceOnUse"><stop offset="0.23" stop-color="#a5532a"/><stop offset="0.38" stop-color="#a8572d"/><stop offset="0.53" stop-color="#b06338"/><stop offset="0.68" stop-color="#bf774a"/><stop offset="0.83" stop-color="#d39262"/><stop offset="0.97" stop-color="#edb682"/><stop offset="1" stop-color="#f2bd88"/></linearGradient><linearGradient id="New_Gradient_Swatch_5-2" x1="371.81" y1="267.99" x2="380.36" y2="267.99" xlink:href="#New_Gradient_Swatch_5"/><linearGradient id="New_Gradient_Swatch_5-3" x1="390.2" y1="342.33" x2="398.17" y2="342.33" xlink:href="#New_Gradient_Swatch_5"/><linearGradient id="New_Gradient_Swatch_5-4" x1="384.03" y1="342.28" x2="391.28" y2="342.28" xlink:href="#New_Gradient_Swatch_5"/><linearGradient id="linear-gradient-19" x1="397.14" y1="284.18" x2="353.63" y2="371.82" gradientUnits="userSpaceOnUse"><stop offset="0" stop-color="#35495e"/><stop offset="0.41" stop-color="#2c3e50"/><stop offset="1" stop-color="#22313f"/></linearGradient><linearGradient id="New_Gradient_Swatch_5-5" x1="206.43" y1="264.88" x2="215.88" y2="264.88" xlink:href="#New_Gradient_Swatch_5"/><linearGradient id="linear-gradient-20" x1="561.31" y1="239.69" x2="593.42" y2="277.18" gradientTransform="matrix(-0.98, -0.21, -0.21, 0.98, 826.56, 135.18)" xlink:href="#linear-gradient-11"/><linearGradient id="New_Gradient_Swatch_5-6" x1="219.9" y1="309.98" x2="229.21" y2="309.98" xlink:href="#New_Gradient_Swatch_5"/><linearGradient id="linear-gradient-21" x1="141.79" y1="322.3" x2="141.79" y2="410.74" gradientTransform="matrix(-1, 0, 0, 1, 353.91, 0)" gradientUnits="userSpaceOnUse"><stop offset="0" stop-color="#35495e"/><stop offset="0.26" stop-color="#2d3f51"/><stop offset="0.65" stop-color="#253443"/><stop offset="1" stop-color="#22313f"/></linearGradient><linearGradient id="linear-gradient-22" x1="141.73" y1="322.26" x2="141.73" y2="410.69" xlink:href="#linear-gradient-21"/><linearGradient id="linear-gradient-23" x1="150.05" y1="330.88" x2="150.05" y2="405.53" gradientTransform="matrix(-1, 0, 0, 1, 353.91, 0)" gradientUnits="userSpaceOnUse"><stop offset="0" stop-color="#35495e"/><stop offset="0.15" stop-color="#34485c"/><stop offset="1" stop-color="#314458"/></linearGradient><linearGradient id="linear-gradient-24" x1="147.51" y1="330.88" x2="147.51" y2="405.53" xlink:href="#linear-gradient-23"/><linearGradient id="New_Gradient_Swatch_5-7" x1="197.33" y1="328.44" x2="208.6" y2="328.44" xlink:href="#New_Gradient_Swatch_5"/><linearGradient id="linear-gradient-25" x1="164.92" y1="180.25" x2="176" y2="180.25" xlink:href="#linear-gradient-10"/><linearGradient id="linear-gradient-26" x1="179.59" y1="217.93" x2="187.91" y2="217.93" xlink:href="#linear-gradient-10"/><linearGradient id="linear-gradient-27" x1="165.67" y1="297.12" x2="172.18" y2="297.12" xlink:href="#linear-gradient-10"/><linearGradient id="linear-gradient-28" x1="172.53" y1="296.81" x2="178.41" y2="296.81" xlink:href="#linear-gradient-10"/><linearGradient id="linear-gradient-29" x1="-148.32" y1="233.42" x2="-169.5" y2="282.22" gradientTransform="matrix(-0.99, 0.12, 0.13, 1.12, -19.95, -16.21)" xlink:href="#linear-gradient-23"/><linearGradient id="linear-gradient-30" x1="-170.33" y1="233.19" x2="-217.69" y2="328.58" gradientTransform="matrix(-1, 0.04, 0.04, 1, -10.93, 6.78)" xlink:href="#linear-gradient-19"/><linearGradient id="linear-gradient-31" x1="155.64" y1="198.7" x2="161.23" y2="198.7" xlink:href="#linear-gradient-10"/><linearGradient id="linear-gradient-32" x1="153.28" y1="191.83" x2="157.96" y2="191.83" xlink:href="#linear-gradient-10"/><linearGradient id="linear-gradient-33" x1="-205.58" y1="212.61" x2="-134.48" y2="133.38" gradientTransform="matrix(-1, 0.04, 0.04, 1, -10.93, 6.78)" xlink:href="#linear-gradient-11"/><linearGradient id="linear-gradient-34" x1="87.26" y1="230.58" x2="113.08" y2="230.58" gradientTransform="matrix(0.87, 0.01, 0.01, 1, 9.87, -1.09)" gradientUnits="userSpaceOnUse"><stop offset="0" stop-color="#f2bd88"/><stop offset="0.26" stop-color="#efb883"/><stop offset="0.57" stop-color="#e5a976"/><stop offset="0.9" stop-color="#d59061"/><stop offset="1" stop-color="#d08859"/></linearGradient><linearGradient id="New_Gradient_Swatch_3-2" x1="95.11" y1="331.24" x2="100.58" y2="331.24" xlink:href="#New_Gradient_Swatch_3"/><linearGradient id="New_Gradient_Swatch_3-3" x1="90.04" y1="331.1" x2="95.52" y2="331.1" xlink:href="#New_Gradient_Swatch_3"/><linearGradient id="New_Gradient_Swatch_1-4" x1="334" y1="242.63" x2="334" y2="345.74" gradientTransform="matrix(-1, 0.02, 0.02, 1, 424.91, -12.78)" xlink:href="#New_Gradient_Swatch_1"/><linearGradient id="New_Gradient_Swatch_1-5" x1="333.87" y1="284.56" x2="333.87" y2="347.14" gradientTransform="matrix(-1, 0.02, 0.02, 1, 424.91, -12.78)" xlink:href="#New_Gradient_Swatch_1"/><linearGradient id="linear-gradient-35" x1="337.74" y1="225.46" x2="294.56" y2="268.63" gradientTransform="matrix(-1, 0.02, 0.02, 1, 424.91, -12.78)" xlink:href="#linear-gradient-11"/><linearGradient id="New_Gradient_Swatch_5-8" x1="379.42" y1="268.12" x2="387.92" y2="268.12" xlink:href="#New_Gradient_Swatch_5"/><linearGradient id="linear-gradient-36" x1="-27.1" y1="372.52" x2="-61.28" y2="392.39" gradientTransform="matrix(-0.97, 0.23, 0.23, 0.97, 269.99, 5.37)" gradientUnits="userSpaceOnUse"><stop offset="0" stop-color="#231f20"/><stop offset="0.1" stop-color="#292526"/><stop offset="0.24" stop-color="#3a3637"/><stop offset="0.39" stop-color="#565354"/><stop offset="0.57" stop-color="#7d7b7b"/><stop offset="0.75" stop-color="#afaeae"/><stop offset="0.94" stop-color="#ebebeb"/><stop offset="1" stop-color="#fff"/></linearGradient><linearGradient id="New_Gradient_Swatch_1-6" x1="339.47" y1="-19.02" x2="339.47" y2="312.84" xlink:href="#New_Gradient_Swatch_1"/><linearGradient id="New_Gradient_Swatch_1-7" x1="269.34" y1="302.18" x2="284.58" y2="302.18" gradientTransform="matrix(1, -0.08, 0.08, 1.06, -23.86, 1.17)" xlink:href="#New_Gradient_Swatch_1"/></defs><g class="cls-3"><g id="Layer_1" data-name="Layer 1"><polygon class="cls-4" points="632.63 468 437.6 409.43 242.57 477 437.6 544.57 632.63 468"/><polygon class="cls-5" points="353.69 321.75 242.57 283.25 131.44 321.75 242.57 360.26 353.69 321.75"/><polygon class="cls-2" points="353.69 321.75 242.57 283.25 131.44 321.75 242.57 360.26 353.69 321.75"/><polygon class="cls-2" points="437.6 365.11 242.57 297.54 47.54 365.11 242.57 432.68 437.6 365.11"/><polygon class="cls-6" points="464.82 403.61 353.69 365.11 242.57 403.61 353.69 442.11 464.82 403.61"/><polygon class="cls-7" points="320.72 335.29 281.64 321.75 242.57 335.29 281.64 348.83 320.72 335.29"/><polygon class="cls-8" points="203.49 228.53 203.49 321.75 242.57 335.29 242.57 242.07 203.49 228.53"/><polygon class="cls-9" points="281.64 228.53 281.64 321.75 242.57 335.29 242.57 242.07 281.64 228.53"/><polygon class="cls-10" points="242.57 403.61 242.57 360.26 131.44 321.75 131.44 365.11 242.57 403.61"/><polygon class="cls-9" points="353.69 321.75 353.69 365.11 242.57 403.61 242.57 360.26 353.69 321.75"/><polygon class="cls-11" points="242.57 477 242.57 432.68 47.54 365.11 47.54 409.43 242.57 477"/><polygon class="cls-9" points="437.6 365.11 437.6 409.43 242.57 477 242.57 432.68 437.6 365.11"/><g class="cls-12"><path class="cls-13" d="M338.73,446.3l-6.79,1.46h0l6.79-1.46c-18.14-10.73-60.31-25.08-75.62-29.32a146.91,146.91,0,0,1-27.49-10.81l-5.62,1.2L99.31,362.17a9.66,9.66,0,0,0-2.92.89L94,363l-2.37.6-5.22,1.54c3,.61,134.79,44.52,134.79,44.52l-2.51,1s23.18,9.65,54.73,19.59c25.95,8.18,45.75,15.4,54.39,17.2h0l5.78,1.23,2.21,1.63s-6.43.14-5.87.59,10.83,3.57,10.83,3.57-1.43.29-.47.86c.53.32,5.72,1.56,10.57,3.06,3.93,1.22,7.74,2.77,7.74,2.77s11.14,1.66,14,.38a3,3,0,0,0,1.86-3.77c-7-3.33-29.17-9.15-29.17-9.15l-2.76-1ZM97.49,364.44l88.92,30.32S96.84,364.66,97.49,364.44Z"/><path class="cls-14" d="M484,472.12l2.38.73s10.48,5.66,19.85,7.61a163.07,163.07,0,0,0,16.55-.06c6.93-.52,6.86-3.24,6.86-3.24a68.94,68.94,0,0,1-6.68-2.06c-3.21-1.26-5.17-2.58-6.15-2.73a14.92,14.92,0,0,0-3.83,0s-6.56-2.67-8.07-2.84-6,1.29-6,1.29l-5.31-.67L492,468.72h0c-2.14-2.16-19.78-7.43-37.59-14.2C432.75,446.28,407.21,440,407.21,440l-5.42.48L293.12,407.94c-2.47-1-3.49-.6-4.15-1.35l-2.83.6c-2.27.06-7.84.6-7.84.6L387,442.29l-8.32,1.17s19.59,3.45,27.7,7.39,41.42,15,74.4,20.28l10.05-1.41h0l-10.05,1.41ZM361.62,431,286,408.83C287.25,408.71,361.62,431,361.62,431Z"/><path class="cls-15" d="M448.56,494.62l-6.79,1.45h0l6.79-1.45c-18.14-10.74-60.31-25.09-75.62-29.32a147.33,147.33,0,0,1-27.49-10.82l-5.62,1.21-127.16-45.2-1.15.57h-.67l-3.28-1,0,0-.34.07.19.07c-.24.22-.67.62-1.16,1.11l-3-1.06-2.82.68-1.61,1.11C201.8,412.72,331,458,331,458l-2.5,1s23.17,9.65,54.72,19.59c25.95,8.17,45.75,15.4,54.39,17.19h0l5.78,1.24,2.21,1.62s-6.43.15-5.87.6,10.83,3.56,10.83,3.56-1.42.29-.47.87c.53.32,5.73,1.56,10.57,3.06,3.93,1.21,7.74,2.77,7.74,2.77s11.14,1.66,14,.38a3,3,0,0,0,1.86-3.78c-7-3.32-29.17-9.14-29.17-9.14l-2.76-1ZM213,412.33l83.28,30.75S212.31,412.54,213,412.33Z"/></g><path class="cls-16" d="M246.65,70.09a18.87,18.87,0,0,0,0,4.53c.41,2.59,1.46,5,1.24,5.44-.4.79-1.77.78-1.77.78s1,5.43.53,6-4.61-.68-4.61-.68l-1.42,2.14-7.24-.88V85.82l5.37-13Z"/><polygon class="cls-17" points="233.38 89.59 233.38 87.43 240.62 88.31 242.04 90.84 240.03 89.59 233.38 89.59"/><path class="cls-18" d="M231.15,70.09c-1.37,4.94,2.23,15.73,2.23,15.73l6.15,1V81.57s-1.72-2.41-1-3.56.76-1.6,1.76-1.15S242,79.73,242,79.73l1.28-.57s-.46-4.36,0-5.17a50.8,50.8,0,0,1,3.33-3.9s-4-4.13-7.9-3.44A20.9,20.9,0,0,0,231.15,70.09Z"/><path class="cls-19" d="M316.91,163.13a18.87,18.87,0,0,0,0,4.53c.41,2.59,1.46,5,1.24,5.44-.4.8-1.77.78-1.77.78s1,5.43.53,6-4.61-.68-4.61-.68l-1.42,2.14-7.24-.88v-1.61l5.37-13Z"/><path class="cls-20" d="M322.81,318.28a56.38,56.38,0,0,0-7.67.42c1.3-.53,2.11-.95,1.72-1.05a25.15,25.15,0,0,0-4.25.13l.41-72,3.18-.43a124.11,124.11,0,0,0,0-32c-2.32-17.06-1.47-30.71-5.74-30.71h-6.82c-7.25,14.93-6,38.81-3.84,46.49s-1.67,17.07-1.67,17.07h5.51v75.5h.1v.11l2.89-.08.09,0h.33v-.11l2.61-.88,0,1.73,2.89-.08S324.09,318.6,322.81,318.28Zm-14.05-49.65.85,49.4-2.45.23Z"/><polygon class="cls-21" points="303.64 182.64 303.64 180.47 310.88 181.35 312.3 183.88 310.29 182.63 303.64 182.64"/><path class="cls-22" d="M301.42,163.13c-1.38,4.94,2.22,15.73,2.22,15.73l6.16,1v-5.28s-1.73-2.41-1-3.56.76-1.6,1.76-1.14,1.78,2.87,1.78,2.87l1.28-.58s-.45-4.36,0-5.16a49.38,49.38,0,0,1,3.33-3.91s-4-4.13-7.9-3.44A20.81,20.81,0,0,0,301.42,163.13Z"/><g class="cls-23"><path class="cls-24" d="M419.66,405.34l-6.79,1.46h0l6.79-1.46C401.52,394.6,359.35,380.26,344,376a146.63,146.63,0,0,1-27.48-10.81l-5.63,1.2L177.84,319.59l-1,.2-6.94.36-5.54.72c3,.61,137.69,47.86,137.69,47.86l-2.51,1s23.17,9.65,54.73,19.59c25.94,8.17,45.74,15.4,54.38,17.19h0l5.78,1.24,2.21,1.62s-6.43.15-5.87.6,10.83,3.56,10.83,3.56-1.42.29-.47.87c.53.32,5.73,1.56,10.57,3.06,3.93,1.22,7.74,2.77,7.74,2.77s11.14,1.66,14,.38a3,3,0,0,0,1.86-3.78c-7-3.32-29.17-9.14-29.17-9.14l-2.76-1Z"/><path class="cls-25" d="M511.66,383.62l2.38.73S524.53,390,533.89,392a163.11,163.11,0,0,0,16.55-.06c6.94-.52,6.86-3.24,6.86-3.24a68.22,68.22,0,0,1-6.67-2.06c-3.22-1.26-5.18-2.58-6.16-2.73a14.92,14.92,0,0,0-3.83,0s-6.56-2.67-8.06-2.84-6,1.29-6,1.29l-5.31-.67-1.58-1.45h0c-2.13-2.17-19.77-7.44-37.59-14.21-21.67-8.24-47.2-14.52-47.2-14.52l-5.43.48L322.34,318.55c3.36-.38-3.06,1-3.73.24l-14.8,2.84L414.7,353.79,406.38,355s19.59,3.45,27.69,7.39,41.42,15,74.4,20.29l10-1.42h0l-10,1.42Zm-122.32-41.1L313.7,320.34C315,320.21,389.34,342.52,389.34,342.52Z"/></g><polyline class="cls-2" points="203.49 228.53 242.57 242.07 281.64 228.53 242.57 214.99"/><g class="cls-26"><path class="cls-27" d="M441.79,292.68l2.38.73S454.66,299.07,464,301a165,165,0,0,0,16.55,0c6.94-.53,6.86-3.25,6.86-3.25s-4.07-1-6.67-2.05c-3.22-1.27-5.18-2.58-6.16-2.74a15.2,15.2,0,0,0-3.83,0s-6.56-2.67-8.06-2.85-6,1.29-6,1.29l-5.31-.66-1.58-1.46h0c-2.13-2.17-19.77-7.43-37.59-14.21-21.67-8.24-47.2-14.52-47.2-14.52l-5.43.49-109.2-33.16c3.35-.37,3-1.89,2.31-2.64l-12.58,1.25-6.74,2,.16,0-.15,0,111.4,34.26L336.51,264s19.58,3.44,27.69,7.38,41.42,15.06,74.4,20.29l10-1.42h0l-10,1.42Zm-122.32-41.1L243.83,229.4C245.09,229.27,319.47,251.58,319.47,251.58Z"/></g><path class="cls-28" d="M287.93,264.51a34.79,34.79,0,0,0,1.95,3.52,17.33,17.33,0,0,0,2.41,2.27s-2.05.38-2.07,2,.25,2.48-.18,3.11-1.44,1.15-3.63.81-1.63-.38-1.63-.38a7,7,0,0,0-.59,1.78c-.05.65.11,2.65.11,2.65s-.6,0-1.73,1.57-11.43-7.22-11.28-12.42,3.24-9.49,5.49-10.45c4.5-1.91,6.35-.28,6.84.25a3.93,3.93,0,0,1,.63,1.79s2.6-.13,3.29,1.26A3.18,3.18,0,0,1,287.93,264.51Z"/><polygon class="cls-29" points="281.25 343.86 281.84 400 283.23 403.87 286.72 404.87 284.63 401.39 285.91 344.42 281.25 343.86"/><path class="cls-30" d="M281.84,400a5,5,0,0,0-.95,1.79c-.32,1.1.52,1.47.54,2.13s0,3.91,0,3.91h.18l.41-3.61a8.81,8.81,0,0,1,1.72,1.11c1.18.9,1.31,2.73,2.58,2.9s4.2.27,4.2.27a18.81,18.81,0,0,1-3-2.54c-.56-.82-.78-1.23-.78-1.23a7,7,0,0,1-2.89-1.61A7.12,7.12,0,0,1,281.84,400Z"/><polygon class="cls-31" points="286.31 344.71 286.9 400.85 288.3 404.73 291.79 405.73 289.7 402.24 290.97 345.28 286.31 344.71"/><path class="cls-32" d="M276.15,281.23s-.32,16.48,2.62,28.62c1.11,4.6-3.82,15.85-3.82,15.85l18.48-.66s-2.83-2.6-3.58-9.87c-.28-2.74,1.19-11.85.5-16.9-.26-1.9,2.87-.44,1.74-6.26-.63-3.23-5.47-10.33-5.47-10.33Z"/><polygon class="cls-2" points="276.15 281.23 277.14 279.12 286.9 280.7 290.78 288.53 285.39 282.38 276.15 281.23"/><path class="cls-33" d="M278.07,322.78s-2.44,5.09-2.23,7.59c.49,5.88,3.16,8.75,3.25,10.46s1.08,7.92,1.08,7.92l10.94.66s1.78-19,1.27-21.93-.81-4.42-.81-4.42Z"/><path class="cls-30" d="M286.9,400.85a4.92,4.92,0,0,0-.95,1.79c-.31,1.09.53,1.46.55,2.12s0,3.91,0,3.91h.18l.42-3.6a8.52,8.52,0,0,1,1.72,1.11c1.17.89,1.3,2.72,2.58,2.89s4.2.28,4.2.28a18.81,18.81,0,0,1-3-2.54,11.54,11.54,0,0,1-.78-1.24,6.94,6.94,0,0,1-2.89-1.61A7.13,7.13,0,0,1,286.9,400.85Z"/><path class="cls-34" d="M391.4,213.39a26.1,26.1,0,0,0,.66,5.4c.2.65.88,1.5.88,1.82s-.48.27-.55.56c-.21.82.13,4-.15,4.59s-4,0-4.57.93c-1.09,1.84.35,5.79.35,5.79l-3.63,2.65-2-7.18,2.35-10.88Z"/><polygon class="cls-35" points="373.64 262.5 380.36 271.44 380.12 273.48 371.81 265.07 373.64 262.5"/><path class="cls-36" d="M379.56,277.87s.51-7.74.61-9.79a88.15,88.15,0,0,0,.34-10.49c-.31-9.1-2.85-21.69-1.83-23.28.68-1.07,5.45-3.29,5.45-3.29h3s2.72,4.45,3.83,5.88,2.76,4.34,2.76,5.72c0,3.07-1.68,2.79-1.91,3.87-2,9.65.94,19,1.23,20.76.42,2.63.68,12.28.68,12.28l-5.58.35Z"/><path class="cls-37" d="M398,364.88s-3.18-1.14-3.6-2.08c-.1-.22.81-14.06,1.16-23,.3-8,.07-18.64.07-18.64s-3.26-3-3.95-2.12c-1.49,1.85-2,7-.62,22.27.39,4.2,1.45,22.12,1.45,22.12l1.91,1.78,3.8.65Z"/><path class="cls-38" d="M392.46,363.39a2.56,2.56,0,0,0,0,1.47,1.86,1.86,0,0,1,0,1.26H394v-.6l4.5.6h2.36s-.07-.45-1-.82a6.34,6.34,0,0,0-1.83-.42v.49a9.67,9.67,0,0,1-2.84-.56A7.25,7.25,0,0,1,392.46,363.39Z"/><path class="cls-39" d="M391.08,364.88s-3.15-1.2-3.56-2.15c-.09-.22,1.08-14,1.59-23,.46-8,.43-18.64.43-18.64s-3.21-3-3.91-2.19c-1.53,1.82-2.14,7-1,22.25.31,4.21,1,22.15,1,22.15l1.87,1.81,3.79.72Z"/><path class="cls-38" d="M385.59,363.39a2.56,2.56,0,0,0,0,1.47,1.93,1.93,0,0,1,0,1.26h1.5v-.6l4.5.6H394s-.07-.45-1-.82a6.34,6.34,0,0,0-1.83-.42v.49a9.67,9.67,0,0,1-2.84-.56A7.25,7.25,0,0,1,385.59,363.39Z"/><path class="cls-40" d="M397.62,296c-1.41-13.08-4.48-17.5-4.48-17.5s-5.3-.16-6.73-.44-6.35-.85-6.35-.85-2.88,3.59-3.68,11.62S372.17,321,372.17,321s-1.21,1.05,3.22,1.79h0a55.35,55.35,0,0,0,7.52,1l1.84.07h0a118.85,118.85,0,0,0,13.7-.69A236.2,236.2,0,0,0,397.62,296Z"/><path class="cls-41" d="M378.68,234.31s-12.66,22.76-12.33,23.9,5.31,7.07,5.31,7.07l2-2.79L370.89,258,379,243.58Z"/><path class="cls-42" d="M391.65,212.9a9.5,9.5,0,0,0-7.77-3.54c-5.68,0-7,3.51-7,6.88,0,5.27-11,3.32-7.53,15.54,1.69,5.91,10.53,6.84,12.83,5.39,5.09-3.21-.53-8.73,2.84-11.37,2.57-2,3.85-10,3.85-10a4.62,4.62,0,0,0,2.2-1.21A2.64,2.64,0,0,0,391.65,212.9Z"/><path class="cls-2" d="M378.72,279.5l.89-3.34s8.23,1.95,8.94,1.95h5.16L394,280s-5.29,1.05-7.94.6Z"/><path class="cls-43" d="M206.9,254s.62,3.32,0,5.14c-1,2.88-.15,2.68,0,3.11.19.78-.31,3.94-.05,4.53s1.37.78,1.37.78l1.06,6.11,5.83,2.05.81-6.8-2.23-12.46Z"/><path class="cls-44" d="M220.87,255.51c.26,4.61-5,13.43-5,13.43s-6-.5-6.31-1.21-.24-4.71-.24-4.71a2.67,2.67,0,0,0,.71-2.31c-.39-1.14-.86-.87-.86-.87-.75.19-.56,1.16-.56,1.16l-.67-.43a43.35,43.35,0,0,0-.08-5.6,1.39,1.39,0,0,0-1-.95s2-4.1,7.94-3C218.37,251.66,220.87,255.51,220.87,255.51Z"/><polygon class="cls-45" points="225.72 303.35 220.56 311.39 219.91 316.62 229.21 307.67 225.72 303.35"/><path class="cls-38" d="M206.48,409v3.28h-3.12v-.45a15.68,15.68,0,0,1-3.28.45h-3.61s-.31-.63.48-1.17c1-.7,3.16-.6,4.52-1.37a10.72,10.72,0,0,0,2.27-1.67h2.74Z"/><path class="cls-38" d="M215.17,409v3.28h-3v-.45a14.16,14.16,0,0,1-3.11.45h-3.4a1,1,0,0,1,.45-1.17c1-.7,3-.6,4.28-1.37a10.46,10.46,0,0,0,2.14-1.67h2.6Z"/><path class="cls-46" d="M215.4,408.43h-4s-5.28-49.09-3.75-49.58,8.06,0,9,14.22S215.4,408.43,215.4,408.43Z"/><path class="cls-47" d="M207.69,368.25S205.52,348.19,205,338a108.38,108.38,0,0,1,0-15.38l14.6-.39s-.88,26.45-1.18,31.37-1.78,19.44-1.78,19.44Z"/><path class="cls-48" d="M206.73,408.43h-4s-4.41-49.09-2.88-49.58,7.19,0,8.16,14.22S206.73,408.43,206.73,408.43Z"/><path class="cls-49" d="M199.54,359.82s0-12.33,0-22.51A108,108,0,0,1,200.4,322l12.87.64s-3.65,25.21-4.2,30.11-1.92,14.6-1.92,14.6Z"/><path class="cls-41" d="M222.47,280.59s12.8,18.79,12.43,20.08-5.69,7-5.69,7-4.6-3.95-4.51-4.22a38.29,38.29,0,0,1,2.8-2.78l-6.62-7.22Z"/><polygon class="cls-50" points="229.51 308.09 231.46 307.41 225.59 301.31 224.12 303.6 229.51 308.09"/><path class="cls-36" d="M219.61,321.31s3.83-38.12,2.86-40.72c-.33-.88-1.24-4-4.12-5.6-1.32-.73-1.19-1.41-2.33-1.82-3.67-1.33-5.25-.3-7,.09-.54.12-1.15,1-1.79,1.4-3.4,2.2-5.28,10.62-5.64,12.44a122.79,122.79,0,0,0-2,24.29c.21,4.93.63,9.93.63,9.93l8.65.9Z"/><polygon class="cls-50" points="219.61 322.83 219.61 321.31 208.94 321.73 200.29 321.32 200.19 322.54 209.03 323.18 219.61 322.83"/><polygon class="cls-50" points="217.68 274.54 216.12 272.21 208.7 272.21 206.9 274.92 214.75 275.67 217.68 274.54"/><polygon class="cls-41" points="212.72 279.66 211.15 301.76 207.15 321.64 210.21 321.68 213.27 307.73 212.72 279.66"/><path class="cls-36" d="M210.42,278.2l2.3.33s-.65,26.21-.76,28.19c-.1,1.81-3.2,10.58-3.2,10.58l-5.51-.66,1.86-9.23L203,284s.12-4.63,1.84-6.17S210.42,278.2,210.42,278.2Z"/><polygon class="cls-50" points="209.49 319.26 210.38 316.34 202.71 315.11 202.89 316.49 209.49 319.26"/><path class="cls-51" d="M208.6,318.51l-4.74-2L201,329.92l-.71,1.47a18.1,18.1,0,0,0-2,2.68c-.58,1.08-1.38,4.17-.58,4.27.44.05.81-1,1-1.93l-.34,1.65s-1.06,1.55-.54,1.89.76-.11,1.09-.36c.8-.59.61,1.47,1.53.51s.69,1.3,1.69-.48c.62-1.12.94.53,1.42-.79a31.46,31.46,0,0,0,.81-4.84l0-.92Z"/><path class="cls-52" d="M166.21,169.27a27.28,27.28,0,0,1-.46,5.56c-.17.67-.84,1.57-.83,1.9s.51.26.59.54c.25.84,0,4.07.34,4.7s4.07-.21,4.71.76c1.19,1.84-.13,6-.13,6l3.83,2.56,1.74-7.43-2.85-11Z"/><polygon class="cls-53" points="185.99 213 179.59 221.1 179.9 222.87 187.91 215.18 185.99 213"/><path class="cls-41" d="M179.5,224.14s.51.24.33-1.81a85.6,85.6,0,0,1-.76-10.47c0-9.1,2-21.77.91-23.33-.72-1-5.57-3.07-5.57-3.07l-3,.12s-2.54,4.55-3.59,6-2.59,4.43-2.54,5.82c.12,3.06,1.79,2.72,2.06,3.79,2.38,9.56-.19,19-.41,20.79a13,13,0,0,0-.13,3.55l4.77.48Z"/><path class="cls-54" d="M165.85,319.76s3.13-1.27,3.51-2.22c.09-.23-1.36-14-2.06-23-.61-7.95-.8-18.62-.8-18.62s3.15-3.1,3.87-2.27c1.56,1.79,2.28,6.92,1.48,22.22-.21,4.22-.57,22.16-.57,22.16l-1.84,1.85-3.77.8Z"/><path class="cls-38" d="M171.28,318.05a2.67,2.67,0,0,1,.06,1.47,1.87,1.87,0,0,0,0,1.26l-1.5.06,0-.6-4.47.78-2.36.09s.06-.45,1-.86a6.26,6.26,0,0,1,1.82-.49l0,.48a9.24,9.24,0,0,0,2.81-.67A7.14,7.14,0,0,0,171.28,318.05Z"/><path class="cls-55" d="M172.71,319.49s3.11-1.32,3.47-2.28c.09-.23-1.62-14-2.49-22.94-.77-7.94-1.16-18.61-1.16-18.61s3.09-3.15,3.83-2.34c1.6,1.76,2.41,6.88,1.91,22.19-.14,4.22-.16,22.17-.16,22.17l-1.8,1.89-3.76.87Z"/><path class="cls-38" d="M178.14,317.78a2.57,2.57,0,0,1,.06,1.47,1.9,1.9,0,0,0,.05,1.27l-1.5.05,0-.6-4.48.78-2.35.09s0-.45,1-.86a6.24,6.24,0,0,1,1.81-.49l0,.49a9.53,9.53,0,0,0,2.82-.68A7,7,0,0,0,178.14,317.78Z"/><path class="cls-56" d="M166.5,275.94s-1.45-4.85-1.85-15.07a99.53,99.53,0,0,1,.33-15.56l9.3.28s-1.63,17.58-1.79,22.5a65.2,65.2,0,0,1-1.1,9.56Z"/><path class="cls-57" d="M166.77,226.23a53.11,53.11,0,0,0,6.45-.34c1.41-.34,6.31-1.11,6.31-1.11s2,15.33,5.33,25.32,9,24.65,9,24.65a74.28,74.28,0,0,1-14.62,3.39,110.51,110.51,0,0,1-15.57,0s-.71-16.62-.72-28.82A78.43,78.43,0,0,1,166.77,226.23Z"/><path class="cls-2" d="M179.53,224.78l0-.64s-6.86,1.19-7.56,1.22l-5.16.2v.67a25.68,25.68,0,0,0,5.26.1Z"/><path class="cls-58" d="M193.88,274.75a42.5,42.5,0,0,1-7.14,2.06c-4.4.91-9.34,1.47-9.34,1.47s-3.33-20-3.28-29.1,0-23.25,0-23.25l5.4-1.15S183.87,235,185,243,193.88,274.75,193.88,274.75Z"/><path class="cls-41" d="M180,188.53S193.42,208,193.12,209s-5.06,6.39-5.06,6.39L186,213l2.6-4.08L180,196.66Z"/><polygon class="cls-59" points="188.17 215.59 184.9 212.64 185.79 210.66 188.94 215.56 188.17 215.59"/><path class="cls-41" d="M177.44,197.07S165.49,214.8,164,214.69c-2.09-.16-5.24-9.94-5.24-9.94l2.48-1.76L164,209.6s7.79-13.7,8.2-14,3.07.22,4.85-.18S178,196.36,177.44,197.07Z"/><polygon class="cls-60" points="158.5 203.97 155.64 194.99 157.5 193.43 161.23 203 158.5 203.97"/><path class="cls-61" d="M157.74,193.13a7.63,7.63,0,0,0,.19-2.22c-.14-.76-.43-2.5-.81-2.19s-.13,2.15-.13,2.15a5.34,5.34,0,0,0-1-1.67c-.55-.64-.92-1.47-1.24-1.3s-.19.06-.2.73-.86-.19-.73.65-.81-.08-.34,1.11c.29.75-.55.33-.12,1.07s1.62,2.26,1.62,2.26l.86,2.05,2-1.28Z"/><polygon class="cls-59" points="157.53 203.83 158.45 205.96 161.44 202.79 161.39 201.94 157.53 203.83"/><path class="cls-62" d="M165.94,168.79a9.72,9.72,0,0,1,7.81-3.94c5.81-.24,7.32,3.31,7.45,6.76.21,5.4-2,6.65,2.6,8.86,4.23,2,4.41,4.95,4.55,8.41,0,0,7.55,2.37,3.82,10.6-1.72,3.78-7.31,4.49-9.52,2.12-2.88-3.11-4.64-1.19-6.42-.85a4.84,4.84,0,0,1-4.58-1.28c-2-1.73-2.91-5.71-1-10.76.38-1,4.48-5.14.92-7.71-2.71-2-2.63-9.4-2.63-9.4a4.7,4.7,0,0,1-2.3-1.16A2.67,2.67,0,0,1,165.94,168.79Z"/><path class="cls-63" d="M93.54,221.49s-1.11,2.77-2,3.56a9.58,9.58,0,0,1-2.56,1.32,5.4,5.4,0,0,1,1.17,2.95c0,1.58-.25,2.49.22,3.11s1.55,1.12,3.88.72,2.81-.43,2.81-.43a6.64,6.64,0,0,1,.64,1.76c.06.65-.1,2.66-.1,2.66s.65,0,1.87,1.53a26.54,26.54,0,0,1,2,3.09l.53.84s.76,1,2.58,3.56,7-15,6.77-20.18-3.56-9.42-6-10.33c-4.82-1.81-6.78-.13-7.3.41a3.86,3.86,0,0,0-.65,1.8s-2.78-.07-3.5,1.35A3.06,3.06,0,0,0,93.54,221.49Z"/><polygon class="cls-64" points="100.58 300.74 99.99 356.87 98.6 360.75 95.11 361.75 97.2 358.26 95.92 301.3 100.58 300.74"/><path class="cls-30" d="M100,356.87a5,5,0,0,1,1,1.79c.32,1.1-.52,1.47-.54,2.12s0,3.92,0,3.92h-.19l-.41-3.61a8.81,8.81,0,0,0-1.72,1.11c-1.18.89-1.31,2.72-2.58,2.9s-4.2.27-4.2.27a18.81,18.81,0,0,0,3-2.54c.56-.82.78-1.23.78-1.23A7,7,0,0,0,98,360,7.12,7.12,0,0,0,100,356.87Z"/><polygon class="cls-65" points="95.52 300.59 94.93 356.73 93.53 360.61 90.04 361.6 92.13 358.12 90.86 301.16 95.52 300.59"/><path class="cls-66" d="M104.68,237.11s-2.33,17.13-2.62,29.62c-.11,4.84,2.82,13.85,2.82,13.85l-17.48.34s2.59-3.69,3.34-11c.28-2.74-.95-10.77-.26-15.82.26-1.9-4.13-2-3.29-6.88.55-3.23,7-9.7,7-9.7Z"/><polygon class="cls-17" points="104.68 237.11 103.69 235 93.93 236.58 90.05 244.41 95.44 238.26 104.68 237.11"/><path class="cls-67" d="M102.76,278.65s2.44,5.1,2.23,7.6c-.49,5.88-3.15,8.75-3.25,10.46s-.08,7.92-.08,7.92l-11.94.66s-1.78-19-1.27-21.94.81-4.41.81-4.41Z"/><path class="cls-30" d="M94.93,356.73a4.92,4.92,0,0,1,.95,1.79c.32,1.09-.53,1.46-.55,2.12s0,3.91,0,3.91h-.18l-.42-3.6a8.65,8.65,0,0,0-1.72,1.1c-1.17.9-1.3,2.73-2.58,2.9s-4.2.28-4.2.28a19.37,19.37,0,0,0,3-2.54,11.54,11.54,0,0,0,.78-1.24,6.94,6.94,0,0,0,2.89-1.61A7.13,7.13,0,0,0,94.93,356.73Z"/><path class="cls-68" d="M92.41,218.49c.85-1.43,4-1.41,4-1.41a3.67,3.67,0,0,1,.78-1.82c.61-.54,2.89-2.26,8.41-.53,2.76.87,6.55,5,6.69,10.25s-3.36,11.46-3.52,14.26c-.34,5.6,6.6,3.9,6.6,3.9s-2.69,5.1-5.39,5.71c-3.29.74-9.65-1.9-11.71-4.41l-1.1-1.34L99,237.82a44.26,44.26,0,0,0,1.58-9.29c0-3.62-3.25-4.06-6-4.27s-2.66-3.48-2.66-3.48A2.71,2.71,0,0,1,92.41,218.49Z"/><path class="cls-69" d="M381.28,262.66l6.44,8.58a1.05,1.05,0,0,1,.19.76l-.19,1.6-8.3-8.41,1.8-2.53A0,0,0,0,1,381.28,262.66Z"/><path class="cls-41" d="M387.19,238.88a1.53,1.53,0,0,0-2.87-.69c-3.7,6.76-10.59,19.35-10.36,20.14.33,1.14,5.31,7.07,5.31,7.07l2-2.78L379,258.85a1.51,1.51,0,0,1,0-1.55L387.11,243a1.55,1.55,0,0,0,.2-.81Z"/><path class="cls-70" d="M418.57,371.71l-16.81-5.24c-2.46-1-3.9-.12-4.56-.87l-3.45-.22c-2.27.06-8.15.74-8.15.74l25.89,8.07"/><path class="cls-71" d="M252.57,225.07a55.66,55.66,0,0,0-7.66.41c1.3-.53,2.1-.95,1.71-1a25.15,25.15,0,0,0-4.25.13l.42-72,3.17-.42a235.94,235.94,0,0,0,0-32c-1.23-17.17-1.46-30.71-5.73-30.71H233.4c-7.25,14.93-6,38.09-5.92,46.06.11,7.53.42,17.5.42,17.5h5.5v75.5h.1v.11l2.89-.08.1,0h.33v-.11l2.61-.88,0,1.73,2.89-.07S253.85,225.39,252.57,225.07Zm-14-49.66.86,49.4-2.45.23Z"/><ellipse class="cls-42" cx="275.23" cy="263.38" rx="7.35" ry="7.38"/><ellipse class="cls-42" cx="280.25" cy="260.6" rx="5.33" ry="5.35"/><ellipse class="cls-42" cx="273.04" cy="268.89" rx="5.75" ry="5.78"/><ellipse class="cls-42" cx="277.23" cy="274.34" rx="5.33" ry="5.35"/><ellipse class="cls-42" cx="280.47" cy="268.5" rx="3.53" ry="3.54"/><ellipse class="cls-42" cx="285.38" cy="263.2" rx="3.82" ry="3.84"/><path class="cls-72" d="M282.69,285c-.74-1.83-2.76-1.85-3.27-.87-3.49,6.7-10.42,21.37-10.05,22.25s4,4.32,5.78,6c.5.46,8.21,8,8.59,7.41l.89-1.29c.28-.41-6.66-8.57-7-9l-2.56-3.19a1.14,1.14,0,0,1-.12-1.25s6.8-12.55,8.18-15.28a1.65,1.65,0,0,0,.13-1Z"/><polygon class="cls-41" points="389.64 271.11 388.16 269.58 386.39 275.38 388.73 276.03 389.64 271.11"/></g></g></svg>