<svg xmlns="http://www.w3.org/2000/svg" xmlns:xlink="http://www.w3.org/1999/xlink" viewBox="0 0 432 432.61"><defs><style>.cls-1{isolation:isolate;}.cls-2{opacity:0.3;}.cls-3,.cls-4,.cls-5,.cls-6{mix-blend-mode:multiply;}.cls-3{fill:url(#linear-gradient);}.cls-4{fill:url(#linear-gradient-2);}.cls-5{fill:url(#linear-gradient-3);}.cls-6{fill:url(#linear-gradient-4);}.cls-7{fill:url(#linear-gradient-5);}.cls-8{fill:url(#New_Gradient_Swatch_7);}.cls-9{fill:url(#New_Gradient_Swatch_7-2);}.cls-10{fill:url(#New_Gradient_Swatch_7-3);}.cls-11{fill:url(#linear-gradient-6);}.cls-12{fill:#c1d853;}.cls-13{fill:#8eac1d;}.cls-14{fill:url(#New_Gradient_Swatch_6);}.cls-15{fill:url(#linear-gradient-7);}.cls-16{fill:#231f20;}.cls-17{fill:url(#New_Gradient_Swatch_7-4);}</style><linearGradient id="linear-gradient" x1="372.34" y1="203.09" x2="412.28" y2="323.5" gradientUnits="userSpaceOnUse"><stop offset="0" stop-color="#231f20"/><stop offset="0.01" stop-color="#2c2929"/><stop offset="0.07" stop-color="#585556"/><stop offset="0.13" stop-color="#807e7e"/><stop offset="0.2" stop-color="#a2a1a1"/><stop offset="0.27" stop-color="#bfbebe"/><stop offset="0.36" stop-color="#d7d6d6"/><stop offset="0.45" stop-color="#e9e8e9"/><stop offset="0.56" stop-color="#f6f5f5"/><stop offset="0.7" stop-color="#fdfdfd"/><stop offset="1" stop-color="#fff"/></linearGradient><linearGradient id="linear-gradient-2" x1="294.72" y1="243.49" x2="330.39" y2="351.02" gradientUnits="userSpaceOnUse"><stop offset="0" stop-color="#231f20"/><stop offset="0.01" stop-color="#2c2929"/><stop offset="0.07" stop-color="#585556"/><stop offset="0.13" stop-color="#807e7e"/><stop offset="0.2" stop-color="#a2a1a1"/><stop offset="0.27" stop-color="#bfbebe"/><stop offset="0.36" stop-color="#d7d6d6"/><stop offset="0.45" stop-color="#e9e8e9"/><stop offset="0.56" stop-color="#f6f5f5"/><stop offset="0.7" stop-color="#fdfdfd"/><stop offset="1" stop-color="#fff"/></linearGradient><linearGradient id="linear-gradient-3" x1="230.95" y1="265.51" x2="266.62" y2="373.04" xlink:href="#linear-gradient-2"/><linearGradient id="linear-gradient-4" x1="163.55" y1="288.49" x2="199.22" y2="396.02" xlink:href="#linear-gradient-2"/><linearGradient id="linear-gradient-5" x1="348.26" y1="140.24" x2="297.67" y2="227.85" gradientUnits="userSpaceOnUse"><stop offset="0" stop-color="#8eac1d"/><stop offset="0.04" stop-color="#86a822"/><stop offset="0.37" stop-color="#4e8946"/><stop offset="0.64" stop-color="#257361"/><stop offset="0.86" stop-color="#0b6571"/><stop offset="0.99" stop-color="#026077"/></linearGradient><linearGradient id="New_Gradient_Swatch_7" x1="317.29" y1="129.37" x2="266.7" y2="216.99" gradientUnits="userSpaceOnUse"><stop offset="0" stop-color="#8eac1d"/><stop offset="0.17" stop-color="#8aaa20"/><stop offset="0.34" stop-color="#7ea327"/><stop offset="0.51" stop-color="#6a9834"/><stop offset="0.67" stop-color="#4e8946"/><stop offset="0.84" stop-color="#2a765d"/><stop offset="0.99" stop-color="#026077"/></linearGradient><linearGradient id="New_Gradient_Swatch_7-2" x1="155.5" y1="236.33" x2="126.63" y2="286.34" xlink:href="#New_Gradient_Swatch_7"/><linearGradient id="New_Gradient_Swatch_7-3" x1="224.66" y1="192.37" x2="184.93" y2="261.19" xlink:href="#New_Gradient_Swatch_7"/><linearGradient id="linear-gradient-6" x1="291.73" y1="147.36" x2="241.15" y2="234.97" xlink:href="#New_Gradient_Swatch_7"/><linearGradient id="New_Gradient_Swatch_6" x1="189.6" y1="145.82" x2="197.21" y2="145.82" gradientUnits="userSpaceOnUse"><stop offset="0" stop-color="#d08859"/><stop offset="1" stop-color="#f2bd88"/></linearGradient><linearGradient id="linear-gradient-7" x1="292.97" y1="-25.01" x2="307.03" y2="-8.59" gradientTransform="matrix(0.97, 0.24, -0.24, 0.97, -100.73, 88.58)" gradientUnits="userSpaceOnUse"><stop offset="0.14" stop-color="#35495e"/><stop offset="0.41" stop-color="#374b60"/><stop offset="0.56" stop-color="#3e5365"/><stop offset="0.68" stop-color="#4a616f"/><stop offset="0.79" stop-color="#5c757c"/><stop offset="0.88" stop-color="#728e8e"/><stop offset="0.97" stop-color="#8daca3"/><stop offset="1" stop-color="#99baad"/></linearGradient><linearGradient id="New_Gradient_Swatch_7-4" x1="82.13" y1="283.44" x2="65.19" y2="312.77" xlink:href="#New_Gradient_Swatch_7"/></defs><g class="cls-1"><g id="Layer_1" data-name="Layer 1"><g class="cls-2"><polygon class="cls-3" points="495 262.97 359.2 215.71 342.23 244.73 324.23 238.45 285.7 251.8 420.6 299.45 495 262.97"/><polygon class="cls-4" points="397.42 308.6 262.57 261.54 224.04 274.89 358.94 322.54 397.42 308.6"/><polygon class="cls-5" points="333.65 330.62 198.8 283.56 160.27 296.91 295.17 344.56 333.65 330.62"/><polygon class="cls-6" points="266.25 353.6 131.4 306.54 92.87 319.89 227.77 367.54 266.25 353.6"/></g><polygon class="cls-7" points="342.23 136.76 342.23 244.69 303.7 231.33 303.7 204.66 303.7 123.41 342.23 136.76"/><polygon class="cls-8" points="311.26 125.89 311.26 233.82 272.73 220.47 272.73 193.8 272.73 112.54 311.26 125.89"/><polygon class="cls-9" points="160.33 239.12 160.33 296.91 121.8 283.56 121.8 256.89 121.8 225.77 160.33 239.12"/><polygon class="cls-10" points="224.06 192.03 224.06 274.89 185.53 261.54 185.53 234.86 185.53 178.68 224.06 192.03"/><polygon class="cls-11" points="285.7 143.87 285.7 251.81 247.18 238.45 247.18 211.78 247.18 130.53 285.7 143.87"/><polyline class="cls-12" points="285.75 143.87 324.28 130.52 285.75 117.17 247.22 130.52 285.7 143.87"/><polygon class="cls-13" points="285.7 143.87 285.7 251.8 324.23 238.45 324.23 211.78 324.23 130.52 285.7 143.87"/><polyline class="cls-12" points="224.04 192.02 262.57 178.67 224.04 165.32 185.51 178.67 224 192.02"/><polygon class="cls-13" points="224.04 192.03 224.04 274.89 262.57 261.54 262.57 234.86 262.57 178.68 224.04 192.03"/><polyline class="cls-12" points="160.32 239.12 198.85 225.77 160.32 212.42 121.79 225.77 160.27 239.12"/><polygon class="cls-13" points="160.27 239.12 160.27 296.91 198.8 283.56 198.8 256.89 198.8 225.77 160.27 239.12"/><polyline class="cls-12" points="92.92 289.67 131.45 276.32 92.92 262.97 54.39 276.32 92.87 289.67"/><polygon class="cls-13" points="92.87 289.67 92.87 319.89 131.4 306.54 131.4 279.87 131.4 276.32 92.87 289.67"/><path class="cls-14" d="M197.21,141.12a8.38,8.38,0,0,0-.49,1.95c-.11,1.16.09,2.32-.06,2.48s-.85.15-.85.15a11.12,11.12,0,0,1-.42,2.65c-.25.21-2.63-.68-2.63-.68l-.67,2.84-2.49-3.35.18-.69,3.72-5Z"/><path class="cls-15" d="M190.52,139.44c-1.13,2-.74,7-.74,7l.75.33a1.65,1.65,0,0,0,2.27-1.12l.09-.38s-.48-1.23-.06-1.65.5-.61.89-.3.45,1.43.45,1.43l.62-.11a8.39,8.39,0,0,1,.56-2.23c.29-.29,1.86-1.32,1.86-1.32s-1.27-2.22-3-2.34A9.26,9.26,0,0,0,190.52,139.44Z"/><path class="cls-16" d="M159.85,192.9c0-.18-.41,0-.44,0L170.59,182l7.48-12.22-3.09-1.2A33,33,0,0,0,179.7,164l5.2-9.41c.25-1.37-.38-1.9-1.46-1.68-1.24.25-18.32,5.55-18.32,5.55l-2.58-1.22-.67-.84,3.46.44s21-10.71,24.79-9.55c2,.62,2.73,4,2,6-3.34,9.47-6.58,12.92-8,15.65l9.31-1.07L209.2,176l-.55.6.79-.07s5.92-3.64,5.61-2.91-4.77,5-5.61,4.68c-.45-.2-1.11-.52-1.62-.77l-.39.42-15.15-6.88-11.66,2.09-8.24,11.19s-10.58,8.34-10.77,8.74c0,.06-.33,0-.36.08s0,.27,0,.31-1.53,5.34-1.76,5.13S159.9,194.08,159.85,192.9Z"/><polygon class="cls-12" points="285.75 117.17 324.23 130.52 342.23 137.63 359.2 108.61 272.7 112.54 285.75 117.17"/><polygon class="cls-13" points="342.23 244.73 359.2 215.71 359.2 108.61 342.23 137.63 342.23 244.73"/><polygon class="cls-17" points="92.92 289.67 92.92 319.89 54.4 306.54 54.4 279.87 54.4 276.32 92.92 289.67"/></g></g></svg>