<svg xmlns="http://www.w3.org/2000/svg" xmlns:xlink="http://www.w3.org/1999/xlink" viewBox="0 0 288 288"><defs><style>.cls-1{isolation:isolate;}.cls-2{fill:url(#linear-gradient);}.cls-3{fill:url(#linear-gradient-2);}.cls-4{fill:url(#linear-gradient-3);}.cls-5,.cls-6{opacity:0.3;}.cls-5,.cls-7{mix-blend-mode:multiply;}.cls-5{fill:url(#linear-gradient-4);}.cls-7{opacity:0.55;fill:url(#linear-gradient-5);}.cls-8{fill:url(#New_Gradient_Swatch_2);}.cls-9{fill:url(#New_Gradient_Swatch_2-2);}.cls-10{fill:url(#linear-gradient-6);}.cls-11{fill:url(#linear-gradient-7);}.cls-12{fill:#231f20;}.cls-13{fill:#223140;}.cls-14{fill:url(#linear-gradient-8);}.cls-15{fill:#8eac1d;}</style><linearGradient id="linear-gradient" x1="5.3" y1="61.04" x2="105.86" y2="61.04" gradientUnits="userSpaceOnUse"><stop offset="0.2" stop-color="#adc94a"/><stop offset="0.63" stop-color="#0087aa"/><stop offset="0.92" stop-color="#006984"/></linearGradient><linearGradient id="linear-gradient-2" x1="24.29" y1="157.04" x2="128.75" y2="52.58" gradientUnits="userSpaceOnUse"><stop offset="0" stop-color="#0087aa"/><stop offset="0.11" stop-color="#3e976c"/><stop offset="0.25" stop-color="#8eac1d"/><stop offset="0.6" stop-color="#adc94a"/></linearGradient><linearGradient id="linear-gradient-3" x1="126.71" y1="42.17" x2="126.71" y2="209.15" gradientUnits="userSpaceOnUse"><stop offset="0.14" stop-color="#adc94a"/><stop offset="0.53" stop-color="#0087aa"/><stop offset="0.87" stop-color="#006984"/></linearGradient><linearGradient id="linear-gradient-4" x1="168.5" y1="170.37" x2="173.88" y2="246.35" gradientUnits="userSpaceOnUse"><stop offset="0" stop-color="#231f20"/><stop offset="1" stop-color="#fff"/></linearGradient><linearGradient id="linear-gradient-5" x1="14.96" y1="177.95" x2="-108.8" y2="249.91" gradientTransform="matrix(-0.98, 0.2, 0.2, 0.98, 143.51, 23.17)" gradientUnits="userSpaceOnUse"><stop offset="0" stop-color="#221f1f"/><stop offset="1" stop-color="#fff"/></linearGradient><linearGradient id="New_Gradient_Swatch_2" x1="92.46" y1="194.75" x2="89.43" y2="163.86" gradientTransform="matrix(-1, 0, 0, 1, 289, 0)" gradientUnits="userSpaceOnUse"><stop offset="0" stop-color="#35495e"/><stop offset="1" stop-color="#22313f"/></linearGradient><linearGradient id="New_Gradient_Swatch_2-2" x1="96.41" y1="197.27" x2="94.1" y2="152.27" xlink:href="#New_Gradient_Swatch_2"/><linearGradient id="linear-gradient-6" x1="80.32" y1="158.1" x2="78.98" y2="160.36" gradientTransform="matrix(-1, -0.03, -0.03, 1, 285.68, -36.42)" gradientUnits="userSpaceOnUse"><stop offset="0" stop-color="#d08859"/><stop offset="1" stop-color="#f2bd88"/></linearGradient><linearGradient id="linear-gradient-7" x1="68.44" y1="149.03" x2="71.19" y2="145.78" gradientTransform="matrix(-0.95, -0.31, -0.31, 0.95, 311.44, -0.19)" xlink:href="#linear-gradient-6"/><linearGradient id="linear-gradient-8" x1="97.08" y1="140.94" x2="99.58" y2="140.94" gradientTransform="matrix(-1, -0.01, -0.01, 1, 287.86, -3.97)" xlink:href="#linear-gradient-6"/></defs><g class="cls-1"><g id="Layer_1" data-name="Layer 1"><path class="cls-2" d="M76.56,79.75c4.12-13.4,9.7-22.86,17.56-28.14-5.6-5.81-12.77-9.29-20.56-9.29l-3,.13L40.74,46.72l.95,0C59.44,46.69,69.9,58.1,76.56,79.75Z"/><path class="cls-3" d="M111.42,46.69a30.17,30.17,0,0,0-17.3,4.92c-7.86,5.28-13.44,14.74-17.56,28.14C69.9,58.1,59.44,46.69,41.69,46.69l-.95,0C23.43,47.34,9.37,64.8,9.37,86.83c0,22.43,11.09,37,30.11,60.21L41,149c5.67,7,10.74,13.68,15.22,20.18,9.62,14,16.46,27,20.24,40.08,5.71-19.67,18.46-39.35,37.16-62.18,19-23.21,30.11-37.78,30.11-60.21S129.17,46.69,111.42,46.69Z"/><path class="cls-4" d="M141.71,42.27,111.4,46.61h0c17.75,0,32.33,17.71,32.33,40.14s-11.09,37-30.11,60.21c-18.7,22.83-31.46,42.5-37.16,62.18l0,0,33.34-4.3,0,.21c5.71-19.67,18.46-39.35,37.16-62.17,19-23.22,30.12-37.78,30.12-60.22s-14.76-40.47-32.51-40.47Z"/><polygon class="cls-5" points="76.42 209.12 109.65 204.79 269.79 261.63 235.68 266.35 76.42 209.12"/><g class="cls-6"><path class="cls-7" d="M280.41,240.76l1,.35a38.1,38.1,0,0,0,8.51,3.52,71.21,71.21,0,0,0,7.17.16c3-.14,3-1.32,3-1.32s-1.75-.5-2.87-1c-1.37-.58-2.21-1.18-2.63-1.25a6.68,6.68,0,0,0-1.66,0,30.48,30.48,0,0,0-3.46-1.32,10.87,10.87,0,0,0-2.6.49l-2.29-.35-.67-.65h0c-.9-1-8.48-3.44-16.12-6.58A206.63,206.63,0,0,0,247.53,226l-2.35.14-45.67-15.65c-.81-.74-15,.1-15,.1l54.19,16.17-3.61.41s8.44,1.72,11.91,3.52,17.77,7,32,9.63h0Zm-52.66-19.07-34.38-10.64C197.61,211.46,227.75,221.69,227.75,221.69Z"/></g><path d="M192,207.46s.47,3-.12,3.14-8.54,0-8.54,0-.61-.3,0-.6,4.3-.88,4.94-1.05,1.89-1.77,1.89-1.77Z"/><path d="M199.67,207.82s.59,2.74,0,2.77-5,0-5,0-.24-.43.59-.88a4.42,4.42,0,0,0,1.65-1.28,17.17,17.17,0,0,0,.74-1.58l2,.52Z"/><path class="cls-8" d="M202.14,154.11c.35,2.07-1.2,24.19-1.52,29.35s-.57,24.11-.57,24.11l-3.72.09s-.93-23.44-1-26.35-.33-15.56-.41-17.21,1.16-12.47,1.16-12.47Z"/><path class="cls-9" d="M190.82,157.26c0,.46-1.85,21.09-2,25.13s.74,24.93.74,24.93l3,.57s1.08-23.7,1.25-26.15,2.46-16.54,2.54-16.77a17.38,17.38,0,0,0,2.29-3.47c.68-1.7.28-8.52.28-8.52Z"/><path class="cls-10" d="M202.11,123.5a9.34,9.34,0,0,1-.05-1.68,9.11,9.11,0,0,1,.64-2.55,30.51,30.51,0,0,0,.58-3.14l-1.59-.93-2.6,3.43-1.4,1.43s.39,2.16.53,3.26S202.11,123.5,202.11,123.5Z"/><path class="cls-11" d="M199.44,112.78s-.5,0-1,1-.83,1.58-.83,1.58-1.94.92-1.8,1.19.74.41.74.41-1.51,2.76-.95,2.94,2.61,1,4,.27a3.55,3.55,0,0,0,1.18-1.37c.1-.17.2-.36.29-.55a24.51,24.51,0,0,1,1.34-2.79c.46-.35-.22-2.57-.22-2.57l-1.77-.39A1.25,1.25,0,0,0,199.44,112.78Z"/><path class="cls-12" d="M189.55,141.38s5,.21,6.58-.86,1-3.4-.77-3.31-5.89.68-6.18,1.25S189.55,141.38,189.55,141.38Z"/><path class="cls-13" d="M199.58,112.68s-.54-.75-.15-1.18,2.91.24,4.19.85,3.29,1.81,2.23,5.11-3.62,3.32-3.62,3.32-.94-1.34-.19-2a2.88,2.88,0,0,0,.85-1.07c.24-.6,0-.76-.38-.88s-.88.39-1.08.63-.75.46-.66-.31.49-1,.89-1.57c.55-.83-.85-2-1.29-2.33S199.58,112.68,199.58,112.68Z"/><path d="M202.27,123.36s2.89,1.8,2.59,8.16-2.8,11.93-2.42,15.49,1.07,16.5,1.07,16.5a8.37,8.37,0,0,1-5,1.69c-2.36-.2-9.29-1-9.29-1,.94-5.76,2.22-9.79,2.94-15.69.28-2.37-.29-9.67-.39-11.73s1-8.57,2.28-9.81a32.52,32.52,0,0,1,3.91-3.18Z"/><path d="M188.75,141.17c-2.55-1.15,2.52-13.59,7.15-16.29,5.86-3.43,2.68,2.16,2.7,2.11s-4.2,8.17-5.73,10.48S190.68,142,188.75,141.17Z"/><path class="cls-14" d="M189.45,135.13s1.07,1.56.31,2.36a3.11,3.11,0,0,1-1.6.94s-.75-.64-.62-1.27.87-2.62,1.25-2.69S189.45,135.13,189.45,135.13Z"/><path class="cls-15" d="M202.27,123.36l-.12-.61s-4.22.58-4.22.61,0,.38,0,.38Z"/></g></g></svg>