<svg xmlns="http://www.w3.org/2000/svg" xmlns:xlink="http://www.w3.org/1999/xlink" viewBox="0 0 504 504"><defs><style>.cls-1{fill:url(#linear-gradient);}.cls-2{fill:url(#New_Gradient_Swatch_5);}.cls-3{fill:url(#linear-gradient-2);}.cls-4{fill:url(#New_Gradient_Swatch_5-2);}.cls-5{fill:#22313f;}.cls-6{fill:url(#linear-gradient-3);}.cls-7{fill:url(#linear-gradient-4);}.cls-8{fill:url(#linear-gradient-5);}.cls-9{fill:url(#linear-gradient-6);}.cls-10{fill:#d3e3ed;}.cls-11{fill:#e5f1fa;}.cls-12{fill:#ded9d2;}.cls-13{fill:url(#New_Gradient_Swatch_5-3);}.cls-14{fill:url(#New_Gradient_Swatch_3);}.cls-15{fill:url(#New_Gradient_Swatch_3-2);}.cls-16{fill:url(#linear-gradient-7);}.cls-17{fill:url(#linear-gradient-8);}.cls-18{fill:url(#linear-gradient-9);}.cls-19{fill:url(#linear-gradient-10);}.cls-20{fill:url(#linear-gradient-11);}.cls-21{fill:url(#linear-gradient-12);}.cls-22{fill:url(#linear-gradient-13);}.cls-23{fill:url(#New_Gradient_Swatch_3-3);}.cls-24{fill:url(#linear-gradient-14);}.cls-25{fill:url(#linear-gradient-15);}.cls-26{fill:url(#New_Gradient_Swatch_3-4);}.cls-27{fill:url(#New_Gradient_Swatch_3-5);}.cls-28{fill:url(#linear-gradient-16);}.cls-29{fill:url(#linear-gradient-17);}.cls-30{fill:url(#linear-gradient-18);}.cls-31{fill:url(#linear-gradient-19);}.cls-32{fill:url(#New_Gradient_Swatch_3-6);}.cls-33{fill:url(#linear-gradient-20);}.cls-34{fill:url(#linear-gradient-21);}.cls-35{fill:url(#linear-gradient-22);}.cls-36{fill:url(#linear-gradient-23);}.cls-37{fill:url(#linear-gradient-24);}.cls-38{fill:url(#linear-gradient-25);}.cls-39{fill:#adc94a;}.cls-40{fill:#0087aa;}.cls-41{fill:url(#linear-gradient-26);}.cls-42{fill:url(#linear-gradient-27);}.cls-43{fill:url(#linear-gradient-28);}.cls-44{fill:url(#New_Gradient_Swatch_3-7);}</style><linearGradient id="linear-gradient" x1="-150.23" y1="24.87" x2="-279.45" y2="391.01" gradientTransform="translate(468.25 -3.11)" gradientUnits="userSpaceOnUse"><stop offset="0.2" stop-color="#adc94a"/><stop offset="0.63" stop-color="#0087aa"/><stop offset="0.92" stop-color="#066178"/></linearGradient><linearGradient id="New_Gradient_Swatch_5" x1="177.84" y1="288.06" x2="187.93" y2="288.06" gradientUnits="userSpaceOnUse"><stop offset="0.23" stop-color="#a45329"/><stop offset="0.39" stop-color="#a7572d"/><stop offset="0.53" stop-color="#af6337"/><stop offset="0.68" stop-color="#be7749"/><stop offset="0.83" stop-color="#d29262"/><stop offset="0.98" stop-color="#ebb681"/><stop offset="1" stop-color="#f0bc87"/></linearGradient><linearGradient id="linear-gradient-2" x1="657.05" y1="292.8" x2="691.36" y2="332.86" gradientTransform="matrix(0.98, -0.21, 0.21, 0.98, -538.49, 125.87)" gradientUnits="userSpaceOnUse"><stop offset="0.14" stop-color="#35495e"/><stop offset="0.41" stop-color="#374b60"/><stop offset="0.56" stop-color="#3e5365"/><stop offset="0.68" stop-color="#4a616f"/><stop offset="0.79" stop-color="#5c757c"/><stop offset="0.88" stop-color="#728e8e"/><stop offset="0.97" stop-color="#8daca3"/><stop offset="1" stop-color="#99baad"/></linearGradient><linearGradient id="New_Gradient_Swatch_5-2" x1="163.59" y1="336.25" x2="173.53" y2="336.25" xlink:href="#New_Gradient_Swatch_5"/><linearGradient id="linear-gradient-3" x1="240.52" y1="349.41" x2="240.52" y2="443.9" gradientTransform="translate(-58.66)" gradientUnits="userSpaceOnUse"><stop offset="0" stop-color="#35495e"/><stop offset="0.26" stop-color="#2d3f51"/><stop offset="0.65" stop-color="#253443"/><stop offset="1" stop-color="#22313f"/></linearGradient><linearGradient id="linear-gradient-4" x1="240.45" y1="349.37" x2="240.45" y2="443.86" xlink:href="#linear-gradient-3"/><linearGradient id="linear-gradient-5" x1="249.33" y1="358.58" x2="249.33" y2="438.34" gradientTransform="translate(-58.66)" gradientUnits="userSpaceOnUse"><stop offset="0" stop-color="#35495e"/><stop offset="0.15" stop-color="#34485c"/><stop offset="1" stop-color="#314458"/></linearGradient><linearGradient id="linear-gradient-6" x1="246.62" y1="358.58" x2="246.62" y2="438.34" xlink:href="#linear-gradient-5"/><linearGradient id="New_Gradient_Swatch_5-3" x1="190.52" y1="362.94" x2="198.31" y2="362.94" xlink:href="#New_Gradient_Swatch_5"/><linearGradient id="New_Gradient_Swatch_3" x1="135.95" y1="418.98" x2="144.49" y2="418.98" gradientUnits="userSpaceOnUse"><stop offset="0" stop-color="#ce8759"/><stop offset="1" stop-color="#f0bc87"/></linearGradient><linearGradient id="New_Gradient_Swatch_3-2" x1="129.18" y1="418.77" x2="136.97" y2="418.77" xlink:href="#New_Gradient_Swatch_3"/><linearGradient id="linear-gradient-7" x1="-131.14" y1="366.55" x2="-131.14" y2="433.75" gradientTransform="matrix(1, 0.05, -0.05, 1, 282.22, 1.86)" xlink:href="#linear-gradient-3"/><linearGradient id="linear-gradient-8" x1="-137.37" y1="362.23" x2="-137.37" y2="429.03" gradientTransform="translate(270.31)" xlink:href="#linear-gradient-3"/><linearGradient id="linear-gradient-9" x1="-128.51" y1="341.07" x2="-128.51" y2="437.31" gradientTransform="matrix(1, 0.05, -0.05, 1, 282.22, 1.86)" xlink:href="#linear-gradient-5"/><linearGradient id="linear-gradient-10" x1="-123.76" y1="339.26" x2="-141.94" y2="357.44" gradientTransform="matrix(1, 0.05, -0.05, 1, 282.22, 1.86)" gradientUnits="userSpaceOnUse"><stop offset="0" stop-color="#b4535b"/><stop offset="1" stop-color="#7e3b4f"/></linearGradient><linearGradient id="linear-gradient-11" x1="-124.47" y1="341.02" x2="-124.47" y2="437.57" gradientTransform="matrix(1, 0.05, -0.05, 1, 282.22, 1.86)" xlink:href="#linear-gradient-5"/><linearGradient id="linear-gradient-12" x1="-131.17" y1="337.19" x2="-131.17" y2="432.83" gradientTransform="translate(270.31)" xlink:href="#linear-gradient-5"/><linearGradient id="linear-gradient-13" x1="129.63" y1="290.62" x2="138.68" y2="290.62" gradientUnits="userSpaceOnUse"><stop offset="0" stop-color="#ce8759"/><stop offset="0.39" stop-color="#e0a371"/><stop offset="0.75" stop-color="#ecb581"/><stop offset="1" stop-color="#f0bc87"/></linearGradient><linearGradient id="New_Gradient_Swatch_3-3" x1="118.89" y1="333.04" x2="129.52" y2="333.04" xlink:href="#New_Gradient_Swatch_3"/><linearGradient id="linear-gradient-14" x1="-162.21" y1="302.66" x2="-118.06" y2="253.45" gradientTransform="matrix(1, -0.04, 0.04, 1, 266.54, -0.87)" xlink:href="#linear-gradient-2"/><linearGradient id="linear-gradient-15" x1="124.35" y1="283.81" x2="133.04" y2="283.81" xlink:href="#linear-gradient-13"/><linearGradient id="New_Gradient_Swatch_3-4" x1="326.86" y1="265.36" x2="334.22" y2="265.36" xlink:href="#New_Gradient_Swatch_3"/><linearGradient id="New_Gradient_Swatch_3-5" x1="334.25" y1="265.1" x2="340.89" y2="265.1" xlink:href="#New_Gradient_Swatch_3"/><linearGradient id="linear-gradient-16" x1="-191.79" y1="209.38" x2="-212.68" y2="257.51" gradientTransform="matrix(-0.99, 0.11, 0.12, 1.12, 104.43, -23.28)" xlink:href="#linear-gradient-5"/><linearGradient id="linear-gradient-17" x1="-209.16" y1="189.83" x2="-227.04" y2="207.7" gradientTransform="matrix(-1, 0.03, 0.03, 1, 115.17, -0.99)" xlink:href="#linear-gradient-10"/><linearGradient id="linear-gradient-18" x1="-208.36" y1="204.31" x2="-256.37" y2="301.01" gradientTransform="matrix(-1, 0.03, 0.03, 1, 115.17, -0.99)" gradientUnits="userSpaceOnUse"><stop offset="0" stop-color="#35495e"/><stop offset="0.41" stop-color="#2c3e50"/><stop offset="1" stop-color="#22313f"/></linearGradient><linearGradient id="linear-gradient-19" x1="328.58" y1="140.39" x2="338.79" y2="140.39" gradientUnits="userSpaceOnUse"><stop offset="0" stop-color="#ce8759"/><stop offset="0.16" stop-color="#d79566"/><stop offset="0.45" stop-color="#e5ab78"/><stop offset="0.73" stop-color="#edb883"/><stop offset="1" stop-color="#f0bc87"/></linearGradient><linearGradient id="New_Gradient_Swatch_3-6" x1="342.82" y1="180.53" x2="351.81" y2="180.53" xlink:href="#New_Gradient_Swatch_3"/><linearGradient id="linear-gradient-20" x1="248.62" y1="167.71" x2="248.62" y2="145.73" gradientTransform="matrix(0.95, 0, 0, 1, -4.47, -0.24)" gradientUnits="userSpaceOnUse"><stop offset="0" stop-color="#fff"/><stop offset="0.22" stop-color="#fcfefe"/><stop offset="0.35" stop-color="#f4fcfd"/><stop offset="0.46" stop-color="#e5f7fa"/><stop offset="0.57" stop-color="#d0f1f6"/><stop offset="0.66" stop-color="#b6eaf1"/><stop offset="0.75" stop-color="#94e0ea"/><stop offset="0.83" stop-color="#6dd5e2"/><stop offset="0.91" stop-color="#40c7d9"/><stop offset="0.98" stop-color="#0eb9d0"/><stop offset="1" stop-color="#00b5cd"/></linearGradient><linearGradient id="linear-gradient-21" x1="259.88" y1="175.28" x2="259.88" y2="133.34" gradientTransform="matrix(0.95, 0, 0, 1, -4.47, -0.24)" gradientUnits="userSpaceOnUse"><stop offset="0" stop-color="#fff"/><stop offset="0.13" stop-color="#fbfefe"/><stop offset="0.26" stop-color="#effafc"/><stop offset="0.38" stop-color="#dcf5f8"/><stop offset="0.5" stop-color="#c1edf3"/><stop offset="0.63" stop-color="#9de3ec"/><stop offset="0.75" stop-color="#72d6e3"/><stop offset="0.87" stop-color="#3fc7d9"/><stop offset="0.99" stop-color="#05b6ce"/><stop offset="1" stop-color="#00b5cd"/></linearGradient><linearGradient id="linear-gradient-22" x1="271.14" y1="183.72" x2="271.14" y2="119.52" gradientTransform="matrix(0.95, 0, 0, 1, -4.47, -0.24)" gradientUnits="userSpaceOnUse"><stop offset="0" stop-color="#fff"/><stop offset="0.21" stop-color="#fcfefe"/><stop offset="0.35" stop-color="#f4fcfd"/><stop offset="0.46" stop-color="#e5f7fa"/><stop offset="0.56" stop-color="#d0f1f6"/><stop offset="0.66" stop-color="#b6eaf1"/><stop offset="0.74" stop-color="#94e0ea"/><stop offset="0.83" stop-color="#6dd5e2"/><stop offset="0.9" stop-color="#40c7d9"/><stop offset="0.98" stop-color="#0eb9d0"/><stop offset="1" stop-color="#00b5cd"/></linearGradient><linearGradient id="linear-gradient-23" x1="282.4" y1="188.36" x2="282.4" y2="111.93" gradientTransform="matrix(0.95, 0, 0, 1, -4.47, -0.24)" gradientUnits="userSpaceOnUse"><stop offset="0" stop-color="#fff"/><stop offset="0.21" stop-color="#fcfefe"/><stop offset="0.35" stop-color="#f4fcfd"/><stop offset="0.46" stop-color="#e5f7fa"/><stop offset="0.56" stop-color="#d0f1f6"/><stop offset="0.66" stop-color="#b6eaf1"/><stop offset="0.74" stop-color="#94e0ea"/><stop offset="0.83" stop-color="#6dd5e2"/><stop offset="0.91" stop-color="#40c7d9"/><stop offset="0.98" stop-color="#0eb9d0"/><stop offset="1" stop-color="#00b5cd"/></linearGradient><linearGradient id="linear-gradient-24" x1="293.66" y1="177.19" x2="293.66" y2="130.19" xlink:href="#linear-gradient-22"/><linearGradient id="linear-gradient-25" x1="136.09" y1="186.35" x2="185.79" y2="186.35" gradientUnits="userSpaceOnUse"><stop offset="0" stop-color="#fff"/><stop offset="1" stop-color="#00b5cd"/></linearGradient><linearGradient id="linear-gradient-26" x1="304.81" y1="190.88" x2="304.81" y2="108.42" gradientTransform="matrix(0.95, 0, 0, 1, -4.47, -0.24)" gradientUnits="userSpaceOnUse"><stop offset="0" stop-color="#fff"/><stop offset="0.2" stop-color="#fcfefe"/><stop offset="0.33" stop-color="#f4fcfd"/><stop offset="0.44" stop-color="#e5f7fa"/><stop offset="0.54" stop-color="#d0f1f6"/><stop offset="0.63" stop-color="#b5eaf0"/><stop offset="0.71" stop-color="#94e0ea"/><stop offset="0.79" stop-color="#6cd4e2"/><stop offset="0.87" stop-color="#3ec7d9"/><stop offset="0.94" stop-color="#0cb8cf"/><stop offset="0.96" stop-color="#00b5cd"/></linearGradient><linearGradient id="linear-gradient-27" x1="336.12" y1="449.15" x2="376.92" y2="204.4" gradientUnits="userSpaceOnUse"><stop offset="0.02"/><stop offset="1" stop-color="#00b3e0"/></linearGradient><linearGradient id="linear-gradient-28" x1="325.17" y1="170.01" x2="325.17" y2="105.81" gradientTransform="matrix(0.9, 0.3, -0.32, 0.95, 50.63, -57.77)" xlink:href="#linear-gradient-22"/><linearGradient id="New_Gradient_Swatch_3-7" x1="263.18" y1="193.42" x2="268.88" y2="193.42" gradientTransform="matrix(0.63, -0.78, 0.78, 0.63, -13.42, 254.19)" xlink:href="#New_Gradient_Swatch_3"/></defs><g id="Layer_1" data-name="Layer 1"><rect x="102.2" y="78.2" width="301.9" height="280.9" transform="translate(506.3 437.3) rotate(-180)"/><rect class="cls-1" x="99" y="74.16" width="301.9" height="280.9" transform="translate(499.9 429.22) rotate(-180)"/><path class="cls-2" d="M187.43,276.45s-.66,3.56,0,5.5c1,3.07.16,2.86,0,3.32-.21.84.33,4.21,0,4.84s-1.46.83-1.46.83l-1.13,6.53-6.23,2.2-.86-7.28,2.38-13.31Z"/><path class="cls-3" d="M172.51,278.05c-.28,4.93,5.33,14.34,5.33,14.34s6.36-.52,6.74-1.28.25-5,.25-5a2.81,2.81,0,0,1-.75-2.46c.41-1.23.91-.93.91-.93.8.2.6,1.23.6,1.23l.72-.45a47.78,47.78,0,0,1,.08-6,1.5,1.5,0,0,1,1-1s-2.1-4.37-8.49-3.21C175.17,273.93,172.51,278.05,172.51,278.05Z"/><polygon class="cls-4" points="167.32 329.16 172.83 337.76 173.53 343.34 163.59 333.77 167.32 329.16"/><path class="cls-5" d="M187.88,442.06v3.5h3.33v-.48a16.91,16.91,0,0,0,3.51.48h3.85s.34-.67-.51-1.25c-1.09-.75-3.38-.64-4.83-1.46a11.69,11.69,0,0,1-2.42-1.79h-2.93Z"/><path class="cls-5" d="M178.6,442.06v3.5h3.16v-.48a15.08,15.08,0,0,0,3.31.48h3.65a1,1,0,0,0-.49-1.25c-1-.75-3.19-.64-4.57-1.46a10.83,10.83,0,0,1-2.28-1.79H178.6Z"/><path class="cls-6" d="M178.35,441.44h4.31s5.64-52.45,4-53-8.61,0-9.65,15.19S178.35,441.44,178.35,441.44Z"/><path class="cls-7" d="M186.59,398.5s2.32-21.43,2.89-32.28a115.25,115.25,0,0,0,0-16.43l-15.6-.42s.94,28.26,1.26,33.52S177,403.66,177,403.66Z"/><path class="cls-8" d="M187.61,441.44h4.3s4.72-52.45,3.09-53-7.69,0-8.73,15.19S187.61,441.44,187.61,441.44Z"/><path class="cls-9" d="M195.3,389.5s0-13.18,0-24.05a115.33,115.33,0,0,0-.89-16.4l-13.74.69s3.89,26.94,4.49,32.17,2,15.6,2,15.6Z"/><path class="cls-10" d="M170.8,304.85s-13.68,20.08-13.29,21.45,5.77,7.8,5.77,7.8,5.23-4.54,5.13-4.83a41.51,41.51,0,0,0-3-3l7.08-7.71Z"/><path class="cls-11" d="M168.56,375.78s3.26-8,3.94-33.06c.78-29.29-2.26-36.38-1.7-37.87.35-.94,1.32-4.29,4.4-6,1.41-.78,1.27-1.51,2.48-1.95,3.93-1.42,5.61-.31,7.44.1.57.13,1.21,1.06,1.9,1.5,3.64,2.35,5.64,11.34,6,13.29.32,1.58,2.6,14.6,2.12,25.95-.23,5.27,1.73,39.32,1.73,39.32l-13-.56Z"/><polygon class="cls-10" points="175.91 298.37 177.58 295.89 185.5 295.89 187.43 298.79 179.05 299.58 175.91 298.37"/><polygon class="cls-10" points="181.21 303.85 182.88 327.46 193.37 361.04 191.59 365.06 180.63 333.84 181.21 303.85"/><polygon class="cls-12" points="186.27 345.49 190.73 361.04 194.39 357.67 191.33 343.36 186.27 345.49"/><path class="cls-13" d="M195.15,359.24a19.94,19.94,0,0,1,2.18,2.87c.62,1.15,1.47,4.46.62,4.56s-1.44-3.59-1.44-3.59l.69,3.29s1.13,1.65.58,2-.81-.12-1.17-.39c-.85-.63-.65,1.57-1.63.55s-.74,1.39-1.81-.51c-.67-1.2-1,.57-1.51-.84a33.15,33.15,0,0,1-.88-5.17l-.26-5,3.87.62Z"/><path class="cls-11" d="M183.67,302.29l-2.46.36s.7,28,.81,30.12c.11,1.92,8.31,28.27,8.31,28.27l5.56-2.93-6.55-24.6,2.21-25.06s-.13-4.94-2-6.59S183.67,302.29,183.67,302.29Z"/><path class="cls-14" d="M144.25,443.5s-3.46-1.24-3.92-2.26c-.11-.25.88-15.35,1.26-25.16.33-8.7.58-20.82.58-20.82s-3.45-2.53-4.24-1.64c-1.72,1.94-2.77,7.45-1.25,24.11.42,4.59,1.58,24.15,1.58,24.15l2.08,1.94,4.15.71Z"/><path class="cls-5" d="M138.26,441.88a2.73,2.73,0,0,0,0,1.6,2.08,2.08,0,0,1,0,1.38h1.63v-.65l4.92.65h2.57s-.08-.49-1.13-.9a7.17,7.17,0,0,0-2-.46V444a10.54,10.54,0,0,1-3.1-.62A7.84,7.84,0,0,1,138.26,441.88Z"/><path class="cls-15" d="M136.75,443.5s-3.44-1.31-3.88-2.34c-.1-.24,1.17-15.32,1.74-25.12.5-8.7,1.59-21.11,1.59-21.11s-4-2.62-4.81-1.74c-1.76,1.91-2.92,7.72-1.72,24.4.33,4.6,1.09,24.44,1.09,24.44l2.08,1.71,4.13.79Z"/><path class="cls-5" d="M130.76,441.88a2.73,2.73,0,0,0,0,1.6,2.08,2.08,0,0,1,0,1.38h1.63v-.65l4.92.65h2.57s-.08-.49-1.13-.9a7.17,7.17,0,0,0-2-.46V444a10.54,10.54,0,0,1-3.1-.62A7.84,7.84,0,0,1,130.76,441.88Z"/><path class="cls-12" d="M142.17,395.26s2.92-7,3.6-21.56a184.68,184.68,0,0,0,0-22.18l-10.16.45s.15,25.12.2,32.14a120.75,120.75,0,0,0,1,13.62Z"/><path class="cls-12" d="M136,396s1.7-6.91,2.38-21.47,1.22-22.26,1.22-22.26l-10.15.45s.14,25.12.2,32.14a119.42,119.42,0,0,0,1,13.62Z"/><path class="cls-16" d="M136,396s1.7-6.91,2.38-21.47,1.22-22.26,1.22-22.26l-10.15.45s.14,25.12.2,32.14a119.42,119.42,0,0,0,1,13.62Z"/><path class="cls-17" d="M130.68,439.19H133c.31-4.44,1.19-15.43,1.64-23.15.5-8.7,2.1-24.05,2.1-24.05s-4.5.32-5.32,1.2c-1.76,1.91-2.92,7.72-1.72,24.4C129.93,421.15,130.46,433.72,130.68,439.19Z"/><path class="cls-18" d="M129.56,340.1s-1.74,8.06-1.1,14.53a45.36,45.36,0,0,0,1.54,9.08l15.24-.75s1-7,.54-11.44a57.68,57.68,0,0,0-2.31-9.74l-8.63-1.08Z"/><path class="cls-19" d="M129.56,340.1l0-.7s7.48,1.35,8.24,1.39l5.63.26v.73a28,28,0,0,1-5.75.06Z"/><path class="cls-20" d="M142.17,395.26s2.92-7,3.6-21.56a184.68,184.68,0,0,0,0-22.18l-10.16.45s.15,25.12.2,32.14a120.75,120.75,0,0,0,1,13.62Z"/><path class="cls-21" d="M140.43,438.43c.26-4.88.88-15.07,1.16-22.35.33-8.7.76-22.58.76-22.58s-3.63-.77-4.42.12c-1.72,1.94-2.77,7.45-1.25,24.11.31,3.38,1,14.87,1.37,20.7Z"/><path class="cls-22" d="M137.09,280.94a23.34,23.34,0,0,0,.76,4.74c.19.56.82,1.29.83,1.57s-.42.26-.47.51c-.16.73.24,3.49,0,4.05s-3.51.08-4,1c-.9,1.66.49,5.1.49,5.1l-3.12,2.44-2-6.27,1.73-9.65Z"/><polygon class="cls-23" points="120.86 328.09 129.52 336.07 129.17 338 118.89 330.57 120.86 328.09"/><path class="cls-11" d="M125.43,371.52s-.56.26-.34-2c.24-2.51,3.52-37.26,3.25-43.08-.47-9.93-4-23.42-2.91-25.2.7-1.18,5.81-3.79,5.81-3.79l3.3-.12s3.14,4.74,4.4,6.27,3.18,4.62,3.24,6.13c.12,3.34-1.73,3.11-1.93,4.3-1.81,10.59,4.78,30.93,5.82,35,.73,2.81,1.28,23.74,1.28,23.74l-5.2.49Z"/><path class="cls-10" d="M125.43,301.26S108.62,324.09,109,325.15s16.9,11.66,16.9,11.66l2.13-2.69-10.28-10.33,8.42-13.73Z"/><path class="cls-24" d="M137.3,280.51a8.35,8.35,0,0,0-7-2.88c-5,.16-6.38,3.34-6.27,6.32.16,4.64-.71,5.67-2.14,7.11A9,9,0,0,0,119,297.9a11.37,11.37,0,0,0,6.79,3.75c4.68.67,11.08-3.61,10.61-4.72-.36-.86-6-3.15-3.15-5.58,2.2-1.85,1.66-8.24,1.66-8.24a4.08,4.08,0,0,0,1.9-1.14A2.29,2.29,0,0,0,137.3,280.51Z"/><polygon class="cls-12" points="142.22 285.63 132.17 283.44 130.66 285.62 141.43 288.7 142.22 285.63"/><path class="cls-25" d="M130.36,285.91a8.52,8.52,0,0,1-2.4.43c-.84-.07-2.76-.21-2.46-.65s2.33-.36,2.33-.36a6,6,0,0,1-1.92-.87c-.75-.53-1.69-.85-1.54-1.21s0-.21.78-.3-.3-.91.63-.86-.17-.86,1.17-.48c.84.24.3-.63,1.15-.24s2.62,1.53,2.62,1.53l2.32.73L131.85,286Z"/><path class="cls-11" d="M136.64,306.92s20.1-13,20.49-15.17c.66-3.64-24.09-8.31-24.09-8.31l-1.66,2.87,17.51,5.29s-14.1,9.32-14.35,9.8.54,3.31.3,5.28S135.93,307.63,136.64,306.92Z"/><path class="cls-26" d="M327.06,289.64s3.37-1.32,3.79-2.34c.1-.25-1.31-15.06-2-24.69-.58-8.54-.67-20-.67-20s3.41-3.28,4.18-2.39c1.66,1.93,2.37,7.45,1.36,23.86-.27,4.53-.84,23.79-.84,23.79l-2,2-4.06.82Z"/><path class="cls-27" d="M334.49,289.61s3.29-1.58,3.69-2.6c.1-.25-1.6-15-2.44-24.65-.74-8.53-1.05-20-1.05-20s3.35-3.35,4.13-2.47c1.7,1.9,2.51,7.4,1.82,23.83-.19,4.53-.36,23.91-.36,23.91l-2,1.89-4,.9Z"/><path class="cls-12" d="M328.21,242.61s-1.5-5.22-1.83-16.18a107.1,107.1,0,0,1,.52-16.71l10,.41s-1.93,18.84-2.15,24.13a71.38,71.38,0,0,1-1.28,10.25Z"/><path class="cls-28" d="M329,189.26a56.84,56.84,0,0,0,6.92-.3c1.52-.34,6.79-1.12,6.79-1.12s-.35,17.48.3,28.78c.68,11.51,1.35,26.87,1.35,26.87s.6,1.37-2.48,1.62a100.42,100.42,0,0,1-15.4-.19,226.44,226.44,0,0,1-1.8-27.39C324.8,204.44,329,189.26,329,189.26Z"/><path class="cls-29" d="M342.72,187.84l0-.68s-7.38,1.2-8.13,1.22l-5.54.17,0,.71a27,27,0,0,0,5.65.16Z"/><path class="cls-30" d="M345.2,244.72s-2.52.32-4.18.5l-3.91.1s-.59-21.57-.45-31.34.25-25,.25-25l5.81-1.18s1.2,18.6,2.32,27.19S345.2,244.72,345.2,244.72Z"/><path class="cls-31" d="M329.84,130.17a25.12,25.12,0,0,1-.47,5.15c-.17.62-.8,1.44-.79,1.75s.47.24.54.51c.22.78,0,3.77.27,4.36s3.78-.16,4.36.75c1.09,1.72-.17,5.51-.17,5.51l3.53,2.41,1.68-6.88-2.54-10.26Z"/><polygon class="cls-32" points="349.77 175.26 342.82 183.89 343.13 185.79 351.81 177.62 349.77 175.26"/><path class="cls-11" d="M346.94,217.92s.23.26.06-1.94c-.19-2.48-4.64-36.36-4.61-42.09,0-9.77,2.36-23.35,1.22-25-.76-1.12-5.95-3.35-5.95-3.35l-3.24.09s-2.78,4.86-3.92,6.43-2.83,4.74-2.78,6.23c.09,3.28,1.89,2.94,2.17,4.09,2.45,10.28-5.47,49.8-5.72,51.73-.37,2.83-.45,3.77-.45,3.77l6.62,1.37Z"/><path class="cls-5" d="M332.91,287.87a2.75,2.75,0,0,1,0,1.57,2,2,0,0,0,0,1.36l-1.61.05,0-.65-4.77.86H324s.06-.48,1.08-.91a6.78,6.78,0,0,1,1.95-.51l0,.52a10.36,10.36,0,0,0,3-.69A7.9,7.9,0,0,0,332.91,287.87Z"/><path class="cls-5" d="M340.28,287.65a2.8,2.8,0,0,1,.1,1.57,7.16,7.16,0,0,0,.08,2.46l-1.61.1,0-1.75-4.79,1h-2.51s0-.42,1.05-.89a7,7,0,0,1,1.93-.56l.05.52a10.43,10.43,0,0,0,3-.79A7.74,7.74,0,0,0,340.28,287.65Z"/><path class="cls-10" d="M343.58,148.94s14.22,21,13.89,22.06-12.11,14-12.11,14l-2.2-2.56,9.44-11.5-9.11-13.25Z"/><path class="cls-11" d="M340.28,159.59s-12.74,14.16-14.3,13.78c-2.19-.55-18.14-3-18.14-3l-.62-3.46,19.19.69s9.3-13.2,9.76-13.47,4.64,3.21,6.57,2.89S341,158.86,340.28,159.59Z"/><path d="M329.59,129.72a9,9,0,0,1,7.28-3.58c4-.12,6,1.57,6.8,4.67,1.33,5.22.9,5.65,4.23,8.54s3,7.46,4.13,9.13c.7,1.05,8.67,2.21,5.18,9.33-.75,1.52-.42,3.93-4.11,5.05s-7,.26-8.19-1.62c-2.08-3.33-3.84-2.07-5-1.83a6.7,6.7,0,0,1-5.34-1.2c-1.88-1.62-1.95-4.63-.17-9.3.84-2.22,3.51-5.41.24-7.82-2.49-1.84-2.36-8.74-2.36-8.74a4.33,4.33,0,0,1-2.12-1.09A2.53,2.53,0,0,1,329.59,129.72Z"/><polygon class="cls-33" points="234.61 158.43 228.2 158.45 228.2 142.42 234.61 142.4 234.61 158.43"/><polygon class="cls-34" points="245.29 158.39 238.88 158.41 238.88 127.84 245.29 127.82 245.29 158.39"/><polygon class="cls-35" points="255.97 158.36 249.56 158.38 249.56 111.56 255.97 111.54 255.97 158.36"/><polygon class="cls-36" points="266.66 158.32 260.24 158.34 260.24 102.62 266.66 102.6 266.66 158.32"/><polygon class="cls-37" points="277.34 158.29 270.93 158.31 270.93 124.04 277.34 124.02 277.34 158.29"/><path class="cls-38" d="M185.79,161.5a49.7,49.7,0,0,0-49.7,49.7h49.7Z"/><path class="cls-39" d="M189.13,177.84v36.47h-.2L160.53,237a36.48,36.48,0,1,0,28.6-59.11Z"/><path class="cls-40" d="M185.79,212H142.27a43.32,43.32,0,0,0,9.49,27.12Z"/><polygon class="cls-41" points="287.91 158.49 281.5 158.51 281.5 98.39 287.91 98.36 287.91 158.49"/><path class="cls-42" d="M382.58,458.9l4.4.1L352.23,281.77l-4.4.7,1.65,8.42H317.6l-1.79-9.12-4.4.7L346.16,458.9l4.4.1-3.08-16.41h31.88Zm-44.79-65.54h31.88l4.06,20.6H341.84Zm21.39-53.24H327.3l-4.06-20.6h31.88Zm.79,4,4.06,20.6H332.15l-4.06-20.6Zm4.85,24.61,4.06,20.61H337l-4.06-20.61ZM350.27,294.9l4.06,20.6H322.45l-4.06-20.6Zm-3.58,143.67L342.63,418h31.89l4.05,20.6Z"/><polygon class="cls-43" points="299.92 178.8 293.83 176.77 308.76 132.4 314.84 134.43 299.92 178.8"/></g><g id="Layer_2" data-name="Layer 2"><path class="cls-44" d="M305.71,170s-2,.45-2.93.53-.11-.52-1-.58c-1.36-.09,0-.54-.89-.81s.33-.67-.28-1-.61-.16-.61-.51,1-.36,1.84-.59a6,6,0,0,1,2.06-.17s.27-.8.32-.93a17.32,17.32,0,0,1,2.19,1.23l.86.19.44,2.59Z"/></g></svg>