<svg xmlns="http://www.w3.org/2000/svg" xmlns:xlink="http://www.w3.org/1999/xlink" viewBox="0 0 440 431.62"><defs><style>.cls-1{isolation:isolate;}.cls-2{fill:url(#New_Gradient_Swatch_41);}.cls-3{fill:#036076;}.cls-4{fill:url(#linear-gradient);}.cls-5{fill:url(#linear-gradient-2);}.cls-6{fill:url(#New_Gradient_Swatch_41-2);}.cls-7{fill:url(#New_Gradient_Swatch_41-3);}.cls-8{fill:url(#linear-gradient-3);}.cls-9{fill:url(#linear-gradient-4);}.cls-10{fill:#c1d853;}.cls-11{fill:url(#New_Gradient_Swatch_41-4);}.cls-12{fill:url(#linear-gradient-5);}.cls-13{opacity:0.3;mix-blend-mode:multiply;fill:url(#linear-gradient-6);}.cls-14{fill:url(#New_Gradient_Swatch_2);}.cls-15{fill:#0187aa;}.cls-16{fill:url(#linear-gradient-7);}.cls-17{fill:url(#linear-gradient-8);}</style><linearGradient id="New_Gradient_Swatch_41" x1="171.4" y1="154.09" x2="203.73" y2="263.56" gradientUnits="userSpaceOnUse"><stop offset="0.09" stop-color="#8dac3d"/><stop offset="0.1" stop-color="#8aab3e"/><stop offset="0.64" stop-color="#297566"/><stop offset="0.88" stop-color="#036076"/></linearGradient><linearGradient id="linear-gradient" x1="92.01" y1="115.33" x2="90.08" y2="306.26" gradientUnits="userSpaceOnUse"><stop offset="0.09" stop-color="#8dac3d"/><stop offset="0.1" stop-color="#8aab3e"/><stop offset="0.64" stop-color="#297566"/><stop offset="0.88" stop-color="#036076"/></linearGradient><linearGradient id="linear-gradient-2" x1="247.74" y1="144.15" x2="257.55" y2="236.21" gradientUnits="userSpaceOnUse"><stop offset="0.09" stop-color="#8dac3d"/><stop offset="0.1" stop-color="#8aab3e"/><stop offset="0.43" stop-color="#297566"/><stop offset="0.57" stop-color="#036076"/></linearGradient><linearGradient id="New_Gradient_Swatch_41-2" x1="329.78" y1="125.71" x2="387.82" y2="125.71" xlink:href="#New_Gradient_Swatch_41"/><linearGradient id="New_Gradient_Swatch_41-3" x1="411.79" y1="204.51" x2="174.64" y2="588.75" xlink:href="#New_Gradient_Swatch_41"/><linearGradient id="linear-gradient-3" x1="411.92" y1="262.11" x2="124.06" y2="396.34" gradientUnits="userSpaceOnUse"><stop offset="0.09" stop-color="#8dac3d"/><stop offset="0.09" stop-color="#8aab3e"/><stop offset="0.38" stop-color="#297566"/><stop offset="0.51" stop-color="#036076"/></linearGradient><linearGradient id="linear-gradient-4" x1="325.97" y1="239.39" x2="59.42" y2="546.25" gradientUnits="userSpaceOnUse"><stop offset="0.09" stop-color="#8dac3d"/><stop offset="0.09" stop-color="#8aab3e"/><stop offset="0.37" stop-color="#297566"/><stop offset="0.5" stop-color="#036076"/></linearGradient><linearGradient id="New_Gradient_Swatch_41-4" x1="146.28" y1="248.1" x2="173.96" y2="596.69" xlink:href="#New_Gradient_Swatch_41"/><linearGradient id="linear-gradient-5" x1="119.36" y1="197.91" x2="113.03" y2="531.58" gradientUnits="userSpaceOnUse"><stop offset="0.09" stop-color="#8dac3d"/><stop offset="0.1" stop-color="#8aab3e"/><stop offset="0.64" stop-color="#297566"/><stop offset="0.88" stop-color="#036076"/></linearGradient><linearGradient id="linear-gradient-6" x1="361.8" y1="160.44" x2="315.22" y2="187.52" gradientTransform="matrix(-0.97, 0.23, 0.23, 0.97, 557.18, -27.42)" gradientUnits="userSpaceOnUse"><stop offset="0" stop-color="#231f20"/><stop offset="0.41" stop-color="#838182"/><stop offset="0.82" stop-color="#dcdbdc"/><stop offset="1" stop-color="#fff"/></linearGradient><linearGradient id="New_Gradient_Swatch_2" x1="244.43" y1="74.66" x2="256.17" y2="74.66" gradientUnits="userSpaceOnUse"><stop offset="0" stop-color="#d08859"/><stop offset="1" stop-color="#f2bd88"/></linearGradient><linearGradient id="linear-gradient-7" x1="-471.68" y1="59.38" x2="-440.06" y2="96.3" gradientTransform="matrix(-1, 0, 0, 1, -208.77, 0)" gradientUnits="userSpaceOnUse"><stop offset="0.14" stop-color="#35495e"/><stop offset="0.41" stop-color="#374b60"/><stop offset="0.56" stop-color="#3e5365"/><stop offset="0.68" stop-color="#4a616f"/><stop offset="0.79" stop-color="#5c757c"/><stop offset="0.88" stop-color="#728e8e"/><stop offset="0.97" stop-color="#8daca3"/><stop offset="1" stop-color="#99baad"/></linearGradient><linearGradient id="linear-gradient-8" x1="-426.36" y1="137.16" x2="-510.62" y2="165.15" gradientTransform="matrix(-1, 0, 0, 1, -208.77, 0)" gradientUnits="userSpaceOnUse"><stop offset="0.13" stop-color="#233446"/><stop offset="0.51" stop-color="#253647"/><stop offset="0.71" stop-color="#2d3e4a"/><stop offset="0.88" stop-color="#3a4c50"/><stop offset="1" stop-color="#495c56"/></linearGradient></defs><g class="cls-1"><g id="Layer_1" data-name="Layer 1"><polygon class="cls-2" points="136.81 168.19 136.81 251.79 230.36 246.71 249.37 203.27 136.81 168.19"/><polygon class="cls-3" points="142.95 214 142.95 246.71 121.11 229.43 142.95 214"/><polyline class="cls-4" points="71 414.77 71 431.62 108.67 431.62 108.14 258.48 71 229.43 71 414.77"/><polygon class="cls-5" points="291.69 159.41 302.42 142.71 241.1 133.1 204.6 144.96 195.65 176.85 260.27 203.27 291.69 203.27 305.31 162.83 291.69 159.41"/><polygon class="cls-6" points="342.66 102.64 342.66 148.78 311.08 142.71 322.86 120.82 342.66 102.64"/><polyline class="cls-7" points="359 414.36 359 431.62 349.45 431.62 349.45 163.94 359 148.78 359 414.36"/><polygon class="cls-8" points="291.69 159.41 291.69 450 349.45 450 349.45 164.92 291.69 159.41"/><polygon class="cls-9" points="301.14 431.62 301.14 207.3 164.19 261.99 164.19 431.62 301.14 431.62"/><path class="cls-10" d="M164.19,266.47l-19.8,18.18-56-5.35,19.8-18.18C63.87,249.73,64.66,224.29,82.2,208.2L143,214s-18.36,19.46,22.71,23.38c22.25,2.12,50.7-4,60-12.62,19.8-18.17-32.7-24.62-45.69-27.86-23.71-6-62-17.67-32.86-44.42,22.62-20.77,72.24-35.52,119.68-37l19.79-18.18,56.05,5.35-19.8,18.18c39.27,9.48,43.85,28.26,26.59,44.1l-57.76-5.51c4-3.64,2.32-12.11-27.62-15-20.54-2-45.71,4.24-56.18,13.84C195.45,169.71,231.39,173.14,243,176c28.84,6.48,84.51,17,43.5,54.6C264.67,250.56,212.92,265.11,164.19,266.47Z"/><polyline class="cls-11" points="164.19 431.62 164.19 266.48 144.4 284.07 144.4 431.62"/><polygon class="cls-12" points="144.4 431.62 144.4 284.07 88.35 279.3 88.35 431.62 144.4 431.62"/></g><g id="shadows"><path class="cls-13" d="M292.6,224.38l-36.66-11.83c-.83,0-3.75-1.43-5.2-1.27a2.29,2.29,0,0,0-2,2l40.39,14.65"/><path class="cls-14" d="M245.46,66.25a19.75,19.75,0,0,1,0,4.18c-.33,2.39-1.18,4.62-1,5,.32.74,1.43.73,1.43.73s-.78,5-.43,5.55,3.72-.63,3.72-.63l1.15,2,5.84-.82V80.77l-4.33-12Z"/><polygon class="cls-15" points="256.17 84.26 256.17 82.27 250.33 83.08 249.18 85.41 250.8 84.26 256.17 84.26"/><path class="cls-16" d="M258,66.25c1.11,4.56-1.79,14.52-1.79,14.52l-5,1V76.85s1.39-2.22.83-3.28-.6-1.49-1.41-1.06-1.44,2.65-1.44,2.65l-1-.53s.37-4,0-4.77a44.11,44.11,0,0,0-2.68-3.61s3.22-3.81,6.38-3.18A16,16,0,0,1,258,66.25Z"/><path class="cls-17" d="M249,213.29l2.34.07,0-1.6,2.1.82v.1h.26l.08,0,2.33.07v-.1h.08V143h4.44a38.83,38.83,0,0,1-1.68-7.7l7.82-21.79-8-20.76a47.85,47.85,0,0,0-2.6-8.44h-5.51c-1.26,0-2,1.7-2.44,4.62L247.63,94c-.42,5-.74,11.46-1.59,18.6a131.23,131.23,0,0,0,0,29.55l2.56.39.33,66.49a17.36,17.36,0,0,0-3.43-.11c-.31.09.34.47,1.39,1a39.12,39.12,0,0,0-6.19-.39C239.67,209.82,249,213.29,249,213.29ZM260,122.57a103.12,103.12,0,0,0,.53-14.09l2.38,5.75Zm-8.69,86.72.69-45.62,1.29,45.83Z"/></g></g></svg>