<svg xmlns="http://www.w3.org/2000/svg" xmlns:xlink="http://www.w3.org/1999/xlink" viewBox="0 0 450 450"><defs><style>.cls-1{isolation:isolate;}.cls-2,.cls-3,.cls-4{opacity:0.2;}.cls-2,.cls-3,.cls-4,.cls-9{mix-blend-mode:multiply;}.cls-2{fill:url(#linear-gradient);}.cls-3{fill:url(#linear-gradient-2);}.cls-4{fill:url(#linear-gradient-3);}.cls-5{fill:url(#linear-gradient-4);}.cls-6{fill:url(#linear-gradient-5);}.cls-7{fill:url(#linear-gradient-6);}.cls-8{opacity:0.3;}.cls-9{opacity:0.42;fill:url(#linear-gradient-7);}.cls-10{fill:url(#linear-gradient-8);}.cls-11{fill:url(#linear-gradient-9);}.cls-12{fill:url(#linear-gradient-10);}.cls-13{fill:#22313f;}.cls-14{fill:url(#linear-gradient-11);}.cls-15{fill:url(#linear-gradient-12);}.cls-16{fill:url(#linear-gradient-13);}.cls-17{fill:url(#linear-gradient-14);}.cls-18{fill:#d3e3ed;}.cls-19{fill:#e5f1fa;}.cls-20{fill:#ded9d2;}.cls-21{fill:url(#linear-gradient-15);}</style><linearGradient id="linear-gradient" x1="260.02" y1="196.05" x2="304.59" y2="384.57" gradientUnits="userSpaceOnUse"><stop offset="0" stop-color="#231f20"/><stop offset="0.1" stop-color="#2e2b2c"/><stop offset="0.27" stop-color="#4d4a4b"/><stop offset="0.5" stop-color="#7f7c7d"/><stop offset="0.77" stop-color="#c2c1c2"/><stop offset="1" stop-color="#fff"/></linearGradient><linearGradient id="linear-gradient-2" x1="186.29" y1="211.62" x2="232.96" y2="318.58" gradientUnits="userSpaceOnUse"><stop offset="0" stop-color="#231f20"/><stop offset="0.18" stop-color="#524f50"/><stop offset="0.47" stop-color="#9b9a9a"/><stop offset="0.72" stop-color="#d1d0d1"/><stop offset="0.9" stop-color="#f2f2f2"/><stop offset="1" stop-color="#fff"/></linearGradient><linearGradient id="linear-gradient-3" x1="162.46" y1="192.48" x2="209.13" y2="299.44" xlink:href="#linear-gradient-2"/><linearGradient id="linear-gradient-4" x1="110.15" y1="152.75" x2="322.05" y2="290.36" gradientUnits="userSpaceOnUse"><stop offset="0.35" stop-color="#b6d84e"/><stop offset="0.4" stop-color="#a3cb52"/><stop offset="0.5" stop-color="#71ab5d"/><stop offset="0.64" stop-color="#22766f"/><stop offset="0.7" stop-color="#006076"/><stop offset="0.96" stop-color="#8dac3d"/></linearGradient><linearGradient id="linear-gradient-5" x1="175.71" y1="365.1" x2="293.9" y2="99.66" gradientUnits="userSpaceOnUse"><stop offset="0.13" stop-color="#0087aa"/><stop offset="0.7" stop-color="#b6d84e"/></linearGradient><linearGradient id="linear-gradient-6" x1="223.39" y1="357.5" x2="267.4" y2="131.07" gradientUnits="userSpaceOnUse"><stop offset="0.24" stop-color="#006076"/><stop offset="0.32" stop-color="#136a6e"/><stop offset="0.49" stop-color="#45855a"/><stop offset="0.7" stop-color="#8dac3d"/></linearGradient><linearGradient id="linear-gradient-7" x1="234.43" y1="318.76" x2="-99.79" y2="513.09" gradientTransform="matrix(-0.84, 0.26, -0.03, 1, 318.56, -52.06)" gradientUnits="userSpaceOnUse"><stop offset="0" stop-color="#231f20"/><stop offset="1" stop-color="#fff"/></linearGradient><linearGradient id="linear-gradient-8" x1="150.81" y1="160.57" x2="162.77" y2="160.57" gradientUnits="userSpaceOnUse"><stop offset="0.23" stop-color="#a45329"/><stop offset="0.31" stop-color="#ac5e33"/><stop offset="0.78" stop-color="#dda26f"/><stop offset="1" stop-color="#f0bc87"/></linearGradient><linearGradient id="linear-gradient-9" x1="660.29" y1="152.62" x2="700.91" y2="200.05" gradientTransform="matrix(0.98, -0.21, 0.21, 0.98, -540.9, 132.97)" gradientUnits="userSpaceOnUse"><stop offset="0.14" stop-color="#35495e"/><stop offset="0.41" stop-color="#374b60"/><stop offset="0.56" stop-color="#3e5365"/><stop offset="0.68" stop-color="#4a616f"/><stop offset="0.79" stop-color="#5c757c"/><stop offset="0.88" stop-color="#728e8e"/><stop offset="0.97" stop-color="#8daca3"/><stop offset="1" stop-color="#99baad"/></linearGradient><linearGradient id="linear-gradient-10" x1="133.95" y1="217.63" x2="145.72" y2="217.63" gradientUnits="userSpaceOnUse"><stop offset="0.23" stop-color="#a45329"/><stop offset="0.38" stop-color="#bd7648"/><stop offset="0.55" stop-color="#d39464"/><stop offset="0.71" stop-color="#e3aa77"/><stop offset="0.86" stop-color="#edb883"/><stop offset="1" stop-color="#f0bc87"/></linearGradient><linearGradient id="linear-gradient-11" x1="214.24" y1="233.22" x2="214.24" y2="345.09" gradientTransform="translate(-58.66)" gradientUnits="userSpaceOnUse"><stop offset="0" stop-color="#35495e"/><stop offset="0.26" stop-color="#2d3f51"/><stop offset="0.65" stop-color="#253443"/><stop offset="1" stop-color="#22313f"/></linearGradient><linearGradient id="linear-gradient-12" x1="214.15" y1="233.16" x2="214.15" y2="345.03" xlink:href="#linear-gradient-11"/><linearGradient id="linear-gradient-13" x1="224.68" y1="244.06" x2="224.68" y2="338.51" gradientTransform="translate(-58.66)" gradientUnits="userSpaceOnUse"><stop offset="0" stop-color="#35495e"/><stop offset="0.15" stop-color="#34485c"/><stop offset="1" stop-color="#314458"/></linearGradient><linearGradient id="linear-gradient-14" x1="221.46" y1="244.06" x2="221.46" y2="338.5" xlink:href="#linear-gradient-13"/><linearGradient id="linear-gradient-15" x1="165.84" y1="249.23" x2="175.05" y2="249.23" gradientUnits="userSpaceOnUse"><stop offset="0.23" stop-color="#a45329"/><stop offset="0.47" stop-color="#bf784a"/><stop offset="0.83" stop-color="#e2a976"/><stop offset="1" stop-color="#f0bc87"/></linearGradient></defs><g class="cls-1"><g id="Layer_2" data-name="Layer 2"><polygon class="cls-2" points="516.23 337.19 397.89 280.71 68.22 327.32 257.44 420.6 516.23 337.19"/><polygon class="cls-3" points="397.15 277.89 375.78 260.74 46.11 307.35 79.68 324.44 397.15 277.89"/><polygon class="cls-4" points="373.32 258.76 351.95 241.6 22.28 288.21 55.85 305.31 373.32 258.76"/><path class="cls-5" d="M22.23,288.16a246.63,246.63,0,0,1,19.71-22.75c5,3.07,8.35,5.2,12,7.23,5.22-6.47,9.2-11.31,14.42-17.22,3.19,2,4.67,2.68,7.59,4.67q7.8-12.66,15.77-25.22c3.46,4.23,9.31,11.87,11.84,15,7.08-10.47,14.21-20.91,21.58-31.17,28.68,39.06,51.7,5.15,65.34-24.29,32.93,37,55.92-11.85,65-40.46,10.76,23.39,36.45,20.91,48.87-.17,25.63,15.07,41-17.67,48.88-36v0l0,124.52h0L22.07,288.38Z"/><path class="cls-6" d="M46.22,307.25Q56,293,66,279c5,4.23,10.29,8.49,15,12.3,11-11,21.76-22.2,32.91-33,2.77,3,6.36,7.43,10.09,10.24,42.7-9,68.94-36.05,94.3-70.19,6.44,7,11.87,14.79,18.48,21.58,11.16-7.3,18.65-16,23.24-28.58,22.92,17.43,48.13,7.33,62.14-15.89a127.42,127.42,0,0,0,20,10.92c14.54-13.47,27-31.56,35.19-49.55v0q0,62.27,0,124.52h0L46.08,307.38Z"/><path class="cls-7" d="M68.21,327.25c6.87-10.36,13.53-20.66,19.85-31.37,4.29,6.06,9.89,13.26,15,19.55,5-9.17,9.82-18.44,15-27.5,1.58,1.28,4,2.94,8.44,6.08,4.3-5.57,6.39-8,11.24-14.19,26.82,19.28,53.3-6.25,63.51-30.4,5,3.73,16.37,10.26,21.56,13.07,5.89-7.75,11.88-15.43,17.76-23.2,32.23,16.76,55.42-6.14,67.78-34.35,14.31,20.63,39.1,12.26,45.31-10.47,23.82,13.5,38.83-20.88,45.68-37.77v0l0,124.52h0L68.14,327.32Z"/></g><g id="Layer_1" data-name="Layer 1"><g class="cls-8"><path class="cls-9" d="M363.51,432.52a128.58,128.58,0,0,0,16.3-.54c7-.85,7.62-4.24,7.62-4.24a45.94,45.94,0,0,1-6-2.37c-2.83-1.48-4.4-3.07-5.33-3.23a11.91,11.91,0,0,0-3.77.13s-5.74-3.14-7.17-3.31-6.22,1.78-6.22,1.78l-5-.68-1.16-1.77h0c-1.52-2.64-17.46-8.7-33.17-16.64C300.45,392,277,384.91,277,384.91l-5.46.75L175.09,347c-18.17-2-23.32,0-23.32,0L256.5,388.34,248,390s18.34,3.74,25.26,8.42S310,416,341,421.62h0S354.83,430.36,363.51,432.52ZM234.57,375l-68.45-25.5C167.4,349.31,234.57,375,234.57,375Z"/></g><path class="cls-10" d="M162.17,146.83s-.78,4.21,0,6.51c1.24,3.64.2,3.39.06,3.94-.25,1,.39,5,.05,5.73s-1.72,1-1.72,1l-1.34,7.73-7.39,2.6-1-8.62L153.64,150Z"/><path class="cls-11" d="M144.51,148.72c-.34,5.84,6.3,17,6.3,17s7.54-.62,8-1.52.3-6,.3-6-1.38-1.47-.9-2.92,1.08-1.1,1.08-1.1c1,.24.71,1.47.71,1.47l.86-.55s-.22-6.08.09-7.09a1.77,1.77,0,0,1,1.23-1.2s-2.48-5.18-10-3.8C147.66,143.85,144.51,148.72,144.51,148.72Z"/><polygon class="cls-12" points="138.36 209.24 144.89 219.41 145.72 226.02 133.95 214.7 138.36 209.24"/><path class="cls-13" d="M162.7,342.91v4.15h4v-.57a19.88,19.88,0,0,0,4.16.57h4.56s.39-.8-.61-1.49c-1.3-.89-4-.75-5.72-1.73a13.52,13.52,0,0,1-2.86-2.11H162.7Z"/><path class="cls-13" d="M151.72,342.91v4.15h3.74v-.57a17.73,17.73,0,0,0,3.93.57h4.31a1.23,1.23,0,0,0-.58-1.49c-1.22-.89-3.78-.75-5.41-1.73a12.84,12.84,0,0,1-2.7-2.11h-3.29Z"/><path class="cls-14" d="M151.43,342.17h5.1s6.68-62.1,4.74-62.72-10.19,0-11.43,18S151.43,342.17,151.43,342.17Z"/><path class="cls-15" d="M161.17,291.34s2.75-25.38,3.43-38.23,0-19.45,0-19.45l-18.47-.5s1.11,33.46,1.48,39.69,2.26,24.59,2.26,24.59Z"/><path class="cls-16" d="M162.38,342.17h5.1s5.59-62.1,3.66-62.72-9.11,0-10.34,18S162.38,342.17,162.38,342.17Z"/><path class="cls-17" d="M171.49,280.68s0-15.6,0-28.48-1.06-19.41-1.06-19.41l-16.27.82s4.61,31.89,5.32,38.08,2.42,18.47,2.42,18.47Z"/><path class="cls-18" d="M142.48,180.45s-16.19,23.77-15.73,25.4,6.83,9.24,6.83,9.24,6.19-5.38,6.08-5.73-3.54-3.51-3.54-3.51l8.37-9.13Z"/><path class="cls-19" d="M138.67,271.87s5-16.9,5.82-46.58c.94-34.68-2.67-43.07-2-44.84.42-1.11,1.57-5.08,5.21-7.09,1.68-.92,1.51-1.78,2.94-2.3,4.65-1.69,6.65-.37,8.81.11.67.15,1.44,1.25,2.25,1.78,4.31,2.78,6.68,13.43,7.14,15.73.37,1.87,3.08,17.29,2.51,30.73-.27,6.24,2.16,50.16,2.16,50.16l-8.1,2.19Z"/><polygon class="cls-18" points="148.53 172.79 150.52 169.84 159.89 169.84 162.17 173.27 152.25 174.22 148.53 172.79"/><polygon class="cls-18" points="154.81 179.27 156.79 207.23 169.2 246.98 167.1 251.75 154.12 214.78 154.81 179.27"/><polygon class="cls-20" points="160.8 228.57 166.08 246.98 170.41 242.99 166.79 226.05 160.8 228.57"/><path class="cls-21" d="M171.32,244.85a23.48,23.48,0,0,1,2.58,3.4c.73,1.36,1.73,5.27.72,5.39s-1.69-4.25-1.69-4.25l.81,3.91s1.34,1.95.68,2.38-.95-.13-1.38-.45c-1-.75-.77,1.85-1.93.64s-.87,1.65-2.14-.61c-.79-1.41-1.19.68-1.79-1a38.05,38.05,0,0,1-1-6.12l-.31-5.89,4.57.73Z"/><path class="cls-19" d="M157.72,177.43l-2.91.42s.83,33.15,1,35.66c.13,2.28,9.84,33.47,9.84,33.47l6.58-3.47-7.75-29.13,2.61-29.66s-.15-5.85-2.32-7.8S157.72,177.43,157.72,177.43Z"/></g></g></svg>