<svg xmlns="http://www.w3.org/2000/svg" xmlns:xlink="http://www.w3.org/1999/xlink" viewBox="0 0 577.75 577.75"><defs><style>.cls-1{fill:url(#linear-gradient);}.cls-2{isolation:isolate;}.cls-3{fill:url(#linear-gradient-2);}.cls-4{fill:url(#linear-gradient-3);}.cls-5{fill:url(#linear-gradient-4);}.cls-6{fill:url(#linear-gradient-5);}.cls-7{fill:url(#linear-gradient-6);}.cls-8{fill:url(#linear-gradient-7);}.cls-9{fill:#2b3441;}.cls-10{fill:#12100b;}.cls-11{fill:url(#linear-gradient-8);}.cls-12{fill:#d4e4ef;}.cls-13{fill:#1e88c4;}.cls-14{fill:#bfd355;}.cls-15{mask:url(#mask);}.cls-16{fill:url(#linear-gradient-9);}.cls-17{fill:none;}.cls-18{fill:url(#linear-gradient-10);}.cls-19{fill:url(#linear-gradient-11);}.cls-20{fill:#cfd3d6;}.cls-21{fill:url(#linear-gradient-12);}.cls-22{fill:#edf5fc;}.cls-23{fill:url(#linear-gradient-13);}.cls-24{fill:#2a3340;}.cls-25{fill:url(#linear-gradient-14);}.cls-26{fill:url(#linear-gradient-15);}.cls-27{fill:url(#linear-gradient-16);}.cls-28{fill:url(#linear-gradient-17);}.cls-29{fill:url(#linear-gradient-18);}.cls-30{fill:url(#linear-gradient-19);}.cls-31{fill:url(#linear-gradient-20);}.cls-32{fill:#a5522a;}.cls-33{fill:url(#linear-gradient-21);}.cls-34{fill:url(#linear-gradient-22);}.cls-35{fill:url(#linear-gradient-23);}.cls-36{fill:url(#linear-gradient-24);}.cls-37{fill:url(#linear-gradient-25);}.cls-38{fill:url(#linear-gradient-26);}.cls-39{fill:url(#linear-gradient-27);}.cls-40{fill:#1d1d1b;}.cls-41{fill:url(#linear-gradient-28);}.cls-42{fill:#fff;}.cls-43{fill:#c1d853;}.cls-44{opacity:0.3;mix-blend-mode:multiply;fill:url(#linear-gradient-29);}</style><linearGradient id="linear-gradient" x1="291.97" y1="487.48" x2="291.97" y2="196.99" gradientTransform="translate(0.6 1.75)" gradientUnits="userSpaceOnUse"><stop offset="0" stop-color="#12100b"/><stop offset="0.08" stop-color="#373531"/><stop offset="0.22" stop-color="#6b6a67"/><stop offset="0.35" stop-color="#999896"/><stop offset="0.49" stop-color="#bdbdbc"/><stop offset="0.62" stop-color="#dadad9"/><stop offset="0.75" stop-color="#efeeee"/><stop offset="0.88" stop-color="#fbfbfb"/><stop offset="1" stop-color="#fff"/></linearGradient><linearGradient id="linear-gradient-2" x1="-363.13" y1="499.71" x2="-356.53" y2="481.45" gradientTransform="translate(546.96 -75.04) rotate(-9.6)" gradientUnits="userSpaceOnUse"><stop offset="0.17" stop-color="#2a3340"/><stop offset="1" stop-color="#364879"/></linearGradient><linearGradient id="linear-gradient-3" x1="-72.16" y1="-323.63" x2="-72.69" y2="-317.21" gradientTransform="matrix(0.02, -1, 1.1, 0.02, 595.57, 318.11)" gradientUnits="userSpaceOnUse"><stop offset="0" stop-color="#d68c53"/><stop offset="1" stop-color="#f5c48d"/></linearGradient><linearGradient id="linear-gradient-4" x1="192.49" y1="367.92" x2="245.15" y2="367.92" gradientUnits="userSpaceOnUse"><stop offset="0" stop-color="#39485d"/><stop offset="1" stop-color="#2a3340"/></linearGradient><linearGradient id="linear-gradient-5" x1="-271.99" y1="446.68" x2="-259.68" y2="406.61" gradientTransform="matrix(-0.06, 1, -1, -0.06, 558.39, 765)" xlink:href="#linear-gradient-2"/><linearGradient id="linear-gradient-6" x1="-384.41" y1="283.77" x2="-388.93" y2="291.39" gradientTransform="translate(500.83 -27.5) rotate(-12.76)" gradientUnits="userSpaceOnUse"><stop offset="0" stop-color="#c89664"/><stop offset="0.1" stop-color="#bf8555"/><stop offset="0.28" stop-color="#b46f42"/><stop offset="0.47" stop-color="#ab5f35"/><stop offset="0.69" stop-color="#a7562d"/><stop offset="1" stop-color="#a5532a"/></linearGradient><linearGradient id="linear-gradient-7" x1="185.83" y1="332.75" x2="198.67" y2="332.75" gradientUnits="userSpaceOnUse"><stop offset="0.23" stop-color="#a5532a"/><stop offset="1" stop-color="#f2bd88"/></linearGradient><linearGradient id="linear-gradient-8" x1="200.96" y1="440.28" x2="186.75" y2="312.83" xlink:href="#linear-gradient-4"/><mask id="mask" x="136.03" y="60.13" width="313.06" height="334.74" maskUnits="userSpaceOnUse"><rect class="cls-1" x="136.03" y="60.13" width="313.06" height="328.51"/></mask><linearGradient id="linear-gradient-9" x1="294.77" y1="87" x2="294.77" y2="361.15" gradientTransform="translate(0.6 1.75)" gradientUnits="userSpaceOnUse"><stop offset="0" stop-color="#c1d853"/><stop offset="0.23" stop-color="#a4c65a"/><stop offset="0.32" stop-color="#87b45f"/><stop offset="0.52" stop-color="#3d856d"/><stop offset="0.66" stop-color="#046178"/></linearGradient><linearGradient id="linear-gradient-10" x1="294.77" y1="459.44" x2="294.77" y2="347.71" gradientTransform="translate(0.6 1.75)" gradientUnits="userSpaceOnUse"><stop offset="0" stop-color="#12100b"/><stop offset="0" stop-color="#12100b"/><stop offset="0.2" stop-color="#272e37"/><stop offset="0.36" stop-color="#344153"/><stop offset="0.45" stop-color="#39485d"/></linearGradient><linearGradient id="linear-gradient-11" x1="374.99" y1="459.17" x2="432.87" y2="111.89" gradientUnits="userSpaceOnUse"><stop offset="0.02" stop-color="#12100b"/><stop offset="0.09" stop-color="#0f282a"/><stop offset="0.21" stop-color="#0b4b5a"/><stop offset="0.33" stop-color="#086a83"/><stop offset="0.46" stop-color="#0584a5"/><stop offset="0.58" stop-color="#0397bf"/><stop offset="0.71" stop-color="#01a5d1"/><stop offset="0.85" stop-color="#00addc"/><stop offset="1" stop-color="#00b0e0"/></linearGradient><linearGradient id="linear-gradient-12" x1="103.8" y1="51.19" x2="111.56" y2="44.26" gradientTransform="matrix(-1, -0.01, -0.01, 1, 479.38, 22.51)" gradientUnits="userSpaceOnUse"><stop offset="0" stop-color="#d58b54"/><stop offset="1" stop-color="#f4c38c"/></linearGradient><linearGradient id="linear-gradient-13" x1="78.38" y1="236.42" x2="89.3" y2="236.42" gradientTransform="matrix(-1, 0, 0, 1, 462.02, 0)" xlink:href="#linear-gradient-12"/><linearGradient id="linear-gradient-14" x1="69.73" y1="236.15" x2="79.69" y2="236.15" gradientTransform="matrix(-1, 0, 0, 1, 462.02, 0)" xlink:href="#linear-gradient-12"/><linearGradient id="linear-gradient-15" x1="367.29" y1="197.67" x2="392.29" y2="197.67" xlink:href="#linear-gradient-4"/><linearGradient id="linear-gradient-16" x1="323.83" y1="90.95" x2="340.57" y2="90.95" gradientUnits="userSpaceOnUse"><stop offset="0" stop-color="#151537"/><stop offset="0.14" stop-color="#172b52"/><stop offset="0.42" stop-color="#1a5383"/><stop offset="0.67" stop-color="#1c70a6"/><stop offset="0.87" stop-color="#1d82bc"/><stop offset="1" stop-color="#1e88c4"/></linearGradient><linearGradient id="linear-gradient-17" x1="368.42" y1="198.13" x2="385.47" y2="198.13" xlink:href="#linear-gradient-4"/><linearGradient id="linear-gradient-18" x1="67.7" y1="141.31" x2="72.23" y2="135.27" gradientTransform="matrix(-0.26, -0.96, -0.96, 0.26, 485.41, 123.75)" xlink:href="#linear-gradient-12"/><linearGradient id="linear-gradient-19" x1="75.42" y1="147.09" x2="79.95" y2="141.05" gradientTransform="matrix(-0.26, -0.96, -0.96, 0.26, 485.41, 123.75)" xlink:href="#linear-gradient-12"/><linearGradient id="linear-gradient-20" x1="248.87" y1="348.18" x2="263.27" y2="348.18" xlink:href="#linear-gradient-16"/><linearGradient id="linear-gradient-21" x1="236.78" y1="380.85" x2="213" y2="342.14" xlink:href="#linear-gradient-4"/><linearGradient id="linear-gradient-22" x1="135.45" y1="459.78" x2="140.98" y2="439.93" gradientTransform="matrix(1, 0, 0, 1, 0, 0)" xlink:href="#linear-gradient-2"/><linearGradient id="linear-gradient-23" x1="115.1" y1="458.74" x2="121.96" y2="437.91" gradientTransform="matrix(1, 0, 0, 1, 0, 0)" xlink:href="#linear-gradient-2"/><linearGradient id="linear-gradient-24" x1="118.49" y1="422.37" x2="112.09" y2="357.16" xlink:href="#linear-gradient-4"/><linearGradient id="linear-gradient-25" x1="126.82" y1="427.7" x2="121.94" y2="332.7" xlink:href="#linear-gradient-4"/><linearGradient id="linear-gradient-26" x1="104.71" y1="298.56" x2="101.28" y2="304.32" gradientTransform="translate(-2.48 -30.44) rotate(-1.83)" xlink:href="#linear-gradient-12"/><linearGradient id="linear-gradient-27" x1="109.71" y1="246.38" x2="115.51" y2="239.52" gradientTransform="translate(-70.1 65.15) rotate(-17.81)" xlink:href="#linear-gradient-12"/><linearGradient id="linear-gradient-28" x1="130.45" y1="302.99" x2="135.73" y2="302.99" gradientTransform="matrix(1, -0.01, 0.01, 1, 0.16, -2.99)" xlink:href="#linear-gradient-12"/><linearGradient id="linear-gradient-29" x1="462.81" y1="423.66" x2="470.25" y2="528.87" gradientTransform="matrix(-1, 0, 0, 1, 705.2, 0)" gradientUnits="userSpaceOnUse"><stop offset="0" stop-color="#1d1d1b"/><stop offset="0.34" stop-color="#6e6e6c"/><stop offset="0.8" stop-color="#d6d6d5"/><stop offset="1" stop-color="#fff"/></linearGradient></defs><g class="cls-2"><g id="Layer_1" data-name="Layer 1"><path class="cls-3" d="M264.19,469.21s.06,6.12,1.3,6.24,17.08-2.89,17.08-2.89,1.12-.8-.2-1.21-8.9-.3-10.24-.41-4.39-2.91-4.39-2.91Z"/><path class="cls-4" d="M241.4,386a16.23,16.23,0,0,0,5,.89,20,20,0,0,0,5.82-1.59c1.17-.59,2.73-3.32,1.91-4.39s-7.12,0-8.82-.19a46.78,46.78,0,0,0-4.8-.19l.27,5.34Z"/><path class="cls-5" d="M193,349.37c-1.67,1.89.42,8.49,9.57,17.89,2.15,2.2,6.76,8.07,9.25,9.66s13.2,6.15,17,7.69,12.93,3.48,12.93,3.48l3.41-8.67s-8.8-.37-15-3.08-12.32-5.92-14.35-7.48c0,0-5.88-8.93-9-12.06s-7.75-8.34-10.45-8.94S193,349.37,193,349.37Z"/><path class="cls-6" d="M149.17,467.09s-5.5-1.49-5.61-.31-13.67,12.43-13.67,12.43,5.31.12,6.31-1.51,10.57-4.6,11.41-5.05,3.3-1.33,3.3-1.33l-.83-4.14Z"/><path class="cls-7" d="M184,345.31a6.82,6.82,0,0,0,0-3.24c-.47-1.73-2.25-10.84-2.46-11.29a57.24,57.24,0,0,1,.21-6.22l3.56-1.14,7.78,8.56.34,8.49a3.39,3.39,0,0,0-1.19,3.12,7.33,7.33,0,0,0,1.95,4.07l-6-1.41-5.14,3Z"/><path class="cls-8" d="M193.06,325.27s1,.24,1.54,2.37,1,3.49,1,3.49,3.46,2.67,3.07,3.14-1.65.5-1.65.5,1.81,6.12.61,6.24-5.63.94-8.07-1.2a7.3,7.3,0,0,1-1.75-3.21c-.12-.4-.24-.81-.35-1.23-.68-2.69-1-5.57-1.45-6.1-.77-.9,1.56-5,1.56-5l3.68,0A2.5,2.5,0,0,1,193.06,325.27Z"/><path class="cls-9" d="M192.83,325s1.39-1.26.81-2.26-5.89-.79-8.69-.13-7.29,2.17-6.61,9.17,5.74,8.16,5.74,8.16,2.44-2.26,1.27-4a5.58,5.58,0,0,1-1.23-2.48c-.23-1.29.24-1.52,1.14-1.59s1.56,1.16,1.85,1.71,1.31,1.24,1.45-.32-.56-2.12-1.09-3.51c-.73-1.88,2.55-3.61,3.57-4.05S192.83,325,192.83,325Z"/><path class="cls-10" d="M210.38,423.7c3.73-.13,38.65,2.5,43.44,3.85S263,470.29,263,470.29l5.85-2.16s1.77-49-6-51.59c-5.52-1.8-47.89-16-48.22-16.07l-.25-.06-14.53,3.49L202.08,416S206.65,423.84,210.38,423.7Z"/><path class="cls-10" d="M194.77,410.3c-.83,4.17-.16,42.8-2.18,48.38-1.26,3.51-42.87,7.68-42.87,7.68l-.61,7.53s51.18.32,54.71-4.41c5.61-7.53,6.66-43.18,7-46.53.94-8.84-3.58-17.3-3.58-17.3Z"/><path class="cls-11" d="M183.94,345.59l7.2-.19-.48.37A31.56,31.56,0,0,1,200,364.34c1.75,12.11,1.39,24.1,2.15,32.37a21.49,21.49,0,0,0,1.67,6s6.62,12.36,6.48,12.44a4.25,4.25,0,0,1-.52.27l-.45.21c-4.91,2-19.08,13.33-19.08,13.33s.06-29,.12-35.87c.07-7.25-7.31-16.66-10-29.3S183.94,345.69,183.94,345.59Z"/><path class="cls-12" d="M202.19,396.71c.18,2,1.62,5.69,2.39,7.58l9.81-3.88c-.1-.18-.21-.36-.32-.54a3.9,3.9,0,0,1-.21-.57c-.29-.77-.57-1.52-.83-2.24-.13-.34-1.26-3.58-1.52-4.45a203.49,203.49,0,0,1-4.72-21.76c-.48-4.15-2.32-15.58-5.86-19.8a18.19,18.19,0,0,0-8.18-5.69l-1.61,0-.93.07A32.17,32.17,0,0,1,200,364.34C201.79,376.45,201.43,388.44,202.19,396.71Z"/><path class="cls-12" d="M184,345.62l.12-1.22s8.36.15,8.37.21.4.8.4.8Z"/><path class="cls-13" d="M192.45,344.61l-.59,1a21.12,21.12,0,0,1,9.82,13.82c.91,4.29,1.8,10.65,2.52,16.46a94.62,94.62,0,0,0,4.22,16.73l2.5,1.22.18-2.72a66.47,66.47,0,0,1-5-15.38c-1.51-9.4-3.84-20.83-6.68-24.33C194.36,345.12,192.45,344.61,192.45,344.61Z"/><polygon class="cls-13" points="192.45 344.61 191.65 344.57 191.76 345.78 192.48 345.94 192.87 344.71 192.45 344.61"/><path class="cls-14" d="M325.38,243.35l2.87.9c3.36-.25,4.61-1.26,4.61-3.71a1.55,1.55,0,0,0-1.13-1.5,5.83,5.83,0,0,0-5.76,1.79A9.77,9.77,0,0,0,325.38,243.35Zm-64.84-4.52a3.73,3.73,0,0,0-1.3.21,1.56,1.56,0,0,0-1.12,1.5c0,2.45,1.25,3.46,4.61,3.71l2.86-.9a10,10,0,0,0-.59-2.53A6.24,6.24,0,0,0,260.54,238.83ZM295.08,231a3.77,3.77,0,0,0-1.53.28c-.35.17-.53.38-.53.62,0,.81,1.19,1.5,2.3,2,.93-.48,2-1.2,2-2C297.28,231.42,296.27,231,295.08,231ZM277.62,388.67c-2.54-36.35-9.15-125.79-11.9-144.46l-2.89.9h-.08c-2.85-.2-5.49-.89-5.49-4.57a2.39,2.39,0,0,1,1.68-2.3,6.65,6.65,0,0,1,6.7,2,9.19,9.19,0,0,1,.71,2.85l27.78-8.73.13,0c-1.07-.54-2.1-1.34-2.1-2.42a1.56,1.56,0,0,1,1-1.39c1.52-.72,5-.41,5,1.39a3.09,3.09,0,0,1-1.75,2.34l.43.12,27.8,8.74a9.19,9.19,0,0,1,.71-2.85,6.66,6.66,0,0,1,6.71-2,2.39,2.39,0,0,1,1.67,2.3c0,3.68-2.63,4.37-5.49,4.57h-.08l-2.89-.91c-2.75,18.66-9.35,108.12-11.9,144.47l-.86-.06c.95-13.54,8.68-122.9,12-144.65l-27.9-8.76c-.14,0-.63-.17-1.24-.39-.47.21-.84.34-1,.38L266.49,244c3.32,21.75,11,131.11,12,144.65Z"/><path class="cls-10" d="M286.91,483.86h16.91a0,0,0,0,1,0,0v14.62a2.28,2.28,0,0,1-2.28,2.28H289.2a2.28,2.28,0,0,1-2.28-2.28V483.86A0,0,0,0,1,286.91,483.86Z"/><g class="cls-15"><path class="cls-16" d="M414.37,184.85a118.56,118.56,0,0,0-119-118.56h0a118.61,118.61,0,0,0-106.19,172.2h0c1.7,3.33,18.56,34.12,37.87,66.5,13.54,22.69,15.32,69.95,15.54,79.66a4.32,4.32,0,0,0,1.33,3l7.6,7.22h87.71l7.6-7.22a4.23,4.23,0,0,0,1.33-3c.23-9.71,2-57,15.54-79.66,19.32-32.38,36.18-63.17,37.87-66.5h0A118,118,0,0,0,414.37,184.85Z"/></g><path class="cls-17" d="M251.86,394h87l7.35-7a3.37,3.37,0,0,0,1.06-2.4c.22-9.35,2-57.16,15.67-80.08,19.57-32.82,36.36-63.54,37.84-66.44a117.72,117.72,0,0,0-105-171h-.09l-.36.36-.36-.36h-.09a117.74,117.74,0,0,0-105,171c1.48,2.91,18.27,33.63,37.85,66.45,13.67,22.92,15.44,70.73,15.66,80.08a3.4,3.4,0,0,0,1.06,2.4Z"/><path class="cls-10" d="M262.69,439H328a0,0,0,0,1,0,0v47.56a3.81,3.81,0,0,1-3.81,3.81H266.49a3.81,3.81,0,0,1-3.81-3.81V439A0,0,0,0,1,262.69,439Z"/><path class="cls-18" d="M239.54,388.64H351.19a2.66,2.66,0,0,1,2.66,2.66v69.08a19,19,0,0,1-19,19H255.91a19,19,0,0,1-19-19V391.3A2.66,2.66,0,0,1,239.54,388.64Z"/><path class="cls-19" d="M436.09,473.06l5.61.15L397.41,221.6l-5.61,1,2.11,12H353.27l-2.29-13-5.61,1,44.3,250.46,5.61.15-3.92-23.3H432ZM379,380h40.64l5.17,29.25H384.17Zm27.27-75.58H365.63l-5.17-29.25H401.1Zm1,5.69,5.17,29.25H371.81l-5.17-29.25Zm6.18,34.95,5.17,29.24H378l-5.17-29.24ZM394.92,240.25l5.17,29.24H359.45l-5.17-29.24Zm-4.57,204L385.18,415h40.64L431,444.21Z"/><path class="cls-12" d="M384.36,83.11s12.22,28.37,11.38,29.57-11.5,9.11-11.5,9.11l-1.88-4,6.32-7.12L381,93.93Z"/><polygon class="cls-20" points="384.2 121.9 380.95 116.68 382.9 114.36 385.24 122.15 384.2 121.9"/><path class="cls-21" d="M369.31,58.85a30,30,0,0,1-1,6.05c-.25.72-1.07,1.64-1.09,2s.53.33.6.66c.19.93-.36,4.45-.08,5.17s4.49.16,5.09,1.29c1.13,2.12-.69,6.5-.69,6.5l3.95,3.17,2.61-8-2.09-12.37Z"/><path class="cls-22" d="M385.62,132.24s.75.23.1-2.57c-.74-3.14-.08-6.62-.72-14-1.11-12.65,1-30.34-.64-32.41-1.09-1.38-8-3.81-8-3.81l-4.2.42s-3.17,6.54-4.5,8.69-3.24,6.39-3,8.32c.42,4.25,2.72,3.64,3.18,5.11,4.11,13.11,1.48,23.36.86,28.69a37.89,37.89,0,0,0-.3,6.07l6.67-.28Z"/><path class="cls-23" d="M373,267.76s4.43-1.59,5-2.9c.14-.31-1.13-19.61-1.61-32.15-.43-11.12-.75-26.61-.75-26.61s4.41-3.24,5.42-2.09c2.21,2.47,3.54,9.52,1.6,30.81-.54,5.86-2,30.86-2,30.86L378,268.16l-5.3.91Z"/><path class="cls-24" d="M380.7,265.68a3.57,3.57,0,0,1,0,2.05,2.64,2.64,0,0,0,0,1.76H378.6v-.83l-6.28.83H369s.1-.63,1.45-1.15a9.11,9.11,0,0,1,2.55-.58l0,.68a13.42,13.42,0,0,0,4-.78A10.12,10.12,0,0,0,380.7,265.68Z"/><path class="cls-25" d="M382.62,267.76s4.4-1.67,5-3c.13-.32-1.5-19.59-2.22-32.12-.64-11.11-2-27-2-27s5.1-3.35,6.14-2.22c2.24,2.43,3.73,9.86,2.2,31.18-.43,5.87-1.43,30.9-1.43,30.9l-2.62,2.53-5.28,1Z"/><path class="cls-24" d="M390.28,265.68a3.64,3.64,0,0,1,0,2.05,2.64,2.64,0,0,0,0,1.76h-2.09v-.83l-6.28.83h-3.29s.1-.63,1.44-1.15a9.21,9.21,0,0,1,2.56-.58v.68a13.42,13.42,0,0,0,4-.78A10,10,0,0,0,390.28,265.68Z"/><path class="cls-26" d="M367.3,150.35a72.68,72.68,0,0,1,1.26-12.74l10.74-2.85,6.59-1.66s4.76,7.72,5.06,16c.16,4.61-2.25,7.33-2.41,9.2,1.3,10,3.23,29.07,3.18,34.43,0,5.2-.45,10.2-.78,13.51,1.32,4.07,1.89,12.25.73,28.38-.33,4.56-1,20.62-1.3,27.6h-2.92c-.39-5.67-1.53-19.72-2.09-29.59-.64-11.11-2.7-30.73-2.7-30.73h0a209.28,209.28,0,0,1-2.11-22.36c-.26-5.59-1.92-11.58-2.67-15.49l-7.95.68S367.41,156.05,367.3,150.35Z"/><path class="cls-13" d="M385.78,133.12l-.16-.88s-9.23,3-10.19,3.17l-7.09,1.3.12.92a35.64,35.64,0,0,0,7.28-.9Z"/><path class="cls-27" d="M324,82.92s-.77-3.07.7-4.63,8.52-1.78,10.34,5.51c.43,1.71.74,10.21,1.14,12.32s4.51,5.27,4.35,5.59-3,.27-4.33.11-4.57,2.15-6.42,2.63-2.48-4.69-2-8.12.48-6.8-.47-8.49S324,82.92,324,82.92Z"/><path class="cls-28" d="M368.56,137.61l12-2.62s4.66,5.56,4.89,16.83c.1,5-3.82,8.45-3.83,9-.23,11.51,2.2,27,2.16,31a151.89,151.89,0,0,1-1,15.79c1.05,4.24,1.31,12.16-.06,27.18-.4,4.32-1.3,19-1.75,26.45h-3c-.32-6.23-1.11-19.25-1.47-28.56-.35-9-1.66-21.92-1.81-26.71-.59-3.39-1.38-8.43-3.54-27.46C367.5,146.87,368.56,137.61,368.56,137.61Z"/><path class="cls-22" d="M376.48,87.74s-20.35,14.44-22.16,13.55c-2.55-1.24-12.36-5.78-12.36-5.78l.52-4.18,11.68,4s16.59-12.64,17.15-13c.72-.47,1.71-.89,4.08-.36S378.26,86.29,376.48,87.74Z"/><polygon class="cls-29" points="341.11 94.89 329.81 89.01 329.96 85.64 342.61 91.23 341.11 94.89"/><path class="cls-30" d="M329.88,85.11a11.21,11.21,0,0,0-2-2.35c-.87-.6-2.82-2-2.86-1.32s2,2.21,2,2.21a7.13,7.13,0,0,0-2.49-.67c-1.1-.08-2.25-.52-2.38,0s-.1.24.54.92-1,.66,0,1.36-.81.71.77,1.41c1,.44-.18.87.93,1.16s3.65.58,3.65.58l2.77,1.15.57-3.26Z"/><polygon class="cls-13" points="340.12 96.12 343.01 97.28 342.61 90.09 341.75 90.46 340.12 96.12"/><path class="cls-9" d="M369.05,58.29A10.69,10.69,0,0,1,378,54.71c6.4.28,8.11,4.37,7.93,8.17-.27,5.93.83,7.25,2.63,9.12,2.35,2.44,4.37,13.21-3.85,13-12-.31-7-9.65-10.63-12.8-2.79-2.4-2-10.56-2-10.56a5.16,5.16,0,0,1-2.42-1.48A3,3,0,0,1,369.05,58.29Z"/><path class="cls-31" d="M248.91,338.43s-.46-1,1.49-1.94,6.26-1.81,7.47.14,3.51,2.08,3.22,3.82.52,7.67.92,9.78,1.75,3.81,1.06,5.22c-.15.31-1.53,2.45-2.84,2.29s-6.65,2.65-8.49,3.12.47-5.6.95-9,.47-6.8-.48-8.48S248.91,338.43,248.91,338.43Z"/><path class="cls-32" d="M247.46,347.1s3.38-2.12,5-1.87,2.69.53,3.16-.69,2-6.41.7-6.66-8.08,1.73-9.49,2.69a47.28,47.28,0,0,0-3.7,3.06l3.75,3.8Z"/><path class="cls-33" d="M184.49,349.8c-.93,2.35,1.19,6.81,13,12.58,2.76,1.35,16.58,4.92,19.5,5.31,4.87.63,19.11-9.44,22.39-11.86,5.77-4.25,11.6-8.5,11.6-8.5l-6.5-7.49s-9.08,7.76-14.24,12.3-11.81,5.8-13.09,5.59a112.44,112.44,0,0,1-12.54-4.35c-4-1.9-14.71-6.46-17.45-6.12S184.49,349.8,184.49,349.8Z"/><path class="cls-34" d="M128.14,449.21s-1,6.29.25,6.62,18,0,18,0,1.28-.62,0-1.27-9.08-1.85-10.43-2.2-4-3.75-4-3.75Z"/><path class="cls-35" d="M111.87,450s-1.24,5.8,0,5.85,10.58,0,10.58,0,.5-.9-1.25-1.85a9.37,9.37,0,0,1-3.47-2.7c-.53-.85-1.58-3.35-1.58-3.35l-4.24,1.1Z"/><path class="cls-36" d="M106.65,336.58c-.73,4.36,2.54,51.06,3.22,62s1.21,50.9,1.21,50.9l7.85.19s2-49.5,2.13-55.63.69-32.85.87-36.34-2.45-26.31-2.45-26.31Z"/><path class="cls-37" d="M130.57,343.23c0,1,3.89,44.53,4.12,53s-1.56,52.63-1.56,52.63l-6.37,1.2s-2.28-50-2.64-55.2-5.2-34.93-5.36-35.41-3.4-3.72-4.84-7.32-.6-18-.6-18Z"/><path class="cls-38" d="M107.74,271.41a6.72,6.72,0,0,1-.92-3,19.14,19.14,0,0,0-1.34-5.39,65.61,65.61,0,0,1-1.23-6.62l3.36-1.95,5.48,7.24,3,3s-.83,4.56-1.12,6.89,2.2,5,2.2,5l-6.55,1.36L108,276.31Z"/><path class="cls-39" d="M112.36,249.32s1.06,0,2.08,2.07,1.76,3.33,1.76,3.33,4.1,2,3.81,2.52-1.56.87-1.56.87,3.18,5.82,2,6.2-5.51,2.2-8.46.56a7.61,7.61,0,0,1-2.49-2.88c-.21-.37-.42-.77-.62-1.17-1.3-2.58-2.25-5.44-2.83-5.88-1-.74.48-5.43.48-5.43l3.74-.83A2.6,2.6,0,0,1,112.36,249.32Z"/><path class="cls-40" d="M133.25,309.7s-10.62.44-13.9-1.82-2-7.17,1.63-7,12.43,1.42,13,2.63S133.25,309.7,133.25,309.7Z"/><path class="cls-9" d="M112.07,249.1s1.13-1.58.32-2.48-6.16.51-8.86,1.79-6.94,3.81-4.7,10.78,7.64,7,7.64,7,2-2.83.41-4.34a5.82,5.82,0,0,1-1.8-2.25c-.51-1.26-.1-1.6.81-1.86s1.84.83,2.26,1.32,1.6,1,1.4-.64-1-2-1.88-3.32c-1.16-1.76,1.79-4.24,2.74-4.91S112.07,249.1,112.07,249.1Z"/><path class="cls-40" d="M106.38,271.66c0,.1-6.1,3.79-5.45,17.22s5.91,25.2,5.09,32.7-2.26,28.5-2.26,28.5,5.22,4,10.58,3.58c5-.43,19.61-2.22,19.61-2.22-2-12.17-4.67-14.34-6.19-26.8-.61-5,.6-20.41.81-24.75s-2-18.1-4.82-20.72a68.16,68.16,0,0,0-8.25-6.72Z"/><path class="cls-40" d="M134.92,309.25c5.39-2.42-5.31-28.69-15.08-34.4-12.38-7.23-5.66,4.57-5.7,4.47s8.85,17.24,12.08,22.12S130.86,311.07,134.92,309.25Z"/><path class="cls-41" d="M133.45,296.5s-2.26,3.29-.64,5a6.55,6.55,0,0,0,3.37,2s1.57-1.35,1.3-2.67-1.84-5.55-2.64-5.68S133.45,296.5,133.45,296.5Z"/><path class="cls-42" d="M106.38,271.66l.26-1.3s8.9,1.23,8.9,1.3,0,.79,0,.79Z"/><path class="cls-43" d="M325.4,243.23l2.87.9c3.36-.24,4.61-1.25,4.61-3.7a1.57,1.57,0,0,0-1.13-1.51,5.83,5.83,0,0,0-5.76,1.79A10,10,0,0,0,325.4,243.23Zm-64.84-4.52a3.73,3.73,0,0,0-1.3.21,1.58,1.58,0,0,0-1.12,1.51c0,2.45,1.25,3.46,4.61,3.7l2.86-.9a10,10,0,0,0-.59-2.53A6.24,6.24,0,0,0,260.56,238.71Zm34.54-7.82a3.76,3.76,0,0,0-1.53.29c-.35.17-.53.37-.53.62,0,.8,1.19,1.5,2.3,1.95.93-.47,2-1.19,2-1.95C297.3,231.31,296.29,230.89,295.1,230.89ZM277.64,388.55c-2.54-36.34-9.15-125.78-11.9-144.46l-2.89.91h-.08c-2.85-.19-5.49-.88-5.49-4.56a2.41,2.41,0,0,1,1.68-2.31,6.65,6.65,0,0,1,6.7,2,9.28,9.28,0,0,1,.71,2.85l27.78-8.73.13,0c-1.07-.54-2.1-1.35-2.1-2.42a1.54,1.54,0,0,1,1-1.39c1.52-.73,5-.42,5,1.39a3.09,3.09,0,0,1-1.75,2.34l.43.12,27.8,8.73a9.28,9.28,0,0,1,.71-2.85,6.66,6.66,0,0,1,6.71-2,2.43,2.43,0,0,1,1.68,2.31c0,3.68-2.64,4.37-5.5,4.56h-.08l-2.89-.91c-2.75,18.65-9.35,108.11-11.9,144.46l-.86-.06c.95-13.54,8.68-122.9,12-144.64l-27.9-8.77a10.35,10.35,0,0,1-1.24-.39c-.47.22-.84.35-.95.39l-27.91,8.77c3.32,21.74,11,131.1,12,144.64Z"/><polygon class="cls-44" points="347.38 472.98 241.14 470.1 124.62 554.8 232.01 558.7 347.38 472.98"/></g></g></svg>