<svg id="Layer_1" data-name="Layer 1" xmlns="http://www.w3.org/2000/svg" xmlns:xlink="http://www.w3.org/1999/xlink" viewBox="0 0 504 504"><defs><style>.cls-1{fill:url(#linear-gradient);}.cls-2{fill:url(#linear-gradient-2);}.cls-3{fill:url(#linear-gradient-3);}.cls-4{fill:url(#linear-gradient-4);}.cls-5{fill:url(#linear-gradient-5);}.cls-6{fill:url(#linear-gradient-6);}.cls-7{fill:url(#linear-gradient-7);}.cls-8{fill:#d3e3ed;}.cls-9{fill:url(#New_Gradient_Swatch_3);}.cls-10{fill:#c2c8cb;}.cls-11{fill:#ded9d2;}.cls-12{fill:url(#New_Gradient_Swatch_3-2);}.cls-13{fill:#e5f1fa;}.cls-14{fill:url(#New_Gradient_Swatch_3-3);}.cls-15{fill:#22313f;}.cls-16{fill:url(#linear-gradient-8);}.cls-17{fill:url(#linear-gradient-9);}.cls-18{fill:url(#New_Gradient_Swatch_21);}.cls-19{fill:url(#New_Gradient_Swatch_3-4);}.cls-20{fill:url(#New_Gradient_Swatch_3-5);}.cls-21{fill:url(#linear-gradient-10);}.cls-22{fill:url(#linear-gradient-11);}.cls-23{fill:url(#linear-gradient-12);}.cls-24{fill:#0387ab;}.cls-25{fill:url(#linear-gradient-13);}.cls-26{fill:url(#New_Gradient_Swatch_5);}.cls-27{fill:url(#linear-gradient-14);}.cls-28{fill:url(#linear-gradient-15);}.cls-29{fill:url(#New_Gradient_Swatch_5-2);}.cls-30{fill:url(#linear-gradient-16);}.cls-31{fill:url(#New_Gradient_Swatch_5-3);}</style><linearGradient id="linear-gradient" x1="226.49" y1="591.71" x2="400.47" y2="-161.85" gradientUnits="userSpaceOnUse"><stop offset="0.01" stop-color="#8dac3d"/><stop offset="0.02" stop-color="#89aa3f"/><stop offset="0.37" stop-color="#287567"/><stop offset="0.53" stop-color="#026077"/><stop offset="1" stop-color="#006984"/></linearGradient><linearGradient id="linear-gradient-2" x1="131.61" y1="396.01" x2="253.62" y2="316.78" gradientUnits="userSpaceOnUse"><stop offset="0.56" stop-color="#54672e"/><stop offset="0.6" stop-color="#5e7231"/><stop offset="0.87" stop-color="#a6bf47"/><stop offset="0.99" stop-color="#c2dd50"/></linearGradient><linearGradient id="linear-gradient-3" x1="170.28" y1="349.57" x2="292.3" y2="270.34" xlink:href="#linear-gradient-2"/><linearGradient id="linear-gradient-4" x1="213.75" y1="301.98" x2="335.76" y2="222.74" xlink:href="#linear-gradient-2"/><linearGradient id="linear-gradient-5" x1="4.46" y1="542.73" x2="126.48" y2="463.49" xlink:href="#linear-gradient-2"/><linearGradient id="linear-gradient-6" x1="43.14" y1="496.29" x2="165.15" y2="417.05" xlink:href="#linear-gradient-2"/><linearGradient id="linear-gradient-7" x1="86.6" y1="448.7" x2="208.62" y2="369.46" xlink:href="#linear-gradient-2"/><linearGradient id="New_Gradient_Swatch_3" x1="327.11" y1="167.42" x2="342.28" y2="167.42" gradientUnits="userSpaceOnUse"><stop offset="0" stop-color="#ce8759"/><stop offset="1" stop-color="#f0bc87"/></linearGradient><linearGradient id="New_Gradient_Swatch_3-2" x1="297.2" y1="123.75" x2="312.51" y2="123.75" xlink:href="#New_Gradient_Swatch_3"/><linearGradient id="New_Gradient_Swatch_3-3" x1="302.76" y1="222.14" x2="328.77" y2="222.14" xlink:href="#New_Gradient_Swatch_3"/><linearGradient id="linear-gradient-8" x1="-431.11" y1="392.02" x2="-431.11" y2="519.42" gradientTransform="translate(-41.62 -328) rotate(-77.77)" gradientUnits="userSpaceOnUse"><stop offset="0" stop-color="#35495e"/><stop offset="0.15" stop-color="#34485c"/><stop offset="1" stop-color="#314458"/></linearGradient><linearGradient id="linear-gradient-9" x1="278.72" y1="193.29" x2="392.52" y2="140.18" gradientTransform="translate(-2.02 2.9)" gradientUnits="userSpaceOnUse"><stop offset="0.24" stop-color="#54672e"/><stop offset="0.29" stop-color="#5e7231"/><stop offset="0.71" stop-color="#a6bf47"/><stop offset="0.91" stop-color="#c2dd50"/></linearGradient><linearGradient id="New_Gradient_Swatch_21" x1="394.31" y1="180.08" x2="419.97" y2="122.43" gradientTransform="translate(24.96 -55.09) rotate(7.98)" gradientUnits="userSpaceOnUse"><stop offset="0.05" stop-color="#8dac3d"/><stop offset="0.14" stop-color="#85a840"/><stop offset="0.28" stop-color="#6e9b4a"/><stop offset="0.45" stop-color="#4a8759"/><stop offset="0.65" stop-color="#176c6e"/><stop offset="0.73" stop-color="#026077"/></linearGradient><linearGradient id="New_Gradient_Swatch_3-4" x1="325.64" y1="180.98" x2="349.46" y2="180.98" xlink:href="#New_Gradient_Swatch_3"/><linearGradient id="New_Gradient_Swatch_3-5" x1="268.46" y1="274.26" x2="279.17" y2="274.26" xlink:href="#New_Gradient_Swatch_3"/><linearGradient id="linear-gradient-10" x1="-433.45" y1="26.16" x2="-433.45" y2="114" gradientTransform="translate(703.04 176.37) rotate(0.1)" gradientUnits="userSpaceOnUse"><stop offset="0" stop-color="#35495e"/><stop offset="0.26" stop-color="#2d3f51"/><stop offset="0.65" stop-color="#253443"/><stop offset="1" stop-color="#22313f"/></linearGradient><linearGradient id="linear-gradient-11" x1="-427.92" y1="5.07" x2="-427.92" y2="96.25" gradientTransform="translate(704.4 211.79) rotate(2.48)" xlink:href="#linear-gradient-10"/><linearGradient id="linear-gradient-12" x1="-405.4" y1="62.96" x2="-405.4" y2="225.4" gradientTransform="matrix(0.98, -0.18, 0.18, 0.98, 649.68, 39.84)" xlink:href="#linear-gradient-8"/><linearGradient id="linear-gradient-13" x1="-392.49" y1="13.03" x2="-392.49" y2="165.52" gradientTransform="translate(730.94 188.63) rotate(15.09)" xlink:href="#linear-gradient-8"/><linearGradient id="New_Gradient_Swatch_5" x1="157.77" y1="282.14" x2="170.8" y2="282.14" gradientUnits="userSpaceOnUse"><stop offset="0.23" stop-color="#a45329"/><stop offset="0.39" stop-color="#a7572d"/><stop offset="0.53" stop-color="#af6337"/><stop offset="0.68" stop-color="#be7749"/><stop offset="0.83" stop-color="#d29262"/><stop offset="0.98" stop-color="#ebb681"/><stop offset="1" stop-color="#f0bc87"/></linearGradient><linearGradient id="linear-gradient-14" x1="95.14" y1="285.35" x2="209.42" y2="235.48" gradientTransform="matrix(1, 0, 0, 1, 0.16, 10.15)" gradientUnits="userSpaceOnUse"><stop offset="0.24" stop-color="#54672e"/><stop offset="0.3" stop-color="#5e7231"/><stop offset="0.71" stop-color="#a6bf47"/><stop offset="0.91" stop-color="#c2dd50"/></linearGradient><linearGradient id="linear-gradient-15" x1="213.02" y1="280.57" x2="238.77" y2="222.74" gradientTransform="translate(44.26 -33.59) rotate(9.42)" gradientUnits="userSpaceOnUse"><stop offset="0.05" stop-color="#8dac3d"/><stop offset="0.14" stop-color="#85a840"/><stop offset="0.28" stop-color="#6e9b4a"/><stop offset="0.45" stop-color="#4a8759"/><stop offset="0.65" stop-color="#176c6e"/><stop offset="0.73" stop-color="#026077"/></linearGradient><linearGradient id="New_Gradient_Swatch_5-2" x1="127.74" y1="190.28" x2="141.55" y2="190.28" xlink:href="#New_Gradient_Swatch_5"/><linearGradient id="linear-gradient-16" x1="460.98" y1="127.83" x2="507.9" y2="182.63" gradientTransform="translate(-366.15 141.25) rotate(-12.34)" gradientUnits="userSpaceOnUse"><stop offset="0.14" stop-color="#35495e"/><stop offset="0.41" stop-color="#374b60"/><stop offset="0.56" stop-color="#3e5365"/><stop offset="0.68" stop-color="#4a616f"/><stop offset="0.79" stop-color="#5c757c"/><stop offset="0.88" stop-color="#728e8e"/><stop offset="0.97" stop-color="#8daca3"/><stop offset="1" stop-color="#99baad"/></linearGradient><linearGradient id="New_Gradient_Swatch_5-3" x1="160.91" y1="271.56" x2="188.15" y2="271.56" xlink:href="#New_Gradient_Swatch_5"/></defs><polygon class="cls-1" points="287.88 210.56 287.88 259.47 242.4 259.47 242.4 308.38 199.93 308.38 199.93 357.28 160.74 357.28 160.74 406.19 115.25 406.19 115.25 455.09 72.78 455.09 72.78 504 432 504 432 357.28 432 308.38 432 259.47 432 210.56 287.88 210.56"/><rect class="cls-2" x="199.93" y="308.38" width="57.96" height="48.91"/><rect class="cls-3" x="242.4" y="259.47" width="57.96" height="48.91"/><rect class="cls-4" x="287.88" y="210.56" width="57.96" height="48.91"/><rect class="cls-5" x="72.78" y="455.09" width="57.96" height="48.91"/><rect class="cls-6" x="115.25" y="406.19" width="57.96" height="48.91"/><rect class="cls-7" x="160.74" y="357.28" width="57.96" height="48.91"/><path class="cls-8" d="M286.13,137.33s19.43,27.42,20.77,29.42c3,4.49,18.89,3,18.89,3l1.59-4.61-15.65-2.75s-16.4-25.74-17-26.27-4.92-.27-7.68-1.25S285.34,136.08,286.13,137.33Z"/><polygon class="cls-9" points="327.11 169.75 340.93 169.24 342.27 166.37 327.38 165.1 327.11 169.75"/><polygon class="cls-10" points="327.05 170.8 323.33 170.73 326.23 164.37 327.51 163.93 327.05 170.8"/><path class="cls-11" d="M344.16,166.7a13.34,13.34,0,0,1,3,0c1.06.23,3.45.71,3,1.22s-3,.08-3,.08a7.7,7.7,0,0,1,2.29,1.4c.86.78,2,1.34,1.75,1.78s-.09.25-1,.24.23,1.2-.94,1,.08,1.12-1.56.43c-1-.44-.47.75-1.48.12s-3.07-2.35-3.07-2.35l-3-1.36,2.13-2.9Z"/><path class="cls-12" d="M312.44,110.89a33.77,33.77,0,0,0-.58,7c.07.88.72,2.14.64,2.55s-.69.22-.86.56c-.48,1-.87,5.06-1.39,5.79s-5-1.12-6,0c-1.86,2.05-1.08,7.44-1.08,7.44l-5.31,2.4L297.2,127l5.85-13.17Z"/><path class="cls-13" d="M252.56,171.14a45.42,45.42,0,0,1,3.36-6.58c3.23-4.9,6.8-8,13-13.87,10.6-10,16.38-20.77,19.37-21.31,2-.36,9.79,2.83,9.79,2.83l3.3,3.56s-2.27,8-2.76,10.91c-.51,3-2.09,8-3.72,9.49-3.61,3.33-5.09,1.1-6.64,2-10.35,5.82-12.22,8.41-12.22,8.41-1.24,1.66-3,4.45-3,4.45l-7.5,1.67Z"/><path class="cls-14" d="M311.55,257.67s-4.66-1.87-5.32-3.37c-.16-.36,9.45-22,13.74-35.8,3.8-12.21,8.8-29.32,8.8-29.32s-3.92-4.91-5.4-3.94c-3.18,2.09-6.77,9.51-11,33.72-1.16,6.68-9.62,36.25-9.62,36.25l3,2.87,6.09,1.09Z"/><path class="cls-15" d="M302.76,255.21a4.18,4.18,0,0,0,0,2.36,3,3,0,0,1,0,2h2.4v-1l7.21,1,3.78,0s-.1-.72-1.65-1.34a10.28,10.28,0,0,0-2.93-.68l0,.78a15.41,15.41,0,0,1-4.55-.94A11.53,11.53,0,0,1,302.76,255.21Z"/><path class="cls-11" d="M329.42,186.65s-9.44-5.93-30.36-10.47-31.92-3.91-31.92-3.91l-2,13.31s36.43,5.92,46.62,7.55a124.63,124.63,0,0,0,15.88,1.72Z"/><path class="cls-16" d="M329.42,186.65c-2.23-2.8-9.44-5.93-30.36-10.47s-28.25-3.9-28.25-3.9l-1.5,7.25L268,191.07s33.52.43,43.71,2.06S327,196,327,196,331.66,189.44,329.42,186.65Z"/><rect class="cls-17" x="329.39" y="133.63" width="57.86" height="48.96" transform="translate(-18.49 51.31) rotate(-7.98)"/><rect class="cls-18" x="386.77" y="126.78" width="40.74" height="48.96" transform="translate(-17.06 58.02) rotate(-7.98)"/><path d="M312.89,110.34s-2.08-5.1-8.93-6.54c-7.2-1.51-10.27,2.55-11.16,6.83-1.39,6.69-3,7.84-5.54,9.41-3.31,2-5.9,4.93-6.56,8.74a16.71,16.71,0,0,0,8.38,7.73c6.45,2.58,17.08-1.29,16.79-3-.21-1.35-7.51-6.6-2.54-9.06,3.79-1.88,5.25-11.19,5.25-11.19a5.83,5.83,0,0,0,3.11-1C312.54,111.81,312.89,110.34,312.89,110.34Z"/><path class="cls-13" d="M285.52,138.17s13,32.51,13.76,34.79c1.67,5.16,25.09,6.09,25.09,6.09L327,175l-21.94-5.84s-10.52-29.09-11-29.76-4.65-1.63-7-3.33S285.11,136.75,285.52,138.17Z"/><path class="cls-19" d="M347.9,183.5a7.82,7.82,0,0,0-2.09-1.72s2.49.78,3,.33-1.82-1.26-2.85-1.63a10.78,10.78,0,0,0-3.11-.26l-2.3-.69,0,0L327,175l-1.38,4.45,13.13,2.75h0l2.65,1.68s1.82,2,2.75,2.77.53-.49,1.5.09c1.54.92.41-.61,1.61-.22s.18-1,1.08-.86.78.28,1.06-.1S348.65,184.4,347.9,183.5Z"/><polygon class="cls-10" points="325.7 180.68 322.23 179.35 327.11 174.35 328.47 174.37 325.7 180.68"/><path class="cls-20" d="M276.46,306.55s-4.11-1.56-4.69-2.94c-.14-.33,2.63-18.88,4-32,1.2-11.63,3.42-28.22,3.42-28.22s-5.17-3.73-6.31-2.59c-2.46,2.46-4.37,10.19-3.8,32.63.16,6.19-.6,30.93-.6,30.93l2.77,2.5,5.52,1.07Z"/><path class="cls-15" d="M268.46,304.36a3.76,3.76,0,0,0,0,2.15,2.82,2.82,0,0,1,0,1.85h2.18v-.88l6.56.89h3.44s-.1-.67-1.5-1.22a9.35,9.35,0,0,0-2.67-.61l0,.71a13.6,13.6,0,0,1-4.14-.82A10.56,10.56,0,0,1,268.46,304.36Z"/><path class="cls-11" d="M279.82,239.13s.61-3.8-2.79-23.08-4.3-27.19-4.3-27.19l-13.53,1.26s7.36,32.9,9.5,42.08A161.57,161.57,0,0,0,274,249.75Z"/><path class="cls-21" d="M279.82,239.13s.61-3.8-2.79-23.08-4.3-27.19-4.3-27.19l-13.53,1.26s7.36,32.9,9.5,42.08A161.57,161.57,0,0,0,274,249.75Z"/><path class="cls-22" d="M268.46,303.12l3.68-.27c.68-5.94,2.54-20.9,3.61-31.24,1.2-11.63,4.07-32.48,4.07-32.48s-5.82.53-7,1.67c-2.46,2.46-4.37,10.19-3.8,32.63C269.19,278.23,268.5,295.77,268.46,303.12Z"/><path class="cls-23" d="M252.55,172.14a36,36,0,0,0,1.18,17.48,71,71,0,0,0,9.07,17.09l12.89,1.64s-.3-21.56-2.5-27.73-.1-9.62-.1-9.62l-10.56,1.31Z"/><path class="cls-24" d="M252.36,172.29l.34-2s11,1.42,12.13,1.33l8.26-.65-.07,1.29a47.13,47.13,0,0,1-8.16.92Z"/><path class="cls-25" d="M306.75,253.82c2.22-6.82,10-25.09,13.22-35.32,3.8-12.21,9.82-31.34,9.82-31.34s-4.94-2.89-6.42-1.92c-3.18,2.09-6.77,9.51-11,33.72-.86,4.92-7.89,26.45-9.62,34.86Z"/><path class="cls-13" d="M133.19,208.37l-3.19,1.1s8.81,35,9.56,37.61c.68,2.39,7.75,13.29,7.75,13.29l7.69-2.44-5.43-11.86-4.1-32s-1.56-6.17-4.48-7.76S133.19,208.37,133.19,208.37Z"/><polygon class="cls-10" points="146.87 263.2 144.72 259.54 155.31 255.72 155.47 257.63 146.87 263.2"/><polygon class="cls-11" points="148.82 261.94 159.18 280.29 163.13 275.09 155 257.93 148.82 261.94"/><path class="cls-26" d="M164.59,276.86a26.85,26.85,0,0,1,3.72,3c1.15,1.28,3.22,5.21,2.11,5.56s-2.93-4.13-2.93-4.13l1.85,4s2,1.77,1.33,2.37-1.11.08-1.67-.17c-1.31-.57-.43,2.14-2,1.12s-.6,1.94-2.57-.17c-1.23-1.32-1.18,1-2.26-.66a39.75,39.75,0,0,1-2.63-6.26l-1.75-6.18,5.35-.24Z"/><rect class="cls-27" x="148.33" y="235.25" width="57.86" height="48.96" transform="translate(-40.14 32.53) rotate(-9.42)"/><rect class="cls-28" x="205.53" y="227.18" width="40.74" height="48.96" transform="translate(-38.16 40.39) rotate(-9.42)"/><path class="cls-29" d="M140.86,174.4s-.9,4.87,0,7.52c1.43,4.21.23,3.92.07,4.55-.29,1.14.45,5.75.06,6.62s-2,1.13-2,1.13l-1.55,8.94-8.53,3-1.17-9.95L131,178Z"/><path class="cls-30" d="M120.45,176.59c-.38,6.74,7.29,19.62,7.29,19.62s8.7-.72,9.22-1.76.35-6.88.35-6.88-1.6-1.71-1-3.38,1.24-1.27,1.24-1.27c1.11.28.83,1.69.83,1.69l1-.62s-.25-7,.11-8.2a2.07,2.07,0,0,1,1.42-1.39s-2.86-6-11.61-4.38C124.09,171,120.45,176.59,120.45,176.59Z"/><path class="cls-15" d="M144,401v4.78h4.57v-.65a23.15,23.15,0,0,0,4.8.65h5.26s.46-.91-.7-1.71c-1.5-1-4.62-.87-6.61-2a15.57,15.57,0,0,1-3.3-2.44h-4Z"/><path class="cls-15" d="M128.78,401v4.78h4.32v-.65a20.91,20.91,0,0,0,4.54.65h5A1.39,1.39,0,0,0,142,404c-1.42-1-4.37-.87-6.25-2a15,15,0,0,1-3.13-2.44h-3.8Z"/><path d="M128.45,400.09h5.89s7.72-71.75,5.48-72.46-11.78,0-13.2,20.78S128.45,400.09,128.45,400.09Z"/><path d="M139.71,341.36s3.17-29.32,3.95-44.17,0-22.47,0-22.47l-21.34-.57S123.57,312.8,124,320s2.61,28.41,2.61,28.41Z"/><path d="M143.59,400.09h5.89s6.46-71.75,4.22-72.46-10.51,0-11.93,20.78S143.59,400.09,143.59,400.09Z"/><path d="M154.11,329.05s-.05-18-.05-32.9-3.7-22.43-3.7-22.43l-16.31.94s5.32,36.84,6.14,44S143,340,143,340Z"/><path class="cls-13" d="M122.29,272.76s-5.6-55.72-4.18-59.51c.48-1.29,1.82-5.87,6-8.2,1.93-1.06,1.74-2.05,3.4-2.65,5.37-2,7.68-.44,10.17.12.78.18,1.66,1.45,2.6,2.06,5,3.21,7.72,15.51,8.25,18.17.43,2.16,3.56,20,2.9,35.51-.31,7.21-.93,14.52-.93,14.52l-12.64,1.31Z"/><polygon class="cls-24" points="122.29 276.08 122.29 272.24 137.88 273.29 150.53 272.26 151.2 275.39 137.74 276.96 122.29 276.08"/><polygon class="cls-24" points="125.1 204.39 127.39 200.99 138.23 200.99 140.86 204.96 129.4 206.05 125.1 204.39"/><polygon class="cls-8" points="132.36 211.88 143.41 239.74 151.54 251.57 151.49 257.1 144.31 251.06 132.36 211.88"/><path class="cls-13" d="M133.51,209.4l-2.86,1.81s16.52,34.57,17.85,37.15c1.21,2.34,10.58,12.2,10.58,12.2l7-4.18-8-11.19L146.8,212.68s-2.92-6.1-6.14-7.13S133.51,209.4,133.51,209.4Z"/><polygon class="cls-24" points="159.28 263.6 156.35 260.24 165.85 254.01 166.43 255.97 159.28 263.6"/><path class="cls-31" d="M186.24,281.83l-1.45-2c.88,1.1,2,2.27,2.54,1.94,1-.6-1.9-4.26-3.31-5.35a27.16,27.16,0,0,0-4.33-2.36l-1.83-1.54L166,256.38l-5.13,5.49,14.27,16.92.61,1.2a43.94,43.94,0,0,0,4,6c1.42,1.48.85-.91,2.36.21,2.39,1.77.66-1.14,2.54-.37s.32-1.91,1.72-1.59c.61.13,1.22.53,1.68-.18S186.24,281.83,186.24,281.83Z"/></svg>