<svg xmlns="http://www.w3.org/2000/svg" xmlns:xlink="http://www.w3.org/1999/xlink" viewBox="0 0 600 597.92"><defs><style>.cls-1{isolation:isolate;}.cls-2,.cls-4{opacity:0.3;}.cls-3{opacity:0.42;fill:url(#linear-gradient);}.cls-3,.cls-4{mix-blend-mode:multiply;}.cls-4{fill:url(#linear-gradient-2);}.cls-5{fill:none;stroke:#231f20;stroke-miterlimit:10;stroke-width:9px;}.cls-6{fill:#415b72;}.cls-7{fill:#231f20;}.cls-8{fill:url(#linear-gradient-3);}.cls-9{fill:#adc94a;}.cls-10{fill:#fff;}.cls-11{fill:#e0ecf5;}.cls-12{fill:#cfd3d6;}.cls-13{fill:url(#linear-gradient-4);}.cls-14{fill:#d4e4ef;}.cls-15{fill:url(#linear-gradient-5);}.cls-16{fill:#2a3340;}.cls-17{fill:url(#linear-gradient-6);}.cls-18{fill:#38c1d3;}.cls-19{fill:url(#linear-gradient-7);}.cls-20{fill:url(#linear-gradient-8);}.cls-21{fill:#2b3441;}.cls-22{fill:url(#linear-gradient-9);}</style><linearGradient id="linear-gradient" x1="214" y1="448.77" x2="18.76" y2="562.29" gradientTransform="matrix(-0.98, 0.2, 0.2, 0.98, 597.54, -22.64)" gradientUnits="userSpaceOnUse"><stop offset="0" stop-color="#221f1f"/><stop offset="1" stop-color="#fff"/></linearGradient><linearGradient id="linear-gradient-2" x1="157.66" y1="465.1" x2="624" y2="465.1" gradientUnits="userSpaceOnUse"><stop offset="0" stop-color="#221f1f"/><stop offset="0.07" stop-color="#3b3838"/><stop offset="0.26" stop-color="#767474"/><stop offset="0.44" stop-color="#a7a6a6"/><stop offset="0.61" stop-color="#cdcccc"/><stop offset="0.76" stop-color="#e8e8e8"/><stop offset="0.9" stop-color="#f9f9f9"/><stop offset="1" stop-color="#fff"/></linearGradient><linearGradient id="linear-gradient-3" x1="119.09" y1="225.51" x2="364.48" y2="470.9" gradientUnits="userSpaceOnUse"><stop offset="0.18" stop-color="#a5c75b"/><stop offset="0.31" stop-color="#89b762"/><stop offset="0.59" stop-color="#428f74"/><stop offset="0.84" stop-color="#006984"/></linearGradient><linearGradient id="linear-gradient-4" x1="102.63" y1="283.49" x2="109.41" y2="277.44" gradientTransform="matrix(-1, -0.04, -0.04, 1, 631.73, 22.09)" gradientUnits="userSpaceOnUse"><stop offset="0" stop-color="#d58b54"/><stop offset="1" stop-color="#f4c38c"/></linearGradient><linearGradient id="linear-gradient-5" x1="80.06" y1="448.77" x2="89.6" y2="448.77" gradientTransform="matrix(-1, -0.03, -0.03, 1, 614.29, -1.7)" xlink:href="#linear-gradient-4"/><linearGradient id="linear-gradient-6" x1="72.5" y1="448.54" x2="81.2" y2="448.54" gradientTransform="matrix(-1, -0.03, -0.03, 1, 614.29, -1.7)" xlink:href="#linear-gradient-4"/><linearGradient id="linear-gradient-7" x1="43.71" y1="112.06" x2="47.67" y2="106.79" gradientTransform="matrix(-0.87, -0.49, -0.49, 0.87, 592.4, 271.53)" xlink:href="#linear-gradient-4"/><linearGradient id="linear-gradient-8" x1="50.45" y1="117.12" x2="54.41" y2="111.84" gradientTransform="matrix(-0.87, -0.49, -0.49, 0.87, 592.4, 271.53)" xlink:href="#linear-gradient-4"/><linearGradient id="linear-gradient-9" x1="96.68" y1="253.62" x2="386.62" y2="441.91" gradientUnits="userSpaceOnUse"><stop offset="0.15" stop-color="#adc94a"/><stop offset="0.22" stop-color="#84b055"/><stop offset="0.32" stop-color="#4b8e63"/><stop offset="0.41" stop-color="#22756e"/><stop offset="0.48" stop-color="#096675"/><stop offset="0.52" stop-color="#006077"/><stop offset="0.61" stop-color="#065568"/><stop offset="0.79" stop-color="#163841"/><stop offset="0.92" stop-color="#231f20"/></linearGradient></defs><g class="cls-1"><g id="shadows"><g class="cls-2"><path class="cls-3" d="M658.82,523.25l1.7.57s7.43,4.27,14.13,5.85a117.44,117.44,0,0,0,11.91.27c5-.24,5-2.2,5-2.2a50.05,50.05,0,0,1-4.77-1.61c-2.29-1-3.67-2-4.37-2.08a11.09,11.09,0,0,0-2.76-.06,50.85,50.85,0,0,0-5.75-2.19c-1.08-.16-4.31.81-4.31.81l-3.81-.58L664.68,521h0c-1.5-1.6-14.08-5.72-26.77-10.93a341.35,341.35,0,0,0-33.68-11.34l-3.91.25L522.38,473c2.43-.2,2.19-1.31,1.72-1.86l-4.9.69L518,472l-.2.76H514l-.12,0-.36,0h-.13l-3.23.34.11,0h-.11L589.63,500l-6,.68s14,2.85,19.78,5.84,29.51,11.61,53.14,16l7.26-.83h0l-7.26.83ZM571.6,491.37l-54-17.39C518.52,473.91,571.6,491.37,571.6,491.37Z"/></g><polygon class="cls-4" points="157.66 499.22 278.87 265.76 624 430.98 502.8 664.44 157.66 499.22"/></g><g id="Layer_1" data-name="Layer 1"><circle class="cls-5" cx="240.54" cy="119.42" r="48.99" transform="translate(-24.37 75.33) rotate(-16.95)"/><rect class="cls-6" x="218.93" y="138.54" width="44.57" height="48.35"/><rect class="cls-7" x="254.03" y="141.61" width="5.37" height="39.01"/><rect class="cls-7" x="247.25" y="141.61" width="3.67" height="39.01"/><rect class="cls-7" x="242.19" y="141.61" width="2.31" height="39.01"/><rect class="cls-7" x="202.9" y="103.47" width="75.69" height="34.07" rx="11.18"/><rect class="cls-6" x="111.14" y="191.86" width="32.59" height="25.38" transform="translate(-101.67 129.77) rotate(-40)"/><rect class="cls-7" x="134.22" y="187.14" width="3.94" height="25.42" transform="translate(-96.6 134.29) rotate(-40)"/><rect class="cls-7" x="130.23" y="191.09" width="2.48" height="25.42" transform="translate(-100.24 132.19) rotate(-40)"/><rect class="cls-7" x="85.35" y="180.43" width="54.97" height="15.72" rx="6.47" transform="translate(-94.63 116.58) rotate(-40)"/><rect class="cls-6" x="340.13" y="192.23" width="32.59" height="25.38" transform="translate(497.74 591) rotate(-140)"/><rect class="cls-7" x="345.71" y="187.5" width="3.94" height="25.42" transform="translate(485.32 577.07) rotate(-140)"/><rect class="cls-7" x="351.15" y="191.46" width="2.48" height="25.42" transform="translate(491.1 587.08) rotate(-140)"/><rect class="cls-7" x="343.55" y="180.79" width="54.97" height="15.72" rx="6.47" transform="translate(533.99 571.66) rotate(-140)"/><circle class="cls-8" cx="241.78" cy="348.21" r="173.52"/><polygon class="cls-7" points="264.86 345.61 241.85 348.21 316.33 300.5 264.86 345.61"/><polygon class="cls-9" points="253.83 328.39 241.84 348.21 316.33 300.49 253.83 328.39"/><circle class="cls-10" cx="241.69" cy="216.13" r="7.97"/><polygon class="cls-7" points="252.71 317.24 241.81 348.24 241.81 210.28 252.71 317.24"/><polygon class="cls-9" points="230.91 317.24 241.8 348.24 241.8 210.28 230.91 317.24"/><path class="cls-11" d="M525.77,310.72s10,25.08,9.2,26.11-10.28,7.66-10.28,7.66l-1.54-3.5,5.7-6.06-6.3-14.85Z"/><polygon class="cls-12" points="524.65 344.58 521.95 339.95 523.71 337.97 525.56 344.83 524.65 344.58"/><path class="cls-13" d="M513.24,289.15a26,26,0,0,1-1,5.26c-.24.62-1,1.4-1,1.72s.46.3.51.59c.14.82-.43,3.88-.2,4.52s3.92.24,4.41,1.25c.94,1.88-.77,5.66-.77,5.66l3.37,2.86,2.48-6.9-1.5-10.85Z"/><path class="cls-14" d="M525.64,353.65s.64.22.14-2.24c-.56-2.76.11-5.79-.27-12.28-.65-11.08,1.64-26.46.26-28.32-.91-1.23-6.9-3.52-6.9-3.52l-3.67.25s-2.93,5.64-4.15,7.48-3,5.5-2.87,7.19c.26,3.72,2.28,3.25,2.64,4.54,3.26,11.55.71,20.43,0,25.08a33.55,33.55,0,0,0-.41,5.28l5.83-.07Z"/><path class="cls-15" d="M511.21,471.67s3.91-1.28,4.46-2.41c.13-.27-.49-17.15-.59-28.11-.1-9.72,0-23.26,0-23.26s3.94-2.71,4.79-1.69c1.86,2.22,2.85,8.41.62,26.95-.62,5.11-2.54,26.9-2.54,26.9l-2.39,2.09-4.66.66Z"/><path class="cls-16" d="M518,470.05a3.13,3.13,0,0,1-.05,1.78,2.3,2.3,0,0,0,0,1.55l-1.83-.06,0-.73-5.5.57-2.87-.08s.1-.55,1.29-1a8,8,0,0,1,2.24-.44v.59a11.49,11.49,0,0,0,3.48-.58A8.85,8.85,0,0,0,518,470.05Z"/><path class="cls-17" d="M519.58,471.91s3.89-1.35,4.41-2.49c.13-.27-.81-17.14-1.13-28.1-.27-9.71-1.09-23.6-1.09-23.6s4.54-2.79,5.42-1.78c1.9,2.18,3,8.7,1.13,27.28-.52,5.12-2,26.94-2,26.94L524,472.3l-4.64.75Z"/><path class="cls-16" d="M526.33,470.29a3.17,3.17,0,0,1-.05,1.79,2.27,2.27,0,0,0,0,1.54l-1.83-.06,0-.73-5.5.58-2.87-.09s.1-.54,1.29-1a8,8,0,0,1,2.24-.44v.59a11.49,11.49,0,0,0,3.48-.58A8.85,8.85,0,0,0,526.33,470.29Z"/><path class="cls-7" d="M510.18,369c.05-5,.42-11.09.42-11.09l9.45-2.22,5.8-1.28s4,6.86,4,14.11c0,4-2.15,6.35-2.33,8,.87,8.78,2.08,25.47,1.9,30.15s-.65,8.9-1,11.77c1,3.6,1.34,10.75-.09,24.81-.4,4-1.4,18-1.82,24.07l-2.56-.08c-.2-5-.83-17.26-1.08-25.89-.27-9.71-1.57-26.9-1.57-26.9h0A182.85,182.85,0,0,1,520,394.84c-.09-4.89-1.39-10.16-1.94-13.59l-7,.39A116.83,116.83,0,0,1,510.18,369Z"/><path class="cls-18" d="M525.76,354.42l-.12-.77s-8.14,2.38-9,2.51l-6.22.95.08.81a31,31,0,0,0,6.39-.6Z"/><path class="cls-7" d="M510.6,357.91l10.57-2s3.92,5,3.84,14.82c0,4.38-3.55,7.28-3.57,7.78-.49,10,1.23,23.61,1.1,27.13a134.54,134.54,0,0,1-1.3,13.76c.8,3.73.83,10.66-.74,23.74-.46,3.76-1.62,16.56-2.2,23.05l-2.66-.08c-.13-5.44-.49-16.84-.56-25-.08-7.85-.9-19.19-.91-23.37-.43-3-1-7.4-2.39-24.07C509.44,366,510.6,357.91,510.6,357.91Z"/><path class="cls-11" d="M522,313.9s-3.38,22.1-5.05,22.69c-2.34.81-11.19,4.1-11.19,4.1l-2.27-2.89,9.68-4.77s2.35-18.07,2.48-18.63a4.77,4.77,0,0,1,2.4-3C519.81,310.23,521.78,312.77,522,313.9Z"/><polygon class="cls-19" points="504.79 340.99 494.19 344.38 492.2 342.21 503.44 337.8 504.79 340.99"/><path class="cls-20" d="M491.82,341.94a9.44,9.44,0,0,0-2.68-.21c-.91.16-3,.51-2.58.95s2.6.14,2.6.14a6.12,6.12,0,0,0-2,1.13c-.73.64-1.7,1.08-1.49,1.45s.09.22.9.23-.18,1,.83.85-.05.94,1.35.39c.88-.34.43.64,1.29.13s2.61-1.9,2.61-1.9l2.42-1-1.68-2.35Z"/><polygon class="cls-18" points="504.95 342.36 507.45 341.27 503.44 337.8 502.43 337.87 504.95 342.36"/><path class="cls-21" d="M513,288.66a9.33,9.33,0,0,1,7.9-2.9c5.57.41,7,4,6.71,7.33-.39,5.18.54,6.36,2.07,8,2,2.19,4.3,5.69,2,8.62a10.87,10.87,0,0,1-7.52,3.16c-5.27.16-11.17-3.74-10.6-5,.44-.94,7.17-5.05,4.06-7.89-2.37-2.17-2.13-8.39-2.13-8.39a4.55,4.55,0,0,1-2.07-1.35A2.62,2.62,0,0,1,513,288.66Z"/><path class="cls-6" d="M351.46,455.17a149.49,149.49,0,1,1,0-211.42A149.49,149.49,0,0,1,351.46,455.17Zm-221.6,22.48a172.75,172.75,0,1,0-12.3-12.29Z"/></g><g id="numbers"><circle class="cls-10" cx="110.69" cy="348.17" r="7.97"/><circle class="cls-10" cx="374.76" cy="348.17" r="7.97"/><circle class="cls-10" cx="241.69" cy="480.2" r="7.97"/><circle class="cls-10" cx="128.07" cy="415.6" r="7.97"/><circle class="cls-10" cx="356.76" cy="283.56" r="7.97"/><circle class="cls-10" cx="307.54" cy="464.44" r="7.97"/><circle class="cls-10" cx="175.5" cy="235.75" r="7.97"/><circle class="cls-10" cx="176.14" cy="464" r="7.97"/><circle class="cls-10" cx="308.17" cy="235.3" r="7.97"/><circle class="cls-10" cx="355.99" cy="416.56" r="7.97"/><circle class="cls-10" cx="127.29" cy="284.52" r="7.97"/><path class="cls-22" d="M389.78,258.76A172.81,172.81,0,1,0,330.66,495.9,172.83,172.83,0,0,0,389.78,258.76ZM318.64,475.91a149.49,149.49,0,1,1,51.15-205.14A149.49,149.49,0,0,1,318.64,475.91Z"/></g></g></svg>