<svg xmlns="http://www.w3.org/2000/svg" xmlns:xlink="http://www.w3.org/1999/xlink" viewBox="0 0 423.75 423.75"><defs><style>.cls-1{isolation:isolate;}.cls-2{fill:url(#linear-gradient);}.cls-3{fill:url(#linear-gradient-2);}.cls-4{fill:url(#linear-gradient-3);}.cls-5{fill:url(#linear-gradient-4);}.cls-6{fill:url(#linear-gradient-5);}.cls-7{fill:url(#linear-gradient-6);}.cls-8{fill:url(#linear-gradient-7);}.cls-9{fill:url(#linear-gradient-8);}.cls-10{fill:url(#linear-gradient-9);}.cls-11{fill:url(#linear-gradient-10);}.cls-12{fill:url(#linear-gradient-11);}.cls-13{fill:url(#linear-gradient-12);}.cls-14{fill:url(#linear-gradient-13);}.cls-15{fill:url(#linear-gradient-14);}.cls-16{fill:url(#linear-gradient-15);}.cls-17{fill:url(#linear-gradient-16);}.cls-18{fill:url(#linear-gradient-17);}.cls-19{fill:url(#linear-gradient-18);}.cls-20{fill:url(#linear-gradient-19);}.cls-21{fill:url(#linear-gradient-20);}.cls-22{fill:url(#linear-gradient-21);}.cls-23{fill:url(#linear-gradient-22);}.cls-24{fill:url(#New_Gradient_Swatch_3);}.cls-25{fill:url(#New_Gradient_Swatch_3-2);}.cls-26{fill:#d4e4ef;}.cls-27{fill:url(#New_Gradient_Swatch_3-3);}.cls-28{fill:#22313f;}.cls-29{fill:url(#New_Gradient_Swatch_3-4);}.cls-30{fill:#ded9d2;}.cls-31{fill:#34a3ac;}.cls-32{fill:#c2c8cb;}.cls-33{fill:url(#New_Gradient_Swatch_3-5);}.cls-34{fill:url(#linear-gradient-23);}.cls-35{opacity:0.5;mix-blend-mode:multiply;fill:url(#linear-gradient-24);}</style><linearGradient id="linear-gradient" x1="222.27" y1="268.5" x2="249.09" y2="299.37" gradientUnits="userSpaceOnUse"><stop offset="0" stop-color="#8dac3d"/><stop offset="0.01" stop-color="#89aa3f"/><stop offset="0.18" stop-color="#287567"/><stop offset="0.26" stop-color="#026077"/><stop offset="0.44" stop-color="#026077"/></linearGradient><linearGradient id="linear-gradient-2" x1="0.02" y1="264.19" x2="44.47" y2="315.37" gradientTransform="matrix(-1, 0, 0, 1, 212.62, 0)" xlink:href="#linear-gradient"/><linearGradient id="linear-gradient-3" x1="222.49" y1="274.29" x2="303.77" y2="367.87" xlink:href="#linear-gradient"/><linearGradient id="linear-gradient-4" x1="133.52" y1="259.95" x2="174.89" y2="307.57" gradientUnits="userSpaceOnUse"><stop offset="0" stop-color="#8dac3d"/><stop offset="0.01" stop-color="#89aa3f"/><stop offset="0.18" stop-color="#287567"/><stop offset="0.26" stop-color="#026077"/><stop offset="0.44" stop-color="#026077"/></linearGradient><linearGradient id="linear-gradient-5" x1="115.98" y1="262.83" x2="203.12" y2="363.15" xlink:href="#linear-gradient"/><linearGradient id="linear-gradient-6" x1="74.15" y1="278.74" x2="152.91" y2="369.4" xlink:href="#linear-gradient"/><linearGradient id="linear-gradient-7" x1="-3.18" y1="324.35" x2="167.56" y2="435.24" gradientUnits="userSpaceOnUse"><stop offset="0.05" stop-color="#afc336"/><stop offset="0.22" stop-color="#8dac3d"/><stop offset="0.28" stop-color="#759f47"/><stop offset="0.56" stop-color="#026077"/></linearGradient><linearGradient id="linear-gradient-8" x1="56.58" y1="319.96" x2="164.06" y2="443.7" gradientUnits="userSpaceOnUse"><stop offset="0" stop-color="#8dac3d"/><stop offset="0.01" stop-color="#89aa3f"/><stop offset="0.18" stop-color="#287567"/><stop offset="0.26" stop-color="#026077"/><stop offset="0.44" stop-color="#026077"/></linearGradient><linearGradient id="linear-gradient-9" x1="134.22" y1="253.23" x2="-137.19" y2="640.84" gradientTransform="matrix(-1, 0, 0, 1, 291.49, 0)" gradientUnits="userSpaceOnUse"><stop offset="0" stop-color="#afc336"/><stop offset="0.12" stop-color="#8dac3d"/><stop offset="0.12" stop-color="#89aa3f"/><stop offset="0.28" stop-color="#287567"/><stop offset="0.35" stop-color="#026077"/></linearGradient><linearGradient id="linear-gradient-10" x1="224.95" y1="371.25" x2="224.95" y2="250.72" gradientTransform="matrix(-1, 0, 0, 1, 443.87, 0)" gradientUnits="userSpaceOnUse"><stop offset="0.22" stop-color="#678238"/><stop offset="0.3" stop-color="#7a943e"/><stop offset="0.47" stop-color="#abc34c"/><stop offset="0.53" stop-color="#c1d853"/></linearGradient><linearGradient id="linear-gradient-11" x1="170.68" y1="164.53" x2="170.68" y2="171.18" gradientTransform="matrix(-1, 0, 0, 1, 443.87, 0)" gradientUnits="userSpaceOnUse"><stop offset="0" stop-color="#35495e"/><stop offset="0.26" stop-color="#2d3f51"/><stop offset="0.65" stop-color="#253443"/><stop offset="1" stop-color="#22313f"/></linearGradient><linearGradient id="linear-gradient-12" x1="167.38" y1="164.53" x2="167.38" y2="171.18" gradientTransform="matrix(1, 0, 0, -1, 109.1, 331.52)" xlink:href="#linear-gradient-11"/><linearGradient id="linear-gradient-13" x1="164.09" y1="162.37" x2="164.09" y2="169.03" xlink:href="#linear-gradient-11"/><linearGradient id="linear-gradient-14" x1="164.01" y1="164.71" x2="164.01" y2="170.42" xlink:href="#linear-gradient-11"/><linearGradient id="linear-gradient-15" x1="161.18" y1="164.71" x2="161.18" y2="170.42" gradientTransform="matrix(1, 0, 0, -1, 121.51, 331.52)" xlink:href="#linear-gradient-11"/><linearGradient id="linear-gradient-16" x1="158.35" y1="163.05" x2="158.35" y2="168.76" xlink:href="#linear-gradient-11"/><linearGradient id="linear-gradient-17" x1="158.22" y1="164.82" x2="158.22" y2="169.9" xlink:href="#linear-gradient-11"/><linearGradient id="linear-gradient-18" x1="155.71" y1="164.82" x2="155.71" y2="169.9" gradientTransform="matrix(1, 0, 0, -1, 132.44, 331.52)" xlink:href="#linear-gradient-11"/><linearGradient id="linear-gradient-19" x1="153.2" y1="163.76" x2="153.2" y2="168.83" xlink:href="#linear-gradient-11"/><linearGradient id="linear-gradient-20" x1="153.12" y1="165.07" x2="153.12" y2="168.81" xlink:href="#linear-gradient-11"/><linearGradient id="linear-gradient-21" x1="149.4" y1="165.07" x2="149.4" y2="168.81" gradientTransform="matrix(1, 0, 0, -1, 145.06, 331.52)" xlink:href="#linear-gradient-11"/><linearGradient id="linear-gradient-22" x1="145.69" y1="163.3" x2="145.69" y2="167.04" xlink:href="#linear-gradient-11"/><linearGradient id="New_Gradient_Swatch_3" x1="297.51" y1="172.18" x2="305.68" y2="172.18" gradientUnits="userSpaceOnUse"><stop offset="0" stop-color="#d08859"/><stop offset="1" stop-color="#f2bd88"/></linearGradient><linearGradient id="New_Gradient_Swatch_3-2" x1="307.98" y1="209.53" x2="316.18" y2="209.53" xlink:href="#New_Gradient_Swatch_3"/><linearGradient id="New_Gradient_Swatch_3-3" x1="290.9" y1="284.85" x2="298.54" y2="284.85" xlink:href="#New_Gradient_Swatch_3"/><linearGradient id="New_Gradient_Swatch_3-4" x1="297.5" y1="284.81" x2="304.46" y2="284.81" xlink:href="#New_Gradient_Swatch_3"/><linearGradient id="New_Gradient_Swatch_3-5" x1="284.55" y1="170.08" x2="292.42" y2="170.08" xlink:href="#New_Gradient_Swatch_3"/><linearGradient id="linear-gradient-23" x1="118.04" y1="197.28" x2="173.12" y2="135.89" gradientTransform="matrix(-1, 0, 0, 1, 443.87, 0)" gradientUnits="userSpaceOnUse"><stop offset="0.14" stop-color="#35495e"/><stop offset="0.41" stop-color="#374b60"/><stop offset="0.56" stop-color="#3e5365"/><stop offset="0.68" stop-color="#4a616f"/><stop offset="0.79" stop-color="#5c757c"/><stop offset="0.88" stop-color="#728e8e"/><stop offset="0.97" stop-color="#8daca3"/><stop offset="1" stop-color="#99baad"/></linearGradient><linearGradient id="linear-gradient-24" x1="159.22" y1="272.27" x2="66.05" y2="341.92" gradientTransform="matrix(-1, 0, 0, 1, 443.87, 0)" gradientUnits="userSpaceOnUse"><stop offset="0.02" stop-color="#94aeb7"/><stop offset="0.17" stop-color="#9ab3bb"/><stop offset="0.38" stop-color="#abbfc6"/><stop offset="0.62" stop-color="#c7d5d9"/><stop offset="0.88" stop-color="#eef2f3"/><stop offset="0.98" stop-color="#fff"/></linearGradient></defs><g class="cls-1"><g id="Layer_1" data-name="Layer 1"><polygon class="cls-2" points="232.88 292.76 222.46 287.07 220.89 268.64 232.96 262.45 232.88 292.76"/><polygon class="cls-3" points="185.54 296.18 213.1 296.09 212.31 262.18 185.46 262.98 185.54 296.18"/><polygon class="cls-4" points="259.07 343.98 232.83 340.11 232.99 261.96 259.06 262.48 259.07 343.98"/><polygon class="cls-5" points="158.71 289.71 131.15 289.63 131.78 259.83 158.71 256.54 158.71 289.71"/><polygon class="cls-6" points="170.44 324.3 109.98 306.4 110.55 264.09 174.34 279.54 170.44 324.3"/><polygon class="cls-7" points="108.93 346.84 82.08 346.76 82.23 268.61 110.72 261.93 108.93 346.84"/><polygon class="cls-8" points="14.26 423.77 14.27 290.16 83.06 292.27 82.29 423.76 14.26 423.77"/><polygon class="cls-9" points="91.56 423.75 82.12 423.76 82.97 292.78 92.51 286.93 91.56 423.75"/><polygon class="cls-10" points="91.55 423.75 92.5 287.29 134.52 283.45 179.91 284.67 190.95 283.86 202.18 284.4 423.6 369.19 423.6 423.75 91.55 423.75"/><path class="cls-11" d="M14.23,290.16l94-14.18-8.48,6.13c23.37-1.06,49-1.72,72.75-1.25l-61.79-16.74-28.54,4.52,14.15-12.91,62.46.78-26.14,4.14L196,276.56c1.64-4.91,8.21-9.72,15.66-13.76l-26.26.18,64.87-12.26,8.77,11.76-26.11.18c-12.51,7.58-20.62,18,7.82,25.12L423.6,334.21v37L216.3,292.74c-27.86-7.56-79.89-7.26-123.83-5.36L83,294.26Z"/><path class="cls-12" d="M272.6,165.76c0-1.12.26-2,.59-2s.59.9.59,2-.26,2-.59,2S272.6,166.87,272.6,165.76Z"/><rect class="cls-13" x="273.19" y="163.74" width="6.59" height="4.04" transform="translate(552.97 331.52) rotate(-180)"/><path class="cls-14" d="M279.19,165.76c0-1.12.26-2,.59-2s.59.9.59,2-.27,2-.59,2S279.19,166.87,279.19,165.76Z"/><path class="cls-15" d="M279.35,165.76c0-1,.23-1.74.51-1.74s.51.78.51,1.74-.23,1.73-.51,1.73S279.35,166.72,279.35,165.76Z"/><rect class="cls-16" x="279.86" y="164.02" width="5.65" height="3.47" transform="translate(565.38 331.52) rotate(-180)"/><path class="cls-17" d="M285,165.76c0-1,.23-1.74.51-1.74s.5.78.5,1.74-.22,1.73-.5,1.73S285,166.72,285,165.76Z"/><path class="cls-18" d="M285.19,165.76c0-.85.2-1.54.45-1.54s.45.69.45,1.54-.2,1.54-.45,1.54S285.19,166.61,285.19,165.76Z"/><rect class="cls-19" x="285.64" y="164.22" width="5.02" height="3.08" transform="translate(576.31 331.52) rotate(-180)"/><path class="cls-20" d="M290.22,165.76c0-.85.2-1.54.45-1.54s.45.69.45,1.54-.2,1.54-.45,1.54S290.22,166.61,290.22,165.76Z"/><path class="cls-21" d="M290.42,165.76c0-.63.15-1.14.33-1.14s.33.51.33,1.14-.14,1.13-.33,1.13S290.42,166.39,290.42,165.76Z"/><rect class="cls-22" x="290.75" y="164.62" width="7.43" height="2.27" transform="translate(588.93 331.52) rotate(-180)"/><path class="cls-23" d="M297.85,165.76c0-.63.15-1.14.33-1.14s.33.51.33,1.14-.15,1.13-.33,1.13S297.85,166.39,297.85,165.76Z"/><path class="cls-24" d="M298.71,163.76a20.82,20.82,0,0,1-.51,4.19c-.15.5-.69,1.16-.69,1.41s.38.21.44.43c.16.63-.11,3.07.11,3.56s3.09,0,3.54.71c.84,1.43-.27,4.49-.27,4.49l2.81,2,1.54-5.56-1.83-8.43Z"/><polygon class="cls-25" points="314.42 204.92 307.98 212.44 308.21 214.15 316.18 207.08 314.42 204.92"/><path class="cls-26" d="M307.78,215.36s.48.24.39-1.73a85.23,85.23,0,0,1-.34-10.06c.3-8.72,2.73-20.8,1.76-22.33-.65-1-5.23-3.15-5.23-3.15h-2.9s-2.61,4.26-3.67,5.64-2.65,4.16-2.65,5.49c0,2.94,1.62,2.68,1.83,3.71,1.92,9.25-.9,18.19-1.17,19.91a12.37,12.37,0,0,0-.26,3.4l4.55.64Z"/><path class="cls-27" d="M291.11,306.48s3-1.1,3.45-2c.09-.21-.78-13.48-1.11-22.1-.29-7.64-.07-17.88-.07-17.88s3.13-2.84,3.79-2c1.43,1.77,1.92,6.71.59,21.35-.37,4-1.38,21.22-1.38,21.22l-1.84,1.7-3.64.63Z"/><path class="cls-28" d="M296.38,305.05a2.51,2.51,0,0,1,0,1.4,1.81,1.81,0,0,0,0,1.22h-1.44v-.58l-4.32.58h-2.26s.07-.43,1-.79a6.27,6.27,0,0,1,1.76-.4V307a9.2,9.2,0,0,0,2.72-.54A7.1,7.1,0,0,0,296.38,305.05Z"/><path class="cls-29" d="M297.7,306.48s3-1.15,3.41-2.06c.09-.22-1-13.47-1.53-22.08-.44-7.64-.41-17.87-.41-17.87s3.08-2.91,3.76-2.1c1.46,1.75,2,6.68,1,21.34-.29,4-1,21.24-1,21.24l-1.8,1.74-3.64.69Z"/><path class="cls-28" d="M303,305.05a2.51,2.51,0,0,1,0,1.4,1.81,1.81,0,0,0,0,1.22h-1.44v-.58l-4.32.58H295s.07-.43,1-.79a6.27,6.27,0,0,1,1.76-.4V307a9.2,9.2,0,0,0,2.72-.54A7.1,7.1,0,0,0,303,305.05Z"/><path class="cls-30" d="M293.38,264.5s-1.21-4.7-1.21-14.5a94.49,94.49,0,0,1,.91-14.9l8.89.62s-2.22,16.78-2.56,21.49a63.26,63.26,0,0,1-1.41,9.13Z"/><path class="cls-31" d="M307.78,216v-.61s-6.61.88-7.29.88h-4.95l0,.63a24.36,24.36,0,0,0,5,.3Z"/><path d="M319.67,264.4s-6-20.37-6.75-28.07S307.78,216,307.78,216s-4.72.55-6.08.82a49.28,49.28,0,0,1-6.19.08,75.31,75.31,0,0,0-4.51,22c-.45,11.69-5.4,27.65-5.4,27.65s11.24.81,18.14.66h0q.94,0,1.77-.06a54.41,54.41,0,0,0,7.21-1h0A40.4,40.4,0,0,0,319.67,264.4Z"/><path class="cls-26" d="M309.59,181.24s12.14,19.13,11.82,20.08-5.09,5.94-5.09,5.94l-1.9-2.34,2.64-3.81L309.27,189Z"/><polygon class="cls-32" points="316.32 208.26 313.3 205.31 314.23 203.44 317.06 208.26 316.32 208.26"/><path class="cls-26" d="M298.52,186.06s-17-1.43-17.54-2.75c-.79-1.85,2.89-7.34,2.89-7.34l3.11.46-1.89,4.69s14.61-1.1,15.06-.91.22,5,1.48,6.24S299.4,186.14,298.52,186.06Z"/><path class="cls-33" d="M291.48,166.89c-.19.23-.32.41-.32.41a5.51,5.51,0,0,0,.46-1.79c.05-.8.34-1.62,0-1.72s-.16-.09-.6.36-.44-.7-.9,0-.48-.6-.95.53c-.29.7-.57-.15-.76.65s-.4,2.63-.4,2.63l-.73,1.89-2.75,5.45,2.43,1.17,2.46-6.06.76-1a7.18,7.18,0,0,0,1.56-1.39c.17-.26.44-.67.66-1.06Z"/><path class="cls-34" d="M298.52,163.39a7.29,7.29,0,0,1,6-2.75c3.24,0,4.86,1.43,5.43,4a22.46,22.46,0,0,0,6,11c2.62,2.4,4,9.76,2.12,12.46-1.55,2.22-6.23,2.28-7.14.72-1.61-2.76-3.75-1.11-4.67-.94a5.46,5.46,0,0,1-4.32-1.11c-1.49-1.36-1.75-4.58-.16-8.34.31-.75,3.24-3.57.63-5.62-2-1.56-1.71-7.18-1.71-7.18a3.52,3.52,0,0,1-1.71-.94A2,2,0,0,1,298.52,163.39Z"/><polygon class="cls-32" points="283.73 174.63 282.6 176.69 287.48 176.61 287.63 175.93 283.73 174.63"/><polygon class="cls-35" points="288.92 307.67 295.56 308.73 423.6 359.84 423.61 343.94 302.73 307.67 295.43 307.73 302.02 308.61 296.06 307.67 288.92 307.67"/></g></g></svg>