<svg id="Layer_1" data-name="Layer 1" xmlns="http://www.w3.org/2000/svg" xmlns:xlink="http://www.w3.org/1999/xlink" viewBox="0 0 424.66 424.66"><defs><style>.cls-1{fill:url(#linear-gradient);}.cls-2{fill:url(#linear-gradient-2);}.cls-3{clip-path:url(#clip-path);}.cls-4{isolation:isolate;}.cls-5{fill:url(#linear-gradient-4);}.cls-6{fill:url(#linear-gradient-5);}.cls-7{fill:url(#linear-gradient-6);}.cls-8{fill:#adc94a;}.cls-9{fill:url(#linear-gradient-7);}.cls-10{fill:#d3e3ed;}.cls-11{fill:url(#linear-gradient-8);}.cls-12{fill:#68809f;}.cls-13{fill:url(#linear-gradient-9);}.cls-14{fill:url(#New_Gradient_Swatch_3);}.cls-15{fill:#22313f;}.cls-16{fill:url(#New_Gradient_Swatch_3-2);}.cls-17{fill:#ded9d2;}.cls-18{fill:url(#linear-gradient-10);}.cls-19{fill:url(#linear-gradient-11);}.cls-20{fill:url(#linear-gradient-12);}.cls-21{fill:url(#linear-gradient-13);}.cls-22{fill:url(#linear-gradient-14);}.cls-23{fill:url(#linear-gradient-15);}.cls-24{fill:#3bc1d2;}.cls-25{fill:url(#linear-gradient-16);}.cls-26{fill:url(#linear-gradient-17);}.cls-27{fill:url(#linear-gradient-18);}.cls-28{fill:url(#linear-gradient-19);}.cls-29{fill:url(#New_Gradient_Swatch_5);}.cls-30{fill:url(#New_Gradient_Swatch_5-2);}.cls-31{fill:url(#linear-gradient-20);}.cls-32{fill:#d4e4ef;}.cls-33{fill:#006a84;}.cls-34{fill:#e5f1fa;}.cls-35{fill:url(#New_Gradient_Swatch_5-3);}.cls-36{fill:url(#linear-gradient-21);}</style><linearGradient id="linear-gradient" x1="141.69" y1="410.01" x2="168.85" y2="296.29" gradientTransform="matrix(-1, 0, 0, 1, 371.75, 0)" gradientUnits="userSpaceOnUse"><stop offset="0" stop-color="#68809f"/><stop offset="1" stop-color="#35495e"/></linearGradient><linearGradient id="linear-gradient-2" x1="197.38" y1="315.66" x2="91" y2="131.4" gradientUnits="userSpaceOnUse"><stop offset="0.17" stop-color="#aec94a"/><stop offset="0.55" stop-color="#0087aa"/><stop offset="0.67" stop-color="#017d9d"/><stop offset="0.89" stop-color="#02647d"/></linearGradient><clipPath id="clip-path"><path class="cls-1" d="M170.44,328.05l38-6.35C222,319.43,234,310.44,243,296.44l-38,6.34C196.07,316.78,184.06,325.77,170.44,328.05Z"/></clipPath><linearGradient id="linear-gradient-4" x1="156.37" y1="226.14" x2="271.52" y2="226.14" gradientUnits="userSpaceOnUse"><stop offset="0.29" stop-color="#00b5cd"/><stop offset="0.39" stop-color="#0092a6"/><stop offset="0.55" stop-color="#005f6b"/><stop offset="0.69" stop-color="#00363d"/><stop offset="0.82" stop-color="#00181c"/><stop offset="0.93" stop-color="#000607"/><stop offset="1"/></linearGradient><linearGradient id="linear-gradient-5" x1="128.55" y1="245.9" x2="128.55" y2="396.06" gradientTransform="matrix(-1, 0, 0, 1, 371.75, 0)" gradientUnits="userSpaceOnUse"><stop offset="0.09" stop-color="#fff"/><stop offset="0.73" stop-color="#39c1d2"/></linearGradient><linearGradient id="linear-gradient-6" x1="177.61" y1="358.92" x2="176.8" y2="231.24" gradientTransform="matrix(-1, 0, 0, 1, 371.75, 0)" gradientUnits="userSpaceOnUse"><stop offset="0.09" stop-color="#fff"/><stop offset="0.45" stop-color="#fdfeff"/><stop offset="0.57" stop-color="#f6fcfd"/><stop offset="0.67" stop-color="#ebf9fa"/><stop offset="0.74" stop-color="#daf3f6"/><stop offset="0.8" stop-color="#c4ecf1"/><stop offset="0.86" stop-color="#a8e4eb"/><stop offset="0.91" stop-color="#88dae4"/><stop offset="0.96" stop-color="#64cedc"/><stop offset="1" stop-color="#3bc2d2"/><stop offset="1" stop-color="#39c1d2"/></linearGradient><linearGradient id="linear-gradient-7" x1="216.12" y1="81.59" x2="49.12" y2="257.51" gradientTransform="matrix(-1, 0, 0, 1, 371.75, 0)" gradientUnits="userSpaceOnUse"><stop offset="0" stop-color="#8eab1d"/><stop offset="0.11" stop-color="#7ba630"/><stop offset="0.32" stop-color="#499a61"/><stop offset="0.6" stop-color="#0087aa"/><stop offset="0.93" stop-color="#026077"/></linearGradient><linearGradient id="linear-gradient-8" x1="255.26" y1="259.96" x2="267.19" y2="259.96" gradientUnits="userSpaceOnUse"><stop offset="0" stop-color="#ce8759"/><stop offset="0.04" stop-color="#d28d5f"/><stop offset="0.21" stop-color="#dfa270"/><stop offset="0.41" stop-color="#e9b17d"/><stop offset="0.64" stop-color="#eeb985"/><stop offset="1" stop-color="#f0bc87"/></linearGradient><linearGradient id="linear-gradient-9" x1="280.36" y1="259.01" x2="286.96" y2="259.01" xlink:href="#linear-gradient-8"/><linearGradient id="New_Gradient_Swatch_3" x1="275.02" y1="345.68" x2="285.92" y2="345.68" gradientUnits="userSpaceOnUse"><stop offset="0" stop-color="#ce8759"/><stop offset="1" stop-color="#f0bc87"/></linearGradient><linearGradient id="New_Gradient_Swatch_3-2" x1="314.71" y1="348.24" x2="337.5" y2="348.24" xlink:href="#New_Gradient_Swatch_3"/><linearGradient id="linear-gradient-10" x1="-698.57" y1="444.49" x2="-698.57" y2="513.84" gradientTransform="matrix(-0.84, -0.54, -0.54, 0.84, -50.82, -457.97)" gradientUnits="userSpaceOnUse"><stop offset="0" stop-color="#35495e"/><stop offset="0.15" stop-color="#34485c"/><stop offset="1" stop-color="#314458"/></linearGradient><linearGradient id="linear-gradient-11" x1="-531.15" y1="213.71" x2="-531.15" y2="265.07" gradientTransform="matrix(-0.82, 0.58, 0.58, 0.82, -254.51, 444.19)" gradientUnits="userSpaceOnUse"><stop offset="0" stop-color="#35495e"/><stop offset="0.26" stop-color="#2d3f51"/><stop offset="0.65" stop-color="#253443"/><stop offset="1" stop-color="#22313f"/></linearGradient><linearGradient id="linear-gradient-12" x1="-592.29" y1="259.7" x2="-558.54" y2="222.09" gradientTransform="matrix(-1, -0.1, -0.1, 1, -267.41, -42.31)" gradientUnits="userSpaceOnUse"><stop offset="0.14" stop-color="#35495e"/><stop offset="0.41" stop-color="#374b60"/><stop offset="0.56" stop-color="#3e5365"/><stop offset="0.68" stop-color="#4a616f"/><stop offset="0.79" stop-color="#5c757c"/><stop offset="0.88" stop-color="#728e8e"/><stop offset="0.97" stop-color="#8daca3"/><stop offset="1" stop-color="#99baad"/></linearGradient><linearGradient id="linear-gradient-13" x1="247.32" y1="262.87" x2="260.81" y2="262.87" xlink:href="#linear-gradient-8"/><linearGradient id="linear-gradient-14" x1="-529" y1="191.72" x2="-529" y2="242.78" gradientTransform="matrix(-0.84, 0.54, 0.54, 0.84, -245.52, 435.08)" xlink:href="#linear-gradient-11"/><linearGradient id="linear-gradient-15" x1="-532.02" y1="255.16" x2="-532.02" y2="328.86" gradientTransform="matrix(-0.91, 0.42, 0.42, 0.91, -294.6, 289.69)" xlink:href="#linear-gradient-10"/><linearGradient id="linear-gradient-16" x1="-548.05" y1="215.5" x2="-548.05" y2="288.51" gradientTransform="matrix(-0.98, 0.2, 0.2, 0.98, -311.17, 179.44)" xlink:href="#linear-gradient-10"/><linearGradient id="linear-gradient-17" x1="159.76" y1="336.72" x2="159.76" y2="405.6" gradientTransform="translate(80.91 -49.42) rotate(16.91)" gradientUnits="userSpaceOnUse"><stop offset="0" stop-color="#2b3b4b"/><stop offset="0.5" stop-color="#2c3d4e"/><stop offset="0.84" stop-color="#314457"/><stop offset="1" stop-color="#35495e"/></linearGradient><linearGradient id="linear-gradient-18" x1="107.58" y1="317.55" x2="107.58" y2="363.56" gradientTransform="matrix(1, 0.02, -0.02, 1.09, 52.99, -39.06)" xlink:href="#linear-gradient-10"/><linearGradient id="linear-gradient-19" x1="158.17" y1="308.18" x2="126.81" y2="338.11" gradientTransform="translate(14.7 -2.8) rotate(2.38)" gradientUnits="userSpaceOnUse"><stop offset="0" stop-color="#35495e"/><stop offset="0.35" stop-color="#314558"/><stop offset="1" stop-color="#2e4154"/></linearGradient><linearGradient id="New_Gradient_Swatch_5" x1="139.89" y1="286.97" x2="149.75" y2="286.97" gradientUnits="userSpaceOnUse"><stop offset="0.23" stop-color="#a45329"/><stop offset="0.39" stop-color="#a7572d"/><stop offset="0.53" stop-color="#af6337"/><stop offset="0.68" stop-color="#be7749"/><stop offset="0.83" stop-color="#d29262"/><stop offset="0.98" stop-color="#ebb681"/><stop offset="1" stop-color="#f0bc87"/></linearGradient><linearGradient id="New_Gradient_Swatch_5-2" x1="128.53" y1="282.37" x2="135.24" y2="282.37" xlink:href="#New_Gradient_Swatch_5"/><linearGradient id="linear-gradient-20" x1="542.15" y1="264.92" x2="565.58" y2="292.28" gradientTransform="translate(-476.99 179.23) rotate(-17.18)" xlink:href="#linear-gradient-12"/><linearGradient id="New_Gradient_Swatch_5-3" x1="147.3" y1="287.32" x2="156.88" y2="287.32" xlink:href="#New_Gradient_Swatch_5"/><linearGradient id="linear-gradient-21" x1="230.32" y1="298.57" x2="230.32" y2="361.13" gradientTransform="translate(413.24 94.46) rotate(84.2)" xlink:href="#linear-gradient-11"/></defs><polygon points="152.18 218.86 190.13 212.52 192.78 105 154.83 111.34 152.18 218.86"/><path d="M151.28,110.38c-.59-.14-1.18-.29-1.77-.4l-.34-.06c-.69-.13-1.38-.25-2.06-.35l-.67-.09c-.68-.09-1.36-.16-2-.22l-.34,0c-.78-.06-1.55-.09-2.32-.11h-.6c-.61,0-1.22,0-1.82,0l-.57,0c-.75,0-1.51.09-2.25.17l-.4,0c-.74.08-1.48.18-2.21.3l37.95-6.35,1-.15c.41-.06.83-.1,1.24-.15l.4,0c.75-.07,1.5-.13,2.26-.16l.56,0q.91,0,1.83,0h.95c.65,0,1.31.06,2,.11l.34,0c.68,0,1.35.13,2,.22.23,0,.45,0,.67.09.69.1,1.38.21,2.07.34l.33.06.1,0c.56.11,1.12.25,1.68.38l.88.2c.88.23,1.77.48,2.66.77l-37.95,6.34c-.89-.28-1.78-.53-2.67-.76C151.87,110.5,151.58,110.45,151.28,110.38Z"/><path class="cls-2" d="M154.88,111.37C116.49,99.26,84.18,137.58,82.71,197s28.47,117.34,66.86,129.45c22.09,7,42.17-2.77,55.51-23.6l-52.85-83.92Z"/><path class="cls-1" d="M170.44,328.05l38-6.35C222,319.43,234,310.44,243,296.44l-38,6.34C196.07,316.78,184.06,325.77,170.44,328.05Z"/><g class="cls-3"><g class="cls-4"><path d="M170.44,328.05l38-6.35C222,319.43,234,310.44,243,296.44l-38,6.34c-9,14-21,23-34.59,25.27"/></g></g><polygon points="205.03 302.78 242.99 296.44 190.13 212.52 152.18 218.86 205.03 302.78"/><polygon class="cls-5" points="233.56 241.49 271.52 235.14 194.32 210.79 156.37 217.13 233.56 241.49"/><path class="cls-6" d="M267.25,269.21l-.18.7c-.28,1.15-.57,2.28-.87,3.41-.08.27-.15.54-.22.81-.35,1.27-.72,2.52-1.1,3.75l-.24.76c-.35,1.08-.7,2.14-1.06,3.19-.08.23-.16.45-.23.68-.42,1.18-.86,2.35-1.31,3.51-.1.26-.2.52-.31.78-.4,1-.82,2-1.25,3-.07.17-.14.34-.22.51q-.72,1.67-1.5,3.27c-.12.26-.24.51-.37.76-.48,1-1,2-1.49,2.94l-.14.29c-.55,1-1.12,2-1.7,3-.13.24-.27.47-.42.71-.58,1-1.18,2-1.79,2.91h0l-38,6.34c.62-1,1.21-1.92,1.8-2.91l.42-.72c.58-1,1.14-2,1.69-3l.15-.28c.51-1,1-2,1.49-2.94.12-.26.25-.51.37-.76.51-1.08,1-2.17,1.5-3.28l.21-.5c.43-1,.85-2,1.26-3l.31-.78c.45-1.15.88-2.32,1.3-3.51.08-.22.15-.45.23-.67.37-1.05.72-2.12,1.06-3.2l.24-.76c.38-1.23.75-2.48,1.1-3.74.08-.27.15-.55.22-.82.31-1.12.6-2.26.88-3.4.06-.24.12-.47.17-.7.31-1.31.61-2.63.89-4,.06-.31.12-.62.19-.93.2-1,.39-2,.57-3,.1-.55.21-1.11.3-1.67.17-1,.33-2,.49-3.06.07-.48.15-.95.21-1.44.22-1.51.41-3,.59-4.58,0-.06,0-.12,0-.18.17-1.47.31-3,.44-4.46.09-1.16.17-2.35.25-3.53,0-.6.08-1.19.12-1.79.09-1.79.17-3.6.21-5.42l38-6.35c0,1.83-.12,3.63-.22,5.43,0,.6-.08,1.19-.12,1.78-.08,1.19-.15,2.37-.25,3.53l0,.37c-.12,1.38-.25,2.74-.4,4.09,0,.06,0,.12,0,.18-.17,1.55-.37,3.07-.58,4.59-.07.48-.15,1-.22,1.44-.15,1-.31,2.05-.48,3.06l-.3,1.66c-.1.54-.19,1.09-.29,1.63s-.19.94-.29,1.42c-.06.3-.12.61-.19.92C267.85,266.58,267.56,267.91,267.25,269.21Z"/><path class="cls-7" d="M156.37,217.13l58.52,93.47c11-17.09,18-41,18.67-69.11Z"/><path class="cls-8" d="M159.75,80l-3.24,131.24L241.36,238C243.15,165.54,206.61,94.79,159.75,80Z"/><path class="cls-9" d="M241.42,233.32c0-.81,0-1.61,0-2.42,0-.46,0-.92,0-1.37,0-.73,0-1.46,0-2.18,0-.5,0-1,0-1.48,0-.69-.05-1.38-.08-2.07,0-.51-.05-1-.07-1.53,0-.67-.07-1.35-.11-2s-.07-1-.1-1.57-.09-1.26-.14-1.9-.08-1.05-.13-1.58-.11-1.26-.16-1.9l-.15-1.56c-.07-.63-.13-1.27-.2-1.9l-.18-1.55c-.07-.64-.15-1.28-.23-1.92s-.12-1-.19-1.5c-.09-.71-.19-1.41-.29-2.11-.07-.46-.13-.91-.2-1.37-.11-.77-.24-1.55-.36-2.33l-.18-1.11c-.19-1.15-.38-2.3-.59-3.44v-.06c-.21-1.12-.42-2.24-.64-3.35-.06-.3-.13-.6-.19-.91-.18-.88-.36-1.76-.55-2.64-.09-.42-.18-.85-.28-1.28l-.51-2.26c-.11-.45-.21-.9-.32-1.35l-.54-2.2c-.11-.44-.22-.88-.34-1.32-.2-.77-.4-1.54-.61-2.31l-.3-1.12c-.35-1.28-.72-2.56-1.09-3.83-.09-.29-.18-.57-.26-.86-.31-1-.62-2-.94-3.05L231,166.9q-.57-1.78-1.17-3.54a2.25,2.25,0,0,1-.08-.24c-.43-1.24-.87-2.48-1.32-3.71l-.3-.81c-.63-1.69-1.28-3.38-1.95-5l-.27-.66q-1-2.51-2.1-5c-.08-.2-.17-.39-.26-.58-.73-1.66-1.48-3.29-2.25-4.91l-.24-.49q-1.19-2.46-2.41-4.84l-.54-1c-.3-.57-.59-1.13-.9-1.69-.2-.38-.41-.76-.62-1.14l-.88-1.58-.67-1.16-.87-1.51-.7-1.17-.88-1.46-.72-1.15L211,123.8l-.72-1.12-.94-1.41c-.24-.36-.48-.73-.73-1.09l-1-1.39-.74-1.05c-.33-.47-.67-.94-1-1.4l-.72-1c-.36-.49-.73-1-1.1-1.45l-.66-.88-1.31-1.65c-.17-.2-.32-.41-.49-.61-.6-.74-1.21-1.48-1.82-2.2l-.42-.48c-.47-.56-.95-1.11-1.44-1.66l-.69-.77-1.19-1.3-.79-.83c-.37-.4-.75-.8-1.13-1.19l-.83-.84-1.11-1.1-.87-.83q-.56-.54-1.11-1l-1-.88-.87-.78c-.33-.3-.67-.6-1-.89l-.87-.75-1-.86c-.29-.24-.58-.48-.88-.71s-.7-.56-1.06-.84l-.88-.68-1.08-.8-.88-.64c-.37-.27-.74-.53-1.12-.78l-.86-.6-1.18-.78-.81-.53-1.3-.8-.72-.44-.35-.2c-.72-.42-1.44-.83-2.16-1.22l-.78-.42c-.61-.32-1.22-.64-1.84-.94l-.75-.37c-.84-.41-1.68-.8-2.53-1.17l-.15-.06c-.81-.35-1.61-.67-2.43-1l-1.25-.47-.64-.23c-.68-.24-1.35-.47-2-.68l38-6.35c.67.22,1.35.44,2,.68l.65.24c.32.11.63.22,1,.35.1,0,.2.08.3.12.81.31,1.63.64,2.43,1l.14,0c.85.37,1.7.77,2.54,1.17l.74.37c.62.31,1.24.62,1.85,1l.78.41c.72.4,1.44.8,2.15,1.22l.28.16.07,0,.72.45c.44.26.87.52,1.3.8l.81.53c.4.25.8.51,1.19.78l.86.59,1.12.78.87.64,1.09.81.88.68,1.06.83.87.71,1,.86.88.75,1,.89.87.78.57.51.39.37,1.11,1,.86.83,1.11,1.11.84.84,1.13,1.18L234,98l1.2,1.31.69.77c.48.54.95,1.09,1.43,1.64l.42.49c.62.73,1.23,1.46,1.83,2.2l.48.61c.44.55.88,1.1,1.31,1.66l.67.87,1.1,1.45.72,1,1,1.39.74,1.06,1,1.38c.24.37.49.73.73,1.09s.63.94.93,1.42.49.74.73,1.12.61,1,.9,1.42.48.77.72,1.16.59,1,.88,1.45.47.78.7,1.18.59,1,.88,1.5l.66,1.17c.3.52.59,1,.88,1.57l.63,1.15c.3.55.6,1.12.89,1.68l.48.89.06.13c.83,1.59,1.63,3.21,2.42,4.84l.24.5c.77,1.61,1.52,3.25,2.25,4.9.09.2.17.39.26.58q1.08,2.46,2.1,5c.09.21.18.43.26.65q1,2.5,1.95,5l.16.4.14.41c.45,1.23.89,2.46,1.32,3.71,0,.07.05.15.08.23.4,1.17.79,2.35,1.18,3.54.11.36.23.72.34,1.08.32,1,.64,2,.94,3,.09.29.18.57.26.86.38,1.27.74,2.55,1.1,3.83a1.82,1.82,0,0,0,.07.25c.08.29.15.58.23.87.2.77.41,1.54.61,2.32l.33,1.32q.28,1.09.54,2.19c.11.45.22.9.32,1.36.18.75.35,1.51.52,2.27.09.42.19.84.28,1.26.19.88.37,1.77.55,2.65.05.25.11.5.16.76a.77.77,0,0,1,0,.15c.23,1.11.44,2.22.64,3.34v.07c.21,1.14.41,2.28.6,3.43l.18,1.14.36,2.31c.07.45.13.91.19,1.36.1.71.2,1.41.29,2.11,0,.15.05.29.06.44.05.35.09.71.14,1.07.08.64.15,1.27.23,1.92s.11,1,.17,1.54.14,1.27.2,1.91l.15,1.56c.06.63.12,1.26.17,1.9l.12,1.58c.05.63.1,1.26.14,1.9l.06.85c0,.24,0,.48,0,.72,0,.67.08,1.34.11,2,0,.51,0,1,.08,1.53,0,.69.05,1.38.07,2.07,0,.49,0,1,.05,1.48,0,.72,0,1.44,0,2.16l0,1.4v3.56c0,1.19,0,2.37-.06,3.55L241.36,238c0-1.18,0-2.37.06-3.55C241.42,234.08,241.41,233.7,241.42,233.32Z"/><path class="cls-10" d="M290.25,271.4s-15.06-3.67-16.23-4.12c-2.63-1-6.9-2.12-6.9-2.12l.07-2.54,7.23,1.44s15.11,2.6,15.44,2.84.73,2.46,1.55,3.74S291,271.65,290.25,271.4Z"/><path class="cls-11" d="M260.5,260.75s-.5-1.41-.84-2.45c-.14-.42-.51-3.29-.73-3.23-.47.13,0,2.36-.15,2.43s-.93-2.56-1.23-2.52c-.61.09.67,2.83.56,2.65-.59-.89-1.63-2.56-1.83-2.48-.63.29,1.36,3,1.36,3-.46-.32-2.1-1.8-2.35-1.67s1,1.65,1.36,1.91a6.2,6.2,0,0,1,1.17,1.39s-2.24-1-2.15-.44.31.55,1.1.89a7,7,0,0,1,1.31.87,16.46,16.46,0,0,0,1.75,1.1l6.64,2.76.72-2.31Z"/><polygon class="cls-12" points="265.93 265.75 267.81 266.2 267.19 262.62 266.6 262.23 265.93 265.75"/><path class="cls-13" d="M281.87,251.49a18.34,18.34,0,0,1-.79,3.58c-.18.42-.69.95-.71,1.17s.3.21.33.41c.09.56-.34,2.65-.19,3.09s2.67.22,3,.91c.61,1.31-.61,3.86-.61,3.86l2.27,2,1.79-4.69-.88-7.45Z"/><path class="cls-10" d="M298.62,293.4s.46,0-.33-1.49c-.9-1.72-1-3.83-2.52-8-2.53-7.16-3.95-17.71-5.21-18.67-.83-.64-5.2-1-5.2-1l-2.37.87s-.86,4.26-1.31,5.7-.92,4.19-.52,5.28c.88,2.4,2.12,1.7,2.6,2.48,4.34,7,4.35,13.31,4.78,16.49a23.58,23.58,0,0,0,.73,3.55l3.83-1.15Z"/><path class="cls-14" d="M281.58,365.6s2.48-1.34,2.7-2.17c.06-.19-3.94-13.71-5.7-21C277,336,275,326.91,275,326.91s2.2-2.42,2.93-1.87c1.58,1.2,3.19,5.17,4.56,17.88.37,3.51,3.41,20.76,3.41,20.76l-1.35,1.71-3.05,1Z"/><path class="cls-15" d="M285.92,363.68a2.14,2.14,0,0,1,.19,1.21,1.57,1.57,0,0,0,.16,1l-1.24.19-.08-.49-3.63,1.06-1.95.3s0-.38.75-.82a5.37,5.37,0,0,1,1.46-.57l.07.4a7.8,7.8,0,0,0,2.27-.82A6,6,0,0,0,285.92,363.68Z"/><path class="cls-16" d="M334.38,365.17s1.67-2.26,1.53-3.11c0-.2-7.07-9.38-11.48-15.46-3.9-5.39-9.72-12.93-9.72-12.93s1.49-3.33,2.38-3.09c1.92.5,5.06,3.76,11.16,15,1.68,3.1,9.25,16,9.25,16l-.51,2.12-2.33,2.21Z"/><path class="cls-15" d="M337.57,361.65s.63.57.65,1a1.58,1.58,0,0,0,.57.89l-1.05.68-.27-.43-2.89,2.45-1.66,1.06s-.15-.35.36-1a5.43,5.43,0,0,1,1.1-1.12l.22.34a8.06,8.06,0,0,0,1.75-1.68A6.07,6.07,0,0,0,337.57,361.65Z"/><path class="cls-17" d="M274.5,325.5s1.26-5.66,7.24-15.06S292,297.21,292,297.21l5.67,4.12s-11.14,15.63-14.27,20a90.52,90.52,0,0,1-6.6,8.08Z"/><path class="cls-18" d="M274.5,325.5c-.22-1.85,1.26-5.66,7.24-15.06s8.89-11.87,8.89-11.87l3.23,2.1,4.74,3.74S286.5,317,283.37,321.33a90.52,90.52,0,0,1-6.6,8.08S274.71,327.35,274.5,325.5Z"/><path class="cls-17" d="M315.28,334.25s-3.94-3.75-10.38-12.84-10-13.83-10-13.83l6.72-3.9s10.27,16.23,13.12,20.78a91,91,0,0,1,5,9.16Z"/><path class="cls-19" d="M315.28,334.25s-3.94-3.75-10.38-12.84-10-13.83-10-13.83l6.72-3.9s10.27,16.23,13.12,20.78a91,91,0,0,1,5,9.16Z"/><path class="cls-20" d="M281.73,251.15a6.39,6.39,0,0,1,5.44-1.88c3.81.36,4.71,2.85,4.5,5.11-.34,3.54.28,4.36,1.3,5.53a6.81,6.81,0,0,1,1.91,5.35,8.69,8.69,0,0,1-5.35,2.55c-3.6.29-8.28-3.26-7.88-4.09.32-.64,4.75-2.12,2.66-4.11-1.59-1.52-.88-6.37-.88-6.37a3,3,0,0,1-1.4-1A1.79,1.79,0,0,1,281.73,251.15Z"/><path class="cls-10" d="M284.67,271.15s-15.36-2.06-16.57-2.38c-2.73-.72-7.09-1.38-7.09-1.38l-.2-2.53,7.34.67s15.3,1,15.66,1.19,1,2.37,1.93,3.55S285.42,271.33,284.67,271.15Z"/><path class="cls-21" d="M260.81,264.86l-7.15-1.2c-.08-.27-.23-.72-.37-1.05a8,8,0,0,1-.42-1.51c-.07-.86-.14-1.14-.5-1.33s-.25,2.18-.25,2.18a6.22,6.22,0,0,1-1-1.55c-.14-.37-1.16-2.09-1.38-1.88s.69,2.21.84,2.75c0,0-1.91-2.73-2.38-2.22-.15.16,1.11,1.67,1.78,2.51.13.17-2.07-1.91-2.34-1.36-.14.27,2.1,2.06,1.94,2.23s-2-1.3-2.3-.89c-.12.18,2.37,1.76,2.73,2a25.17,25.17,0,0,0,2.72,1.42,13.68,13.68,0,0,0,3,.9h0l4.55,1.35Z"/><polygon class="cls-12" points="259.89 268.11 261.81 268.36 260.81 264.86 260.18 264.54 259.89 268.11"/><path class="cls-22" d="M336.5,359.89l-1.47.94c-2-2.73-7.13-9.44-10.6-14.23-3.9-5.39-11.26-14.6-11.26-14.6s3-1.66,3.92-1.42c1.92.5,5.06,3.76,11.16,15C329.56,348,334.39,356.28,336.5,359.89Z"/><path class="cls-23" d="M298.84,293.89a18.67,18.67,0,0,1,4.74,7.78,46.75,46.75,0,0,1,1.71,7.76l-6,4.14s-5.77-6.6-6.68-9.89a8,8,0,0,0-3.14-4.59l5.79-3.25Z"/><path class="cls-24" d="M298.84,293.89l-.22-.49s-4.91,3.12-5.44,3.36l-3.91,1.81.21.52a20.9,20.9,0,0,0,4.08-1.61Z"/><path class="cls-25" d="M282.8,359c-.92-3.62-2.92-11.16-4.22-16.58-1.55-6.47-4-16.6-4-16.6s2.66-1.33,3.39-.78c1.58,1.2,3.19,5.17,4.56,17.88.27,2.58,1.47,11.3,2.08,15.72Z"/><path class="cls-15" d="M152.07,362.53l.12,2.33,1.79-.11v-.32a7.47,7.47,0,0,0,1.9.21c.87-.05,3.54,0,3.54,0a.75.75,0,0,0-.32-.82c-.61-.46-2.55-.55-3.36-1.06a13.15,13.15,0,0,0-2.12-1l-1.57.1Z"/><path class="cls-15" d="M94.36,359.3l-2.25.93.27,1.69.62-.06a3.47,3.47,0,0,0,1.11,1.72c.73.42,2.06,1.12,2.06,1.12a1,1,0,0,0,0-1c-.34-.78-.71-.94-1.2-1.86s.25-1.35.25-1.35L95,359Z"/><path class="cls-26" d="M129.29,354.15s6.16-13.33,8-20.71,3.39-12.75,3.39-12.75L130,318.94a63.11,63.11,0,0,0-2.35,9.23c-1,5.19-1.65,12.44-1.94,14.21-.62,3.71-2.66,14.3-2.66,14.3Z"/><path class="cls-27" d="M151.85,361.91l2.25-.59s4.06-32.33,3.69-32.47c-.88-.33-5.43-2.19-6.18,7.91S151.85,361.91,151.85,361.91Z"/><path class="cls-28" d="M157.72,328.13c-.59-1.67-4.19-3.47-9.9-4.88-6.21-1.54-6.31-2.5-6.31-2.5l-4.45-.44-5.58-.6s1.83,2.27,2.26,7.49a4.61,4.61,0,0,0,3.64,4.08s11.86.44,14.62,1.16,4-.38,4-.38S158.3,329.8,157.72,328.13Z"/><path class="cls-29" d="M149.63,280.69c-.29-.52-1.57,1.93-1.57,1.93a7.11,7.11,0,0,1,0-2.06c.09-.45.17-2.72-.16-2.65s-.7,2.54-.88,3.15c0,0-.16-3.78-.92-3.58-.24.06,0,2.28.16,3.48,0,.24-.8-3.08-1.4-2.73-.3.18,1,3,.71,3.1s-1.36-2.25-1.87-2c-.23.11,1.49,2.9,1.68,3.38.44,1.16,1,2.75,1,2.75l-6.53,9.07,3,2,5.35-10s.48-1.94.57-2.54a9.16,9.16,0,0,1,.53-1.7C149.75,281.4,149.86,281.1,149.63,280.69Z"/><path class="cls-30" d="M134.29,274.8a8.31,8.31,0,0,0,.34,3.48c.93,1.89.3,1.81.25,2.1-.1.54.49,2.65.33,3.06s-1,.6-1,.6l-.39,4.19-4.26,1.7-1.06-4.56.85-8.54Z"/><path class="cls-31" d="M123.88,276.57c-.79,4.24,4.65,8.8,4.65,8.8s4.45-.65,4.67-1.15a14,14,0,0,0-.14-3.2s-.9-.73-.68-1.52.58-.63.58-.63c.58.08.5.75.5.75l.48-.33a27.15,27.15,0,0,1-.32-3.79,1,1,0,0,1,.67-.7s-1.75-2.66-6.18-1.6A7.89,7.89,0,0,0,123.88,276.57Z"/><path class="cls-32" d="M125.5,293.74s15.19,5.36,15.94,4.87,4.32-5.63,4.32-5.63a37.61,37.61,0,0,0-3.81-2.14c-.16.12-2.27,2.79-2.27,2.79l-7.16-2.35Z"/><polygon class="cls-33" points="145.76 292.98 145.29 293.94 140.42 291.75 141.59 290.38 145.76 292.98"/><path class="cls-34" d="M129.38,321.07s-4.36-25.52-3.88-27.33a6.7,6.7,0,0,1,2.3-4c.8-.57.68-1,1.37-1.37,2.25-1.12,3.29-.51,4.39-.35.34.05.76.6,1.19.84,2.26,1.29,3.87,6.86,4.19,8.07a89,89,0,0,1,2.49,16.29c.12,3.34.11,6.75.11,6.75l-5.4,1.11Z"/><polygon class="cls-33" points="128.2 289.36 129.06 287.7 133.73 287.26 135 288.99 130.1 289.95 128.2 289.36"/><polygon class="cls-32" points="133.02 296.84 139.81 300.92 140.2 302.79 136.84 300.85 133.02 296.84"/><path class="cls-34" d="M131.87,294.43l-.3,1.54s13.44,8.22,14.58,8.43,4.22-7.73,4.22-7.73L147,294.52l-2.18,3.39-10.59-8.16a11.55,11.55,0,0,1-1.47,1.05C131.59,291.58,131.87,294.43,131.87,294.43Z"/><polygon class="cls-33" points="129.23 321.15 129.13 319.6 136.11 319.99 141.56 319.51 141.5 320.84 135.71 321.33 129.23 321.15"/><path class="cls-35" d="M156.86,281.09c-.47-.26-1.64,2.07-1.82,2s1.08-2.94.81-3.14c-.53-.41-1.68,2.71-1.63,2.48.24-1.15.74-3.25.52-3.34-.72-.27-1.26,3.36-1.26,3.36-.11-.61-.22-3-.52-3.13s-.47,2.1-.43,2.54a7,7,0,0,1-.19,2s-1-2.5-1.31-2-.19.67.15,1.55a7.68,7.68,0,0,1,.34,1.69,5.61,5.61,0,0,1-.63,1.85l-3.59,7.56,2.89,1.09,3.36-8.84h0a20.12,20.12,0,0,0,1.65-2.3C155.4,284,157.07,281.21,156.86,281.09Z"/><polygon class="cls-33" points="151.32 295.77 150.72 297.59 146.44 295.07 146.83 293.83 151.32 295.77"/><path class="cls-36" d="M94.76,359l-.07,2.34s27.18-3.59,31.46-4.84c4.94-1.44,4.74-5.22-5.61-3.62S94.76,359,94.76,359Z"/></svg>