<svg xmlns="http://www.w3.org/2000/svg" xmlns:xlink="http://www.w3.org/1999/xlink" viewBox="0 0 504 502.79"><defs><style>.cls-1{fill:url(#linear-gradient);}.cls-2{fill:url(#linear-gradient-2);}.cls-3{fill:#fff;}.cls-4{fill:url(#New_Gradient_Swatch_29);}.cls-5{fill:url(#New_Gradient_Swatch_29-2);}.cls-6{fill:url(#linear-gradient-3);}.cls-7{fill:url(#linear-gradient-4);}.cls-8{fill:url(#linear-gradient-5);}.cls-9{fill:url(#linear-gradient-6);}.cls-10{fill:url(#linear-gradient-7);}.cls-11{fill:url(#linear-gradient-8);}.cls-12{fill:#1d1d1b;}.cls-13{fill:#2b3441;}.cls-14{fill:url(#New_Gradient_Swatch_5);}.cls-15{fill:#aecb4d;}.cls-16{fill:url(#linear-gradient-9);}.cls-17{fill:url(#linear-gradient-10);}.cls-18{fill:url(#linear-gradient-11);}.cls-19{fill:url(#linear-gradient-12);}.cls-20{fill:url(#linear-gradient-13);}.cls-21{fill:url(#linear-gradient-14);}.cls-22{fill:url(#linear-gradient-15);}.cls-23{fill:url(#linear-gradient-16);}.cls-24{fill:url(#linear-gradient-17);}.cls-25{fill:#d4e4ef;}.cls-26{fill:url(#linear-gradient-18);}.cls-27{fill:url(#linear-gradient-19);}.cls-28{fill:#00b5cd;}.cls-29{fill:url(#linear-gradient-20);}.cls-30{fill:#cfd3d6;}.cls-31{fill:url(#linear-gradient-21);}.cls-32{fill:url(#linear-gradient-22);}.cls-33{fill:#e5f1fa;}.cls-34{fill:url(#linear-gradient-23);}.cls-35{fill:#2a3340;}.cls-36{fill:url(#linear-gradient-24);}.cls-37{fill:#0084ac;}.cls-38{fill:url(#linear-gradient-25);}</style><linearGradient id="linear-gradient" x1="122.2" y1="214.23" x2="396" y2="214.23" gradientUnits="userSpaceOnUse"><stop offset="0" stop-color="#323e50"/><stop offset="0.26" stop-color="#284457"/><stop offset="0.7" stop-color="#0c556a"/><stop offset="0.84" stop-color="#025b71"/></linearGradient><linearGradient id="linear-gradient-2" x1="315.2" y1="33.73" x2="198.01" y2="365.79" gradientUnits="userSpaceOnUse"><stop offset="0.2" stop-color="#adc94a"/><stop offset="0.28" stop-color="#a8c74d"/><stop offset="0.37" stop-color="#9bc254"/><stop offset="0.47" stop-color="#85b961"/><stop offset="0.56" stop-color="#66ad72"/><stop offset="0.66" stop-color="#3e9d89"/><stop offset="0.76" stop-color="#0d89a4"/><stop offset="0.79" stop-color="#0084ac"/><stop offset="0.99" stop-color="#046178"/></linearGradient><linearGradient id="New_Gradient_Swatch_29" x1="132.58" y1="405.13" x2="135.85" y2="27.57" gradientUnits="userSpaceOnUse"><stop offset="0" stop-color="#fff"/><stop offset="1" stop-color="#00b0e0"/></linearGradient><linearGradient id="New_Gradient_Swatch_29-2" x1="128.03" y1="316.86" x2="374.87" y2="316.86" gradientTransform="translate(-65.42 568.31) rotate(-90)" xlink:href="#New_Gradient_Swatch_29"/><linearGradient id="linear-gradient-3" x1="88.33" y1="454.47" x2="93.49" y2="435.94" gradientUnits="userSpaceOnUse"><stop offset="0.17" stop-color="#2a3340"/><stop offset="1" stop-color="#364879"/></linearGradient><linearGradient id="linear-gradient-4" x1="69.32" y1="453.49" x2="75.73" y2="434.04" xlink:href="#linear-gradient-3"/><linearGradient id="linear-gradient-5" x1="72.49" y1="419.53" x2="66.51" y2="358.65" gradientUnits="userSpaceOnUse"><stop offset="0" stop-color="#39485d"/><stop offset="1" stop-color="#2a3340"/></linearGradient><linearGradient id="linear-gradient-6" x1="80.27" y1="424.51" x2="75.71" y2="335.82" xlink:href="#linear-gradient-5"/><linearGradient id="linear-gradient-7" x1="61.25" y1="302.5" x2="58.05" y2="307.88" gradientTransform="translate(-4.72 -28.13) rotate(-1.83)" gradientUnits="userSpaceOnUse"><stop offset="0.23" stop-color="#a5532a"/><stop offset="0.38" stop-color="#af6136"/><stop offset="0.65" stop-color="#c98556"/><stop offset="1" stop-color="#f2bd88"/></linearGradient><linearGradient id="linear-gradient-8" x1="89.23" y1="214.12" x2="101.13" y2="214.12" gradientTransform="translate(-88.49 90.38) rotate(-17.81)" gradientUnits="userSpaceOnUse"><stop offset="0.21" stop-color="#a5532a"/><stop offset="0.33" stop-color="#ab5b31"/><stop offset="0.53" stop-color="#ba7144"/><stop offset="0.77" stop-color="#d49463"/><stop offset="1" stop-color="#f2bd88"/></linearGradient><linearGradient id="New_Gradient_Swatch_5" x1="83.89" y1="307.7" x2="88.82" y2="307.7" gradientTransform="matrix(1, -0.01, 0.01, 1, -0.21, -2.61)" gradientUnits="userSpaceOnUse"><stop offset="0.23" stop-color="#a5532a"/><stop offset="0.38" stop-color="#a8572d"/><stop offset="0.53" stop-color="#b06338"/><stop offset="0.68" stop-color="#bf774a"/><stop offset="0.83" stop-color="#d39262"/><stop offset="0.97" stop-color="#edb682"/><stop offset="1" stop-color="#f2bd88"/></linearGradient><linearGradient id="linear-gradient-9" x1="362.35" y1="458.56" x2="369.07" y2="439.98" gradientTransform="matrix(-1, 0, 0, 1, 626.08, 0)" xlink:href="#linear-gradient-3"/><linearGradient id="linear-gradient-10" x1="234.94" y1="311.84" x2="234.42" y2="318.23" gradientTransform="matrix(-0.18, -0.98, -1.08, 0.2, 620.15, 489.76)" gradientUnits="userSpaceOnUse"><stop offset="0" stop-color="#d68c53"/><stop offset="1" stop-color="#f5c48d"/></linearGradient><linearGradient id="linear-gradient-11" x1="234.67" y1="302.94" x2="282.97" y2="302.94" gradientUnits="userSpaceOnUse"><stop offset="0" stop-color="#39485d"/><stop offset="1" stop-color="#323e50"/></linearGradient><linearGradient id="linear-gradient-12" x1="342.82" y1="458.69" x2="349.08" y2="438.33" gradientTransform="matrix(-1, 0, 0, 1, 626.08, 0)" xlink:href="#linear-gradient-3"/><linearGradient id="linear-gradient-13" x1="343.1" y1="278.19" x2="339.35" y2="284.5" gradientTransform="matrix(-1, -0.06, -0.06, 1, 642.84, 10.61)" gradientUnits="userSpaceOnUse"><stop offset="0" stop-color="#d58b54"/><stop offset="1" stop-color="#f4c38c"/></linearGradient><linearGradient id="linear-gradient-14" x1="406.12" y1="241.34" x2="411.8" y2="234.63" gradientTransform="matrix(-1, 0.07, 0.07, 1, 676.02, 2.91)" xlink:href="#linear-gradient-13"/><linearGradient id="linear-gradient-15" x1="272.35" y1="388.62" x2="296.87" y2="359.01" xlink:href="#linear-gradient-11"/><linearGradient id="linear-gradient-16" x1="232.31" y1="429.99" x2="281.78" y2="391.43" xlink:href="#linear-gradient-11"/><linearGradient id="linear-gradient-17" x1="279.45" y1="285.91" x2="293.66" y2="341.41" xlink:href="#linear-gradient-11"/><linearGradient id="linear-gradient-18" x1="322.11" y1="317.24" x2="321.59" y2="323.58" gradientTransform="matrix(-0.98, -0.19, -0.21, 1.08, 670.07, 62.78)" xlink:href="#linear-gradient-10"/><linearGradient id="linear-gradient-19" x1="288.46" y1="349.24" x2="289.62" y2="293.4" xlink:href="#linear-gradient-11"/><linearGradient id="linear-gradient-20" x1="337.16" y1="464.71" x2="387.74" y2="161.25" gradientUnits="userSpaceOnUse"><stop offset="0.02" stop-color="#12100b"/><stop offset="0.14" stop-color="#121310"/><stop offset="0.27" stop-color="#101e1d"/><stop offset="0.41" stop-color="#0f2f34"/><stop offset="0.56" stop-color="#0c4653"/><stop offset="0.71" stop-color="#08657c"/><stop offset="0.86" stop-color="#0489ac"/><stop offset="1" stop-color="#00b0e0"/></linearGradient><linearGradient id="linear-gradient-21" x1="287.63" y1="107.12" x2="294.44" y2="101.04" gradientTransform="matrix(-1, -0.01, -0.01, 1, 622.75, 23.29)" xlink:href="#linear-gradient-13"/><linearGradient id="linear-gradient-22" x1="258.95" y1="192.34" x2="242.61" y2="212.54" gradientTransform="matrix(-0.97, -0.22, -0.22, 0.97, 624.67, 31.04)" xlink:href="#linear-gradient-13"/><linearGradient id="linear-gradient-23" x1="263.98" y1="269.27" x2="273.57" y2="269.27" gradientTransform="matrix(-1, 0, 0, 1, 604.62, 0)" xlink:href="#linear-gradient-13"/><linearGradient id="linear-gradient-24" x1="256.39" y1="269.04" x2="265.13" y2="269.04" gradientTransform="matrix(-1, 0, 0, 1, 604.62, 0)" xlink:href="#linear-gradient-13"/><linearGradient id="linear-gradient-25" x1="294.22" y1="151.25" x2="299.5" y2="144.21" gradientTransform="matrix(1, 0, 0, 1, 0, 0)" xlink:href="#linear-gradient-13"/></defs><g id="Layer_1" data-name="Layer 1"><rect class="cls-1" x="122.2" y="85.86" width="273.8" height="256.76"/><rect class="cls-2" x="116.57" y="81.26" width="273.8" height="254.76"/><path class="cls-3" d="M138.23,313l4.67-6.62,4.77-6.54,9.58-13.05.71-1,1.46.2c3.23.44,6.43,1,9.65,1.51l9.64,1.56-3.19,1.34c2.2-3.74,4.48-7.43,6.71-11.14L189,268.2l13.72-22.1L204,244l2.62.18,19.78,1.37-4.48,2.86c2-5.38,3.93-10.79,6-16.14l6.14-16.09,3.07-8.05,3.16-8,6.33-16,1.23-3.12,3.15.68c3.83.83,7.63,1.74,11.45,2.6l11.45,2.62-3.57,1.86c2-4.24,4.13-8.45,6.2-12.67l3.11-6.33,3.2-6.29,6.42-12.57c2.1-4.21,4.35-8.35,6.57-12.51l.46.2-22.7,51.61-.11.26-.28-.06-23-4.53.45-.25-12,32.27L226.52,250.1l-.13.34-.35,0-19.77-1.53.4-.2-28.28,43.64-.13.2-.23,0-19.12-3.92.3-.11-20.59,24.92Z"/><rect class="cls-4" x="133.34" y="101.42" width="1.85" height="219.83"/><rect class="cls-5" x="250.53" y="193.45" width="1.85" height="246.83" transform="translate(568.31 65.42) rotate(90)"/><path class="cls-6" d="M81.5,444.6s-.93,5.87.23,6.17,16.83,0,16.83,0,1.2-.58,0-1.18-8.48-1.73-9.74-2-3.73-3.5-3.73-3.5Z"/><path class="cls-7" d="M66.31,445.3s-1.15,5.41,0,5.45,9.88,0,9.88,0,.46-.84-1.17-1.72a8.89,8.89,0,0,1-3.24-2.52c-.49-.79-1.47-3.12-1.47-3.12l-4,1Z"/><path class="cls-8" d="M61.44,339.44c-.68,4.07,2.37,47.67,3,57.85s1.12,47.52,1.12,47.52l7.33.18s1.84-46.21,2-51.94.65-30.67.81-33.93-2.28-24.57-2.28-24.57Z"/><path class="cls-9" d="M83.77,345.65c0,.9,3.63,41.57,3.85,49.53s-1.46,49.14-1.46,49.14l-6,1.12s-2.12-46.73-2.46-51.54-4.86-32.61-5-33.06-3.17-3.47-4.51-6.83-.56-16.81-.56-16.81Z"/><path class="cls-10" d="M61.33,279.32a14.59,14.59,0,0,0,.27-3.54,17.93,17.93,0,0,0-1.26-5,61.65,61.65,0,0,1-1.15-6.19l3.15-1.82,5.11,6.76,2.77,2.81s-.77,4.26-1,6.43,2,4.64,2,4.64l-6.11,1.26-2.4-1.48Z"/><path class="cls-11" d="M66.77,258s1,0,1.94,1.93S70.35,263,70.35,263s3.83,1.82,3.56,2.35-1.46.82-1.46.82,3,5.43,1.86,5.79-5.14,2-7.89.52a7,7,0,0,1-2.33-2.69c-.2-.35-.39-.72-.58-1.09-1.21-2.41-2.1-5.08-2.64-5.49-.91-.69.45-5.07.45-5.07l3.48-.78A2.44,2.44,0,0,1,66.77,258Z"/><path class="cls-12" d="M86.27,314.34s-9.91.42-13-1.69-1.9-6.7,1.53-6.52,11.6,1.33,12.17,2.45S86.27,314.34,86.27,314.34Z"/><path class="cls-13" d="M66.5,257.77s1-1.48.29-2.32-5.75.47-8.26,1.68-6.48,3.55-4.39,10.06,7.13,6.56,7.13,6.56,1.85-2.65.38-4.06a5.52,5.52,0,0,1-1.68-2.1c-.48-1.18-.09-1.49.76-1.74s1.71.77,2.11,1.24,1.49.91,1.3-.6-1-1.9-1.75-3.11c-1.08-1.63,1.67-3.95,2.55-4.58S66.5,257.77,66.5,257.77Z"/><path class="cls-12" d="M61.19,278.83c0,.09-6.76,3.22-6.15,15.76s6.57,23.84,5.81,30.85S59.74,353,59.74,353s10,4.69,14.87,3.35a83.41,83.41,0,0,1,11-2S81.07,333,81.15,328.3s.56-19.06.75-23.12-1.91-16.9-4.5-19.34a63.1,63.1,0,0,0-7.7-6.27Z"/><path class="cls-12" d="M87.83,313.92c5-2.25-5-26.78-14.08-32.11-11.55-6.75-5.28,4.26-5.32,4.17s8.27,16.1,11.28,20.65S84,315.62,87.83,313.92Z"/><path class="cls-14" d="M86.46,302s-2.11,3.06-.6,4.65A6.09,6.09,0,0,0,89,308.53s1.46-1.26,1.21-2.5-1.71-5.17-2.46-5.3S86.46,302,86.46,302Z"/><path class="cls-15" d="M61.19,278.83l.24-1.22s8.31,1.16,8.31,1.22,0,.74,0,.74Z"/><path class="cls-16" d="M270.27,448.17s1,6.16-.25,6.48-17.64,0-17.64,0-1.26-.61,0-1.24,8.89-1.81,10.21-2.16,3.91-3.66,3.91-3.66Z"/><path class="cls-17" d="M239.52,324.86a16.6,16.6,0,0,1-4.85,1.72,16,16,0,0,1-5.3-.11c-1.26-.41-3.81-3.39-3.17-4.6s6.88-1.17,8.55-1.67a47.19,47.19,0,0,1,4.79-1l.61,5.41Z"/><path class="cls-18" d="M282.09,280.11c2,1.63,1,8.6-6.67,19.55-1.79,2.57-5.46,9.22-7.7,11.23s-12.24,8.36-15.78,10.52S239.52,327,239.52,327l-4.85-8.15s8.78-1.82,14.55-5.56,11.4-8,13.19-9.88c0,0,4.43-9.94,7-13.59s6.41-9.66,9-10.71S282.09,280.11,282.09,280.11Z"/><path class="cls-19" d="M286.19,448.91s1.21,5.67,0,5.72-10.36,0-10.36,0-.49-.88,1.23-1.81a9.33,9.33,0,0,0,3.4-2.64c.51-.83,1.53-3.28,1.53-3.28l4.16,1.08Z"/><path class="cls-20" d="M290.47,274.55a6.92,6.92,0,0,1-.49-3.26c.18-1.81-.85-4.9-.71-5.39a65.74,65.74,0,0,0-1.27-6.47l-3.77-.57-2.38,8.57-1.62,3.81a3.45,3.45,0,0,1,1.72,2.94,7.43,7.43,0,0,1-1.29,4.4l6.37,1.51,5-1.76Z"/><path class="cls-21" d="M278.08,255.91s-1,.41-1.16,2.64-.4,3.66-.4,3.66-3,3.25-2.56,3.66,1.73.23,1.73.23-.8,6.45.42,6.37,5.81,0,7.9-2.53a7.39,7.39,0,0,0,1.23-3.52q.09-.63.15-1.29c.25-2.82.09-5.76.46-6.37.62-1-2.39-4.78-2.39-4.78l-3.7.59A2.54,2.54,0,0,0,278.08,255.91Z"/><path class="cls-13" d="M278.26,255.61s-1.6-1-1.18-2.14,5.79-1.76,8.7-1.56,7.69,1,8.16,8.13-4.43,9.13-4.43,9.13-2.82-1.86-1.93-3.8a5.82,5.82,0,0,0,.83-2.7c0-1.33-.49-1.49-1.41-1.4s-1.38,1.41-1.58,2-1.11,1.46-1.5-.09.2-2.21.51-3.7c.42-2-3.16-3.21-4.26-3.48S278.26,255.61,278.26,255.61Z"/><path class="cls-22" d="M284.18,353.19c-1.41,3.53-4.58,6.7-4.74,7.17S274.55,390,274.2,395s-2.59,54-2.59,54l-6.23-1.18s-1.76-43.18-1.53-51.52c.16-5.91,2.74-33.74,4.23-49.84.61-6.59,1.05-11.22,1.05-11.57l.21-2.23,11.49.29,3.94,2.56S285.59,349.67,284.18,353.19Z"/><path class="cls-23" d="M291.29,337.92c.72,4.27-2.47,50-3.15,60.66S287,448.39,287,448.39l-7.69.19s-1.93-48.45-2.08-54.45-.68-32.15-.86-35.57,2.4-25.76,2.4-25.76Z"/><path class="cls-24" d="M290.59,274.82l-7.27,1,.55.29a32.12,32.12,0,0,0-6.37,20.2c.24,12.46,2.58,24.43,3.18,32.87a49.79,49.79,0,0,1,0,6.23s-2.91,12.33-2.76,12.36a3.82,3.82,0,0,0,.59.09,4.23,4.23,0,0,0,.5.05c5.4.3,15.82,2.11,15.82,2.11s-1.73-19.52-2.93-26.41c-1.26-7.28,4.6-17.95,5.23-31.08S290.6,274.92,290.59,274.82Z"/><path class="cls-25" d="M281.33,328.19a49.63,49.63,0,0,1,0,6.22l-12-1.68c0-.21,1.79-6.2,1.91-7.12A208.16,208.16,0,0,0,272.44,303c-.2-4.25-.23-16,2.63-20.85a18.39,18.39,0,0,1,7.28-7.06l1.62-.23.95-.08a32.77,32.77,0,0,0-6.77,20.58C278.39,307.77,280.73,319.75,281.33,328.19Z"/><path class="cls-25" d="M290.57,274.86l-.32-1.22s-8.37,1.54-8.37,1.6-.27.87-.27.87Z"/><path class="cls-26" d="M288.88,345.47s-.19,4.07.85,5.38a3.42,3.42,0,0,1,.18,4.15c-.83,1-4,3.13-4.89,2.09s-2.38-7.16-2.23-8.89a46.29,46.29,0,0,1,.84-4.81l5.26,1.41Z"/><path class="cls-27" d="M288.29,277.69c2.57-.22,6.29,3.15,8.48,16.33.51,3.08,0,16.42,0,19.43-.06,4.46-4.49,15.23-5,19.35-.88,7.25-.94,15.66-.94,15.66l-9.9-2s.87-13.31,3.19-19.79,2.2-8.86,2.37-10.17c0,0,.1-13.71-.58-18.15s-2-16.23-.88-18.8S288.29,277.69,288.29,277.69Z"/><path class="cls-28" d="M281.88,275.24l.75.87A21.44,21.44,0,0,0,275,291.6c-.21,4.46-.06,11,.18,17,.3,7.67-1.49,17.5-1.49,17.5l-2.3,1.64-.63-2.7a67.93,67.93,0,0,0,2.48-16.28c0-9.69.42-21.55,2.69-25.54C280,276.06,281.88,275.24,281.88,275.24Z"/><polygon class="cls-28" points="281.88 275.24 282.67 275.06 282.76 276.3 282.06 276.58 281.47 275.41 281.88 275.24"/><path class="cls-29" d="M390.79,476.87l4.92.13L357,257.16l-5.06-.11,1.86,10.49H318.1l-1.85-10.32-5.08-.17,38.88,219.82L355,477l-3.44-20.45h35.66Zm-50.11-81.66h35.67l4.54,25.67H345.22Zm23.94-66.34H329l-4.54-25.66h35.67Zm.88,5L370,359.54H334.37l-4.53-25.67Zm5.42,30.67,4.54,25.67H339.8l-4.54-25.67Zm-16.27-92,4.54,25.67H323.53L319,272.54Zm-4,179-4.54-25.67h35.66l4.54,25.67Z"/><path class="cls-25" d="M342.26,134.72s10.73,24.9,10,25.95-10.09,8-10.09,8l-1.65-3.47,5.55-6.25-6.76-14.73Z"/><polygon class="cls-30" points="341.13 168.76 338.27 164.19 339.98 162.15 342.04 168.99 341.13 168.76"/><path class="cls-31" d="M329,115.24a26.6,26.6,0,0,1-.9,5.3c-.23.63-.95,1.44-1,1.76s.47.29.52.58c.17.82-.31,3.91-.06,4.54s3.94.14,4.47,1.13c1,1.87-.62,5.7-.62,5.7l3.47,2.79,2.29-7-1.83-10.85Z"/><polygon class="cls-32" points="339.48 165.29 327.99 171.83 327.89 174.03 341 168.5 339.48 165.29"/><path class="cls-33" d="M342.37,177.84s.66.2.09-2.25c-.65-2.76-.07-5.82-.64-12.33-1-11.1.88-26.62-.56-28.44-.95-1.21-7-3.34-7-3.34l-.51,1.12s-8.18,12.41-8,14.1c.37,3.73.6,3.27,1,4.56,3.6,11.51,1.3,20.5.74,25.18a33.79,33.79,0,0,0-.26,5.32l5.86-.24Z"/><path class="cls-34" d="M331.32,296.78s3.89-1.39,4.4-2.54c.13-.28-1-17.22-1.41-28.22-.37-9.76-.65-23.36-.65-23.36s3.86-2.84,4.76-1.83c1.93,2.17,3.1,8.35,1.4,27-.47,5.15-1.77,27.09-1.77,27.09l-2.34,2.17-4.66.8Z"/><path class="cls-35" d="M338.05,295a3.11,3.11,0,0,1,0,1.79,2.3,2.3,0,0,0,0,1.55h-1.84v-.73l-5.51.73h-2.89s.09-.55,1.27-1a7.9,7.9,0,0,1,2.24-.51l0,.6a11.52,11.52,0,0,0,3.47-.69A8.9,8.9,0,0,0,338.05,295Z"/><path class="cls-36" d="M339.73,296.78s3.87-1.47,4.36-2.63c.12-.27-1.32-17.19-1.95-28.18-.56-9.75-1.78-23.67-1.78-23.67s4.48-2.94,5.39-2c2,2.13,3.28,8.65,1.93,27.36-.37,5.16-1.25,27.12-1.25,27.12l-2.3,2.22-4.64.89Z"/><path class="cls-35" d="M346.46,295a3.11,3.11,0,0,1,0,1.79,2.3,2.3,0,0,0,0,1.55h-1.84v-.73l-5.51.73h-2.88s.08-.55,1.26-1a7.9,7.9,0,0,1,2.24-.51l0,.6a11.6,11.6,0,0,0,3.48-.69A8.9,8.9,0,0,0,346.46,295Z"/><path class="cls-12" d="M326.29,193.73a64.14,64.14,0,0,1,1.11-11.17l9.42-2.5,5.79-1.46s4.17,6.77,4.44,14.05c.14,4-2,6.44-2.11,8.08,1.13,8.79,2.83,25.51,2.79,30.22s-.4,9-.69,11.85c1.16,3.58,1.66,10.75.64,24.91-.29,4-.88,18.1-1.14,24.23H344c-.35-5-1.34-17.31-1.84-26-.56-9.75-2.36-27-2.36-27h0a185.61,185.61,0,0,1-1.85-19.63c-.23-4.9-1.69-10.16-2.34-13.59l-7,.59S326.39,198.74,326.29,193.73Z"/><path class="cls-37" d="M342.52,178.61l-.15-.77s-8.1,2.63-8.95,2.78l-6.22,1.14.11.81a30.66,30.66,0,0,0,6.39-.79Z"/><path class="cls-12" d="M327.4,182.56,338,180.25s4.09,4.88,4.29,14.78c.09,4.39-3.35,7.41-3.36,7.91-.2,10.1,1.93,23.67,1.9,27.22a133.84,133.84,0,0,1-.91,13.85c.92,3.72,1.15,10.68-.05,23.86-.35,3.79-1.14,16.68-1.54,23.22h-2.67c-.29-5.47-1-16.9-1.3-25.07-.3-7.88-1.45-19.24-1.58-23.45-.53-3-1.22-7.39-3.11-24.09C326.47,190.68,327.4,182.56,327.4,182.56Z"/><path class="cls-38" d="M307.15,148.89l-9.87-4.36h0l-1.3-1a9.58,9.58,0,0,0-1.74-2.06c-.76-.53-2.47-1.75-2.51-1.16s1.74,1.95,1.74,1.95a6.38,6.38,0,0,0-2.18-.6c-1-.06-2-.45-2.09,0s-.1.21.47.8-.84.58,0,1.2-.71.63.68,1.24c.86.39-.16.76.81,1s3.21.52,3.21.52l2.43,1,9.05,4.72Z"/><path class="cls-13" d="M328.73,114.75a9.35,9.35,0,0,1,7.84-3.14c5.61.24,7.11,3.83,7,7.16-.24,5.21.73,6.37,2.31,8a10,10,0,0,1,3.19,7.71,12.75,12.75,0,0,1-7.66,4.12c-5.25.69-12.38-4.19-11.84-5.43.41-1,6.8-3.46,3.6-6.22-2.45-2.1-1.76-9.27-1.76-9.27a4.49,4.49,0,0,1-2.12-1.29A2.6,2.6,0,0,1,328.73,114.75Z"/><path class="cls-25" d="M334.7,148.14c-3.39,2.66-8.16,3.93-9.39,2.59s1.59-3.71,4.76-6.63,7.14-4.48,8-2.86S338.16,145.43,334.7,148.14Z"/><polygon class="cls-25" points="333.97 148.61 327.37 153.54 327 152.31 333.74 147.74 333.97 148.61"/></g><g id="Layer_2" data-name="Layer 2"><path class="cls-33" d="M336.7,145.27S320,158.07,317.26,157.4c-2.42-.6-10.84-5.08-10.84-5.08l.45-3.66,10.25,3.53s14.48-11.31,15.05-11.41a8.58,8.58,0,0,1,4.32-.4C338.61,140.85,337.83,144.31,336.7,145.27Z"/><polygon class="cls-37" points="305.09 152.53 307.63 153.54 307.27 148.23 306.51 147.55 305.09 152.53"/></g></svg>