<svg xmlns="http://www.w3.org/2000/svg" xmlns:xlink="http://www.w3.org/1999/xlink" viewBox="0 0 432 432"><defs><style>.cls-1{fill:none;}.cls-2{isolation:isolate;}.cls-3{opacity:0.5;fill:url(#linear-gradient);}.cls-12,.cls-3{mix-blend-mode:multiply;}.cls-4{fill:#d3e3ed;opacity:0.39;}.cls-5{fill:#35495e;}.cls-6{fill:#231f20;}.cls-7{fill:url(#linear-gradient-2);}.cls-8{fill:url(#linear-gradient-3);}.cls-9{fill:#c1d853;}.cls-10{fill:#68809f;}.cls-11{clip-path:url(#clip-path);}.cls-12{opacity:0.42;fill:url(#linear-gradient-4);}.cls-13{fill:url(#New_Gradient_Swatch_6);}.cls-14{fill:url(#linear-gradient-5);}.cls-15{fill:url(#linear-gradient-6);}.cls-16{fill:url(#linear-gradient-7);}</style><linearGradient id="linear-gradient" x1="360.21" y1="220.44" x2="378.56" y2="412.66" gradientTransform="matrix(0.98, 0, 0, 0.98, 0.82, 3.99)" gradientUnits="userSpaceOnUse"><stop offset="0" stop-color="#231f20" stop-opacity="0.5"/><stop offset="0.77" stop-color="#fff"/></linearGradient><linearGradient id="linear-gradient-2" x1="263.02" y1="231.2" x2="72.47" y2="231.2" gradientUnits="userSpaceOnUse"><stop offset="0"/><stop offset="0.2" stop-color="#141c24"/><stop offset="0.5" stop-color="#35495e"/></linearGradient><linearGradient id="linear-gradient-3" x1="200.87" y1="229.45" x2="298.63" y2="327.21" gradientUnits="userSpaceOnUse"><stop offset="0.01" stop-color="#8dac3d"/><stop offset="0.12" stop-color="#86a840"/><stop offset="0.28" stop-color="#719d49"/><stop offset="0.48" stop-color="#4f8a57"/><stop offset="0.71" stop-color="#21706a"/><stop offset="0.84" stop-color="#036077"/><stop offset="1" stop-color="#036077"/></linearGradient><clipPath id="clip-path"><polygon class="cls-1" points="120.09 293.06 129.59 289.62 183.05 308.4 173.55 311.83 120.09 293.06"/></clipPath><linearGradient id="linear-gradient-4" x1="1024.13" y1="141.72" x2="838.79" y2="249.48" gradientTransform="matrix(-0.97, 0.23, 0.23, 0.97, 1062.83, -85.16)" gradientUnits="userSpaceOnUse"><stop offset="0" stop-color="#231f20"/><stop offset="1" stop-color="#fff"/></linearGradient><linearGradient id="New_Gradient_Swatch_6" x1="128.52" y1="195.02" x2="138.45" y2="195.02" gradientUnits="userSpaceOnUse"><stop offset="0" stop-color="#ce8759"/><stop offset="1" stop-color="#f0bc87"/></linearGradient><linearGradient id="linear-gradient-5" x1="232.43" y1="127.99" x2="232.43" y2="354.77" gradientTransform="translate(-99.47)" gradientUnits="userSpaceOnUse"><stop offset="0.13" stop-color="#233446"/><stop offset="0.51" stop-color="#253647"/><stop offset="0.71" stop-color="#2d3e4a"/><stop offset="0.88" stop-color="#3a4c50"/><stop offset="1" stop-color="#495c56"/></linearGradient><linearGradient id="linear-gradient-6" x1="223.08" y1="183.15" x2="247.39" y2="211.54" gradientTransform="translate(-99.47)" gradientUnits="userSpaceOnUse"><stop offset="0.14" stop-color="#35495e"/><stop offset="0.41" stop-color="#374b60"/><stop offset="0.56" stop-color="#3e5365"/><stop offset="0.68" stop-color="#4a616f"/><stop offset="0.79" stop-color="#5c757c"/><stop offset="0.88" stop-color="#728e8e"/><stop offset="0.97" stop-color="#8daca3"/><stop offset="1" stop-color="#99baad"/></linearGradient><linearGradient id="linear-gradient-7" x1="316.3" y1="249.72" x2="125.75" y2="249.72" xlink:href="#linear-gradient-2"/></defs><g class="cls-2"><g id="Layer_1" data-name="Layer 1"><polygon class="cls-3" points="126 362.04 335.77 286.32 612 374.26 198.28 387 126 362.04"/><path class="cls-4" d="M245.11,90.28l-147,190a13.34,13.34,0,0,1-6.33,4.51L68.57,292.7a13.42,13.42,0,0,0-9.13,12.72v14a13.42,13.42,0,0,0,17.72,12.72l18.51-6.25L247.58,129.49v-.07l25-8.49a13.42,13.42,0,0,0,9.11-12.71v-14a13.42,13.42,0,0,0-17.74-12.71l-12.52,4.25A13.34,13.34,0,0,0,245.11,90.28Z"/><path class="cls-5" d="M72.82,334.87a15.49,15.49,0,0,1-15.4-15.46v-14a15.43,15.43,0,0,1,10.5-14.63l23.26-7.85a11.43,11.43,0,0,0,5.37-3.84l147-190a15.4,15.4,0,0,1,7.25-5.18l12.52-4.25A15.45,15.45,0,0,1,283.7,94.24v14a15.45,15.45,0,0,1-10.48,14.62l-24.34,8.27-152,196.48L77.81,334A15.77,15.77,0,0,1,72.82,334.87ZM246.7,91.51l-147,190.06a15.38,15.38,0,0,1-7.27,5.18L69.21,294.6a11.42,11.42,0,0,0-7.76,10.82v14a11.42,11.42,0,0,0,15.07,10.81l17.92-6.05L245.57,128.8V128l26.35-9a11.43,11.43,0,0,0,7.75-10.81v-14a11.43,11.43,0,0,0-15.09-10.81l-12.52,4.25a11.45,11.45,0,0,0-5.36,3.83Z"/><path class="cls-6" d="M72.82,334.87a15.49,15.49,0,0,1-15.4-15.46v-14a15.43,15.43,0,0,1,10.5-14.63l23.26-7.85a11.43,11.43,0,0,0,5.37-3.84l147-190a15.4,15.4,0,0,1,7.25-5.18l12.52-4.25A15.45,15.45,0,0,1,283.7,94.24v14a15.45,15.45,0,0,1-10.48,14.62l-24.34,8.27-152,196.48L77.81,334A15.77,15.77,0,0,1,72.82,334.87ZM246.7,91.51l-147,190.06a15.38,15.38,0,0,1-7.27,5.18L69.21,294.6a11.42,11.42,0,0,0-7.76,10.82v14a11.42,11.42,0,0,0,15.07,10.81l17.92-6.05L245.57,128.8V128l26.35-9a11.43,11.43,0,0,0,7.75-10.81v-14a11.43,11.43,0,0,0-15.09-10.81l-12.52,4.25a11.45,11.45,0,0,0-5.36,3.83Z"/><path class="cls-7" d="M263,125a7.51,7.51,0,0,0-9.82-7.15h0l-7,2.27a8.41,8.41,0,0,0-4,2.83L91.79,317.29v.06l-14.11,4.56a7.52,7.52,0,0,0-5.21,7.15V345l19.32-5.42.69-.89,8.8-2.81L252.62,140.2l10.4-3.37Z"/><polygon class="cls-8" points="287.49 164.54 91.6 338.72 92.16 338.92 91.6 339.12 145.06 357.9 338.58 287.26 338.58 148.22 287.49 164.54"/><polygon class="cls-9" points="234.02 145.77 285.11 129.45 338.58 148.22 287.49 164.54 234.02 145.77"/><polygon class="cls-10" points="234.02 145.77 287.49 164.54 287.49 173.36 234.02 154.59 234.02 145.77"/><polygon class="cls-9" points="224.53 158.02 234.02 154.59 287.49 173.36 277.99 176.8 224.53 158.02"/><polygon class="cls-10" points="224.53 158.02 277.99 176.8 277.99 185.62 224.53 166.85 224.53 158.02"/><polygon class="cls-9" points="215.03 170.29 224.53 166.86 277.99 185.63 268.5 189.06 215.03 170.29"/><polygon class="cls-10" points="215.03 170.29 268.5 189.06 268.5 197.89 215.03 179.12 215.03 170.29"/><polygon class="cls-9" points="205.53 182.55 215.03 179.11 268.5 197.89 259 201.32 205.53 182.55"/><polygon class="cls-10" points="205.53 182.6 259 201.38 259 210.2 205.53 191.43 205.53 182.6"/><polygon class="cls-9" points="196.04 194.86 205.54 191.42 259 210.2 249.51 213.63 196.04 194.86"/><polygon class="cls-10" points="196.04 194.86 249.51 213.63 249.51 222.46 196.04 203.68 196.04 194.86"/><polygon class="cls-9" points="186.54 207.12 196.04 203.68 249.51 222.46 240.01 225.89 186.54 207.12"/><polygon class="cls-10" points="186.54 207.12 240.01 225.89 240.01 234.72 186.54 215.94 186.54 207.12"/><polygon class="cls-9" points="177.05 219.39 186.54 215.95 240.01 234.72 230.51 238.16 177.05 219.39"/><polygon class="cls-10" points="177.05 219.39 230.51 238.16 230.51 246.98 177.05 228.21 177.05 219.39"/><polygon class="cls-9" points="167.55 231.64 177.05 228.21 230.51 246.98 221.02 250.42 167.55 231.64"/><polygon class="cls-10" points="167.55 231.7 221.02 250.47 221.02 259.29 167.55 240.52 167.55 231.7"/><polygon class="cls-9" points="158.07 243.97 167.57 240.53 221.03 259.3 211.54 262.74 158.07 243.97"/><polygon class="cls-10" points="158.07 243.97 211.54 262.74 211.54 271.56 158.07 252.79 158.07 243.97"/><polygon class="cls-9" points="148.57 256.22 158.07 252.79 211.54 271.56 202.04 275 148.57 256.22"/><polygon class="cls-10" points="148.57 256.22 202.04 275 202.04 283.82 148.57 265.05 148.57 256.22"/><polygon class="cls-9" points="139.08 268.49 148.57 265.06 202.04 283.83 192.54 287.26 139.08 268.49"/><polygon class="cls-10" points="139.08 268.49 192.54 287.26 192.54 296.09 139.08 277.31 139.08 268.49"/><polygon class="cls-9" points="129.58 280.75 139.08 277.31 192.54 296.09 183.05 299.52 129.58 280.75"/><polygon class="cls-10" points="129.58 280.8 183.05 299.57 183.05 308.4 129.58 289.63 129.58 280.8"/><polygon class="cls-9" points="120.09 293.06 129.59 289.62 183.05 308.4 173.55 311.83 120.09 293.06"/><polygon class="cls-10" points="120.09 293.06 173.55 311.83 173.55 320.66 120.09 301.88 120.09 293.06"/><polygon class="cls-9" points="110.59 305.32 120.09 301.88 173.55 320.65 164.06 324.09 110.59 305.32"/><polygon class="cls-10" points="110.59 305.32 164.06 324.09 164.06 332.91 110.59 314.14 110.59 305.32"/><polygon class="cls-9" points="101.1 317.58 110.59 314.15 164.06 332.92 154.56 336.36 101.1 317.58"/><polygon class="cls-10" points="101.1 317.58 154.56 336.36 154.56 345.18 101.1 326.41 101.1 317.58"/><polygon class="cls-9" points="91.6 329.84 101.1 326.41 154.56 345.18 145.06 348.62 91.6 329.84"/><polygon class="cls-10" points="91.6 329.9 145.06 348.67 145.06 357.49 91.6 338.72 91.6 329.9"/><polygon class="cls-9" points="82.1 339.01 91.6 335.57 145.06 354.35 135.57 357.78 82.1 339.01"/><polygon class="cls-10" points="82.1 339.06 135.57 357.84 135.57 360.58 82.1 341.81 82.1 339.06"/><g class="cls-11"><path class="cls-12" d="M270.62,339.42l1.63.5a60,60,0,0,0,13.56,5.19s6.56.32,11.3,0,4.69-2.22,4.69-2.22-2.78-.71-4.56-1.4c-2.2-.87-3.54-1.77-4.21-1.87a10.3,10.3,0,0,0-2.61,0,49.64,49.64,0,0,0-5.51-1.94,16.89,16.89,0,0,0-4.08.88l-3.62-.45-1.08-1h0c-1.45-1.48-13.5-5.08-25.67-9.7a324.12,324.12,0,0,0-32.25-9.92l-3.7.33-75-21.72c2.3-.25,2.53-.79,2.07-1.3l-5.23.28-2.6-.55,1.72.54-3.58.11-.11,0-.34,0h-.13l-3.06.4.11,0h-.1L204.38,319l-5.68.8s13.38,2.36,18.92,5.05,28.29,10.28,50.82,13.86l6.87-1h0l-6.87,1Zm-83.56-28.08-48.2-13.68C139.73,297.58,187.06,311.34,187.06,311.34Z"/></g><path class="cls-13" d="M137.59,188.8a12.23,12.23,0,0,0,0,3.09c.27,1.77,1,3.42.84,3.72-.27.54-1.21.53-1.21.53s.66,3.71.37,4.11-3.15-.46-3.15-.46l-1,1.46-4.94-.6v-1.11l3.67-8.85Z"/><path class="cls-14" d="M141.61,294.79a36.54,36.54,0,0,0-5.23.28c.88-.36,1.43-.65,1.17-.72a17.84,17.84,0,0,0-2.91.09l.29-49.19,2.17-.29a85.09,85.09,0,0,0,0-21.86c-1.59-11.65-1-21-3.92-21s-4.86,0-4.86,0c-5,10.2-4.07,25.19-3.94,31.23.12,5.44.38,12.22.38,12.22h3.76v51.58h.06v.07l2-.05.06,0h.23v-.07l1.78-.61,0,1.19,2-.06S142.49,295,141.61,294.79ZM132,260.86l.59,33.75-1.68.16Z"/><polygon class="cls-9" points="128.35 202.09 128.52 200.65 133.46 201.25 134.44 202.98 133.06 202.12 128.35 202.09"/><path class="cls-15" d="M127,188.8c-.94,3.37,1.52,10.74,1.52,10.74l4.2.71v-3.61s-1.17-1.64-.7-2.43.51-1.1,1.2-.78,1.22,2,1.22,2l.87-.39s-.31-3,0-3.53,2.28-2.67,2.28-2.67-2.73-2.82-5.4-2.35A14.21,14.21,0,0,0,127,188.8Z"/><path class="cls-4" d="M294.51,108.44l-147,190.06a13.39,13.39,0,0,1-6.33,4.5L118,310.86a13.42,13.42,0,0,0-9.13,12.72v14a13.42,13.42,0,0,0,17.72,12.72L145.07,344,297,147.65v-.07l25-8.48a13.43,13.43,0,0,0,9.11-12.72v-14a13.43,13.43,0,0,0-17.74-12.72l-12.52,4.25A13.4,13.4,0,0,0,294.51,108.44Z"/><path class="cls-5" d="M122.22,353a15.49,15.49,0,0,1-15.4-15.46v-14A15.43,15.43,0,0,1,117.32,309l23.26-7.85a11.43,11.43,0,0,0,5.37-3.84l147-190a15.4,15.4,0,0,1,7.25-5.18l12.52-4.25a15.45,15.45,0,0,1,20.41,14.63v14A15.45,15.45,0,0,1,322.62,141l-24.34,8.27-152,196.49-19.08,6.44A15.77,15.77,0,0,1,122.22,353ZM317.69,101a11.37,11.37,0,0,0-3.71.62l-12.52,4.25a11.36,11.36,0,0,0-5.36,3.82l-147,190.06a15.38,15.38,0,0,1-7.27,5.18l-23.26,7.86a11.4,11.4,0,0,0-7.76,10.81v14a11.42,11.42,0,0,0,15.07,10.81l17.92-6.05L295,147v-.82l26.35-8.95a11.43,11.43,0,0,0,7.75-10.81v-14A11.45,11.45,0,0,0,317.69,101Z"/><path class="cls-6" d="M122.22,353a15.49,15.49,0,0,1-15.4-15.46v-14A15.43,15.43,0,0,1,117.32,309l23.26-7.85a11.43,11.43,0,0,0,5.37-3.84l147-190a15.4,15.4,0,0,1,7.25-5.18l12.52-4.25a15.45,15.45,0,0,1,20.41,14.63v14A15.45,15.45,0,0,1,322.62,141l-24.34,8.27-152,196.49-19.08,6.44A15.77,15.77,0,0,1,122.22,353ZM317.69,101a11.37,11.37,0,0,0-3.71.62l-12.52,4.25a11.36,11.36,0,0,0-5.36,3.82l-147,190.06a15.38,15.38,0,0,1-7.27,5.18l-23.26,7.86a11.4,11.4,0,0,0-7.76,10.81v14a11.42,11.42,0,0,0,15.07,10.81l17.92-6.05L295,147v-.82l26.35-8.95a11.43,11.43,0,0,0,7.75-10.81v-14A11.45,11.45,0,0,0,317.69,101Z"/><path class="cls-16" d="M299.44,138.05a8.24,8.24,0,0,0-4,2.83L145.07,335.24v.06l-19.32,6.24.19,22.19,19.13-5.83,151.5-196.26h0l19.73-6.3V144.05a8.34,8.34,0,0,0-10.9-7.93Z"/></g></g></svg>