<svg xmlns="http://www.w3.org/2000/svg" xmlns:xlink="http://www.w3.org/1999/xlink" viewBox="0 0 566.83 566.83"><defs><style>.cls-1{isolation:isolate;}.cls-2{fill:url(#linear-gradient);}.cls-3{fill:url(#New_Gradient_Swatch_3);}.cls-4{fill:url(#linear-gradient-2);}.cls-5{fill:url(#linear-gradient-3);}.cls-6{fill:url(#linear-gradient-4);}.cls-7{fill:#c1d853;}.cls-8{fill:url(#linear-gradient-5);}.cls-9{fill:url(#linear-gradient-6);}.cls-10{fill:#35495e;}.cls-11{fill:url(#linear-gradient-7);}.cls-12{fill:url(#New_Gradient_Swatch_5);}.cls-13{fill:#adc94a;}.cls-14{fill:url(#New_Gradient_Swatch_5-2);}.cls-15{fill:#231f20;}.cls-16{fill:url(#New_Gradient_Swatch_5-3);}.cls-17{opacity:0.3;mix-blend-mode:multiply;}.cls-18{fill:url(#linear-gradient-8);}</style><linearGradient id="linear-gradient" x1="270.56" y1="297.83" x2="270.56" y2="363.29" gradientUnits="userSpaceOnUse"><stop offset="0.09" stop-color="#8dac3d"/><stop offset="0.11" stop-color="#86a840"/><stop offset="0.25" stop-color="#588f53"/><stop offset="0.39" stop-color="#337a62"/><stop offset="0.52" stop-color="#196c6d"/><stop offset="0.64" stop-color="#096374"/><stop offset="0.73" stop-color="#036076"/></linearGradient><linearGradient id="New_Gradient_Swatch_3" x1="347.95" y1="272.78" x2="347.95" y2="356.17" xlink:href="#linear-gradient"/><linearGradient id="linear-gradient-2" x1="414.37" y1="289.09" x2="330.74" y2="549.09" gradientUnits="userSpaceOnUse"><stop offset="0.09" stop-color="#8dac3d"/><stop offset="0.1" stop-color="#8aab3e"/><stop offset="0.64" stop-color="#297566"/><stop offset="0.88" stop-color="#036076"/></linearGradient><linearGradient id="linear-gradient-3" x1="205.81" y1="350.56" x2="205.81" y2="637.41" gradientUnits="userSpaceOnUse"><stop offset="0.01" stop-color="#8dac3d"/><stop offset="0.17" stop-color="#61944f"/><stop offset="0.34" stop-color="#397e60"/><stop offset="0.5" stop-color="#1b6d6c"/><stop offset="0.63" stop-color="#096473"/><stop offset="0.73" stop-color="#036076"/></linearGradient><linearGradient id="linear-gradient-4" x1="170.9" y1="378.07" x2="116.35" y2="594.44" gradientUnits="userSpaceOnUse"><stop offset="0.05" stop-color="#8dac3d"/><stop offset="0.14" stop-color="#85a740"/><stop offset="0.28" stop-color="#6e9b4a"/><stop offset="0.46" stop-color="#4a8759"/><stop offset="0.65" stop-color="#176b6e"/><stop offset="0.73" stop-color="#036076"/></linearGradient><linearGradient id="linear-gradient-5" x1="419.61" y1="163.1" x2="442.15" y2="163.1" gradientTransform="matrix(0.81, -0.02, -0.02, 1, 61.47, 7.26)" gradientUnits="userSpaceOnUse"><stop offset="0" stop-color="#d08859"/><stop offset="0.07" stop-color="#da9867"/><stop offset="0.17" stop-color="#e5a976"/><stop offset="0.31" stop-color="#ecb480"/><stop offset="0.49" stop-color="#f1bb86"/><stop offset="1" stop-color="#f2bd88"/></linearGradient><linearGradient id="linear-gradient-6" x1="408.52" y1="250.64" x2="413.3" y2="250.64" gradientTransform="translate(2.41 -4.54) rotate(0.64)" gradientUnits="userSpaceOnUse"><stop offset="0" stop-color="#d08859"/><stop offset="0.07" stop-color="#d89564"/><stop offset="0.2" stop-color="#e4a774"/><stop offset="0.35" stop-color="#ecb380"/><stop offset="0.56" stop-color="#f1bb86"/><stop offset="1" stop-color="#f2bd88"/></linearGradient><linearGradient id="linear-gradient-7" x1="412.94" y1="251.38" x2="417.72" y2="251.38" xlink:href="#linear-gradient-6"/><linearGradient id="New_Gradient_Swatch_5" x1="841.91" y1="166.36" x2="841.91" y2="258.47" gradientTransform="translate(-424.14 -23.2) rotate(1.73)" gradientUnits="userSpaceOnUse"><stop offset="0.13" stop-color="#233446"/><stop offset="0.51" stop-color="#253647"/><stop offset="0.71" stop-color="#2d3e4a"/><stop offset="0.88" stop-color="#3a4c50"/><stop offset="1" stop-color="#495c56"/></linearGradient><linearGradient id="New_Gradient_Swatch_5-2" x1="841.94" y1="202.98" x2="841.94" y2="257.6" xlink:href="#New_Gradient_Swatch_5"/><linearGradient id="New_Gradient_Swatch_5-3" x1="404.15" y1="197.96" x2="417.45" y2="197.96" gradientTransform="matrix(1, -0.06, 0.07, 1.07, -18.74, 2.95)" xlink:href="#New_Gradient_Swatch_5"/><linearGradient id="linear-gradient-8" x1="448.28" y1="235.13" x2="187.08" y2="387.01" gradientUnits="userSpaceOnUse"><stop offset="0" stop-color="#231f20"/><stop offset="1" stop-color="#fff"/></linearGradient></defs><g class="cls-1"><g id="Layer_1" data-name="Layer 1"><polygon class="cls-2" points="238.57 296.6 302.55 301.97 302.55 334.16 238.57 346.01 238.57 296.6"/><polygon class="cls-3" points="302.55 301.97 302.55 334.16 393.34 318.06 388.29 296.35 387.3 271.21 309.71 286.01 302.55 301.97"/><polygon class="cls-4" points="473.36 279.89 473.36 566.83 240.23 566.83 240.23 369.35 289.34 338.36 473.36 279.89"/><polygon class="cls-5" points="171.39 363.56 240.23 369.35 240.23 566.83 171.39 566.83 171.39 363.56"/><polygon class="cls-6" points="87.96 407.22 198.9 386.89 198.9 566.83 87.57 566.83 87.96 407.22"/><path class="cls-7" d="M443.8,312c-29.68,15.25-81,22.61-117.93,28.15-10.92,1.65-20.17,3-27.27,4.24a115.79,115.79,0,0,0-19.06,6.11c-10,4.06-21.74,9.85-35.8,17.07l-3.51,1.81-68.84-5.78,3.51-1.81c25.78-13.25,41.06-20.83,57.19-26.48,16.08-5.89,31.83-9.24,53.86-11.59,11.9-1.1,30.51-3.27,47.25-6.07,20.5-3.42,34.44-7.15,42.64-11.36,25.39-13.05,5.12-16.62-5-17.47-28.68-2.41-55,6.36-65.13,11.58l-3.13,1.6-64-5.37,3.12-1.61a223.72,223.72,0,0,1,34.69-14.13,345.53,345.53,0,0,1,43.92-11.49c34.88-7.11,70.34-9.5,101.68-6.87,15,1.26,26.73,3.42,35.57,6.26,7.62,3.21,13.62,7,15.81,11.13,1.8,4.36-.13,9.57-4.64,14.79C463.81,300.1,455.52,306,443.8,312ZM187.14,400.84c-9.37,4.82-22.82,8.83-37.84,11.53a153.62,153.62,0,0,1-40.21,2.46c-11.92-1-19.82-3.53-21.13-7.61-1.74-4.11,2.44-8.9,11.81-13.71,9.76-5,22.77-9.07,37.79-11.77,14.19-2.55,28.74-3.43,40.65-2.43,11.48,1,19,3.7,20.69,7.58C200.65,391,196.91,395.83,187.14,400.84Z"/><path class="cls-8" d="M415,154.82a29.45,29.45,0,0,0,1.67,3.09,14.81,14.81,0,0,0,2.08,2s-1.8.31-1.83,1.7.2,2.17-.19,2.71-1.27,1-3.17.67-1.42-.34-1.42-.34a6.13,6.13,0,0,0-.53,1.55,22.4,22.4,0,0,0,.07,2.31s-.53,0-1.53,1.35-9.9-6.41-9.72-11,2.92-8.25,4.89-9.06c3.95-1.63,5.55-.18,6,.28a3.46,3.46,0,0,1,.53,1.57s2.27-.09,2.86,1.14A2.76,2.76,0,0,1,415,154.82Z"/><polygon class="cls-9" points="408.4 224.01 408.37 273 409.55 276.4 412.59 277.31 410.8 274.25 412.47 224.54 408.4 224.01"/><path class="cls-10" d="M408.37,273a4.39,4.39,0,0,0-.84,1.55c-.29.95.44,1.28.45,1.85s0,3.42,0,3.42h.17l.39-3.14a7.57,7.57,0,0,1,1.49,1c1,.79,1.11,2.39,2.23,2.55s3.66.29,3.66.29a16.52,16.52,0,0,1-2.62-2.25,10.78,10.78,0,0,1-.67-1.08,6.1,6.1,0,0,1-2.51-1.44A6.26,6.26,0,0,1,408.37,273Z"/><polygon class="cls-11" points="412.82 224.8 412.78 273.8 413.96 277.2 417 278.1 415.21 275.04 416.88 225.34 412.82 224.8"/><path class="cls-12" d="M404.56,169.29s-.44,14.39,2,25c.93,4-3.48,13.8-3.48,13.8l16.13-.4s-2.44-2.3-3-8.65c-.22-2.4,1.16-10.33.6-14.75-.21-1.66,2.51-.35,1.58-5.44-.52-2.82-4.67-9.07-4.67-9.07Z"/><polygon class="cls-13" points="404.56 169.29 405.45 167.47 413.95 168.94 417.26 175.81 412.62 170.39 404.56 169.29"/><path class="cls-14" d="M405.84,205.57s-2.18,4.43-2,6.61c.38,5.14,2.68,7.67,2.74,9.16s.87,6.92.87,6.92L417,229s1.74-16.56,1.32-19.13-.67-3.87-.67-3.87Z"/><path class="cls-10" d="M412.78,273.8a4.39,4.39,0,0,0-.84,1.55c-.29.95.44,1.28.45,1.86s0,3.42,0,3.42h.16l.39-3.15a7.09,7.09,0,0,1,1.49,1c1,.79,1.11,2.39,2.23,2.55s3.66.28,3.66.28a16.52,16.52,0,0,1-2.62-2.25c-.48-.72-.67-1.08-.67-1.08a6.1,6.1,0,0,1-2.51-1.44A6.21,6.21,0,0,1,412.78,273.8Z"/><ellipse class="cls-15" cx="403.94" cy="153.71" rx="6.45" ry="6.41" transform="translate(245.74 555.91) rotate(-89.36)"/><ellipse class="cls-15" cx="408.35" cy="151.33" rx="4.67" ry="4.65" transform="translate(252.48 557.96) rotate(-89.36)"/><ellipse class="cls-15" cx="401.97" cy="158.5" rx="5.04" ry="5.02" transform="translate(239 558.68) rotate(-89.36)"/><ellipse class="cls-15" cx="405.58" cy="163.29" rx="4.67" ry="4.65" transform="translate(237.77 567.03) rotate(-89.36)"/><ellipse class="cls-15" cx="408.46" cy="158.23" rx="3.09" ry="3.08" transform="translate(245.68 564.9) rotate(-89.36)"/><ellipse class="cls-15" cx="412.8" cy="153.65" rx="3.35" ry="3.33" transform="translate(254.56 564.71) rotate(-89.36)"/><path class="cls-16" d="M410.24,172.64c-.63-1.61-2.39-1.64-2.85-.79-3.11,5.82-9.3,18.55-9,19.32s3.47,3.81,5,5.25c.43.41,7.08,7,7.43,6.56l.78-1.12c.25-.36-5.72-7.54-6-7.89l-2.2-2.8a1,1,0,0,1-.09-1.1s6.06-10.88,7.29-13.26a1.5,1.5,0,0,0,.13-.91Z"/><g class="cls-17"><path class="cls-18" d="M415.82,280l-3.23-.49-8.23,2.31,4.4-2.38-29.23,10.61a28.94,28.94,0,0,1,4,1.18l21.08-8.34Zm.86.56-31,11.72a4.86,4.86,0,0,1,2.24,2.42l32.45-13.9Zm-106.9,40.46-36.06,13.65,33.77-13.36c-7.53.94-14.52,1.7-20.19,2.24L175.75,364.1l42,3.56,117.6-50.39-2.18.38C325.5,318.93,317.42,320.08,309.78,321.06Z"/></g></g></g></svg>