<svg xmlns="http://www.w3.org/2000/svg" xmlns:xlink="http://www.w3.org/1999/xlink" viewBox="0 0 432 432"><defs><style>.cls-1{fill:none;}.cls-2{isolation:isolate;}.cls-3{fill:url(#linear-gradient);}.cls-4{fill:url(#linear-gradient-2);}.cls-5{fill:url(#linear-gradient-3);}.cls-6{fill:url(#linear-gradient-4);}.cls-7{fill:url(#linear-gradient-5);}.cls-8{fill:url(#linear-gradient-6);}.cls-9{fill:url(#linear-gradient-7);}.cls-10{fill:url(#linear-gradient-8);}.cls-11{fill:#c1d853;}.cls-12{fill:url(#linear-gradient-9);}.cls-13{fill:url(#linear-gradient-10);}.cls-14{fill:url(#linear-gradient-11);}.cls-15{fill:url(#linear-gradient-12);}.cls-16{clip-path:url(#clip-path);}.cls-17{opacity:0.3;fill:url(#linear-gradient-13);}.cls-17,.cls-26,.cls-27{mix-blend-mode:multiply;}.cls-18{fill:url(#New_Gradient_Swatch_3);}.cls-19{fill:url(#linear-gradient-14);}.cls-20{fill:url(#linear-gradient-15);}.cls-21{fill:url(#linear-gradient-16);}.cls-22{fill:url(#linear-gradient-17);}.cls-23{fill:url(#linear-gradient-18);}.cls-24{fill:url(#linear-gradient-19);}.cls-25{fill:url(#linear-gradient-20);}.cls-26,.cls-27{opacity:0.42;}.cls-26{fill:url(#linear-gradient-21);}.cls-27{fill:url(#linear-gradient-22);}</style><linearGradient id="linear-gradient" x1="277.2" y1="265.04" x2="353.84" y2="-11.67" gradientUnits="userSpaceOnUse"><stop offset="0.14" stop-color="#35495e"/><stop offset="0.42" stop-color="#374b60"/><stop offset="0.58" stop-color="#3f5365"/><stop offset="0.71" stop-color="#4c616f"/><stop offset="0.82" stop-color="#5f747c"/><stop offset="0.87" stop-color="#6c8286"/></linearGradient><linearGradient id="linear-gradient-2" x1="194.91" y1="284.94" x2="269.14" y2="-8.98" xlink:href="#linear-gradient"/><linearGradient id="linear-gradient-3" x1="142.6" y1="231.9" x2="185.1" y2="128.83" xlink:href="#linear-gradient"/><linearGradient id="linear-gradient-4" x1="115.69" y1="238.67" x2="122.19" y2="204.39" gradientUnits="userSpaceOnUse"><stop offset="0.1" stop-color="#314559"/><stop offset="0.16" stop-color="#314559"/><stop offset="0.18" stop-color="#314559"/><stop offset="0.4" stop-color="#34485b"/><stop offset="0.56" stop-color="#3d5162"/><stop offset="0.7" stop-color="#4c606d"/><stop offset="0.82" stop-color="#61767d"/><stop offset="0.87" stop-color="#6c8286"/></linearGradient><linearGradient id="linear-gradient-5" x1="106.07" y1="240.81" x2="111.57" y2="224.79" gradientUnits="userSpaceOnUse"><stop offset="0.1" stop-color="#314559"/><stop offset="0.39" stop-color="#33475b"/><stop offset="0.56" stop-color="#3b4f61"/><stop offset="0.69" stop-color="#485d6b"/><stop offset="0.8" stop-color="#5b7079"/><stop offset="0.87" stop-color="#6c8286"/></linearGradient><linearGradient id="linear-gradient-6" x1="103.12" y1="236.66" x2="104.33" y2="232.08" gradientUnits="userSpaceOnUse"><stop offset="0.13" stop-color="#233446"/><stop offset="0.51" stop-color="#253647"/><stop offset="0.71" stop-color="#2d3e4a"/><stop offset="0.88" stop-color="#3a4c50"/><stop offset="1" stop-color="#495c56"/></linearGradient><linearGradient id="linear-gradient-7" x1="103.95" y1="235.65" x2="104.64" y2="231.94" xlink:href="#linear-gradient-6"/><linearGradient id="linear-gradient-8" x1="103.64" y1="237.83" x2="106.37" y2="229.01" xlink:href="#linear-gradient-6"/><linearGradient id="linear-gradient-9" x1="129.38" y1="307.53" x2="6.87" y2="438.9" gradientUnits="userSpaceOnUse"><stop offset="0" stop-color="#8dac3d"/><stop offset="0.08" stop-color="#84a741"/><stop offset="0.21" stop-color="#6b994b"/><stop offset="0.38" stop-color="#41835d"/><stop offset="0.58" stop-color="#096474"/><stop offset="0.6" stop-color="#026077"/></linearGradient><linearGradient id="linear-gradient-10" x1="105.45" y1="298.24" x2="141.4" y2="432.39" gradientUnits="userSpaceOnUse"><stop offset="0.05" stop-color="#8dac3d"/><stop offset="0.19" stop-color="#89aa3f"/><stop offset="0.33" stop-color="#7ca344"/><stop offset="0.47" stop-color="#68984d"/><stop offset="0.62" stop-color="#4a8859"/><stop offset="0.76" stop-color="#257368"/><stop offset="0.88" stop-color="#026077"/></linearGradient><linearGradient id="linear-gradient-11" x1="276.64" y1="269.07" x2="120.66" y2="436.34" gradientUnits="userSpaceOnUse"><stop offset="0" stop-color="#8dac3d"/><stop offset="0.08" stop-color="#84a741"/><stop offset="0.21" stop-color="#6b994b"/><stop offset="0.38" stop-color="#41835d"/><stop offset="0.58" stop-color="#096474"/><stop offset="0.6" stop-color="#026077"/></linearGradient><linearGradient id="linear-gradient-12" x1="232.69" y1="253.92" x2="280.1" y2="430.87" gradientUnits="userSpaceOnUse"><stop offset="0.05" stop-color="#8dac3d"/><stop offset="0.15" stop-color="#89aa3f"/><stop offset="0.25" stop-color="#7ca344"/><stop offset="0.36" stop-color="#68984d"/><stop offset="0.46" stop-color="#4a8859"/><stop offset="0.57" stop-color="#257368"/><stop offset="0.65" stop-color="#026077"/></linearGradient><clipPath id="clip-path"><polygon class="cls-1" points="59.51 288.19 101.19 302.63 142.87 288.19 142.87 198.5 59.51 198.5 59.51 288.19"/></clipPath><linearGradient id="linear-gradient-13" x1="3005.27" y1="376.48" x2="2913.4" y2="429.91" gradientTransform="matrix(-1, -0.08, -3.82, 0.7, 4555.59, 254.47)" gradientUnits="userSpaceOnUse"><stop offset="0" stop-color="#231f20"/><stop offset="1" stop-color="#fff"/></linearGradient><linearGradient id="New_Gradient_Swatch_3" x1="99.36" y1="235.95" x2="104.53" y2="235.95" gradientUnits="userSpaceOnUse"><stop offset="0" stop-color="#d08859"/><stop offset="1" stop-color="#f2bd88"/></linearGradient><linearGradient id="linear-gradient-14" x1="-793.74" y1="229.94" x2="-781.44" y2="244.31" gradientTransform="translate(890.62)" gradientUnits="userSpaceOnUse"><stop offset="0.14" stop-color="#35495e"/><stop offset="0.41" stop-color="#374b60"/><stop offset="0.56" stop-color="#3e5365"/><stop offset="0.68" stop-color="#4a616f"/><stop offset="0.79" stop-color="#5c757c"/><stop offset="0.88" stop-color="#728e8e"/><stop offset="0.97" stop-color="#8daca3"/><stop offset="1" stop-color="#99baad"/></linearGradient><linearGradient id="linear-gradient-15" x1="-776.33" y1="259.25" x2="-808.56" y2="269.96" gradientTransform="translate(890.62)" xlink:href="#linear-gradient-6"/><linearGradient id="linear-gradient-16" x1="101.7" y1="245.81" x2="117.18" y2="234.87" xlink:href="#linear-gradient-6"/><linearGradient id="linear-gradient-17" x1="228.06" y1="243.13" x2="277.3" y2="130.62" gradientUnits="userSpaceOnUse"><stop offset="0.14" stop-color="#35495e"/><stop offset="0.33" stop-color="#394d61"/><stop offset="0.53" stop-color="#445969"/><stop offset="0.72" stop-color="#586d77"/><stop offset="0.87" stop-color="#6c8286"/></linearGradient><linearGradient id="linear-gradient-18" x1="220.53" y1="240.89" x2="264.39" y2="140.67" xlink:href="#linear-gradient"/><linearGradient id="linear-gradient-19" x1="207.78" y1="236.71" x2="234.85" y2="174.86" gradientUnits="userSpaceOnUse"><stop offset="0.14" stop-color="#35495e"/><stop offset="0.42" stop-color="#374b60"/><stop offset="0.58" stop-color="#3f5365"/><stop offset="0.71" stop-color="#4c616f"/><stop offset="0.82" stop-color="#5f747c"/><stop offset="0.87" stop-color="#6c8286"/><stop offset="0.93" stop-color="#7f9996"/><stop offset="1" stop-color="#99baad"/></linearGradient><linearGradient id="linear-gradient-20" x1="210.8" y1="237.78" x2="240.13" y2="170.75" xlink:href="#linear-gradient"/><linearGradient id="linear-gradient-21" x1="235.19" y1="249.85" x2="235.19" y2="258.43" gradientTransform="matrix(1, 0, 0, 1, 0, 0)" xlink:href="#linear-gradient-13"/><linearGradient id="linear-gradient-22" x1="200.99" y1="234.43" x2="200.99" y2="246.71" gradientTransform="matrix(1, 0, 0, 1, 0, 0)" xlink:href="#linear-gradient-13"/></defs><g class="cls-2"><g id="Layer_1" data-name="Layer 1"><ellipse cx="268.18" cy="139.68" rx="22.57" ry="42.27" transform="translate(-33.91 152.81) rotate(-30)"/><path class="cls-3" d="M386.76,72c-11.68-20.22-29.89-31.56-40.69-25.33l-99,56.36c10.79-6.23,29,5.11,40.68,25.33s12.39,41.66,1.59,47.89l99-56.36C399.14,113.7,398.43,92.25,386.76,72Z"/><ellipse cx="182.3" cy="189.5" rx="14.75" ry="27.63" transform="translate(-70.33 116.54) rotate(-30)"/><path class="cls-4" d="M277.82,134.12c-7.62-13.22-19.53-20.63-26.58-16.55l-82.75,48c7-4.07,18.95,3.34,26.58,16.55s8.1,27.23,1,31.3l82.75-48C285.92,161.34,285.45,147.33,277.82,134.12Z"/><path d="M130.61,220.7c4.58,7.93,4.86,16.34.63,18.79s-11.38-2-16-9.94-4.86-16.34-.62-18.78S126,212.77,130.61,220.7Z"/><path class="cls-5" d="M188.42,186.57c-4.58-7.93-11.72-12.38-16-9.93l-57.8,34.13c4.23-2.45,11.37,2,16,9.93s4.86,16.34.63,18.79L189,205.35C193.28,202.91,193,194.5,188.42,186.57Z"/><ellipse cx="111.22" cy="232.47" rx="3.9" ry="7.3" transform="translate(-101.33 86.76) rotate(-30)"/><path class="cls-6" d="M126.3,223.76c-2-3.49-5.15-5.44-7-4.37l-11.7,6.76c1.86-1.07,5,.88,7,4.37s2.13,7.19.27,8.27L126.58,232C128.44,231,128.32,227.25,126.3,223.76Z"/><path d="M107.22,234.78c.81,1.4.86,2.89.11,3.32s-2-.35-2.82-1.75-.86-2.9-.11-3.33S106.41,233.38,107.22,234.78Z"/><path class="cls-7" d="M111.93,232.06c-.81-1.4-2.07-2.19-2.82-1.76L104.4,233c.75-.43,2,.36,2.82,1.76s.86,2.89.11,3.32l4.71-2.72C112.79,235,112.74,233.46,111.93,232.06Z"/><path class="cls-8" d="M103.74,235.2c.17.31.18.64,0,.74s-.42-.08-.59-.39-.18-.65,0-.74S103.57,234.89,103.74,235.2Z"/><path class="cls-9" d="M104.4,234.7c.18.31.19.64,0,.74s-.44-.08-.62-.39-.2-.65,0-.74S104.22,234.39,104.4,234.7Z"/><path class="cls-10" d="M105.44,234.09c-.18-.31-.46-.48-.62-.39l-1,.61c.17-.1.45.08.63.39s.19.64,0,.74l1-.61C105.64,234.74,105.62,234.41,105.44,234.09Z"/><polygon class="cls-11" points="142.87 288.22 101.19 273.75 59.51 288.22 101.19 303.04 142.87 288.22"/><polygon class="cls-12" points="59.51 288.22 59.51 432 101.19 432 101.19 302.75 59.51 288.22"/><polygon class="cls-13" points="142.87 288.22 101.19 302.75 101.19 432 142.87 432 142.87 288.22"/><polygon class="cls-11" points="275.8 242.37 234.12 227.93 192.44 242.37 234.12 256.81 275.8 242.37"/><polygon class="cls-14" points="192.44 242.37 192.44 431.99 234.12 431.67 234.12 256.81 192.44 242.37"/><polygon class="cls-15" points="275.8 242.37 234.12 256.83 234.12 431.67 275.8 432.02 275.8 242.37"/><g class="cls-16"><path class="cls-17" d="M23.33,317.49l-.89.35A86.07,86.07,0,0,0,13,321.13a1.1,1.1,0,0,0,.7,1.3c.95.44,4.59-.18,4.59-.18s1.22-.55,2.49-1c1.57-.54,3.25-1,3.42-1.1s-.17-.3-.17-.3,3.32-1.12,3.49-1.28-1.94-.19-1.94-.19l.69-.57,1.88-.45h0c2.81-.66,9.19-3.24,17.56-6.18,10.19-3.57,17.63-7,17.63-7l-.85-.33,40.18-16.13c.62.19,2.33-1.06,3.31-1.28l-1.45.59-1-.23-1,.38a5.34,5.34,0,0,0-.41-.38l.06,0-.11,0h0l-1-.23-.06,0h0L59.53,303.08l-1.88-.4a44.56,44.56,0,0,1-8.83,3.86c-5,1.53-18.55,6.68-24.3,10.48l2.27.48h0L24.52,317Zm50.3-19,26.8-11C100.65,287.61,73.63,298.53,73.63,298.53Z"/><path class="cls-18" d="M104,232.8a6.52,6.52,0,0,0,0,1.56c.14.9.64,1.58.57,1.74s-.75.42-.75.42a8.62,8.62,0,0,1,.18,2.07c-.15.21-1.59-.23-1.59-.23l-.49.74-2.51-.3v-.56l1.86-4.49Z"/><polygon class="cls-11" points="99.36 239.54 99.36 238.79 101.86 239.1 102.36 239.97 101.66 239.54 99.36 239.54"/><path class="cls-19" d="M98.59,232.8c-.47,1.71.77,5.44.77,5.44l2.13.35v-1.82s-.59-.83-.36-1.23.26-.56.61-.4.62,1,.62,1l.44-.19a6.61,6.61,0,0,1,0-1.79A17.24,17.24,0,0,1,104,232.8s-1.38-1.43-2.73-1.19A7.22,7.22,0,0,0,98.59,232.8Z"/><path class="cls-20" d="M106,286.44a19.55,19.55,0,0,0-2.65.14c.45-.18.73-.32.59-.36a8.2,8.2,0,0,0-1.47,0l.15-24.9,1.09-.15a42.49,42.49,0,0,0,0-11.06c-.36-2.67-.5-5.1-.68-7l-.25-1.93c-.21-1.09-.51-1.73-1-1.73H99.36a16.37,16.37,0,0,0-1.11,3.16l-3.42,7.77,3.35,8.16a13.36,13.36,0,0,1-.72,2.89h1.9v26.1h0v0l1,0h.14v0l.9-.3v.6l1,0S106.43,286.55,106,286.44Zm-9.53-35.68,1-2.15a32.33,32.33,0,0,0,.23,5.27Zm4.12,35.67.55-17.16.3,17.08Z"/><polygon class="cls-21" points="100.69 244.91 107.58 247.89 110.15 235.16 108.67 234.65 106.83 246.26 101.19 241.13 100.69 244.91"/></g><polygon class="cls-22" points="241.24 254.34 261.38 247.37 229.84 173.48 221.2 178.45 241.24 254.34"/><polygon class="cls-23" points="241.29 254.34 235.98 252.5 229.45 222.19 221.2 178.45 241.29 254.34"/><polygon class="cls-24" points="204.41 238.22 221.2 232.41 216.23 201.69 210 205.28 204.41 238.22"/><polygon class="cls-25" points="204.41 238.22 209.54 240.21 227.21 234.6 219.67 199.7 210 205.28 204.41 238.22"/><polygon class="cls-26" points="241.29 254.34 234.12 256.81 229.09 255.07 235.98 252.5 241.29 254.34"/><polygon class="cls-27" points="209.54 240.21 198.26 244.39 192.44 242.37 204.41 238.22 209.54 240.21"/></g></g></svg>