<?xml version="1.0" encoding="UTF-8" standalone="no"?>
<!DOCTYPE svg PUBLIC "-//W3C//DTD SVG 20010904//EN"
              "http://www.w3.org/TR/2001/REC-SVG-20010904/DTD/svg10.dtd">

<svg xmlns="http://www.w3.org/2000/svg"
     width="65.8764mm" height="65.8764mm"
     viewBox="0 0 389 389">
  <path id="hair"
        fill="none" stroke="black" stroke-width="1"
        d="M 294.31,49.33
           C 293.60,49.38 292.23,48.97 292.43,47.96
             292.55,47.82 292.81,46.97 293.52,46.39
             294.07,45.88 295.69,45.07 296.81,44.80
             298.03,44.50 299.70,44.18 302.00,45.06
             303.44,45.38 305.83,47.72 305.88,49.03
             305.88,49.03 306.27,54.66 305.84,56.06
             305.75,57.25 306.73,59.18 308.07,59.80
             310.62,61.45 311.00,65.03 311.00,65.03
             311.09,65.67 310.99,69.70 303.06,70.00
             301.77,69.93 297.31,68.75 294.73,67.09
             292.27,65.36 293.47,63.36 295.09,63.09
             296.28,63.02 299.36,60.34 295.18,56.64
             294.11,56.21 294.87,51.29 294.91,50.73
             294.92,50.73 295.09,49.24 294.31,49.33 Z" />
</svg>
