<?xml version="1.0" encoding="UTF-8" standalone="no"?>
<!DOCTYPE svg PUBLIC "-//W3C//DTD SVG 20010904//EN"
              "http://www.w3.org/TR/2001/REC-SVG-20010904/DTD/svg10.dtd">

<svg xmlns="http://www.w3.org/2000/svg"
     width="65.8764mm" height="65.8764mm"
     viewBox="0 0 389 389">
  <path id="ladder"
        fill="black" stroke="black" stroke-width="1"
        d="M 316.00,388.00
           C 316.00,388.00 312.68,369.00 312.68,369.00
             312.68,369.00 347.68,369.00 347.68,369.00
             347.68,369.00 351.00,388.00 351.00,388.00
             351.00,388.00 355.00,388.00 355.00,388.00
             355.00,388.00 319.00,182.00 319.00,182.00
             319.00,182.00 315.00,182.00 315.00,182.00
             315.00,182.00 316.75,192.00 316.75,192.00
             316.75,192.00 281.75,192.00 281.75,192.00
             281.75,192.00 280.00,182.00 280.00,182.00
             280.00,182.00 276.00,182.00 276.00,182.00
             276.00,182.00 312.00,388.00 312.00,388.00
             312.00,388.00 316.00,388.00 316.00,388.00 Z
           M 342.79,341.00
           C 342.79,341.00 307.79,341.00 307.79,341.00
             307.79,341.00 311.98,365.00 311.98,365.00
             311.98,365.00 346.98,365.00 346.98,365.00
             346.98,365.00 342.79,341.00 342.79,341.00 Z
           M 337.72,312.00
           C 337.72,312.00 302.72,312.00 302.72,312.00
             302.72,312.00 307.09,337.00 307.09,337.00
             307.09,337.00 342.09,337.00 342.09,337.00
             342.09,337.00 337.72,312.00 337.72,312.00 Z
           M 332.65,283.00
           C 332.65,283.00 297.65,283.00 297.65,283.00
             297.65,283.00 302.02,308.00 302.02,308.00
             302.02,308.00 337.02,308.00 337.02,308.00
             337.02,308.00 332.65,283.00 332.65,283.00 Z
           M 327.58,254.00
           C 327.58,254.00 292.58,254.00 292.58,254.00
             292.58,254.00 296.95,279.00 296.95,279.00
             296.95,279.00 331.95,279.00 331.95,279.00
             331.95,279.00 327.58,254.00 327.58,254.00 Z
           M 322.52,225.00
           C 322.52,225.00 287.52,225.00 287.52,225.00
             287.52,225.00 291.88,250.00 291.88,250.00
             291.88,250.00 326.88,250.00 326.88,250.00
             326.88,250.00 322.52,225.00 322.52,225.00 Z
           M 317.45,196.00
           C 317.45,196.00 282.45,196.00 282.45,196.00
             282.45,196.00 286.82,221.00 286.82,221.00
             286.82,221.00 321.81,221.00 321.81,221.00
             321.81,221.00 317.45,196.00 317.45,196.00 Z" />
</svg>
