<?xml version="1.0" encoding="UTF-8" standalone="no"?>
<!DOCTYPE svg PUBLIC "-//W3C//DTD SVG 20010904//EN"
              "http://www.w3.org/TR/2001/REC-SVG-20010904/DTD/svg10.dtd">

<svg xmlns="http://www.w3.org/2000/svg"
     width="65.8764mm" height="65.8764mm"
     viewBox="0 0 389 389">
  <path id="left-leg"
        fill="none" stroke="black" stroke-width="1"
        d="M 304.88,172.25
           C 304.12,169.38 299.34,149.07 298.09,141.82
             296.00,133.18 293.87,111.25 293.88,111.25
             293.88,111.25 305.25,108.12 305.25,108.12
             306.62,111.81 314.25,123.56 307.09,127.64
             308.00,131.91 309.69,152.00 309.38,161.94
             309.24,164.35 309.76,170.89 309.88,172.06
             310.17,174.73 310.04,184.55 310.12,190.75
             310.16,197.38 309.56,204.81 309.00,214.00
             309.00,214.00 307.00,214.00 307.00,214.00
             306.41,211.00 305.36,178.91 304.88,172.25 Z" />
</svg>
