<?xml version="1.0" encoding="UTF-8" standalone="no"?>
<!DOCTYPE svg PUBLIC "-//W3C//DTD SVG 20010904//EN"
              "http://www.w3.org/TR/2001/REC-SVG-20010904/DTD/svg10.dtd">

<svg xmlns="http://www.w3.org/2000/svg"
     width="65.8764mm" height="65.8764mm"
     viewBox="0 0 389 389">
  <path id="right-shoe"
        fill="none" stroke="black" stroke-width="1"
        d="M 303.00,219.00
           C 303.24,220.63 306.88,218.85 308.00,218.00
             308.17,217.87 308.72,217.72 309.00,218.00
             309.07,218.14 309.12,220.60 308.99,221.02
             308.99,221.02 307.12,221.03 307.12,221.03
             307.09,220.99 306.95,220.12 306.98,220.02
             307.01,219.64 305.21,220.98 302.40,221.02
             301.49,220.98 300.41,220.49 300.09,220.35
             299.93,220.25 300.45,220.02 300.62,219.84
             301.23,219.34 303.02,218.99 303.00,219.00 Z
           M 328.19,215.30
           C 328.19,215.30 326.44,217.47 326.45,217.45" />
</svg>
