<?xml version="1.0" encoding="UTF-8" standalone="no"?>
<!DOCTYPE svg PUBLIC "-//W3C//DTD SVG 20010904//EN"
              "http://www.w3.org/TR/2001/REC-SVG-20010904/DTD/svg10.dtd">

<svg xmlns="http://www.w3.org/2000/svg"
     width="79.5936mm" height="58.2557mm"
     viewBox="0 0 470 344">
  <path id="man-body"
        fill="none" stroke="black" stroke-width="1"
        d="M 164.00,151.00
           C 167.38,148.90 184.65,133.67 188.00,122.00
             188.00,121.00 185.13,118.86 185.00,119.00
             191.12,116.17 196.11,104.00 198.00,99.00
             198.00,98.85 199.06,96.36 197.00,97.00
             197.00,97.00 172.00,105.00 172.00,105.00
             170.88,105.58 166.22,102.40 167.00,102.00
             167.64,102.47 170.27,103.00 171.00,103.00
             171.82,103.32 200.00,91.01 200.00,91.00
             206.00,89.00 207.01,91.99 207.00,92.00
             209.10,103.75 197.00,119.00 197.00,119.00
             196.88,118.96 207.79,118.22 210.00,119.00
             210.00,119.00 231.00,130.00 231.00,130.00
             231.00,130.00 232.00,131.00 231.00,132.00
             224.80,130.11 208.00,123.00 208.00,123.00
             206.00,122.00 194.64,124.49 191.64,125.49
             182.73,140.17 168.00,150.50 165.64,152.49
             165.16,152.45 164.00,151.00 164.00,151.00 Z" />
</svg>
