<?xml version="1.0" encoding="UTF-8" standalone="no"?>
<!DOCTYPE svg PUBLIC "-//W3C//DTD SVG 20010904//EN"
              "http://www.w3.org/TR/2001/REC-SVG-20010904/DTD/svg10.dtd">

<svg xmlns="http://www.w3.org/2000/svg"
     width="79.5936mm" height="58.2557mm"
     viewBox="0 0 470 344">
  <defs>
    <linearGradient id="left-fill" gradientTransform="rotate(90)">
      <stop stop-color="#A5BB00" offset="0%"/>
      <!--      <stop stop-color="#036780" offset="50%"/>-->
      <stop stop-color="#009FBC" offset="100%"/>
    </linearGradient>
    <linearGradient id="man-face" gradientTransform="rotate(90)">
      <stop offset="0%" stop-color="#f5c18b"/>
      <stop offset="80%" stop-color="#de955d"/>
      <stop offset="100%" stop-color="#de955d"/>
    </linearGradient >
  </defs>
  <g id="step-group">
    <path id="arrow-back"
          fill="#8EAC1D" stroke="#8EAC1D" stroke-width="1"
          d="M 318.00,43.00
             C 318.00,43.00 318.00,56.00 318.00,56.00
               318.00,56.00 328.61,55.81 333.00,54.00
               334.12,53.54 335.00,49.00 335.00,49.00
               335.00,49.00 318.00,43.00 318.00,43.00 Z" />
    <path id="first-left"
          fill="url(#left-fill)" stroke="url(#left-fill)" stroke-width="1"
          d="M 21.00,308.00
             C 21.00,308.00 72.00,325.00 72.00,325.00
               72.00,325.00 72.00,284.00 72.00,284.00
               72.00,284.00 21.00,267.00 21.00,267.00
               21.00,267.00 21.00,308.00 21.00,308.00 Z" />
    <path id="second-left"
          fill="url(#left-fill)" stroke="url(#left-fill)" stroke-width="1"
          d="M 113.00,277.00
             C 113.00,277.00 113.00,198.00 113.00,198.00
               113.00,198.00 164.00,215.00 164.00,215.00
               164.00,215.00 164.00,294.00 164.00,294.00
               164.00,294.00 113.00,277.00 113.00,277.00 Z" />
    <path id="third-left"
          fill="url(#left-fill)" stroke="url(#left-fill)" stroke-width="1"
          d="M 200.00,247.00
             C 200.00,247.00 200.00,134.00 200.00,134.00
               200.00,134.00 251.00,151.00 251.00,151.00
               251.00,151.00 251.00,264.00 251.00,264.00
               251.00,264.00 200.00,247.00 200.00,247.00 Z" />
    <path id="fouth-left"
          fill="url(#left-fill)" stroke="url(#left-fill)" stroke-width="1"
          d="M 284.00,216.17
             C 284.00,216.17 284.00,68.00 284.00,68.00
               284.00,68.00 335.00,85.00 335.00,85.00
               335.00,85.00 335.00,233.17 335.00,233.17
               335.00,233.17 284.00,216.17 284.00,216.17 Z" />
    <path id="arrow-left"
          fill="url(#left-fill)" stroke="url(#left-fill)" stroke-width="1"
          d="M 388.00,215.00
             C 388.00,215.00 388.00,67.00 388.00,67.00
               388.00,67.00 413.00,76.00 413.00,76.00
               413.00,76.00 413.00,223.01 413.00,223.01
               413.00,223.01 388.00,215.00 388.00,215.00 Z" />
    <path id="first-right"
          fill="#A5BB00" stroke="#A5BB00" stroke-width="1"
          d="M 72.00,325.00
             C 72.00,325.00 72.00,284.00 72.00,284.00
               72.00,284.00 123.00,267.00 123.00,267.00
               123.00,267.00 123.00,308.00 123.00,308.00
               123.00,308.00 72.00,325.00 72.00,325.00 Z
             M 164.00,215.00
             C 164.00,215.00 164.00,294.00 164.00,294.00
               164.00,294.00 215.00,277.00 215.00,277.00
               215.00,277.00 215.00,198.00 215.00,198.00
               215.00,198.00 164.00,215.00 164.00,215.00 Z
             M 302.00,247.00
             C 302.00,247.00 302.00,134.00 302.00,134.00
               302.00,134.00 251.00,151.00 251.00,151.00
               251.00,151.00 251.00,264.00 251.00,264.00
               251.00,264.00 302.00,247.00 302.00,247.00 Z
             M 335.00,233.00
             C 335.00,233.00 335.00,85.00 335.00,85.00
               335.00,85.00 388.00,67.00 388.00,67.00
               388.00,67.00 388.00,215.00 388.00,215.00
               388.00,215.00 335.00,233.00 335.00,233.00 Z
             M 435.00,185.00
             C 435.00,185.00 413.00,223.00 413.00,223.00
               413.00,223.00 413.00,76.00 413.00,76.00
               413.00,76.00 435.00,38.00 435.00,38.00
               435.00,38.00 435.00,185.00 435.00,185.00 Z" />
    <path id="fourth-top"
          fill="#c1d853" stroke="#c1d853" stroke-width="1"
          d="M 435.00,38.00
             C 435.00,38.00 413.00,76.00 413.00,76.00
               413.00,76.00 388.00,67.00 388.00,67.00
               388.00,67.00 335.00,85.00 335.00,85.00
               335.00,85.00 284.00,68.00 284.00,68.00
               284.00,68.00 335.00,49.00 335.00,49.00
               335.00,49.00 318.00,43.00 318.00,43.00
               318.00,43.00 435.00,38.00 435.00,38.00 Z
             M 369.00,158.00M 200.00,134.00
             C 200.00,134.00 251.00,115.00 251.00,115.00
               251.00,115.00 302.00,134.00 302.00,134.00
               302.00,134.00 251.00,151.00 251.00,151.00
               251.00,151.00 200.00,134.00 200.00,134.00 Z
             M 113.00,198.00
             C 113.00,198.00 164.00,179.00 164.00,179.00
               164.00,179.00 215.00,198.00 215.00,198.00
               215.00,198.00 164.00,215.00 164.00,215.00
               164.00,215.00 113.00,198.00 113.00,198.00 Z
             M 21.00,267.00
             C 21.00,267.00 72.00,248.00 72.00,248.00
               72.00,248.00 123.00,267.00 123.00,267.00
               123.00,267.00 72.00,284.00 72.00,284.00
               72.00,284.00 21.00,267.00 21.00,267.00 Z" />
  </g>
  <g id="mad-group">
    <path id="man-left-foot"
          fill="#1a1617" stroke="#1a1617" stroke-width="1"
          d="M 163.00,158.00
             C 164.57,155.49 164.64,153.14 165.00,153.00
               166.07,152.24 166.13,151.24 166.00,151.33
               166.00,151.33 164.53,151.00 164.53,151.00
               164.60,151.11 162.94,152.09 162.36,151.89
               162.61,152.13 163.01,152.66 163.30,153.00
               163.92,154.00 163.00,158.00 163.00,158.00 Z" />
    <path id="man-right-foot"
          fill="#1a1617" stroke="#1a1617" stroke-width="1"
          d="M 231.00,130.41
             C 230.98,130.18 237.96,125.58 238.00,126.00
               238.79,126.53 232.24,132.16 232.00,132.00
               231.69,132.29 230.61,131.51 230.66,131.47
               230.66,131.47 231.00,130.41 231.00,130.41 Z
             M 236.53,130.75" />
    <path id="man-head"
          fill="url(#man-face)" stroke="url(#man-face)" stroke-width="1"
          d="M 206.72,93.00
             C 206.65,93.00 207.37,90.48 208.41,90.47
               208.41,90.47 210.69,91.53 212.00,91.25
               211.72,90.64 211.93,87.84 212.00,88.00
               212.41,88.12 212.70,88.10 213.00,88.00
               212.93,87.97 212.64,80.88 213.50,81.25
               213.50,81.25 209.00,80.25 209.00,80.25
               209.00,80.25 206.00,86.00 206.00,86.00
               206.00,87.00 206.00,88.56 203.53,90.69" />
    <path id="man-hair"
          fill="#364a5e" stroke="#364a5e" stroke-width="1"
          d="M 205.47,88.00
             C 205.95,88.20 207.24,89.71 208.00,88.00
               208.33,87.29 207.88,85.42 208.00,84.48
               208.01,84.08 208.33,83.75 208.78,84.00
               209.47,84.36 210.00,85.95 210.58,86.00
               211.42,86.12 211.06,84.30 211.05,84.00
               210.89,82.90 213.00,82.20 213.00,82.20
               215.22,81.52 211.01,79.20 211.00,79.20
               206.60,77.91 205.00,81.76 205.00,82.00
               204.75,83.42 205.00,87.20 205.47,88.00 Z" />
    <path id="man-body"
          fill="#231f20" stroke="#231f20" stroke-width="1"
          d="M 164.00,151.00
             C 167.38,148.90 184.65,133.67 188.00,122.00
               188.00,121.00 185.13,118.86 185.00,119.00
               191.12,116.17 196.11,104.00 198.00,99.00
               198.00,98.85 199.06,96.36 197.00,97.00
               197.00,97.00 172.00,105.00 172.00,105.00
               170.88,105.58 166.22,102.40 167.00,102.00
               167.64,102.47 170.27,103.00 171.00,103.00
               171.82,103.32 200.00,91.01 200.00,91.00
               206.00,89.00 207.01,91.99 207.00,92.00
               209.10,103.75 197.00,119.00 197.00,119.00
               196.88,118.96 207.79,118.22 210.00,119.00
               210.00,119.00 231.00,130.00 231.00,130.00
               231.00,130.00 232.00,131.00 231.00,132.00
               224.80,130.11 208.00,123.00 208.00,123.00
               206.00,122.00 194.64,124.49 191.64,125.49
               182.73,140.17 168.00,150.50 165.64,152.49
               165.16,152.45 164.00,151.00 164.00,151.00 Z" />
  </g>
</svg>
