<?xml version="1.0" encoding="UTF-8" standalone="no"?>
<!DOCTYPE svg PUBLIC "-//W3C//DTD SVG 20010904//EN"
              "http://www.w3.org/TR/2001/REC-SVG-20010904/DTD/svg10.dtd">

<svg xmlns="http://www.w3.org/2000/svg"
     width="79.5936mm" height="79.5936mm"
     viewBox="0 0 470 470">
  <defs>
    <linearGradient id="left-fill" gradientTransform="rotate(90)">
      <stop stop-color="#A5BB00" offset="0%"/>
<!--      <stop stop-color="#036780" offset="50%"/>-->
      <stop stop-color="#009FBC" offset="100%"/>
    </linearGradient>
    <linearGradient id="man-face" gradientTransform="rotate(90)">
      <stop offset="0%" stop-color="#f5c18b"/>
      <stop offset="80%" stop-color="#de955d"/>
      <stop offset="100%" stop-color="#de955d"/>
    </linearGradient >
  </defs>
  <g id="step-group">
    <path id="arrow-back"
          fill="#8EAC1D" stroke="#8EAC1D" stroke-width="1"
          d="M 318.00,95.00
             C 318.00,95.00 318.00,108.00 318.00,108.00
               318.00,108.00 328.61,107.81 333.00,106.00
               334.12,105.54 335.00,101.00 335.00,101.00
               335.00,101.00 318.00,95.00 318.00,95.00 Z" />
    <path id="first-left"
          fill="url(#left-fill)" stroke="url(#left-fill)" stroke-width="1"
          d="M 21.00,360.00
             C 21.00,360.00 72.00,377.00 72.00,377.00
               72.00,377.00 72.00,336.00 72.00,336.00
               72.00,336.00 21.00,319.00 21.00,319.00
               21.00,319.00 21.00,360.00 21.00,360.00 Z" />
    <path id="second-left"
          fill="url(#left-fill)" stroke="url(#left-fill)" stroke-width="1"
          d="M 113.00,329.00
             C 113.00,329.00 113.00,250.00 113.00,250.00
               113.00,250.00 164.00,267.00 164.00,267.00
               164.00,267.00 164.00,346.00 164.00,346.00
               164.00,346.00 113.00,329.00 113.00,329.00 Z" />
    <path id="third-left"
          fill="url(#left-fill)" stroke="url(#left-fill)" stroke-width="1"
          d="M 200.00,299.00
             C 200.00,299.00 200.00,186.00 200.00,186.00
               200.00,186.00 251.00,203.00 251.00,203.00
               251.00,203.00 251.00,316.00 251.00,316.00
               251.00,316.00 200.00,299.00 200.00,299.00 Z" />
    <path id="fouth-left"
          fill="url(#left-fill)" stroke="url(#left-fill)" stroke-width="1"
          d="M 284.00,268.17
             C 284.00,268.17 284.00,120.00 284.00,120.00
               284.00,120.00 335.00,137.00 335.00,137.00
               335.00,137.00 335.00,285.17 335.00,285.17
               335.00,285.17 284.00,268.17 284.00,268.17 Z" />
    <path id="arrow-left"
          fill="url(#left-fill)" stroke="url(#left-fill)" stroke-width="1"
          d="M 388.00,267.00
             C 388.00,267.00 388.00,119.00 388.00,119.00
               388.00,119.00 413.00,128.00 413.00,128.00
               413.00,128.00 413.00,275.01 413.00,275.01
               413.00,275.01 388.00,267.00 388.00,267.00 Z" />
    <path id="fourth-top"
          fill="#c1d853" stroke="#c1d853" stroke-width="1"
          d="M 435.00,90.00
             C 435.00,90.00 413.00,128.00 413.00,128.00
               413.00,128.00 388.00,119.00 388.00,119.00
               388.00,119.00 335.00,137.00 335.00,137.00
               335.00,137.00 284.00,120.00 284.00,120.00
               284.00,120.00 335.00,101.00 335.00,101.00
               335.00,101.00 318.00,95.00 318.00,95.00
               318.00,95.00 435.00,90.00 435.00,90.00 Z
             M 369.00,210.00M 200.00,186.00
             C 200.00,186.00 251.00,167.00 251.00,167.00
               251.00,167.00 302.00,186.00 302.00,186.00
               302.00,186.00 251.00,203.00 251.00,203.00
               251.00,203.00 200.00,186.00 200.00,186.00 Z
             M 113.00,250.00
             C 113.00,250.00 164.00,231.00 164.00,231.00
               164.00,231.00 215.00,250.00 215.00,250.00
               215.00,250.00 164.00,267.00 164.00,267.00
               164.00,267.00 113.00,250.00 113.00,250.00 Z
             M 21.00,319.00
             C 21.00,319.00 72.00,300.00 72.00,300.00
               72.00,300.00 123.00,319.00 123.00,319.00
               123.00,319.00 72.00,336.00 72.00,336.00
               72.00,336.00 21.00,319.00 21.00,319.00 Z" />
    <path id="first-right"
          fill="#A5BB00" stroke="#A5BB00" stroke-width="1"
          d="M 72.00,377.00
             C 72.00,377.00 72.00,336.00 72.00,336.00
               72.00,336.00 123.00,319.00 123.00,319.00
               123.00,319.00 123.00,360.00 123.00,360.00
               123.00,360.00 72.00,377.00 72.00,377.00 Z
             M 164.00,267.00
             C 164.00,267.00 164.00,346.00 164.00,346.00
               164.00,346.00 215.00,329.00 215.00,329.00
               215.00,329.00 215.00,250.00 215.00,250.00
               215.00,250.00 164.00,267.00 164.00,267.00 Z
             M 302.00,299.00
             C 302.00,299.00 302.00,186.00 302.00,186.00
               302.00,186.00 251.00,203.00 251.00,203.00
               251.00,203.00 251.00,316.00 251.00,316.00
               251.00,316.00 302.00,299.00 302.00,299.00 Z
             M 335.00,285.00
             C 335.00,285.00 335.00,137.00 335.00,137.00
               335.00,137.00 388.00,119.00 388.00,119.00
               388.00,119.00 388.00,267.00 388.00,267.00
               388.00,267.00 335.00,285.00 335.00,285.00 Z
             M 435.00,237.00
             C 435.00,237.00 413.00,275.00 413.00,275.00
               413.00,275.00 413.00,128.00 413.00,128.00
               413.00,128.00 435.00,90.00 435.00,90.00
               435.00,90.00 435.00,237.00 435.00,237.00 Z" />
  </g>
  <g id="man-group">
    <path id="man-head"
          fill="url(#man-face)" stroke="black" stroke-width="0"
          d="M 206.72,145.00
           C 206.65,145.00 207.37,142.48 208.41,142.47
             208.41,142.47 210.69,143.53 212.00,143.25
             211.72,142.64 211.93,139.84 212.00,140.00
             212.41,140.12 212.70,140.10 213.00,140.00
             212.93,139.97 212.64,132.88 213.50,133.25
             213.50,133.25 209.00,132.25 209.00,132.25
             209.00,132.25 206.00,138.00 206.00,138.00
             206.00,139.00 206.00,140.56 203.53,142.69" />
    <path id="man-hair"
          fill="#364a5e" stroke="black" stroke-width="0"
          d="M 205.47,140.00
           C 205.95,140.20 207.24,141.71 208.00,140.00
             208.33,139.29 207.88,137.42 208.00,136.48
             208.01,136.08 208.33,135.75 208.78,136.00
             209.47,136.36 210.00,137.95 210.58,138.00
             211.42,138.12 211.06,136.30 211.05,136.00
             210.89,134.90 213.00,134.20 213.00,134.20
             215.22,133.52 211.01,131.20 211.00,131.20
             206.60,129.91 205.00,133.76 205.00,134.00
             204.75,135.42 205.00,139.20 205.47,140.00 Z" />
    <path id="man-left-foot"
          fill="#1a1617" stroke="#1a1617" stroke-width="1"
          d="M 163.00,210.00
           C 164.57,207.49 164.64,205.14 165.00,205.00
             166.07,204.24 166.13,203.24 166.00,203.33
             166.00,203.33 164.53,203.00 164.53,203.00
             164.60,203.11 162.94,204.09 162.36,203.89
             162.61,204.13 163.01,204.66 163.30,205.00
             163.92,206.00 163.00,210.00 163.00,210.00 Z" />
    <path id="man-right-foot"
          fill="#1a1617" stroke="#1a1617" stroke-width="1"
          d="M 231.00,182.41
           C 230.98,182.18 237.96,177.58 238.00,178.00
             238.79,178.53 232.24,184.16 232.00,184.00
             231.69,184.29 230.61,183.51 230.66,183.47
             230.66,183.47 231.00,182.41 231.00,182.41 Z
           M 236.53,182.75" />
    <path id="man-body"
          fill="#231f20" stroke="#231f20" stroke-width="1"
          d="M 164.00,203.00
           C 167.38,200.90 184.65,185.67 188.00,174.00
             188.00,173.00 185.13,170.86 185.00,171.00
             191.12,168.17 196.11,156.00 198.00,151.00
             198.00,150.85 199.06,148.36 197.00,149.00
             197.00,149.00 172.00,157.00 172.00,157.00
             170.88,157.58 166.22,154.40 167.00,154.00
             167.64,154.47 170.27,155.00 171.00,155.00
             171.82,155.32 200.00,143.01 200.00,143.00
             206.00,141.00 207.01,143.99 207.00,144.00
             209.10,155.75 197.00,171.00 197.00,171.00
             196.88,170.96 207.79,170.22 210.00,171.00
             210.00,171.00 231.00,182.00 231.00,182.00
             231.00,182.00 232.00,183.00 231.00,184.00
             224.80,182.11 208.00,175.00 208.00,175.00
             206.00,174.00 194.64,176.49 191.64,177.49
             182.73,192.17 168.00,202.50 165.64,204.49
             165.16,204.45 164.00,203.00 164.00,203.00 Z" />
  </g>
</svg>
