<?xml version="1.0" encoding="UTF-8" standalone="no"?>
<!DOCTYPE svg PUBLIC "-//W3C//DTD SVG 20010904//EN"
              "http://www.w3.org/TR/2001/REC-SVG-20010904/DTD/svg10.dtd">

<svg xmlns="http://www.w3.org/2000/svg"
     width="79.5936mm" height="79.5936mm"
     viewBox="0 0 470 470">
  <path id="man-body"
        fill="none" stroke="black" stroke-width="1"
        d="M 164.00,203.00
           C 167.38,200.90 184.65,185.67 188.00,174.00
             188.00,173.00 185.13,170.86 185.00,171.00
             191.12,168.17 196.11,156.00 198.00,151.00
             198.00,150.85 199.06,148.36 197.00,149.00
             197.00,149.00 172.00,157.00 172.00,157.00
             170.88,157.58 166.22,154.40 167.00,154.00
             167.64,154.47 170.27,155.00 171.00,155.00
             171.82,155.32 200.00,143.01 200.00,143.00
             206.00,141.00 207.01,143.99 207.00,144.00
             209.10,155.75 197.00,171.00 197.00,171.00
             196.88,170.96 207.79,170.22 210.00,171.00
             210.00,171.00 231.00,182.00 231.00,182.00
             231.00,182.00 232.00,183.00 231.00,184.00
             224.80,182.11 208.00,175.00 208.00,175.00
             206.00,174.00 194.64,176.49 191.64,177.49
             182.73,192.17 168.00,202.50 165.64,204.49
             165.16,204.45 164.00,203.00 164.00,203.00 Z" />
</svg>
