<?xml version="1.0" encoding="UTF-8" standalone="no"?>
<!DOCTYPE svg PUBLIC "-//W3C//DTD SVG 20010904//EN"
              "http://www.w3.org/TR/2001/REC-SVG-20010904/DTD/svg10.dtd">

<svg xmlns="http://www.w3.org/2000/svg"
     width="79.5936mm" height="58.2557mm"
     viewBox="0 0 470 344">
  <path id="first-right"
        fill="none" stroke="black" stroke-width="1"
        d="M 72.00,325.00
           C 72.00,325.00 72.00,284.00 72.00,284.00
             72.00,284.00 123.00,267.00 123.00,267.00
             123.00,267.00 123.00,308.00 123.00,308.00
             123.00,308.00 72.00,325.00 72.00,325.00 Z
           M 164.00,215.00
           C 164.00,215.00 164.00,294.00 164.00,294.00
             164.00,294.00 215.00,277.00 215.00,277.00
             215.00,277.00 215.00,198.00 215.00,198.00
             215.00,198.00 164.00,215.00 164.00,215.00 Z
           M 302.00,247.00
           C 302.00,247.00 302.00,134.00 302.00,134.00
             302.00,134.00 251.00,151.00 251.00,151.00
             251.00,151.00 251.00,264.00 251.00,264.00
             251.00,264.00 302.00,247.00 302.00,247.00 Z
           M 335.00,233.00
           C 335.00,233.00 335.00,85.00 335.00,85.00
             335.00,85.00 388.00,67.00 388.00,67.00
             388.00,67.00 388.00,215.00 388.00,215.00
             388.00,215.00 335.00,233.00 335.00,233.00 Z
           M 435.00,185.00
           C 435.00,185.00 413.00,223.00 413.00,223.00
             413.00,223.00 413.00,76.00 413.00,76.00
             413.00,76.00 435.00,38.00 435.00,38.00
             435.00,38.00 435.00,185.00 435.00,185.00 Z" />
</svg>
