<?xml version="1.0" encoding="UTF-8" standalone="no"?>
<!DOCTYPE svg PUBLIC "-//W3C//DTD SVG 20010904//EN"
              "http://www.w3.org/TR/2001/REC-SVG-20010904/DTD/svg10.dtd">

<svg xmlns="http://www.w3.org/2000/svg"
     width="79.5936mm" height="79.5936mm"
     viewBox="0 0 470 470">
  <path id="fourth-top"
        fill="none" stroke="black" stroke-width="1"
        d="M 435.00,90.00
           C 435.00,90.00 413.00,128.00 413.00,128.00
             413.00,128.00 388.00,119.00 388.00,119.00
             388.00,119.00 335.00,137.00 335.00,137.00
             335.00,137.00 284.00,120.00 284.00,120.00
             284.00,120.00 335.00,101.00 335.00,101.00
             335.00,101.00 318.00,95.00 318.00,95.00
             318.00,95.00 435.00,90.00 435.00,90.00 Z
           M 369.00,210.00M 200.00,186.00
           C 200.00,186.00 251.00,167.00 251.00,167.00
             251.00,167.00 302.00,186.00 302.00,186.00
             302.00,186.00 251.00,203.00 251.00,203.00
             251.00,203.00 200.00,186.00 200.00,186.00 Z
           M 113.00,250.00
           C 113.00,250.00 164.00,231.00 164.00,231.00
             164.00,231.00 215.00,250.00 215.00,250.00
             215.00,250.00 164.00,267.00 164.00,267.00
             164.00,267.00 113.00,250.00 113.00,250.00 Z
           M 21.00,319.00
           C 21.00,319.00 72.00,300.00 72.00,300.00
             72.00,300.00 123.00,319.00 123.00,319.00
             123.00,319.00 72.00,336.00 72.00,336.00
             72.00,336.00 21.00,319.00 21.00,319.00 Z" />
</svg>
