<?xml version="1.0" encoding="UTF-8" standalone="no"?>
<!DOCTYPE svg PUBLIC "-//W3C//DTD SVG 20010904//EN"
              "http://www.w3.org/TR/2001/REC-SVG-20010904/DTD/svg10.dtd">

<svg xmlns="http://www.w3.org/2000/svg"
     width="65.8764mm" height="65.8764mm"
     viewBox="0 0 389 389">
  <defs>
    <linearGradient id="Gradient1">
      <stop class="stop1" offset="0%"/>
      <stop class="stop2" offset="50%"/>
      <stop class="stop3" offset="100%"/>
    </linearGradient>
    <linearGradient id="chart-background" gradientTransform="rotate(0)" x1="0" y1="100%" x2="100%" y2="0">
      <stop offset="0%" stop-color="#036780"/>
      <stop offset="20%" stop-color="#009FBC"/>

      <stop offset="80%" stop-color="#A5BB00"/>
      <stop offset="100%" stop-color="#adc94a"/>
    </linearGradient >
    <linearGradient id="mid-head" gradientTransform="rotate(0)" x1="100%" y1="100%" x2="0" y2="0">
      <stop offset="0%" stop-color="#dc8e55"/>
      <stop offset="20%" stop-color="#e1a16a"/>
      <stop offset="50%" stop-color="#f9c48c"/>
    </linearGradient >
    <linearGradient id="mid-neck" gradientTransform="rotate(0)" x1="0" y1="0" x2="100%" y2="100%">
      <stop offset="0%" stop-color="#dc8e55"/>
      <stop offset="20%" stop-color="#e1a16a"/>
      <stop offset="70%" stop-color="#f9c48c"/>
    </linearGradient >
    <linearGradient id="yaxis" gradientTransform="rotate(90)">
      <stop offset="0%" stop-color="#0289ad"/>
      <stop offset="30%" stop-color="#45c1cd"/>
      <stop offset="100%" stop-color="#b0deea"/>
    </linearGradient >
    <linearGradient id="xaxis" gradientTransform="rotate(0)">
      <stop offset="0%" stop-color="#eff9fb"/>
      <stop offset="30%" stop-color="#45c1cd"/>
      <stop offset="100%" stop-color="#08aed6"/>
    </linearGradient >
    <linearGradient id="ladderfill" gradientTransform="rotate(90)">
      <stop offset="0%" stop-color="#0a586a"/>
      <stop offset="30%" stop-color="#102121"/>
      <stop offset="100%" stop-color="#0a0300"/>
    </linearGradient >
    <linearGradient id="lady-right-leg">
      <stop offset="0%" stop-color="#1d1d1b"/>
      <stop offset="30%" stop-color="#1d1d1b"/>
      <stop offset="100%" stop-color="#0d0d0b"/>
    </linearGradient >
    <linearGradient id="lady-left-leg">
      <stop offset="0%" stop-color="#1d1d1b"/>
      <stop offset="30%" stop-color="#1d1d1b"/>
      <stop offset="100%" stop-color="#0d0d0b"/>
    </linearGradient >
    <linearGradient id="lady-left-arm" gradientTransform="rotate(45)">
      <stop offset="0%" stop-color="#e5f1fa"/>
      <stop offset="80%" stop-color="#e5f1fa"/>
      <stop offset="100%" stop-color="#d8e7f1"/>
    </linearGradient >
    <linearGradient id="lady-face" gradientTransform="rotate(90)">
      <stop offset="0%" stop-color="#f5c18b"/>
      <stop offset="80%" stop-color="#de955d"/>
      <stop offset="100%" stop-color="#de955d"/>
    </linearGradient >
    <style type="text/css"><![CDATA[
        #rect1 { fill: url(#Gradient1); }
        .stop1 { stop-color: red; }
        .stop2 { stop-color: black; stop-opacity: 0; }
        .stop3 { stop-color: blue; }
      ]]></style>
  </defs>
  <g id="chart-g">
    <path id="chart-back"
          fill="#015b71"
          stroke="#015b71"
          stroke-width="1"
          d="M 350.00,20.00
             C 350.00,20.00 350.00,256.00 350.00,256.00
               342.69,256.00 98.00,256.00 98.00,256.00
               98.00,256.00 98.00,262.00 98.00,262.00
               98.00,262.00 356.00,262.00 356.00,262.00
               356.00,262.00 356.00,20.00 356.00,20.00
               356.00,20.00 350.00,20.00 350.00,20.00 Z" />
    <path id="chart-fore"
          fill="url(#chart-background)" stroke="url(#chart-background)" stroke-width="1"
          d="M 92.00,256.00
             C 92.00,256.00 351.00,256.00 351.00,256.00
               351.00,256.00 351.00,16.00 351.00,16.00
               351.00,16.00 92.00,16.00 92.00,16.00
               92.00,16.00 92.00,256.00 92.00,256.00 Z" />
    <path id="yaxis"
          fill="url(#yaxis)" stroke="url(#yaxis)" stroke-width="1"
          d="M 108.00,35.00
           C 108.00,35.00 108.00,242.00 108.00,242.00
             108.00,242.00 110.00,242.00 110.00,242.00
             110.00,242.00 110.00,35.00 110.00,35.00
             110.00,35.00 108.00,35.00 108.00,35.00 Z" />
    <path id="xaxis"
          fill="url(#xaxis)" stroke="url(#xaxis)" stroke-width="1"
          d="M 336.00,237.00
           C 336.00,237.00 336.00,239.00 336.00,239.00
             336.00,239.00 103.00,239.00 103.00,239.00
             103.00,239.00 103.00,237.00 103.00,237.00
             103.00,237.00 336.00,237.00 336.00,237.00 Z" />
    <path id="chart-line"
          fill="#ffffff" stroke="rbga(255,255,255,0.3)" stroke-width="3"
          d="M 113.01,233.99
             C 113.01,233.99 131.00,209.00 131.00,209.00
               131.00,209.00 147.52,212.00 147.52,212.00
               147.52,212.00 175.00,170.03 175.00,170.03
               175.00,170.03 192.00,171.04 192.00,171.04
               192.00,171.04 216.00,110.00 216.00,110.00
               216.00,110.00 238.00,114.73 238.00,114.73
               238.00,114.73 261.00,71.00 261.00,71.00
               261.00,71.00 239.98,118.00 239.98,118.00
               239.98,118.00 219.00,114.00 219.00,114.00
               219.00,114.00 196.00,175.00 196.00,175.00
               196.00,175.00 177.45,173.09 177.45,173.09
               177.45,173.09 150.18,215.09 150.18,215.09
               150.18,215.09 132.36,211.64 132.36,211.64
               132.36,211.64 113.01,233.99 113.01,233.99 Z" />
  </g>
  <g id="ladder-g">
    <path id="ladder-rungs"
          fill="url(#ladderfill)" stroke="url(#ladderfill)" stroke-width="1"
          d="M 326.88,250.00
           C 326.88,250.00 291.88,250.00 291.88,250.00
             291.88,250.00 292.58,254.00 292.58,254.00
             292.58,254.00 327.58,254.00 327.58,254.00
             327.58,254.00 326.88,250.00 326.88,250.00 Z
           M 307.09,337.00
           C 307.09,337.00 342.09,337.00 342.09,337.00
             342.09,337.00 342.79,341.00 342.79,341.00
             342.79,341.00 307.79,341.00 307.79,341.00
             307.79,341.00 307.09,337.00 307.09,337.00 Z
           M 346.98,365.00
           C 346.98,365.00 311.98,365.00 311.98,365.00
             311.98,365.00 312.68,369.00 312.68,369.00
             312.68,369.00 347.68,369.00 347.68,369.00
             347.68,369.00 346.98,365.00 346.98,365.00 Z
           M 296.95,279.00
           C 296.95,279.00 331.95,279.00 331.95,279.00
             331.95,279.00 332.65,283.00 332.65,283.00
             332.65,283.00 297.65,283.00 297.65,283.00
             297.65,283.00 296.95,279.00 296.95,279.00 Z
           M 286.82,221.00
           C 286.82,221.00 321.81,221.00 321.81,221.00
             321.81,221.00 322.52,225.00 322.52,225.00
             322.52,225.00 287.52,225.00 287.52,225.00
             287.52,225.00 286.82,221.00 286.82,221.00 Z
           M 316.75,192.00
           C 316.75,192.00 281.75,192.00 281.75,192.00
             281.75,192.00 282.45,196.00 282.45,196.00
             282.45,196.00 317.45,196.00 317.45,196.00
             317.45,196.00 316.75,192.00 316.75,192.00 Z
           M 337.02,308.00
           C 337.02,308.00 302.02,308.00 302.02,308.00
             302.02,308.00 302.72,312.00 302.72,312.00
             302.72,312.00 337.72,312.00 337.72,312.00
             337.72,312.00 337.02,308.00 337.02,308.00 Z" />
    <path id="ladder-edge"
          fill="url(#ladderfill)" stroke="url(#ladderfill)" stroke-width="1"
          d="M 280.00,182.00
           C 280.00,182.00 276.00,182.00 276.00,182.00
             276.00,182.00 312.00,388.00 312.00,388.00
             312.00,388.00 316.00,388.00 316.00,388.00
             316.00,388.00 280.00,182.00 280.00,182.00 Z
           M 351.00,388.00
           C 351.00,388.00 355.00,388.00 355.00,388.00
             355.00,388.00 319.00,182.00 319.00,182.00
             319.00,182.00 315.00,182.00 315.00,182.00
             315.00,182.00 351.00,388.00 351.00,388.00 Z" />
  </g>
  <g id="lady-g">
    <path id="right-leg"
          fill="url(#lady-right-leg)" stroke="url(#lady-right-leg)" stroke-width="1"
          d="M 294.91,111.00
           C 294.91,111.00 291.18,111.82 291.18,111.82
             290.00,114.00 290.87,130.43 291.00,129.00
             291.03,134.31 296.36,166.09 297.18,170.82
             297.36,182.09 298.08,193.29 299.00,213.00
             299.00,213.00 301.00,213.00 301.00,213.00
             301.00,213.00 304.36,159.55 304.36,159.55
             304.36,159.55 294.91,111.00 294.91,111.00 Z" />
    <path id="left-leg"
          fill="#1d1d1b" stroke="#1d1d1b" stroke-width="1"
          d="M 304.88,172.25
           C 304.12,169.38 299.34,149.07 298.09,141.82
             296.00,133.18 293.87,111.25 293.88,111.25
             293.88,111.25 305.25,108.12 305.25,108.12
             306.62,111.81 314.25,123.56 307.09,127.64
             308.00,131.91 309.69,152.00 309.38,161.94
             309.24,164.35 309.76,170.89 309.88,172.06
             310.17,174.73 310.04,184.55 310.12,190.75
             310.16,197.38 309.56,204.81 309.00,214.00
             309.00,214.00 307.00,214.00 307.00,214.00
             306.41,211.00 305.36,178.91 304.88,172.25 Z" />
    <path id="right-arm"
          fill="#d4e4ef" stroke="#d4e4ef" stroke-width="1"
          d="M 303.18,78.36
           C 303.26,78.34 309.18,87.36 308.55,89.09
             308.60,91.21 302.81,95.69 301.09,95.82
             301.09,95.82 302.91,99.45 302.91,99.45
             305.22,97.29 313.56,93.62 314.19,90.50
             314.60,87.30 305.77,67.80 304.25,67.69
             304.25,67.69 302.36,70.18 302.36,70.18
             302.36,70.18 303.18,78.36 303.18,78.36 Z" />
    <path id="shirt"
          fill="#e5f1fa" stroke="#e5f1fa" stroke-width="0"
          d="M 291.64,110.06
           C 291.67,110.14 293.48,85.57 291.35,81.91
             291.35,81.91 292.50,74.28 292.45,74.36
             292.55,72.18 295.45,66.91 296.04,66.48
             296.04,66.48 304.26,68.09 304.26,68.09
             305.74,71.17 302.23,103.17 304.65,107.04
             304.65,107.04 291.64,110.06 291.64,110.06 Z" />
    <path id="head"
          fill="url(#lady-face)" stroke="url(#lady-face)" stroke-width="1"
          d="M 293.12,47.94
           C 290.75,49.88 290.75,57.47 291.41,59.03
             292.44,59.94 295.85,60.32 295.81,60.03
             295.81,60.03 296.02,60.10 296.19,60.91
             296.31,61.50 296.41,62.91 296.41,62.91
             296.41,62.91 298.22,60.25 298.22,60.25
             298.22,60.25 295.69,49.00 295.69,49.00
             295.69,49.00 293.12,47.94 293.12,47.94 Z" />
    <path id="hair"
          fill="#2b3441" stroke="#2b3441" stroke-width="1"
          d="M 294.31,49.33
           C 293.60,49.38 292.23,48.97 292.43,47.96
             292.55,47.82 292.81,46.97 293.52,46.39
             294.07,45.88 295.69,45.07 296.81,44.80
             298.03,44.50 299.70,44.18 302.00,45.06
             303.44,45.38 305.83,47.72 305.88,49.03
             305.88,49.03 306.27,54.66 305.84,56.06
             305.75,57.25 306.73,59.18 308.07,59.80
             310.62,61.45 311.00,65.03 311.00,65.03
             311.09,65.67 310.99,69.70 303.06,70.00
             301.77,69.93 297.31,68.75 294.73,67.09
             292.27,65.36 293.47,63.36 295.09,63.09
             296.28,63.02 299.36,60.34 295.18,56.64
             294.11,56.21 294.87,51.29 294.91,50.73
             294.92,50.73 295.09,49.24 294.31,49.33 Z" />
    <path id="left-arm"
          fill="url(#lady-left-arm)" stroke="url(#lady-left-arm)" stroke-width="1"
          d="M 300.84,75.41
           C 302.13,74.06 301.80,69.22 295.62,71.00
             294.67,71.18 285.84,81.22 281.73,82.91
             280.16,83.28 273.52,80.81 272.64,79.91
             271.81,80.58 271.89,82.80 272.73,83.27
             272.73,83.27 279.91,87.44 282.27,87.55
             286.31,87.10 300.84,75.41 300.84,75.41 Z" />
    <path id="left-hand"
          fill="url(#lady-face)" stroke="url(#lady-face)" stroke-width="0"
          d="M 271.67,82.33
           C 273.22,84.07 261.53,76.71 260.02,77.02
             258.76,77.27 256.28,77.14 255.96,76.04
             255.42,75.18 256.70,71.21 259.11,71.96
             259.11,71.96 259.95,72.38 261.07,74.47
             262.44,75.96 269.58,78.40 271.91,79.78
             271.91,79.78 271.71,82.31 271.67,82.33 Z" />
    <path id="cuff"
          fill="#2991b2" stroke="#2991b2" stroke-width="1"
          d="M 272.67,79.95
           C 272.88,80.58 273.03,81.85 272.67,83.24
             271.78,82.63 271.14,82.46 271.09,82.36
             270.80,81.09 270.73,80.36 271.16,79.40
             271.40,79.34 272.43,79.56 272.67,79.95 Z" />
    <path id="waistband"
          fill="#2991b2" stroke="#2991b2" stroke-width="1"
          d="M 305.25,108.12
           C 305.20,107.69 304.91,106.94 304.73,106.84
             304.19,106.59 291.93,109.52 291.62,110.02
             291.63,109.99 291.65,110.51 291.20,111.78
             291.20,111.78 295.14,111.05 295.17,111.05
             295.21,111.05 305.25,108.12 305.25,108.12 Z" />
    <path id="left-foot"
          fill="#e4ad75" stroke="#e4ad75" stroke-width="1"
          d="M 295.65,220.12
           C 295.65,220.12 294.89,219.10 294.89,219.10
             297.24,218.64 295.32,218.81 299.00,217.00
             299.00,217.00 299.00,214.00 299.00,214.00
             299.00,214.00 301.00,214.00 301.00,214.00
             301.00,214.00 300.92,218.21 300.92,218.21
             300.92,218.21 295.65,220.12 295.65,220.12 Z" />
    <path id="left-shoe"
          fill="#243240" stroke="#243240" stroke-width="1"
          d="M 295.00,219.00
           C 295.24,220.63 298.88,218.85 300.00,218.00
             300.17,217.87 300.72,217.72 301.00,218.00
             301.07,218.14 301.12,220.60 300.99,221.02
             300.99,221.02 299.12,221.03 299.12,221.03
             299.09,220.99 298.95,220.12 298.98,220.02
             299.01,219.64 297.21,220.98 294.40,221.02
             293.49,220.98 292.41,220.49 292.09,220.35
             291.93,220.25 292.45,220.02 292.62,219.84
             293.23,219.34 295.02,218.99 295.00,219.00 Z" />
    <path id="right-foot"
          fill="#e4ad75" stroke="#e4ad75" stroke-width="1"
          d="M 303.65,220.12
           C 303.65,220.12 302.89,219.10 302.89,219.10
             305.24,218.64 303.32,218.81 307.00,217.00
             307.00,217.00 307.00,214.00 307.00,214.00
             307.00,214.00 309.00,214.00 309.00,214.00
             309.00,214.00 308.92,218.21 308.92,218.21
             308.92,218.21 303.65,220.12 303.65,220.12 Z" />
    <path id="right-shoe"
          fill="#243240" stroke="#243240" stroke-width="1"
          d="M 303.00,219.00
           C 303.24,220.63 306.88,218.85 308.00,218.00
             308.17,217.87 308.72,217.72 309.00,218.00
             309.07,218.14 309.12,220.60 308.99,221.02
             308.99,221.02 307.12,221.03 307.12,221.03
             307.09,220.99 306.95,220.12 306.98,220.02
             307.01,219.64 305.21,220.98 302.40,221.02
             301.49,220.98 300.41,220.49 300.09,220.35
             299.93,220.25 300.45,220.02 300.62,219.84
             301.23,219.34 303.02,218.99 303.00,219.00 Z
           M 328.19,215.30
           C 328.19,215.30 326.44,217.47 326.45,217.45" />

  </g>
  <g id="left-person">
    <path id="leftPants"
          fill="#39475c" stroke="#39475c" stroke-width="1"
          d="M 41.00,273.00
             C 41.00,273.00 43.00,306.00 43.00,306.00
               43.00,306.00 44.00,321.00 44.00,321.00
               44.00,321.00 44.00,343.00 44.00,343.00
               44.00,343.00 45.00,359.00 45.00,359.00
               48.17,359.43 47.53,359.12 49.12,359.03
               49.50,357.19 50.62,344.75 50.69,344.78
               50.69,344.78 52.00,325.00 52.00,325.00
               52.02,314.58 51.53,292.88 53.00,294.00
               55.19,292.25 55.60,307.82 56.09,315.00
               56.09,315.00 58.00,341.00 58.00,341.00
               58.03,344.16 57.06,356.99 58.69,359.06
               59.97,359.03 61.34,359.06 63.00,359.00
               63.00,359.00 64.00,340.00 64.00,340.00
               64.00,340.00 64.00,305.00 64.00,305.00
               64.00,305.00 60.65,274.09 60.65,274.09
               51.69,274.81 50.04,276.39 41.00,273.00 Z" />
    <path id="leftLshoe"
          fill="#2b3849" stroke="#2b3849" stroke-width="1"
          d="M 45.00,359.00
             C 44.53,360.56 45.00,364.00 45.00,364.00
               45.00,364.00 47.78,364.22 54.00,364.00
               46.94,357.78 50.12,359.19 45.00,359.00 Z
             M 69.00,365.66" />
    <path id="leftRshoe"
          fill="#2b3849" stroke="#2b3849" stroke-width="1"
          d="M 59.00,358.00
             C 58.47,362.62 59.00,364.00 59.00,364.00
               59.00,364.00 75.00,364.00 75.00,364.00
               74.25,361.66 64.91,358.31 59.00,358.00 Z" />
    <path id="leftShirt"
          fill="#1d1d1b" stroke="#1d1d1b" stroke-width="1"
          d="M 59.00,235.00
             C 69.01,234.65 63.56,231.35 62.91,222.45
               62.34,214.65 51.09,199.73 39.64,203.55
               34.48,204.89 35.13,210.50 35.01,215.00
               34.65,229.20 39.94,234.76 40.00,247.00
               40.02,251.94 38.70,270.07 40.82,273.18
               45.73,275.91 47.45,276.91 61.49,274.07
               63.06,271.85 60.17,260.85 59.60,258.00
               57.10,245.48 58.03,246.94 59.00,235.00 Z" />
    <path id="leftHand"
          fill="#b86d42" stroke="#b86d42" stroke-width="1"
          d="M 66.12,230.06
             C 66.69,229.84 67.59,229.35 67.55,228.02
               67.34,219.99 58.66,222.47 63.88,229.31
               64.68,230.33 66.15,230.09 66.12,230.06 Z" />
    <path id="leftHead"
          fill="#b5693e" stroke="#b5693e" stroke-width="1"
          d="M 40.00,186.00
             C 40.00,186.00 39.91,186.58 39.58,187.89
               39.24,188.67 39.02,188.53 39.00,190.00
               38.84,194.20 41.07,192.00 41.00,201.00
               43.73,201.91 46.31,201.51 48.00,201.00
               48.11,195.16 49.62,197.12 53.00,195.00
               53.67,194.00 49.73,192.04 52.00,189.00
               47.93,187.27 45.58,183.69 45.33,182.04
               42.16,182.64 40.00,186.00 40.00,186.00 Z" />
    <path id="leftHair"
          fill="#2b3441" stroke="#2b3441" stroke-width="1"
          d="M 40.00,197.00
             C 43.78,194.84 36.89,191.42 38.00,190.00
               40.27,188.58 43.16,191.76 43.00,191.00
               39.84,183.69 46.18,183.36 45.00,180.00
               32.71,181.31 29.87,192.78 40.00,197.00 Z" />
    <path id="leftCollar"
          fill="#bac557" stroke="#bac557" stroke-width="1"
          d="M 40.00,201.00
             C 39.87,201.13 39.76,202.11 40.00,203.00
               39.20,203.29 47.67,203.29 48.00,203.00
               48.00,203.00 48.33,202.38 48.00,201.00
               46.71,200.44 39.62,200.82 40.00,201.00 Z
             M 43.22,204.71" />
  </g>
  <g id="mid-man">
    <path id="man-right-shoe"
          fill="#2d384c" stroke="#2d384c" stroke-width="1"
          d="M 233.34,361.81
           C 233.43,363.33 231.22,364.56 230.00,364.62
             228.38,365.00 223.53,365.62 222.62,365.47
             219.88,365.85 221.24,367.18 222.56,367.00
             223.47,367.31 235.56,367.50 237.09,366.97
             237.48,366.65 237.27,361.51 237.09,361.66
             237.09,361.66 233.34,361.81 233.34,361.81 Z" />
    <path id="man-left-shoe"
          fill="#2d384c" stroke="#2d384c" stroke-width="1"
          d="M 247.44,361.50
           C 247.71,362.16 247.56,363.42 246.94,364.12
             246.38,364.96 245.50,365.40 244.20,365.44
             242.51,365.82 241.98,366.76 243.88,367.00
             243.71,367.13 251.89,367.13 252.12,366.94
             252.22,363.02 251.89,360.96 251.62,361.44
             251.69,361.44 247.44,361.50 247.44,361.50 Z" />
    <path id="man-right-leg"
          fill="#354255" stroke="#354255" stroke-width="1"
          d="M 237.82,250.91
           C 236.26,252.32 235.78,262.68 235.18,268.64
             234.31,274.69 232.21,298.20 232.31,302.93
             232.11,315.00 231.73,328.25 231.94,330.93
             232.30,339.60 233.12,360.44 233.00,361.91
             232.88,362.53 238.44,362.44 238.00,361.91
             237.81,359.19 238.25,349.56 238.45,346.55
             239.12,336.75 239.61,314.01 240.18,312.36
             240.75,309.26 241.31,302.25 242.00,298.00
             243.80,290.87 247.31,280.00 246.09,284.82
             246.09,284.82 245.91,257.82 245.91,257.82
             245.91,257.82 245.45,251.45 245.45,251.45
             245.45,251.45 237.82,250.91 237.82,250.91 Z" />
    <path id="man-left-leg"
          fill="#323e50" stroke="#323e50" stroke-width="1"
          d="M 243.12,253.81
           C 242.00,255.94 243.81,284.81 244.25,286.12
             244.56,292.88 244.38,314.88 244.69,318.06
             244.69,318.06 245.88,357.50 246.44,361.94
             247.19,362.69 251.69,362.38 252.38,361.81
             253.19,358.50 252.62,322.56 253.12,318.06
             253.44,309.81 254.31,299.06 254.94,286.00
             255.56,282.81 256.25,253.56 256.19,253.56
             256.19,253.56 243.12,253.81 243.12,253.81 Z" />
    <path id="man-right-hand"
          fill="#f5c48d" stroke="#f5c48d" stroke-width="1"
          d="M 205.36,241.09
           C 204.18,240.68 202.31,240.80 201.73,241.18
             200.64,242.04 196.69,241.33 196.00,242.18
             195.67,242.46 195.60,244.54 196.18,244.91
             196.92,245.87 197.99,247.14 198.82,247.18
             200.04,247.53 204.05,247.45 204.18,247.18
             207.91,245.83 208.82,245.00 208.82,245.00
             208.82,245.00 205.36,241.09 205.36,241.09 Z" />
    <path id="man-right-arm"
          fill="#364357" stroke="#364357" stroke-width="1"
          d="M 243.91,205.36
           C 243.91,205.36 240.82,206.73 240.82,206.73
             239.91,207.44 238.03,210.53 236.91,212.09
             235.84,213.75 235.16,215.75 233.73,218.18
             231.81,223.12 229.84,225.66 229.09,226.36
             227.80,227.80 223.04,231.63 221.16,232.62
             219.80,233.51 216.80,235.33 215.00,236.27
             211.93,238.07 207.49,240.04 204.64,240.27
             204.49,241.56 208.27,247.18 208.36,247.18
             209.73,247.19 216.36,244.40 218.82,242.91
             221.47,241.38 225.33,238.89 225.93,238.40
             228.20,236.85 229.84,235.46 231.47,234.20
             233.96,231.91 241.51,221.82 241.51,221.82
             241.51,221.82 243.91,205.36 243.91,205.36 Z" />
    <path id="man-neck"
          fill="url(#mid-neck)" stroke="url(#mid-neck)" stroke-width="1"
          d="M 248.70,199.04
           C 249.22,196.57 248.13,195.43 248.74,192.65
             248.74,192.65 251.91,184.70 251.91,184.70
             251.91,184.70 256.61,184.17 256.61,184.17
             255.43,187.13 255.66,195.29 255.96,198.83
             255.96,198.91 248.70,199.04 248.70,199.04 Z" />
    <path id="man-head"
          fill="url(#mid-head)" stroke="url(#mid-head)" stroke-width="1"
          d="M 244.17,179.89
           C 243.40,180.04 246.00,186.22 241.17,188.50
             240.64,188.82 240.70,189.83 241.13,190.04
             243.72,190.15 243.59,192.41 242.22,194.53
             241.52,195.54 242.61,196.44 244.37,196.24
             247.10,196.48 254.33,190.40 254.89,188.29
             255.94,189.61 257.53,188.65 257.42,188.51
             257.42,188.51 257.31,181.71 257.31,181.71
             257.31,181.71 251.47,178.87 251.47,178.87
             251.47,178.87 247.82,178.29 247.82,178.29
             247.96,178.05 244.77,178.86 244.17,179.89 Z" />
    <path id="man-hair"
          fill="#2b3441" stroke="#2b3441" stroke-width="1"
          d="M 245.33,180.09
           C 244.08,180.36 243.13,179.29 243.98,178.60
             245.29,177.05 247.28,177.10 248.00,177.04
             249.64,176.96 251.91,176.98 253.02,177.04
             254.82,177.00 255.58,177.97 256.58,178.71
             257.24,179.29 258.93,182.02 258.93,182.02
             259.27,183.20 259.44,185.71 259.02,187.96
             258.62,189.64 257.31,191.35 256.33,192.58
             254.71,194.02 253.82,192.20 253.89,191.09
             253.80,189.03 255.07,187.96 254.93,186.73
             254.86,183.27 252.53,185.15 252.53,185.18
             251.73,185.93 250.93,188.62 250.16,188.02
             249.22,187.73 251.04,184.22 251.00,183.84
             250.29,182.16 247.76,179.61 245.33,180.09 Z" />
    <path id="man-shirt"
          fill="#d4e4ef" stroke="#d4e4ef" stroke-width="1"
          d="M 236.25,252.25
           C 237.50,254.02 255.46,256.26 254.38,254.75
             254.25,254.75 256.62,199.38 256.62,199.38
             256.62,199.38 256.53,197.97 256.53,197.97
             255.19,197.50 248.96,198.15 249.16,198.47
             246.80,199.20 244.22,201.25 243.50,202.38
             240.09,206.31 239.38,210.56 239.25,211.62
             239.22,211.64 238.88,241.09 239.12,242.50
             239.27,247.00 236.14,252.68 236.25,252.25 Z" />
    <path id="man-tie"
          fill="#00b2cb" stroke="#00b2cb" stroke-width="1"
          d="M 248.80,199.11
           C 246.23,201.73 245.43,203.70 244.94,204.25
             243.52,206.48 242.57,209.21 242.25,210.25
             240.94,213.64 242.53,234.66 242.06,238.94
             242.00,240.94 242.00,242.69 241.06,244.44
             240.22,246.16 237.78,248.97 237.55,248.64
             237.42,247.73 238.30,243.17 239.04,241.81
             240.57,239.39 240.00,217.00 240.25,216.44
             240.24,216.41 240.50,209.83 241.00,209.06
             241.95,206.66 244.08,202.48 245.31,201.56
             246.46,200.52 248.80,199.11 248.80,199.11 Z" />
    <path id="man-jacket"
          fill="#374559" stroke="#374559" stroke-width="1"
          d="M 254.87,199.00
           C 256.02,199.09 258.80,200.65 258.98,201.07
             258.98,201.07 260.98,205.09 260.98,205.09
             260.98,205.09 261.64,209.09 261.64,209.09
             261.64,209.09 260.45,236.36 260.45,236.36
             260.45,236.36 257.82,250.45 257.82,250.45
             257.79,250.45 258.83,267.81 259.27,267.91
             259.28,268.28 248.14,266.91 248.13,266.04
             247.88,262.44 247.50,243.47 247.09,242.09
             246.88,240.97 246.78,235.34 246.18,232.82
             245.98,231.25 245.02,222.60 245.00,222.09
             244.93,221.47 244.98,214.70 245.09,213.91
             245.22,212.07 246.56,207.18 247.00,205.96
             247.31,204.57 248.88,202.28 249.18,201.91
             251.07,199.72 254.23,198.96 254.87,199.00 Z" />
    <path id="mid-man-left-hand"
          fill="#f5c48d" stroke="#f5c48d" stroke-width="1"
          d="M 249.71,263.93
           C 249.71,263.93 254.98,265.02 254.98,265.02
             256.90,272.00 253.98,274.91 253.62,275.20
             252.66,275.73 251.12,275.45 250.72,275.12
             250.10,274.71 249.66,271.40 249.67,271.04
             249.50,269.99 250.36,265.28 249.71,263.93 Z" />
    <path id="midman-left-arm"
          fill="#333f51" stroke="#333f51" stroke-width="1"
          d="M 248.74,264.78
           C 248.35,265.43 254.39,267.52 255.82,266.36
             258.29,256.22 260.00,245.36 260.73,238.09
             260.74,232.85 261.88,212.62 259.38,206.75
             258.52,203.06 256.62,201.38 254.12,201.12
             249.62,202.00 250.56,209.81 251.39,214.62
             252.44,219.31 252.52,223.27 252.27,231.15
             252.38,232.21 249.26,264.52 248.74,264.78 Z
           M 257.91,265.22" /></g>
</svg>
