<?xml version="1.0" encoding="UTF-8" standalone="no"?>
<!DOCTYPE svg PUBLIC "-//W3C//DTD SVG 20010904//EN"
              "http://www.w3.org/TR/2001/REC-SVG-20010904/DTD/svg10.dtd">

<svg xmlns="http://www.w3.org/2000/svg"
     width="26.6667in" height="20.8889in"
     viewBox="0 0 1920 1504">
  <path id="b-bottom"
        fill="none" stroke="black" stroke-width="1"
        d="M 685.00,454.00
           C 685.00,454.00 685.00,469.00 685.00,469.00
             685.00,469.00 684.00,484.00 684.00,484.00
             684.00,484.00 684.00,576.00 684.00,576.00
             684.00,576.00 684.00,760.00 684.00,760.00
             684.00,760.00 707.00,762.00 707.00,762.00
             707.00,762.00 729.00,763.00 729.00,763.00
             729.00,763.00 803.00,763.00 803.00,763.00
             803.00,763.00 824.00,762.00 824.00,762.00
             824.00,762.00 834.00,761.09 834.00,761.09
             834.00,761.09 856.00,759.83 856.00,759.83
             856.00,759.83 924.00,751.42 924.00,751.42
             1003.18,739.13 1088.93,715.07 1157.00,671.95
             1176.88,659.36 1195.44,644.03 1210.56,626.00
             1220.13,614.59 1226.92,603.69 1232.72,590.00
             1236.46,581.15 1239.88,568.62 1240.00,559.00
             1240.17,544.27 1240.71,536.49 1236.57,522.00
             1223.56,476.39 1181.95,443.76 1143.00,420.40
             1133.73,414.84 1110.65,402.30 1101.00,398.96
             1094.78,396.81 1090.61,399.22 1085.00,401.58
             1085.00,401.58 1064.00,409.66 1064.00,409.66
             1034.04,420.05 1003.98,428.73 973.00,435.58
             937.36,443.45 901.28,448.54 865.00,452.17
             865.00,452.17 834.00,455.00 834.00,455.00
             834.00,455.00 825.00,455.00 825.00,455.00
             825.00,455.00 815.00,456.04 815.00,456.04
             815.00,456.04 800.00,456.04 800.00,456.04
             800.00,456.04 788.00,457.00 788.00,457.00
             788.00,457.00 745.00,457.00 745.00,457.00
             745.00,457.00 728.00,456.00 728.00,456.00
             728.00,456.00 702.00,455.00 702.00,455.00
             702.00,455.00 685.00,454.00 685.00,454.00 Z" />
</svg>
