<?xml version="1.0" encoding="UTF-8" standalone="no"?>
<!DOCTYPE svg PUBLIC "-//W3C//DTD SVG 20010904//EN"
              "http://www.w3.org/TR/2001/REC-SVG-20010904/DTD/svg10.dtd">

<svg xmlns="http://www.w3.org/2000/svg"
     width="26.6667in" height="20.8889in"
     viewBox="0 0 1920 1504">
  <path id="brierley-text"
        fill="none" stroke="black" stroke-width="1"
        d="M 27.00,925.00
           C 27.00,925.00 27.00,1136.00 27.00,1136.00
             27.00,1136.00 149.00,1136.00 149.00,1136.00
             172.93,1136.00 202.34,1137.23 224.00,1125.68
             232.26,1121.27 239.62,1115.02 244.53,1107.00
             255.34,1089.36 254.48,1059.86 240.54,1044.09
             231.33,1033.68 213.61,1028.12 200.00,1028.00
             213.51,1023.50 221.01,1022.28 230.47,1010.00
             235.55,1003.41 238.10,995.13 239.27,987.00
             242.79,962.59 231.62,942.84 209.00,932.86
             187.68,923.46 161.86,925.00 139.00,925.00
             139.00,925.00 27.00,925.00 27.00,925.00 Z
           M 300.00,925.00
           C 300.00,925.00 300.00,1136.00 300.00,1136.00
             300.00,1136.00 327.00,1136.00 327.00,1136.00
             327.00,1136.00 327.00,1068.00 327.00,1068.00
             327.00,1068.00 426.00,1068.00 426.00,1068.00
             426.00,1068.00 432.99,1068.60 432.99,1068.60
             432.99,1068.60 446.27,1082.00 446.27,1082.00
             446.27,1082.00 479.27,1120.00 479.27,1120.00
             479.27,1120.00 494.09,1135.40 494.09,1135.40
             494.09,1135.40 501.00,1136.00 501.00,1136.00
             501.00,1136.00 527.00,1136.00 527.00,1136.00
             524.13,1129.28 510.58,1115.23 505.05,1109.00
             505.05,1109.00 466.00,1065.00 466.00,1065.00
             480.05,1061.80 495.18,1053.76 504.83,1043.00
             525.76,1019.66 528.49,981.56 509.84,956.00
             503.53,947.35 496.21,941.33 487.00,936.01
             465.09,923.36 439.31,925.00 415.00,925.00
             415.00,925.00 300.00,925.00 300.00,925.00 Z
           M 581.00,925.00
           C 581.00,925.00 581.00,1136.00 581.00,1136.00
             581.00,1136.00 607.00,1136.00 607.00,1136.00
             607.00,1136.00 607.00,925.00 607.00,925.00
             607.00,925.00 581.00,925.00 581.00,925.00 Z
           M 684.00,925.00
           C 684.00,925.00 684.00,1136.00 684.00,1136.00
             684.00,1136.00 887.00,1136.00 887.00,1136.00
             887.00,1136.00 887.00,1111.00 887.00,1111.00
             887.00,1111.00 710.00,1111.00 710.00,1111.00
             710.00,1111.00 710.00,1050.00 710.00,1050.00
             710.00,1050.00 858.00,1050.00 858.00,1050.00
             858.00,1050.00 858.00,1026.00 858.00,1026.00
             858.00,1026.00 710.00,1026.00 710.00,1026.00
             710.00,1026.00 710.00,950.00 710.00,950.00
             710.00,950.00 884.00,950.00 884.00,950.00
             884.00,950.00 884.00,925.00 884.00,925.00
             884.00,925.00 684.00,925.00 684.00,925.00 Z
           M 944.00,925.00
           C 944.00,925.00 944.00,1136.00 944.00,1136.00
             944.00,1136.00 971.00,1136.00 971.00,1136.00
             971.00,1136.00 971.00,1068.00 971.00,1068.00
             971.00,1068.00 1070.00,1068.00 1070.00,1068.00
             1070.00,1068.00 1076.91,1068.60 1076.91,1068.60
             1076.91,1068.60 1091.73,1084.00 1091.73,1084.00
             1091.73,1084.00 1124.73,1122.00 1124.73,1122.00
             1124.73,1122.00 1138.01,1135.40 1138.01,1135.40
             1138.01,1135.40 1145.00,1136.00 1145.00,1136.00
             1145.00,1136.00 1171.00,1136.00 1171.00,1136.00
             1171.00,1136.00 1152.28,1113.00 1152.28,1113.00
             1152.28,1113.00 1110.00,1065.00 1110.00,1065.00
             1127.99,1059.74 1143.26,1051.85 1154.23,1036.00
             1176.00,1004.53 1167.21,956.25 1133.00,937.31
             1106.04,922.38 1083.45,925.00 1054.00,925.00
             1054.00,925.00 944.00,925.00 944.00,925.00 Z
           M 1219.00,925.00
           C 1219.00,925.00 1219.00,1136.00 1219.00,1136.00
             1219.00,1136.00 1405.00,1136.00 1405.00,1136.00
             1405.00,1136.00 1405.00,1111.00 1405.00,1111.00
             1405.00,1111.00 1245.00,1111.00 1245.00,1111.00
             1245.00,1111.00 1245.00,925.00 1245.00,925.00
             1245.00,925.00 1219.00,925.00 1219.00,925.00 Z
           M 1439.00,925.00
           C 1439.00,925.00 1439.00,1136.00 1439.00,1136.00
             1439.00,1136.00 1643.00,1136.00 1643.00,1136.00
             1643.00,1136.00 1643.00,1111.00 1643.00,1111.00
             1643.00,1111.00 1466.00,1111.00 1466.00,1111.00
             1466.00,1111.00 1466.00,1050.00 1466.00,1050.00
             1466.00,1050.00 1613.00,1050.00 1613.00,1050.00
             1613.00,1050.00 1613.00,1026.00 1613.00,1026.00
             1613.00,1026.00 1466.00,1026.00 1466.00,1026.00
             1466.00,1026.00 1466.00,950.00 1466.00,950.00
             1466.00,950.00 1640.00,950.00 1640.00,950.00
             1640.00,950.00 1640.00,925.00 1640.00,925.00
             1640.00,925.00 1439.00,925.00 1439.00,925.00 Z
           M 1666.00,925.00
           C 1666.00,925.00 1694.58,963.00 1694.58,963.00
             1694.58,963.00 1744.00,1027.00 1744.00,1027.00
             1744.00,1027.00 1761.00,1049.00 1761.00,1049.00
             1767.61,1057.41 1771.98,1060.07 1772.00,1071.00
             1772.00,1071.00 1772.00,1136.00 1772.00,1136.00
             1772.00,1136.00 1798.00,1136.00 1798.00,1136.00
             1798.00,1136.00 1798.00,1071.00 1798.00,1071.00
             1798.02,1060.17 1800.66,1059.54 1807.13,1051.00
             1807.13,1051.00 1824.13,1029.00 1824.13,1029.00
             1824.13,1029.00 1878.88,958.00 1878.88,958.00
             1884.33,950.86 1900.32,931.85 1903.00,925.00
             1903.00,925.00 1880.00,925.00 1880.00,925.00
             1880.00,925.00 1872.17,926.02 1872.17,926.02
             1872.17,926.02 1865.00,934.00 1865.00,934.00
             1865.00,934.00 1852.63,950.00 1852.63,950.00
             1852.63,950.00 1805.63,1011.00 1805.63,1011.00
             1805.63,1011.00 1786.00,1038.00 1786.00,1038.00
             1786.00,1038.00 1756.12,1000.00 1756.12,1000.00
             1756.12,1000.00 1719.58,953.00 1719.58,953.00
             1719.58,953.00 1705.65,935.00 1705.65,935.00
             1705.65,935.00 1697.71,926.02 1697.71,926.02
             1697.71,926.02 1690.00,925.00 1690.00,925.00
             1690.00,925.00 1666.00,925.00 1666.00,925.00 Z
           M 52.00,1016.00
           C 52.00,1016.00 52.00,949.00 52.00,949.00
             52.00,949.00 166.00,949.00 166.00,949.00
             188.40,949.03 211.58,954.70 213.68,981.00
             213.89,983.69 213.50,985.38 213.13,988.00
             209.98,1010.15 188.32,1015.97 169.00,1016.00
             169.00,1016.00 52.00,1016.00 52.00,1016.00 Z
           M 326.00,1043.00
           C 326.00,1043.00 326.00,950.00 326.00,950.00
             326.00,950.00 443.00,950.00 443.00,950.00
             458.85,950.02 475.30,955.48 485.67,968.00
             502.12,987.84 497.03,1020.67 475.00,1034.07
             456.81,1045.15 439.22,1043.00 419.00,1043.00
             419.00,1043.00 326.00,1043.00 326.00,1043.00 Z
           M 970.00,1043.00
           C 970.00,1043.00 970.00,950.00 970.00,950.00
             970.00,950.00 1089.00,950.00 1089.00,950.00
             1102.40,950.16 1119.88,956.72 1128.68,967.01
             1146.36,987.72 1141.40,1020.29 1118.00,1034.54
             1100.64,1045.10 1082.35,1043.00 1063.00,1043.00
             1063.00,1043.00 970.00,1043.00 970.00,1043.00 Z
           M 52.00,1112.00
           C 52.00,1112.00 52.00,1040.00 52.00,1040.00
             52.00,1040.00 172.00,1040.00 172.00,1040.00
             195.53,1040.04 224.82,1046.85 224.82,1076.00
             224.82,1104.89 195.39,1111.96 172.00,1112.00
             172.00,1112.00 52.00,1112.00 52.00,1112.00 Z" />
</svg>
