<?xml version="1.0" encoding="UTF-8" standalone="no"?>
<!DOCTYPE svg PUBLIC "-//W3C//DTD SVG 20010904//EN"
              "http://www.w3.org/TR/2001/REC-SVG-20010904/DTD/svg10.dtd">

<svg xmlns="http://www.w3.org/2000/svg"
     width="26.6667in" height="20.8889in"
     viewBox="0 0 1920 1504">
  <path id="tagline"
        fill="none" stroke="black" stroke-width="1"
        d="M 661.00,1253.00
           C 661.00,1253.00 650.00,1253.00 650.00,1253.00
             650.00,1253.00 650.00,1261.00 650.00,1261.00
             650.00,1261.00 661.00,1261.00 661.00,1261.00
             661.00,1261.00 661.00,1309.00 661.00,1309.00
             661.00,1309.00 670.00,1309.00 670.00,1309.00
             670.00,1309.00 670.00,1261.00 670.00,1261.00
             670.00,1261.00 695.00,1261.00 695.00,1261.00
             695.00,1261.00 695.00,1253.00 695.00,1253.00
             695.00,1253.00 670.21,1253.00 670.21,1253.00
             670.02,1251.18 669.95,1248.74 670.21,1247.00
             672.16,1240.71 677.95,1238.06 684.00,1239.80
             686.31,1240.46 689.51,1242.54 691.81,1241.71
             694.22,1240.84 695.15,1238.13 696.00,1236.00
             693.30,1234.86 689.78,1233.16 687.00,1232.53
             678.30,1230.53 666.16,1231.72 662.23,1241.00
             660.68,1244.64 661.00,1249.10 661.00,1253.00 Z
           M 965.06,1234.75
           C 957.34,1239.42 963.06,1246.86 968.96,1245.53
             975.77,1243.99 975.47,1232.75 965.06,1234.75 Z
           M 1497.00,1234.00
           C 1497.00,1234.00 1497.00,1309.00 1497.00,1309.00
             1497.00,1309.00 1506.00,1309.00 1506.00,1309.00
             1506.00,1309.00 1506.00,1234.00 1506.00,1234.00
             1506.00,1234.00 1497.00,1234.00 1497.00,1234.00 Z
           M 300.00,1238.00
           C 300.00,1238.00 300.00,1246.00 300.00,1246.00
             300.00,1246.00 334.00,1246.00 334.00,1246.00
             334.00,1246.00 334.00,1309.00 334.00,1309.00
             334.00,1309.00 343.00,1309.00 343.00,1309.00
             343.00,1309.00 343.00,1246.00 343.00,1246.00
             343.00,1246.00 376.00,1246.00 376.00,1246.00
             376.00,1246.00 376.00,1238.00 376.00,1238.00
             376.00,1238.00 300.00,1238.00 300.00,1238.00 Z
           M 1193.00,1238.00
           C 1193.00,1238.00 1193.00,1309.00 1193.00,1309.00
             1193.00,1309.00 1256.00,1309.00 1256.00,1309.00
             1256.00,1309.00 1256.00,1300.00 1256.00,1300.00
             1256.00,1300.00 1203.00,1300.00 1203.00,1300.00
             1203.00,1300.00 1203.00,1238.00 1203.00,1238.00
             1203.00,1238.00 1193.00,1238.00 1193.00,1238.00 Z
           M 1531.00,1240.00
           C 1531.00,1240.00 1531.00,1253.00 1531.00,1253.00
             1531.00,1253.00 1520.00,1253.00 1520.00,1253.00
             1520.00,1253.00 1520.00,1261.00 1520.00,1261.00
             1520.00,1261.00 1531.00,1261.00 1531.00,1261.00
             1531.00,1261.00 1531.00,1295.00 1531.00,1295.00
             1531.06,1299.24 1531.32,1302.40 1534.39,1305.67
             1539.78,1311.40 1549.88,1312.01 1557.00,1309.78
             1559.42,1309.02 1563.47,1307.52 1564.19,1304.79
             1564.68,1302.95 1563.62,1300.70 1563.00,1299.00
             1557.69,1299.99 1552.41,1303.44 1546.92,1301.63
             1541.02,1299.69 1540.08,1295.52 1540.00,1290.00
             1540.00,1290.00 1540.00,1261.00 1540.00,1261.00
             1540.00,1261.00 1565.00,1261.00 1565.00,1261.00
             1565.00,1261.00 1565.00,1253.00 1565.00,1253.00
             1565.00,1253.00 1540.00,1253.00 1540.00,1253.00
             1540.00,1253.00 1540.00,1240.00 1540.00,1240.00
             1540.00,1240.00 1531.00,1240.00 1531.00,1240.00 Z
           M 427.00,1258.00
           C 427.00,1258.00 430.00,1266.00 430.00,1266.00
             430.00,1266.00 442.00,1261.04 442.00,1261.04
             452.65,1257.86 467.22,1258.52 472.59,1270.00
             474.00,1273.03 474.56,1277.65 475.00,1281.00
             464.39,1270.99 451.89,1268.83 438.00,1272.75
             428.63,1275.39 422.03,1280.62 422.03,1291.00
             422.03,1301.55 428.46,1306.57 438.00,1309.25
             451.89,1313.17 464.39,1311.01 475.00,1301.00
             475.55,1310.24 479.18,1309.00 487.00,1309.00
             480.53,1292.70 486.98,1280.73 482.24,1267.00
             476.24,1249.63 453.89,1249.12 439.00,1253.16
             434.42,1254.40 431.22,1255.98 427.00,1258.00 Z
           M 513.00,1262.00
           C 513.00,1262.00 513.00,1253.00 513.00,1253.00
             513.00,1253.00 504.00,1253.00 504.00,1253.00
             504.00,1253.00 504.00,1309.00 504.00,1309.00
             504.00,1309.00 513.00,1309.00 513.00,1309.00
             513.00,1309.00 513.00,1283.00 513.00,1283.00
             513.01,1279.45 512.81,1276.28 514.45,1273.00
             521.04,1259.84 543.41,1253.80 552.15,1268.00
             554.43,1271.71 554.95,1276.74 555.00,1281.00
             555.00,1281.00 555.00,1309.00 555.00,1309.00
             555.00,1309.00 564.00,1309.00 564.00,1309.00
             564.00,1309.00 564.00,1283.00 564.00,1283.00
             564.00,1276.70 564.50,1271.00 562.07,1265.00
             556.14,1250.35 537.03,1248.04 524.00,1253.90
             519.34,1256.00 516.63,1258.55 513.00,1262.00 Z
           M 585.00,1293.00
           C 585.00,1293.00 579.00,1300.00 579.00,1300.00
             593.06,1309.86 608.04,1314.03 625.00,1309.25
             633.46,1306.87 639.98,1302.60 639.97,1293.00
             639.97,1290.37 639.71,1288.29 638.26,1286.02
             632.05,1276.28 615.12,1276.99 605.00,1275.41
             600.63,1274.73 593.08,1273.89 591.40,1268.96
             588.59,1260.71 604.97,1258.84 610.00,1259.04
             614.35,1259.21 619.07,1260.27 623.00,1262.13
             625.02,1263.09 629.06,1265.82 630.96,1265.99
             634.26,1266.27 637.15,1262.32 635.27,1259.39
             633.93,1257.30 628.38,1254.96 626.00,1254.06
             615.54,1250.11 600.07,1249.54 590.00,1254.82
             582.97,1258.51 578.42,1266.21 582.31,1273.98
             587.23,1283.79 606.39,1283.64 616.00,1285.00
             620.57,1285.65 628.03,1287.01 629.83,1292.02
             631.77,1297.41 623.05,1301.39 619.00,1302.32
             606.70,1305.16 594.67,1300.40 585.00,1293.00 Z
           M 730.00,1251.44
           C 723.81,1252.60 717.91,1253.97 713.01,1258.21
             702.26,1267.54 699.53,1287.64 708.39,1299.00
             716.78,1309.76 731.08,1312.43 744.00,1310.57
             751.58,1309.48 758.08,1307.44 763.53,1301.70
             772.43,1292.35 773.56,1273.20 765.61,1263.00
             757.05,1252.01 743.10,1249.76 730.00,1251.44 Z
           M 848.00,1262.00
           C 848.00,1262.00 847.00,1253.00 847.00,1253.00
             847.00,1253.00 838.00,1253.00 838.00,1253.00
             838.00,1253.00 838.00,1309.00 838.00,1309.00
             838.00,1309.00 847.00,1309.00 847.00,1309.00
             847.00,1309.00 847.00,1282.00 847.00,1282.00
             847.01,1276.28 846.84,1273.81 850.53,1269.00
             858.39,1258.77 875.62,1255.34 882.91,1268.00
             884.97,1271.58 884.98,1275.03 885.00,1279.00
             885.00,1279.00 885.00,1309.00 885.00,1309.00
             885.00,1309.00 895.00,1309.00 895.00,1309.00
             895.00,1309.00 895.00,1281.00 895.00,1281.00
             895.03,1275.90 895.08,1273.24 898.39,1269.00
             906.32,1258.85 923.59,1255.29 930.91,1268.00
             932.97,1271.58 932.98,1275.03 933.00,1279.00
             933.00,1279.00 933.00,1309.00 933.00,1309.00
             933.00,1309.00 943.00,1309.00 943.00,1309.00
             943.00,1297.25 944.43,1271.69 939.33,1262.00
             932.11,1248.29 911.25,1248.39 900.04,1256.79
             896.70,1259.29 895.28,1261.64 893.00,1265.00
             891.11,1261.14 889.44,1258.26 885.96,1255.56
             875.43,1247.38 854.80,1250.40 848.00,1262.00 Z
           M 1002.00,1262.00
           C 1002.00,1262.00 1002.00,1253.00 1002.00,1253.00
             1002.00,1253.00 992.00,1253.00 992.00,1253.00
             992.00,1253.00 992.00,1309.00 992.00,1309.00
             992.00,1309.00 1002.00,1309.00 1002.00,1309.00
             1002.00,1309.00 1002.00,1282.00 1002.00,1282.00
             1002.00,1278.99 1001.79,1275.77 1003.17,1273.00
             1009.78,1259.79 1032.35,1253.73 1040.99,1268.00
             1045.34,1275.18 1044.00,1299.66 1044.00,1309.00
             1044.00,1309.00 1053.00,1309.00 1053.00,1309.00
             1053.00,1298.20 1054.36,1272.88 1050.47,1264.00
             1044.20,1249.71 1024.56,1248.36 1012.00,1254.33
             1007.54,1256.45 1005.46,1258.63 1002.00,1262.00 Z
           M 1125.00,1301.00
           C 1124.86,1316.09 1114.58,1323.48 1100.00,1322.49
             1095.52,1322.18 1091.16,1321.21 1087.00,1319.55
             1084.90,1318.71 1081.44,1316.66 1079.21,1317.41
             1076.57,1318.30 1075.70,1321.65 1075.00,1324.00
             1082.13,1328.04 1084.98,1328.93 1093.00,1330.48
             1097.88,1331.04 1103.08,1331.35 1108.00,1330.48
             1117.03,1329.53 1125.89,1326.19 1130.78,1318.00
             1135.38,1310.29 1135.00,1300.63 1135.00,1292.00
             1135.00,1292.00 1135.00,1253.00 1135.00,1253.00
             1135.00,1253.00 1125.00,1253.00 1125.00,1253.00
             1125.00,1253.00 1125.00,1261.00 1125.00,1261.00
             1117.15,1253.87 1108.68,1250.62 1098.00,1251.04
             1090.09,1251.35 1081.73,1254.07 1076.33,1260.09
             1065.95,1271.65 1066.85,1294.58 1079.04,1304.61
             1083.95,1308.65 1091.72,1310.71 1098.00,1310.96
             1108.75,1311.38 1116.89,1307.83 1125.00,1301.00 Z
           M 1292.00,1251.44
           C 1284.98,1252.75 1279.46,1254.16 1274.04,1259.18
             1263.23,1269.21 1262.80,1291.42 1273.10,1301.91
             1279.54,1308.45 1289.05,1310.89 1298.00,1311.00
             1307.47,1311.10 1317.63,1309.44 1324.82,1302.67
             1335.77,1292.35 1335.77,1269.65 1324.82,1259.33
             1316.58,1251.56 1302.77,1250.06 1292.00,1251.44 Z
           M 1423.00,1266.00
           C 1423.00,1266.00 1435.00,1261.04 1435.00,1261.04
             1445.98,1257.76 1461.01,1258.70 1465.99,1271.00
             1467.16,1273.87 1466.99,1276.96 1467.00,1280.00
             1463.20,1276.60 1460.89,1274.80 1456.00,1273.10
             1444.26,1269.02 1422.71,1270.56 1416.45,1283.00
             1415.25,1285.39 1415.08,1287.39 1415.02,1290.00
             1414.57,1308.36 1435.36,1313.03 1450.00,1310.38
             1458.84,1308.79 1460.82,1306.74 1468.00,1302.00
             1468.93,1309.94 1472.19,1308.99 1479.00,1309.00
             1477.77,1301.01 1477.01,1303.42 1477.00,1294.00
             1476.98,1280.93 1479.33,1264.76 1466.96,1256.25
             1457.62,1249.81 1443.55,1250.32 1433.00,1252.90
             1429.57,1253.74 1420.78,1255.69 1420.73,1260.10
             1420.71,1261.82 1422.22,1264.45 1423.00,1266.00 Z
           M 387.00,1265.00
           C 387.00,1265.00 386.00,1253.00 386.00,1253.00
             386.00,1253.00 377.00,1253.00 377.00,1253.00
             377.00,1253.00 377.00,1309.00 377.00,1309.00
             377.00,1309.00 386.00,1309.00 386.00,1309.00
             386.00,1302.85 385.35,1281.44 386.85,1277.00
             389.14,1270.23 396.30,1264.32 403.00,1262.22
             407.09,1260.94 409.83,1261.01 414.00,1261.00
             414.00,1261.00 414.00,1252.00 414.00,1252.00
             403.53,1252.09 391.89,1254.68 387.00,1265.00 Z
           M 798.00,1264.00
           C 798.00,1264.00 797.00,1253.00 797.00,1253.00
             797.00,1253.00 788.00,1253.00 788.00,1253.00
             788.00,1253.00 788.00,1309.00 788.00,1309.00
             788.00,1309.00 797.07,1309.00 797.07,1309.00
             797.07,1309.00 797.07,1291.00 797.07,1291.00
             797.07,1291.00 797.07,1279.00 797.07,1279.00
             798.52,1270.58 806.37,1264.66 814.00,1262.10
             817.68,1260.87 820.22,1261.01 824.00,1261.00
             824.00,1261.00 824.00,1252.00 824.00,1252.00
             814.31,1252.21 803.08,1255.01 798.00,1264.00 Z
           M 963.00,1253.00
           C 963.00,1253.00 963.00,1309.00 963.00,1309.00
             963.00,1309.00 972.00,1309.00 972.00,1309.00
             972.00,1309.00 972.00,1253.00 972.00,1253.00
             972.00,1253.00 963.00,1253.00 963.00,1253.00 Z
           M 1340.00,1253.00
           C 1340.00,1253.00 1356.58,1284.00 1356.58,1284.00
             1356.58,1284.00 1369.00,1304.00 1369.00,1304.00
             1365.22,1309.17 1356.70,1323.17 1355.00,1329.00
             1357.10,1329.00 1361.91,1329.21 1363.67,1328.43
             1366.88,1327.01 1372.03,1316.43 1374.00,1313.00
             1374.00,1313.00 1396.28,1274.00 1396.28,1274.00
             1399.68,1268.02 1405.47,1259.41 1407.00,1253.00
             1407.00,1253.00 1397.53,1253.99 1397.53,1253.99
             1397.53,1253.99 1389.77,1266.00 1389.77,1266.00
             1389.77,1266.00 1375.00,1294.00 1375.00,1294.00
             1375.00,1294.00 1373.00,1294.00 1373.00,1294.00
             1373.00,1294.00 1357.00,1265.00 1357.00,1265.00
             1357.00,1265.00 1349.62,1254.02 1349.62,1254.02
             1349.62,1254.02 1340.00,1253.00 1340.00,1253.00 Z
           M 1575.00,1253.00
           C 1576.69,1260.09 1590.41,1282.22 1594.85,1290.00
             1596.48,1292.86 1601.78,1301.22 1601.94,1304.00
             1602.09,1306.61 1599.99,1309.77 1598.72,1312.00
             1595.60,1317.51 1591.48,1322.78 1590.00,1329.00
             1592.07,1329.00 1596.90,1329.21 1598.62,1328.43
             1601.72,1327.01 1607.45,1315.45 1609.42,1312.00
             1609.42,1312.00 1630.00,1276.00 1630.00,1276.00
             1633.61,1269.73 1640.13,1259.54 1642.00,1253.00
             1642.00,1253.00 1632.39,1254.02 1632.39,1254.02
             1632.39,1254.02 1625.15,1265.00 1625.15,1265.00
             1625.15,1265.00 1609.00,1295.00 1609.00,1295.00
             1609.00,1295.00 1592.42,1266.00 1592.42,1266.00
             1592.42,1266.00 1584.61,1254.02 1584.61,1254.02
             1584.61,1254.02 1575.00,1253.00 1575.00,1253.00 Z
           M 736.00,1259.37
           C 742.80,1259.44 750.89,1261.15 755.79,1266.19
             762.98,1273.57 762.94,1288.45 755.79,1295.82
             751.18,1300.57 744.46,1302.45 738.00,1302.79
             723.49,1303.57 712.70,1294.80 713.02,1280.00
             713.12,1275.19 714.21,1270.85 717.39,1267.09
             722.16,1261.47 729.08,1260.19 736.00,1259.37 Z
           M 1298.00,1259.37
           C 1304.71,1259.43 1311.80,1260.58 1316.96,1265.21
             1325.40,1272.80 1325.93,1287.80 1317.89,1295.90
             1313.40,1300.42 1307.22,1302.18 1301.00,1302.68
             1294.64,1303.18 1284.82,1300.44 1280.33,1295.79
             1273.49,1288.73 1273.25,1274.64 1279.56,1267.18
             1284.21,1261.67 1291.21,1260.18 1298.00,1259.37 Z
           M 1095.00,1260.33
           C 1104.26,1259.30 1112.80,1259.34 1119.98,1266.10
             1124.01,1269.90 1124.90,1271.59 1125.00,1277.00
             1125.06,1280.50 1125.38,1288.01 1124.07,1290.99
             1120.41,1299.25 1108.42,1303.12 1100.00,1302.48
             1093.65,1302.00 1086.88,1300.01 1082.80,1294.83
             1079.62,1290.79 1079.06,1286.95 1079.00,1282.00
             1078.88,1270.01 1082.81,1263.25 1095.00,1260.33 Z
           M 446.00,1279.30
           C 454.01,1278.50 470.09,1280.26 473.55,1289.02
             476.64,1296.82 461.53,1301.90 456.00,1302.70
             449.83,1303.59 440.01,1302.73 435.11,1298.58
             428.99,1293.41 430.39,1286.00 437.02,1282.09
             439.71,1280.49 442.97,1279.87 446.00,1279.30 Z
           M 1439.00,1279.29
           C 1447.03,1278.53 1463.06,1280.37 1466.55,1289.04
             1469.79,1297.06 1453.63,1302.22 1448.00,1302.83
             1441.89,1303.48 1432.91,1302.77 1428.11,1298.61
             1421.53,1292.91 1423.78,1285.20 1431.00,1281.45
             1433.48,1280.17 1436.29,1279.75 1439.00,1279.29 Z" />
</svg>
