<?xml version="1.0" encoding="UTF-8" standalone="no"?>
<!DOCTYPE svg PUBLIC "-//W3C//DTD SVG 20010904//EN"
              "http://www.w3.org/TR/2001/REC-SVG-20010904/DTD/svg10.dtd">

<svg xmlns="http://www.w3.org/2000/svg"
     width="65.8764mm" height="65.8764mm"
     viewBox="0 0 389 389">
  <path id="chart-line"
        fill="none" stroke="black" stroke-width="1"
        d="M 113.01,233.99
           C 113.01,233.99 131.00,209.00 131.00,209.00
             131.00,209.00 147.52,212.00 147.52,212.00
             147.52,212.00 175.00,170.03 175.00,170.03
             175.00,170.03 192.00,171.04 192.00,171.04
             192.00,171.04 216.00,110.00 216.00,110.00
             216.00,110.00 238.00,114.73 238.00,114.73
             238.00,114.73 261.00,71.00 261.00,71.00
             261.00,71.00 239.98,118.00 239.98,118.00
             239.98,118.00 219.00,114.00 219.00,114.00
             219.00,114.00 196.00,175.00 196.00,175.00
             196.00,175.00 177.45,173.09 177.45,173.09
             177.45,173.09 150.18,215.09 150.18,215.09
             150.18,215.09 132.36,211.64 132.36,211.64
             132.36,211.64 113.01,233.99 113.01,233.99 Z
           M 350.00,20.00
           C 350.00,20.00 350.00,256.00 350.00,256.00
             342.69,256.00 98.00,256.00 98.00,256.00
             98.00,256.00 98.00,262.00 98.00,262.00
             98.00,262.00 356.00,262.00 356.00,262.00
             356.00,262.00 356.00,20.00 356.00,20.00
             356.00,20.00 350.00,20.00 350.00,20.00 Z
           M 92.00,256.00
           C 92.00,256.00 351.00,256.00 351.00,256.00
             351.00,256.00 351.00,16.00 351.00,16.00
             351.00,16.00 92.00,16.00 92.00,16.00
             92.00,16.00 92.00,256.00 92.00,256.00 Z
           M 210.50,282.00" />
</svg>
