<?xml version="1.0" encoding="UTF-8" standalone="no"?>
<!DOCTYPE svg PUBLIC "-//W3C//DTD SVG 20010904//EN"
              "http://www.w3.org/TR/2001/REC-SVG-20010904/DTD/svg10.dtd">

<svg xmlns="http://www.w3.org/2000/svg"
     width="65.8764mm" height="65.8764mm"
     viewBox="0 0 389 389">
  <g id="left-person">
    <path id="leftPants"
          fill="#39475c" stroke="#39475c" stroke-width="1"
          d="M 41.00,273.00
             C 41.00,273.00 43.00,306.00 43.00,306.00
               43.00,306.00 44.00,321.00 44.00,321.00
               44.00,321.00 44.00,343.00 44.00,343.00
               44.00,343.00 45.00,359.00 45.00,359.00
               48.17,359.43 47.53,359.12 49.12,359.03
               49.50,357.19 50.62,344.75 50.69,344.78
               50.69,344.78 52.00,325.00 52.00,325.00
               52.02,314.58 51.53,292.88 53.00,294.00
               55.19,292.25 55.60,307.82 56.09,315.00
               56.09,315.00 58.00,341.00 58.00,341.00
               58.03,344.16 57.06,356.99 58.69,359.06
               59.97,359.03 61.34,359.06 63.00,359.00
               63.00,359.00 64.00,340.00 64.00,340.00
               64.00,340.00 64.00,305.00 64.00,305.00
               64.00,305.00 60.65,274.09 60.65,274.09
               51.69,274.81 50.04,276.39 41.00,273.00 Z" />
    <path id="leftLshoe"
          fill="#2b3849" stroke="#2b3849" stroke-width="1"
          d="M 45.00,359.00
             C 44.53,360.56 45.00,364.00 45.00,364.00
               45.00,364.00 47.78,364.22 54.00,364.00
               46.94,357.78 50.12,359.19 45.00,359.00 Z
             M 69.00,365.66" />
    <path id="leftRshoe"
          fill="#2b3849" stroke="#2b3849" stroke-width="1"
          d="M 59.00,358.00
             C 58.47,362.62 59.00,364.00 59.00,364.00
               59.00,364.00 75.00,364.00 75.00,364.00
               74.25,361.66 64.91,358.31 59.00,358.00 Z" />
    <path id="leftShirt"
          fill="#1d1d1b" stroke="#1d1d1b" stroke-width="1"
          d="M 59.00,235.00
             C 69.01,234.65 63.56,231.35 62.91,222.45
               62.34,214.65 51.09,199.73 39.64,203.55
               34.48,204.89 35.13,210.50 35.01,215.00
               34.65,229.20 39.94,234.76 40.00,247.00
               40.02,251.94 38.70,270.07 40.82,273.18
               45.73,275.91 47.45,276.91 61.49,274.07
               63.06,271.85 60.17,260.85 59.60,258.00
               57.10,245.48 58.03,246.94 59.00,235.00 Z" />
    <path id="leftHand"
          fill="#b86d42" stroke="#b86d42" stroke-width="1"
          d="M 66.12,230.06
             C 66.69,229.84 67.59,229.35 67.55,228.02
               67.34,219.99 58.66,222.47 63.88,229.31
               64.68,230.33 66.15,230.09 66.12,230.06 Z" />
    <path id="leftHead"
          fill="#b5693e" stroke="#b5693e" stroke-width="1"
          d="M 40.00,186.00
             C 40.00,186.00 39.91,186.58 39.58,187.89
               39.24,188.67 39.02,188.53 39.00,190.00
               38.84,194.20 41.07,192.00 41.00,201.00
               43.73,201.91 46.31,201.51 48.00,201.00
               48.11,195.16 49.62,197.12 53.00,195.00
               53.67,194.00 49.73,192.04 52.00,189.00
               47.93,187.27 45.58,183.69 45.33,182.04
               42.16,182.64 40.00,186.00 40.00,186.00 Z" />
    <path id="leftHair"
          fill="#2b3441" stroke="#2b3441" stroke-width="1"
          d="M 40.00,197.00
             C 43.78,194.84 36.89,191.42 38.00,190.00
               40.27,188.58 43.16,191.76 43.00,191.00
               39.84,183.69 46.18,183.36 45.00,180.00
               32.71,181.31 29.87,192.78 40.00,197.00 Z" />
    <path id="leftCollar"
          fill="#bac557" stroke="#bac557" stroke-width="1"
          d="M 40.00,201.00
             C 39.87,201.13 39.76,202.11 40.00,203.00
               39.20,203.29 47.67,203.29 48.00,203.00
               48.00,203.00 48.33,202.38 48.00,201.00
               46.71,200.44 39.62,200.82 40.00,201.00 Z
             M 43.22,204.71" />
  </g>
</svg>
