<?xml version="1.0" encoding="UTF-8" standalone="no"?>
<!DOCTYPE svg PUBLIC "-//W3C//DTD SVG 20010904//EN"
              "http://www.w3.org/TR/2001/REC-SVG-20010904/DTD/svg10.dtd">

<svg xmlns="http://www.w3.org/2000/svg"
     width="65.8764mm" height="65.8764mm"
     viewBox="0 0 389 389">
  <path id="leftPants"
        fill="none" stroke="black" stroke-width="1"
        d="M 41.00,273.00
           C 41.00,273.00 43.00,306.00 43.00,306.00
             43.00,306.00 44.00,321.00 44.00,321.00
             44.00,321.00 44.00,343.00 44.00,343.00
             44.00,343.00 45.00,359.00 45.00,359.00
             48.17,359.43 47.53,359.12 49.12,359.03
             49.50,357.19 50.62,344.75 50.69,344.78
             50.69,344.78 52.00,325.00 52.00,325.00
             52.02,314.58 51.53,292.88 53.00,294.00
             55.19,292.25 55.60,307.82 56.09,315.00
             56.09,315.00 58.00,341.00 58.00,341.00
             58.03,344.16 57.06,356.99 58.69,359.06
             59.97,359.03 61.34,359.06 63.00,359.00
             63.00,359.00 64.00,340.00 64.00,340.00
             64.00,340.00 64.00,305.00 64.00,305.00
             64.00,305.00 60.65,274.09 60.65,274.09
             51.69,274.81 50.04,276.39 41.00,273.00 Z" />
</svg>
