<?xml version="1.0" encoding="UTF-8" standalone="no"?>
<!DOCTYPE svg PUBLIC "-//W3C//DTD SVG 20010904//EN"
              "http://www.w3.org/TR/2001/REC-SVG-20010904/DTD/svg10.dtd">

<svg xmlns="http://www.w3.org/2000/svg"
     width="5.90278in" height="7.65278in"
     viewBox="0 0 425 551">
  <path id="B-Bottom"
        fill="none" stroke="black" stroke-width="1"
        d="M 4.00,318.00
           C 4.00,318.00 4.00,546.00 4.00,546.00
             4.00,546.00 36.00,548.00 36.00,548.00
             36.00,548.00 93.00,548.00 93.00,548.00
             93.00,548.00 112.00,547.00 112.00,547.00
             112.00,547.00 122.00,546.09 122.00,546.09
             122.00,546.09 163.00,542.15 163.00,542.15
             221.86,535.12 299.60,515.66 350.00,484.32
             373.99,469.40 398.27,450.84 411.19,425.00
             416.26,414.86 419.87,401.36 420.00,390.00
             420.52,344.09 380.12,309.41 343.00,289.23
             336.23,285.55 323.97,278.59 317.01,276.27
             315.18,275.66 313.53,275.24 311.58,275.42
             311.58,275.42 287.00,284.58 287.00,284.58
             265.59,292.58 243.30,298.65 221.00,303.58
             190.77,310.25 160.75,314.23 130.00,317.17
             130.00,317.17 108.00,319.00 108.00,319.00
             108.00,319.00 86.00,320.00 86.00,320.00
             86.00,320.00 43.00,320.00 43.00,320.00
             43.00,320.00 27.00,319.00 27.00,319.00
             27.00,319.00 4.00,318.00 4.00,318.00 Z" />
</svg>
