<?xml version="1.0" encoding="UTF-8" standalone="no"?>
<!DOCTYPE svg PUBLIC "-//W3C//DTD SVG 20010904//EN"
              "http://www.w3.org/TR/2001/REC-SVG-20010904/DTD/svg10.dtd">

<svg xmlns="http://www.w3.org/2000/svg"
     width="5.90278in" height="7.65278in"
     viewBox="0 0 425 550">
  <path id="B-Top"
        fill="#A5BB00" stroke="#A5BB00" stroke-width="1"
        d="M 4.00,4.00
           C 4.00,4.00 4.00,231.96 4.00,231.96
             4.00,231.96 17.00,231.96 17.00,231.96
             17.00,231.96 29.00,230.96 29.00,230.96
             29.00,230.96 42.00,230.96 42.00,230.96
             42.00,230.96 54.00,230.00 54.00,230.00
             54.00,230.00 75.00,230.00 75.00,230.00
             75.00,230.00 87.00,230.96 87.00,230.96
             87.00,230.96 102.00,230.96 102.00,230.96
             102.00,230.96 112.00,231.91 112.00,231.91
             146.60,234.28 181.02,237.96 215.00,245.42
             238.64,250.62 262.25,256.74 285.00,265.05
             292.07,267.63 309.45,276.13 316.00,274.36
             324.08,272.18 348.42,258.36 356.00,253.33
             387.20,232.64 419.54,203.53 420.00,163.00
             420.10,153.87 418.56,144.66 415.64,136.00
             406.25,108.09 380.06,85.18 356.00,69.69
             305.89,37.43 233.82,18.06 175.00,9.87
             175.00,9.87 117.00,3.91 117.00,3.91
             117.00,3.91 107.00,2.96 107.00,2.96
             107.00,2.96 95.00,2.96 95.00,2.96
             95.00,2.96 83.00,2.00 83.00,2.00
             83.00,2.00 46.00,2.00 46.00,2.00
             46.00,2.00 30.00,3.00 30.00,3.00
             30.00,3.00 4.00,4.00 4.00,4.00 Z" />
  <path id="B-Bottom"
        fill="#009FBC" stroke="#009FBC" stroke-width="1"
        d="M 4.00,318.00
           C 4.00,318.00 4.00,546.00 4.00,546.00
             4.00,546.00 36.00,548.00 36.00,548.00
             36.00,548.00 93.00,548.00 93.00,548.00
             93.00,548.00 112.00,547.00 112.00,547.00
             112.00,547.00 122.00,546.09 122.00,546.09
             122.00,546.09 163.00,542.15 163.00,542.15
             221.86,535.12 299.60,515.66 350.00,484.32
             373.99,469.40 398.27,450.84 411.19,425.00
             416.26,414.86 419.87,401.36 420.00,390.00
             420.52,344.09 380.12,309.41 343.00,289.23
             336.23,285.55 323.97,278.59 317.01,276.27
             315.18,275.66 313.53,275.24 311.58,275.42
             311.58,275.42 287.00,284.58 287.00,284.58
             265.59,292.58 243.30,298.65 221.00,303.58
             190.77,310.25 160.75,314.23 130.00,317.17
             130.00,317.17 108.00,319.00 108.00,319.00
             108.00,319.00 86.00,320.00 86.00,320.00
             86.00,320.00 43.00,320.00 43.00,320.00
             43.00,320.00 27.00,319.00 27.00,319.00
             27.00,319.00 4.00,318.00 4.00,318.00 Z" />
</svg>
