<?xml version="1.0" encoding="UTF-8" standalone="no"?>
<!DOCTYPE svg PUBLIC "-//W3C//DTD SVG 20010904//EN"
              "http://www.w3.org/TR/2001/REC-SVG-20010904/DTD/svg10.dtd">

<svg xmlns="http://www.w3.org/2000/svg"
     width="26.6667in" height="7.91667in"
     viewBox="0 0 1920 570">
  <path id="Selection #3"
        fill="none" stroke="black" stroke-width="1"
        d="M 13.00,327.00
           C 13.00,327.00 13.00,555.00 13.00,555.00
             13.00,555.00 45.00,557.00 45.00,557.00
             45.00,557.00 102.00,557.00 102.00,557.00
             102.00,557.00 121.00,556.00 121.00,556.00
             121.00,556.00 131.00,555.09 131.00,555.09
             131.00,555.09 172.00,551.15 172.00,551.15
             230.86,544.12 308.60,524.66 359.00,493.32
             382.86,478.48 408.35,459.01 420.68,433.00
             425.48,422.88 428.87,410.22 429.00,399.00
             429.52,353.09 389.12,318.41 352.00,298.23
             345.50,294.70 332.60,287.39 326.00,285.26
             318.72,282.90 303.44,290.79 296.00,293.58
             274.30,301.69 251.63,307.91 229.00,312.79
             198.66,319.33 169.82,323.22 139.00,326.17
             139.00,326.17 117.00,328.00 117.00,328.00
             117.00,328.00 95.00,329.00 95.00,329.00
             95.00,329.00 52.00,329.00 52.00,329.00
             52.00,329.00 36.00,328.00 36.00,328.00
             36.00,328.00 13.00,327.00 13.00,327.00 Z" />
</svg>
