<?xml version="1.0" encoding="UTF-8" standalone="no"?>
<!DOCTYPE svg PUBLIC "-//W3C//DTD SVG 20010904//EN"
              "http://www.w3.org/TR/2001/REC-SVG-20010904/DTD/svg10.dtd">

<svg xmlns="http://www.w3.org/2000/svg"
     width="338.696mm" height="126.842mm"
     viewBox="0 0 2000 750">
  <defs>
    <linearGradient id="Gradient1">
      <stop class="stop1" offset="0%"/>
      <stop class="stop2" offset="50%"/>
      <stop class="stop3" offset="100%"/>
    </linearGradient>
    <linearGradient id="Gradient2">
      <stop offset="0%" stop-color="#A5BB00"/>
      <stop offset="100%" stop-color="#009FBC"/>
    </linearGradient >
    <style type="text/css"><![CDATA[
        #rect1 { fill: url(#Gradient1); }
        .stop1 { stop-color: red; }
        .stop2 { stop-color: black; stop-opacity: 0; }
        .stop3 { stop-color: blue; }
      ]]></style>
  </defs>
  <path id="Selection"
        class="b-curve"
        fill="url(#Gradient2)" stroke="#6E1D96" stroke-width="0"
        d="M 0.00,554.00
           C 0.00,554.00 0.00,750.00 0.00,750.00
             0.00,750.00 2000.00,750.00 2000.00,750.00
             2000.00,750.00 2000.00,0.00 2000.00,0.00
             1993.93,2.87 1988.77,9.23 1984.00,14.00
             1984.00,14.00 1956.00,42.00 1956.00,42.00
             1956.00,42.00 1917.00,79.09 1917.00,79.09
             1917.00,79.09 1868.00,124.83 1868.00,124.83
             1770.26,213.22 1669.29,298.88 1562.00,375.58
             1376.77,508.00 1163.70,623.79 944.00,686.42
             876.77,705.59 808.38,719.72 739.00,728.28
             739.00,728.28 680.00,734.09 680.00,734.09
             680.00,734.09 648.00,736.00 648.00,736.00
             648.00,736.00 634.00,737.00 634.00,737.00
             634.00,737.00 615.00,737.00 615.00,737.00
             615.00,737.00 601.00,738.00 601.00,738.00
             601.00,738.00 585.00,738.00 585.00,738.00
             585.00,738.00 569.00,737.00 569.00,737.00
             569.00,737.00 550.00,737.00 550.00,737.00
             550.00,737.00 535.00,736.00 535.00,736.00
             535.00,736.00 497.00,733.17 497.00,733.17
             447.14,728.34 397.80,720.69 349.00,709.12
             277.24,692.10 210.94,668.04 144.00,637.31
             144.00,637.31 104.00,617.69 104.00,617.69
             104.00,617.69 36.00,578.31 36.00,578.31
             36.00,578.31 15.00,564.28 15.00,564.28
             15.00,564.28 0.00,554.00 0.00,554.00 Z" />
</svg>