<?xml version="1.0" encoding="UTF-8" standalone="no"?>
<!DOCTYPE svg PUBLIC "-//W3C//DTD SVG 20010904//EN"
              "http://www.w3.org/TR/2001/REC-SVG-20010904/DTD/svg10.dtd">

<svg xmlns="http://www.w3.org/2000/svg"
     width="26.6667in" height="7.91667in"
     viewBox="0 0 1920 570">
  <path id="Selection #3"
        fill="none" stroke="black" stroke-width="1"
        d="M 13.00,13.00
           C 13.00,13.00 13.00,240.96 13.00,240.96
             13.00,240.96 26.00,240.96 26.00,240.96
             26.00,240.96 38.00,239.96 38.00,239.96
             38.00,239.96 51.00,239.96 51.00,239.96
             51.00,239.96 63.00,239.00 63.00,239.00
             63.00,239.00 84.00,239.00 84.00,239.00
             84.00,239.00 96.00,239.96 96.00,239.96
             96.00,239.96 111.00,239.96 111.00,239.96
             111.00,239.96 121.00,240.91 121.00,240.91
             155.60,243.28 190.02,246.96 224.00,254.42
             247.64,259.62 271.25,265.74 294.00,274.05
             294.00,274.05 314.00,281.80 314.00,281.80
             317.27,283.11 320.41,284.84 324.00,283.93
             329.89,282.44 349.87,271.35 356.00,267.85
             392.00,247.27 429.50,213.85 429.00,169.00
             428.55,129.43 395.94,98.61 365.00,78.69
             314.89,46.43 242.82,27.06 184.00,18.87
             184.00,18.87 126.00,12.91 126.00,12.91
             126.00,12.91 116.00,11.96 116.00,11.96
             116.00,11.96 104.00,11.96 104.00,11.96
             104.00,11.96 92.00,11.00 92.00,11.00
             92.00,11.00 55.00,11.00 55.00,11.00
             55.00,11.00 39.00,12.00 39.00,12.00
             39.00,12.00 13.00,13.00 13.00,13.00 Z" />
</svg>
