<?xml version="1.0" encoding="UTF-8" standalone="no"?>
<!DOCTYPE svg PUBLIC "-//W3C//DTD SVG 20010904//EN"
              "http://www.w3.org/TR/2001/REC-SVG-20010904/DTD/svg10.dtd">

<svg xmlns="http://www.w3.org/2000/svg"
     width="26.6667in" height="7.91667in"
     viewBox="0 0 1920 570">
  <g class="logo-group">
    <g class="logo-top">
      <path id="Selection #3"
            fill="#A5BB00" stroke="#A5BB00" stroke-width="1"
            d="M 13.00,13.00
           C 13.00,13.00 13.00,240.96 13.00,240.96
             13.00,240.96 26.00,240.96 26.00,240.96
             26.00,240.96 38.00,239.96 38.00,239.96
             38.00,239.96 51.00,239.96 51.00,239.96
             51.00,239.96 63.00,239.00 63.00,239.00
             63.00,239.00 84.00,239.00 84.00,239.00
             84.00,239.00 96.00,239.96 96.00,239.96
             96.00,239.96 111.00,239.96 111.00,239.96
             111.00,239.96 121.00,240.91 121.00,240.91
             155.60,243.28 190.02,246.96 224.00,254.42
             247.64,259.62 271.25,265.74 294.00,274.05
             294.00,274.05 314.00,281.80 314.00,281.80
             317.27,283.11 320.41,284.84 324.00,283.93
             329.89,282.44 349.87,271.35 356.00,267.85
             392.00,247.27 429.50,213.85 429.00,169.00
             428.55,129.43 395.94,98.61 365.00,78.69
             314.89,46.43 242.82,27.06 184.00,18.87
             184.00,18.87 126.00,12.91 126.00,12.91
             126.00,12.91 116.00,11.96 116.00,11.96
             116.00,11.96 104.00,11.96 104.00,11.96
             104.00,11.96 92.00,11.00 92.00,11.00
             92.00,11.00 55.00,11.00 55.00,11.00
             55.00,11.00 39.00,12.00 39.00,12.00
             39.00,12.00 13.00,13.00 13.00,13.00 Z" />
    </g>
    <g class="logo-bottom">
      <path id="Selection #3"
            fill="#009FBC" stroke="#009FBC" stroke-width="1"
            d="M 13.00,327.00
           C 13.00,327.00 13.00,555.00 13.00,555.00
             13.00,555.00 45.00,557.00 45.00,557.00
             45.00,557.00 102.00,557.00 102.00,557.00
             102.00,557.00 121.00,556.00 121.00,556.00
             121.00,556.00 131.00,555.09 131.00,555.09
             131.00,555.09 172.00,551.15 172.00,551.15
             230.86,544.12 308.60,524.66 359.00,493.32
             382.86,478.48 408.35,459.01 420.68,433.00
             425.48,422.88 428.87,410.22 429.00,399.00
             429.52,353.09 389.12,318.41 352.00,298.23
             345.50,294.70 332.60,287.39 326.00,285.26
             318.72,282.90 303.44,290.79 296.00,293.58
             274.30,301.69 251.63,307.91 229.00,312.79
             198.66,319.33 169.82,323.22 139.00,326.17
             139.00,326.17 117.00,328.00 117.00,328.00
             117.00,328.00 95.00,329.00 95.00,329.00
             95.00,329.00 52.00,329.00 52.00,329.00
             52.00,329.00 36.00,328.00 36.00,328.00
             36.00,328.00 13.00,327.00 13.00,327.00 Z" />
    </g>
  </g>
  <g class="text-group">
    <path id="Selection #1"
          fill="black" stroke="black" stroke-width="1"
          d="M 517.00,211.00
             C 517.00,211.00 517.00,368.00 517.00,368.00
               517.00,368.00 607.00,368.00 607.00,368.00
               625.72,368.00 645.73,369.37 663.00,360.73
               676.48,353.99 683.93,343.09 684.00,328.00
               684.05,317.51 684.47,309.88 677.47,301.01
               671.12,292.97 660.06,288.47 650.00,288.00
               655.86,282.94 665.08,283.16 671.87,269.00
               674.19,264.15 674.54,261.15 675.27,256.00
               679.63,225.13 651.64,211.13 625.00,211.00
               625.00,211.00 517.00,211.00 517.00,211.00 Z
             M 720.00,211.00
             C 720.00,211.00 720.00,368.00 720.00,368.00
               720.00,368.00 740.00,368.00 740.00,368.00
               740.00,368.00 740.00,317.00 740.00,317.00
               740.00,317.00 811.00,317.00 811.00,317.00
               822.16,317.02 822.83,320.98 829.95,329.00
               829.95,329.00 852.42,355.00 852.42,355.00
               857.80,361.27 861.23,367.83 870.00,368.00
               870.00,368.00 890.00,368.00 890.00,368.00
               890.00,368.00 867.16,341.00 867.16,341.00
               867.16,341.00 844.00,315.00 844.00,315.00
               856.46,312.46 868.53,305.34 876.07,295.00
               893.36,271.31 887.60,235.72 862.00,220.45
               842.77,208.98 826.26,211.00 805.00,211.00
               805.00,211.00 720.00,211.00 720.00,211.00 Z
             M 929.00,211.00
             C 929.00,211.00 929.00,368.00 929.00,368.00
               929.00,368.00 949.00,368.00 949.00,368.00
               949.00,368.00 949.00,211.00 949.00,211.00
               949.00,211.00 929.00,211.00 929.00,211.00 Z
             M 1006.00,211.00
             C 1006.00,211.00 1006.00,368.00 1006.00,368.00
               1006.00,368.00 1158.00,368.00 1158.00,368.00
               1158.00,368.00 1158.00,350.00 1158.00,350.00
               1158.00,350.00 1026.00,350.00 1026.00,350.00
               1026.00,350.00 1026.00,304.00 1026.00,304.00
               1026.00,304.00 1136.00,304.00 1136.00,304.00
               1136.00,304.00 1136.00,286.00 1136.00,286.00
               1136.00,286.00 1026.00,286.00 1026.00,286.00
               1026.00,286.00 1026.00,229.00 1026.00,229.00
               1026.00,229.00 1155.00,229.00 1155.00,229.00
               1155.00,229.00 1155.00,211.00 1155.00,211.00
               1155.00,211.00 1006.00,211.00 1006.00,211.00 Z
             M 1200.00,211.00
             C 1200.00,211.00 1200.00,368.00 1200.00,368.00
               1200.00,368.00 1219.00,368.00 1219.00,368.00
               1219.00,368.00 1219.00,317.00 1219.00,317.00
               1219.00,317.00 1290.00,317.00 1290.00,317.00
               1301.34,317.02 1302.82,321.81 1309.87,330.00
               1309.87,330.00 1331.58,355.00 1331.58,355.00
               1337.77,362.18 1340.08,367.93 1350.00,368.00
               1350.00,368.00 1369.00,368.00 1369.00,368.00
               1369.00,368.00 1353.28,349.00 1353.28,349.00
               1353.28,349.00 1323.00,315.00 1323.00,315.00
               1338.02,311.94 1351.73,302.62 1359.10,289.00
               1372.21,264.77 1363.69,233.68 1340.00,219.63
               1322.68,209.36 1305.16,211.00 1286.00,211.00
               1286.00,211.00 1200.00,211.00 1200.00,211.00 Z
             M 1404.00,211.00
             C 1404.00,211.00 1404.00,368.00 1404.00,368.00
               1404.00,368.00 1543.00,368.00 1543.00,368.00
               1543.00,368.00 1543.00,350.00 1543.00,350.00
               1543.00,350.00 1424.00,350.00 1424.00,350.00
               1424.00,350.00 1424.00,211.00 1424.00,211.00
               1424.00,211.00 1404.00,211.00 1404.00,211.00 Z
             M 1568.00,211.00
             C 1568.00,211.00 1568.00,368.00 1568.00,368.00
               1568.00,368.00 1720.00,368.00 1720.00,368.00
               1720.00,368.00 1720.00,350.00 1720.00,350.00
               1720.00,350.00 1588.00,350.00 1588.00,350.00
               1588.00,350.00 1588.00,304.00 1588.00,304.00
               1588.00,304.00 1698.00,304.00 1698.00,304.00
               1698.00,304.00 1698.00,286.00 1698.00,286.00
               1698.00,286.00 1588.00,286.00 1588.00,286.00
               1588.00,286.00 1588.00,229.00 1588.00,229.00
               1588.00,229.00 1718.00,229.00 1718.00,229.00
               1718.00,229.00 1718.00,211.00 1718.00,211.00
               1718.00,211.00 1568.00,211.00 1568.00,211.00 Z
             M 1737.00,211.00
             C 1737.00,211.00 1754.63,235.00 1754.63,235.00
               1754.63,235.00 1795.63,288.00 1795.63,288.00
               1795.63,288.00 1815.44,315.00 1815.44,315.00
               1815.44,315.00 1816.00,322.00 1816.00,322.00
               1816.00,322.00 1816.00,368.00 1816.00,368.00
               1816.00,368.00 1835.00,368.00 1835.00,368.00
               1835.00,368.00 1835.00,322.00 1835.00,322.00
               1835.01,319.35 1834.85,316.51 1835.85,314.00
               1837.22,310.58 1851.90,292.22 1855.21,288.00
               1855.21,288.00 1893.79,238.00 1893.79,238.00
               1898.48,232.02 1910.91,217.20 1913.00,211.00
               1913.00,211.00 1898.00,211.00 1898.00,211.00
               1895.98,211.00 1892.89,210.88 1891.04,211.60
               1887.16,213.10 1878.11,226.06 1875.13,230.00
               1875.13,230.00 1843.58,271.00 1843.58,271.00
               1838.88,277.04 1829.17,288.84 1826.00,295.00
               1826.00,295.00 1776.58,231.00 1776.58,231.00
               1773.42,226.95 1763.82,213.15 1759.91,211.60
               1758.10,210.88 1754.99,211.00 1753.00,211.00
               1753.00,211.00 1737.00,211.00 1737.00,211.00 Z
             M 536.00,279.00
             C 536.00,279.00 536.00,229.00 536.00,229.00
               536.00,229.00 621.00,229.00 621.00,229.00
               637.70,229.03 657.18,234.27 655.91,255.00
               654.60,276.24 632.98,278.97 616.00,279.00
               616.00,279.00 536.00,279.00 536.00,279.00 Z
             M 740.00,299.00
             C 740.00,299.00 740.00,229.00 740.00,229.00
               740.00,229.00 806.00,229.00 806.00,229.00
               818.28,229.00 833.66,228.20 845.00,233.31
               849.26,235.23 853.57,237.69 856.82,241.09
               869.15,254.03 868.59,276.85 854.96,288.67
               846.26,296.22 833.24,298.95 822.00,299.00
               822.00,299.00 740.00,299.00 740.00,299.00 Z
             M 1219.00,299.00
             C 1219.00,299.00 1219.00,229.00 1219.00,229.00
               1219.00,229.00 1285.00,229.00 1285.00,229.00
               1297.28,229.00 1312.66,228.20 1324.00,233.31
               1328.26,235.23 1332.57,237.69 1335.82,241.09
               1348.31,254.20 1347.68,276.68 1333.96,288.68
               1325.24,296.30 1312.31,298.95 1301.00,299.00
               1301.00,299.00 1219.00,299.00 1219.00,299.00 Z
             M 536.00,350.00
             C 536.00,350.00 536.00,297.00 536.00,297.00
               536.00,297.00 628.00,297.00 628.00,297.00
               646.01,297.03 664.89,303.64 663.96,325.00
               663.07,345.45 640.54,349.97 624.00,350.00
               624.00,350.00 536.00,350.00 536.00,350.00 Z" />
  </g>
</svg>
