<?xml version="1.0" encoding="UTF-8" standalone="no"?>
<!DOCTYPE svg PUBLIC "-//W3C//DTD SVG 20010904//EN"
              "http://www.w3.org/TR/2001/REC-SVG-20010904/DTD/svg10.dtd">

<svg xmlns="http://www.w3.org/2000/svg"
     width="5.76389in" height="7.58333in"
     viewBox="0 0 415 546">
  <path id="logo-bottom"
        fill="none" stroke="black" stroke-width="1"
        d="M 0.00,316.00
           C 0.00,316.00 0.00,544.00 0.00,544.00
             0.00,544.00 31.00,546.00 31.00,546.00
             31.00,546.00 88.00,546.00 88.00,546.00
             88.00,546.00 104.00,545.00 104.00,545.00
             104.00,545.00 129.00,543.17 129.00,543.17
             165.94,539.59 202.02,534.33 238.00,524.88
             279.63,513.96 323.57,498.15 359.00,473.28
             373.78,462.91 384.83,453.27 395.99,439.00
             401.46,431.99 405.98,424.29 409.19,416.00
             413.08,405.95 415.12,395.80 415.00,385.00
             414.56,346.46 383.84,316.89 354.00,297.00
             344.38,290.59 334.34,284.92 324.00,279.75
             320.42,277.96 312.71,273.95 309.00,273.42
             305.12,272.86 301.50,274.97 298.00,276.40
             298.00,276.40 278.00,284.00 278.00,284.00
             253.67,292.28 229.20,299.08 204.00,304.20
             173.92,310.31 143.56,313.99 113.00,316.09
             113.00,316.09 103.00,317.00 103.00,317.00
             103.00,317.00 81.00,318.00 81.00,318.00
             81.00,318.00 38.00,318.00 38.00,318.00
             38.00,318.00 23.00,317.00 23.00,317.00
             23.00,317.00 0.00,316.00 0.00,316.00 Z" />
</svg>
