<?xml version="1.0" encoding="UTF-8" standalone="no"?>
<!DOCTYPE svg PUBLIC "-//W3C//DTD SVG 20010904//EN"
              "http://www.w3.org/TR/2001/REC-SVG-20010904/DTD/svg10.dtd">

<svg xmlns="http://www.w3.org/2000/svg"
     width="31.1944in" height="8.08333in"
     viewBox="0 0 2246 582">
  <path id="MatCapAss"
        fill="black" stroke="black" stroke-width="1"
        d="M 11.00,0.00
           C 11.00,0.00 11.00,12.00 11.00,12.00
             11.00,12.00 2246.00,12.00 2246.00,12.00
             2246.00,12.00 2246.00,0.00 2246.00,0.00
             2246.00,0.00 11.00,0.00 11.00,0.00 Z
           M 802.00,234.00
           C 802.00,234.00 802.00,263.00 802.00,263.00
             796.37,260.12 793.35,259.08 787.00,259.00
             779.10,258.91 773.76,258.97 767.00,263.79
             756.78,271.07 751.39,285.66 752.09,298.00
             753.11,315.90 759.06,333.00 780.00,333.00
             783.76,333.00 786.35,332.92 790.00,331.78
             794.70,330.31 798.14,327.95 802.00,325.00
             802.00,325.00 802.00,331.00 802.00,331.00
             802.00,331.00 815.00,331.00 815.00,331.00
             815.00,331.00 815.00,234.00 815.00,234.00
             815.00,234.00 802.00,234.00 802.00,234.00 Z
           M 1205.00,234.00
           C 1205.00,234.00 1205.00,331.00 1205.00,331.00
             1205.00,331.00 1220.09,330.16 1220.09,330.16
             1220.09,330.16 1228.00,332.48 1228.00,332.48
             1236.24,334.24 1246.07,333.17 1253.00,328.21
             1262.22,321.61 1266.87,310.11 1267.00,299.00
             1267.18,283.79 1266.15,265.99 1249.00,260.11
             1245.75,258.99 1243.36,259.00 1240.00,259.00
             1236.67,259.00 1234.27,259.04 1231.00,259.93
             1225.89,261.31 1222.14,263.83 1218.00,267.00
             1218.00,267.00 1218.00,234.00 1218.00,234.00
             1218.00,234.00 1205.00,234.00 1205.00,234.00 Z
           M 1320.00,234.00
           C 1320.00,234.00 1320.00,331.00 1320.00,331.00
             1320.00,331.00 1333.00,331.00 1333.00,331.00
             1333.00,331.00 1333.00,234.00 1333.00,234.00
             1333.00,234.00 1320.00,234.00 1320.00,234.00 Z
           M 956.00,310.00
           C 950.54,311.48 946.19,315.35 941.00,317.69
             930.92,322.24 916.61,323.22 907.00,317.03
             884.50,302.55 886.49,256.74 914.00,248.79
             922.07,246.45 933.43,247.81 941.00,251.32
             946.79,254.01 949.67,257.45 956.00,259.00
             956.00,255.77 956.54,246.82 954.98,244.39
             953.52,242.13 949.46,240.75 947.00,239.81
             937.13,236.06 931.24,235.98 921.00,236.00
             895.55,236.04 878.30,254.87 878.00,280.00
             877.78,299.13 880.93,318.77 900.00,328.39
             912.20,334.55 929.09,334.27 942.00,330.57
             945.50,329.57 953.84,327.02 955.43,323.61
             956.08,322.20 955.99,319.57 956.00,318.00
             956.00,318.00 956.00,310.00 956.00,310.00 Z
           M 24.00,238.00
           C 24.00,238.00 24.00,331.00 24.00,331.00
             24.00,331.00 36.00,331.00 36.00,331.00
             36.00,331.00 36.00,253.00 36.00,253.00
             36.00,253.00 55.26,293.00 55.26,293.00
             57.80,298.25 59.71,305.93 66.90,304.86
             71.44,304.19 73.96,296.78 75.69,293.00
             75.69,293.00 94.00,253.00 94.00,253.00
             94.00,253.00 95.00,280.00 95.00,280.00
             95.00,280.00 95.00,331.00 95.00,331.00
             95.00,331.00 108.00,331.00 108.00,331.00
             108.00,331.00 108.00,238.00 108.00,238.00
             108.00,238.00 89.00,238.00 89.00,238.00
             89.00,238.00 77.26,264.00 77.26,264.00
             77.26,264.00 66.00,288.00 66.00,288.00
             66.00,288.00 47.75,250.00 47.75,250.00
             42.92,240.31 43.87,238.15 36.00,238.00
             36.00,238.00 24.00,238.00 24.00,238.00 Z
           M 394.00,238.00
           C 394.00,238.00 394.00,250.00 394.00,250.00
             394.00,250.00 408.00,250.00 408.00,250.00
             408.00,250.00 408.00,238.00 408.00,238.00
             408.00,238.00 394.00,238.00 394.00,238.00 Z
           M 1285.00,238.00
           C 1285.00,238.00 1285.00,250.00 1285.00,250.00
             1285.00,250.00 1299.00,250.00 1299.00,250.00
             1299.00,250.00 1299.00,238.00 1299.00,238.00
             1299.00,238.00 1285.00,238.00 1285.00,238.00 Z
           M 1355.00,238.00
           C 1355.00,238.00 1355.00,250.00 1355.00,250.00
             1355.00,250.00 1369.00,250.00 1369.00,250.00
             1369.00,250.00 1369.00,238.00 1369.00,238.00
             1369.00,238.00 1355.00,238.00 1355.00,238.00 Z
           M 1550.00,331.00
           C 1553.29,331.00 1561.69,331.86 1563.92,329.43
             1566.93,326.13 1569.51,308.97 1574.27,306.02
             1575.93,304.99 1578.12,305.04 1580.00,305.00
             1580.00,305.00 1603.00,305.00 1603.00,305.00
             1605.28,305.00 1608.76,304.79 1610.73,306.02
             1614.93,308.66 1618.18,326.25 1621.08,329.43
             1623.31,331.86 1631.71,331.00 1635.00,331.00
             1635.00,331.00 1602.00,238.00 1602.00,238.00
             1602.00,238.00 1592.00,238.00 1592.00,238.00
             1592.00,238.00 1584.65,238.99 1584.65,238.99
             1584.65,238.99 1575.81,260.00 1575.81,260.00
             1575.81,260.00 1550.00,331.00 1550.00,331.00 Z
           M 208.00,241.00
           C 208.00,241.00 208.00,261.00 208.00,261.00
             208.00,261.00 200.00,261.00 200.00,261.00
             200.00,261.00 200.00,271.00 200.00,271.00
             200.00,271.00 208.00,271.00 208.00,271.00
             208.00,271.00 208.58,313.00 208.58,313.00
             209.66,320.50 210.65,326.53 218.00,330.59
             225.66,334.80 236.67,332.67 245.00,332.00
             245.00,332.00 245.00,320.93 245.00,320.93
             239.24,321.47 232.33,323.89 227.04,320.93
             221.81,317.86 221.07,312.46 221.00,307.00
             221.00,307.00 221.00,271.00 221.00,271.00
             221.00,271.00 245.00,271.00 245.00,271.00
             245.00,271.00 245.00,261.00 245.00,261.00
             245.00,261.00 221.00,261.00 221.00,261.00
             221.00,261.00 221.00,241.00 221.00,241.00
             221.00,241.00 208.00,241.00 208.00,241.00 Z
           M 429.00,241.00
           C 429.00,241.00 429.00,261.00 429.00,261.00
             429.00,261.00 421.00,261.00 421.00,261.00
             421.00,261.00 421.00,271.00 421.00,271.00
             421.00,271.00 429.00,271.00 429.00,271.00
             429.00,271.00 429.58,313.00 429.58,313.00
             430.66,320.50 431.65,326.53 439.00,330.59
             446.66,334.80 457.67,332.67 466.00,332.00
             466.00,332.00 466.00,320.93 466.00,320.93
             460.24,321.47 453.33,323.89 448.04,320.93
             442.81,317.86 442.07,312.46 442.00,307.00
             442.00,307.00 442.00,271.00 442.00,271.00
             442.00,271.00 466.00,271.00 466.00,271.00
             466.00,271.00 466.00,261.00 466.00,261.00
             466.00,261.00 442.00,261.00 442.00,261.00
             442.00,261.00 442.00,241.00 442.00,241.00
             442.00,241.00 429.00,241.00 429.00,241.00 Z
           M 1390.00,241.00
           C 1390.00,241.00 1390.00,261.00 1390.00,261.00
             1390.00,261.00 1382.00,261.00 1382.00,261.00
             1382.00,261.00 1382.00,271.00 1382.00,271.00
             1382.00,271.00 1390.00,271.00 1390.00,271.00
             1390.00,271.00 1390.58,313.00 1390.58,313.00
             1391.66,320.50 1392.65,326.53 1400.00,330.59
             1407.66,334.80 1418.67,332.67 1427.00,332.00
             1427.00,332.00 1427.00,320.93 1427.00,320.93
             1421.24,321.47 1414.33,323.89 1409.04,320.93
             1403.81,317.86 1403.07,312.46 1403.00,307.00
             1403.00,307.00 1403.00,271.00 1403.00,271.00
             1403.00,271.00 1427.00,271.00 1427.00,271.00
             1427.00,271.00 1427.00,261.00 1427.00,261.00
             1427.00,261.00 1403.00,261.00 1403.00,261.00
             1403.00,261.00 1403.00,241.00 1403.00,241.00
             1403.00,241.00 1390.00,241.00 1390.00,241.00 Z
           M 2207.00,241.00
           C 2207.00,241.00 2207.00,261.00 2207.00,261.00
             2207.00,261.00 2199.00,261.00 2199.00,261.00
             2199.00,261.00 2199.00,271.00 2199.00,271.00
             2199.00,271.00 2207.00,271.00 2207.00,271.00
             2207.00,271.00 2207.58,313.00 2207.58,313.00
             2208.66,320.50 2209.65,326.53 2217.00,330.59
             2224.66,334.80 2235.67,332.67 2244.00,332.00
             2244.00,332.00 2244.00,320.93 2244.00,320.93
             2238.24,321.47 2231.33,323.89 2226.04,320.93
             2220.81,317.86 2220.07,312.46 2220.00,307.00
             2220.00,307.00 2220.00,271.00 2220.00,271.00
             2220.00,271.00 2244.00,271.00 2244.00,271.00
             2244.00,271.00 2244.00,261.00 2244.00,261.00
             2244.00,261.00 2220.00,261.00 2220.00,261.00
             2220.00,261.00 2220.00,241.00 2220.00,241.00
             2220.00,241.00 2207.00,241.00 2207.00,241.00 Z
           M 132.00,274.00
           C 138.24,273.44 140.36,271.89 146.00,270.67
             155.01,268.71 167.74,268.31 172.43,278.00
             173.57,280.37 173.77,282.45 174.00,285.00
             162.00,285.00 141.28,285.69 132.33,294.47
             121.21,305.36 125.24,326.45 140.00,331.87
             142.84,332.91 145.04,332.96 148.00,333.00
             161.56,333.16 162.60,331.38 174.00,325.00
             174.00,325.00 174.00,331.00 174.00,331.00
             174.00,331.00 186.00,331.00 186.00,331.00
             186.00,331.00 186.00,283.00 186.00,283.00
             185.97,276.78 184.94,271.01 180.61,266.18
             173.20,257.91 155.32,258.02 145.00,259.29
             137.71,260.18 132.14,259.65 132.00,268.00
             132.00,268.00 132.00,274.00 132.00,274.00 Z
           M 600.00,274.00
           C 606.24,273.44 608.36,271.89 614.00,270.67
             623.01,268.71 635.74,268.31 640.43,278.00
             641.57,280.37 641.77,282.45 642.00,285.00
             630.00,285.00 609.28,285.69 600.33,294.47
             589.21,305.36 593.24,326.45 608.00,331.87
             610.84,332.91 613.04,332.96 616.00,333.00
             629.56,333.16 630.60,331.38 642.00,325.00
             642.00,325.00 642.00,331.00 642.00,331.00
             642.00,331.00 654.00,331.00 654.00,331.00
             654.00,331.00 654.00,283.00 654.00,283.00
             653.97,276.78 652.94,271.01 648.61,266.18
             641.20,257.91 623.32,258.02 613.00,259.29
             605.71,260.18 600.14,259.65 600.00,268.00
             600.00,268.00 600.00,274.00 600.00,274.00 Z
           M 689.00,267.00
           C 689.00,267.00 689.00,261.00 689.00,261.00
             689.00,261.00 676.00,261.00 676.00,261.00
             676.00,261.00 676.00,331.00 676.00,331.00
             676.00,331.00 689.00,331.00 689.00,331.00
             689.00,331.00 689.00,287.00 689.00,287.00
             689.00,284.57 688.80,281.33 690.02,279.18
             693.30,273.45 712.79,265.21 719.99,276.10
             722.23,279.49 722.95,287.87 723.00,292.00
             723.00,292.00 723.00,331.00 723.00,331.00
             723.00,331.00 735.00,331.00 735.00,331.00
             735.00,331.00 735.00,283.00 735.00,283.00
             734.77,264.06 720.78,255.12 703.00,259.93
             697.91,261.30 693.37,264.15 689.00,267.00 Z
           M 972.00,274.00
           C 978.24,273.44 980.36,271.89 986.00,270.67
             995.01,268.71 1007.74,268.31 1012.43,278.00
             1013.57,280.37 1013.77,282.45 1014.00,285.00
             1002.00,285.00 981.28,285.69 972.33,294.47
             961.21,305.36 965.24,326.45 980.00,331.87
             982.84,332.91 985.04,332.96 988.00,333.00
             1001.56,333.16 1002.60,331.38 1014.00,325.00
             1014.00,325.00 1014.00,331.00 1014.00,331.00
             1014.00,331.00 1026.00,331.00 1026.00,331.00
             1026.00,331.00 1026.00,283.00 1026.00,283.00
             1025.97,276.78 1024.94,271.01 1020.61,266.18
             1013.20,257.91 995.32,258.02 985.00,259.29
             977.71,260.18 972.14,259.65 972.00,268.00
             972.00,268.00 972.00,274.00 972.00,274.00 Z
           M 1061.00,267.00
           C 1061.00,267.00 1061.00,261.00 1061.00,261.00
             1061.00,261.00 1048.00,261.00 1048.00,261.00
             1048.00,261.00 1048.00,357.00 1048.00,357.00
             1048.00,357.00 1061.00,357.00 1061.00,357.00
             1061.00,357.00 1061.00,329.00 1061.00,329.00
             1066.63,331.88 1069.65,332.92 1076.00,333.00
             1085.18,333.11 1091.82,332.37 1098.96,325.82
             1113.48,312.48 1115.07,274.54 1097.99,262.85
             1093.26,259.62 1088.55,259.00 1083.00,259.00
             1078.84,259.00 1077.02,259.05 1073.00,260.36
             1067.88,262.03 1065.23,263.77 1061.00,267.00 Z
           M 1129.00,274.00
           C 1135.24,273.44 1137.36,271.89 1143.00,270.67
             1152.01,268.71 1164.74,268.31 1169.43,278.00
             1170.57,280.37 1170.77,282.45 1171.00,285.00
             1159.00,285.00 1138.28,285.69 1129.33,294.47
             1118.21,305.36 1122.24,326.45 1137.00,331.87
             1139.84,332.91 1142.04,332.96 1145.00,333.00
             1158.56,333.16 1159.60,331.38 1171.00,325.00
             1171.00,325.00 1171.00,331.00 1171.00,331.00
             1171.00,331.00 1183.00,331.00 1183.00,331.00
             1183.00,331.00 1183.00,283.00 1183.00,283.00
             1182.97,276.78 1181.94,271.01 1177.61,266.18
             1170.20,257.91 1152.32,258.02 1142.00,259.29
             1134.71,260.18 1129.14,259.65 1129.00,268.00
             1129.00,268.00 1129.00,274.00 1129.00,274.00 Z
           M 1643.00,314.00
           C 1643.00,317.45 1642.28,324.79 1644.60,327.35
             1646.83,329.82 1653.72,331.54 1657.00,332.19
             1669.52,334.68 1689.54,333.78 1696.33,321.00
             1697.70,318.42 1698.73,314.92 1698.89,312.00
             1699.02,309.72 1698.70,307.20 1698.06,305.00
             1692.98,287.44 1667.26,292.65 1659.43,284.47
             1653.73,278.52 1659.73,272.00 1666.00,270.36
             1678.18,267.17 1686.08,274.17 1696.00,277.00
             1696.00,277.00 1696.00,270.00 1696.00,270.00
             1695.96,268.19 1696.02,265.98 1694.98,264.42
             1691.71,259.50 1676.51,258.99 1671.00,259.00
             1656.55,259.02 1643.32,265.65 1644.04,282.00
             1644.76,298.45 1660.57,299.70 1673.00,302.65
             1678.44,303.95 1687.10,306.63 1685.53,314.00
             1683.34,324.20 1667.40,322.85 1660.00,320.84
             1660.00,320.84 1643.00,314.00 1643.00,314.00 Z
           M 1710.00,314.00
           C 1710.00,317.45 1709.28,324.79 1711.60,327.35
             1713.83,329.82 1720.72,331.54 1724.00,332.19
             1736.52,334.68 1756.54,333.78 1763.33,321.00
             1764.70,318.42 1765.73,314.92 1765.89,312.00
             1766.02,309.72 1765.70,307.20 1765.06,305.00
             1759.98,287.44 1734.26,292.65 1726.43,284.47
             1720.73,278.52 1726.73,272.00 1733.00,270.36
             1745.18,267.17 1753.08,274.17 1763.00,277.00
             1763.00,277.00 1763.00,270.00 1763.00,270.00
             1762.96,268.19 1763.02,265.98 1761.98,264.42
             1758.71,259.50 1743.51,258.99 1738.00,259.00
             1723.55,259.02 1710.32,265.65 1711.04,282.00
             1711.76,298.45 1727.57,299.70 1740.00,302.65
             1745.44,303.95 1754.10,306.63 1752.53,314.00
             1750.34,324.20 1734.40,322.85 1727.00,320.84
             1727.00,320.84 1710.00,314.00 1710.00,314.00 Z
           M 1840.00,328.00
           C 1840.00,328.00 1840.00,314.00 1840.00,314.00
             1832.74,316.29 1811.13,331.45 1796.33,314.91
             1794.50,312.86 1793.11,310.55 1792.12,308.00
             1790.67,304.29 1790.18,300.94 1790.00,297.00
             1790.00,297.00 1841.00,297.00 1841.00,297.00
             1841.00,297.00 1841.00,289.00 1841.00,289.00
             1840.99,282.04 1840.34,275.90 1836.20,270.00
             1826.83,256.66 1804.85,255.56 1792.00,264.10
             1781.05,271.38 1776.54,285.27 1777.04,298.00
             1777.48,309.42 1781.33,320.42 1791.00,327.20
             1797.22,331.57 1804.55,332.96 1812.00,333.00
             1812.00,333.00 1818.00,333.00 1818.00,333.00
             1827.46,332.89 1831.36,329.97 1840.00,328.00 Z
           M 1853.00,314.00
           C 1853.00,317.45 1852.28,324.79 1854.60,327.35
             1856.83,329.82 1863.72,331.54 1867.00,332.19
             1879.52,334.68 1899.54,333.78 1906.33,321.00
             1907.70,318.42 1908.73,314.92 1908.89,312.00
             1909.02,309.72 1908.70,307.20 1908.06,305.00
             1902.98,287.44 1877.26,292.65 1869.43,284.47
             1863.73,278.52 1869.73,272.00 1876.00,270.36
             1888.18,267.17 1896.08,274.17 1906.00,277.00
             1906.00,277.00 1906.00,270.00 1906.00,270.00
             1905.96,268.19 1906.02,265.98 1904.98,264.42
             1901.71,259.50 1886.51,258.99 1881.00,259.00
             1866.55,259.02 1853.32,265.65 1854.04,282.00
             1854.76,298.45 1870.57,299.70 1883.00,302.65
             1888.44,303.95 1897.10,306.63 1895.53,314.00
             1893.34,324.20 1877.40,322.85 1870.00,320.84
             1870.00,320.84 1853.00,314.00 1853.00,314.00 Z
           M 1938.00,267.00
           C 1938.00,267.00 1938.00,261.00 1938.00,261.00
             1938.00,261.00 1925.00,261.00 1925.00,261.00
             1925.00,261.00 1925.00,331.00 1925.00,331.00
             1925.00,331.00 1938.00,331.00 1938.00,331.00
             1938.00,331.00 1938.00,287.00 1938.00,287.00
             1938.00,284.57 1937.80,281.33 1939.02,279.18
             1941.80,274.31 1957.73,266.45 1965.66,273.57
             1969.48,276.99 1969.94,282.21 1970.00,287.00
             1970.00,287.00 1970.00,331.00 1970.00,331.00
             1970.00,331.00 1983.14,331.00 1983.14,331.00
             1983.14,331.00 1983.14,287.00 1983.14,287.00
             1982.99,285.19 1982.72,281.00 1983.14,279.52
             1985.18,275.74 2001.05,266.51 2009.81,272.89
             2014.69,276.43 2014.97,282.53 2015.00,288.00
             2015.00,288.00 2015.00,331.00 2015.00,331.00
             2015.00,331.00 2028.00,331.00 2028.00,331.00
             2028.00,331.00 2028.00,297.00 2028.00,297.00
             2028.00,289.20 2028.48,280.53 2026.22,273.00
             2021.87,258.54 2004.37,255.85 1992.00,261.35
             1987.22,263.47 1982.97,266.64 1979.00,270.00
             1975.33,259.33 1961.86,256.99 1952.00,259.79
             1947.32,261.12 1942.07,264.35 1938.00,267.00 Z
           M 2108.00,328.00
           C 2108.00,328.00 2108.00,314.00 2108.00,314.00
             2100.74,316.29 2079.13,331.45 2064.33,314.91
             2062.50,312.86 2061.11,310.55 2060.12,308.00
             2058.67,304.29 2058.18,300.94 2058.00,297.00
             2058.00,297.00 2109.00,297.00 2109.00,297.00
             2109.00,297.00 2109.00,289.00 2109.00,289.00
             2108.99,282.04 2108.34,275.90 2104.20,270.00
             2094.83,256.66 2072.85,255.56 2060.00,264.10
             2049.05,271.38 2044.54,285.27 2045.04,298.00
             2045.48,309.42 2049.33,320.42 2059.00,327.20
             2065.22,331.57 2072.55,332.96 2080.00,333.00
             2080.00,333.00 2086.00,333.00 2086.00,333.00
             2095.46,332.89 2099.36,329.97 2108.00,328.00 Z
           M 2139.00,267.00
           C 2139.00,267.00 2139.00,261.00 2139.00,261.00
             2139.00,261.00 2126.00,261.00 2126.00,261.00
             2126.00,261.00 2126.00,331.00 2126.00,331.00
             2126.00,331.00 2139.00,331.00 2139.00,331.00
             2139.00,331.00 2139.00,287.00 2139.00,287.00
             2139.00,284.57 2138.80,281.33 2140.02,279.18
             2143.30,273.45 2162.79,265.21 2169.99,276.10
             2172.23,279.49 2172.95,287.87 2173.00,292.00
             2173.00,292.00 2173.00,331.00 2173.00,331.00
             2173.00,331.00 2185.00,331.00 2185.00,331.00
             2185.00,331.00 2185.00,283.00 2185.00,283.00
             2184.77,264.06 2170.78,255.12 2153.00,259.93
             2147.91,261.30 2143.37,264.15 2139.00,267.00 Z
           M 258.00,261.00
           C 258.00,261.00 258.00,298.00 258.00,298.00
             258.00,311.29 256.73,327.51 273.00,332.21
             276.19,333.14 279.70,333.03 283.00,333.00
             292.23,332.89 296.41,329.63 304.00,325.00
             304.00,325.00 304.00,331.00 304.00,331.00
             304.00,331.00 317.00,331.00 317.00,331.00
             317.00,331.00 317.00,261.00 317.00,261.00
             317.00,261.00 304.00,261.00 304.00,261.00
             304.00,261.00 304.00,305.00 304.00,305.00
             304.00,307.43 304.20,310.67 302.98,312.82
             300.16,317.74 280.91,327.53 273.15,315.91
             270.65,312.17 270.06,305.44 270.00,301.00
             270.00,301.00 270.00,261.00 270.00,261.00
             270.00,261.00 258.00,261.00 258.00,261.00 Z
           M 339.00,261.00
           C 339.00,261.00 339.00,331.00 339.00,331.00
             339.00,331.00 352.00,331.00 352.00,331.00
             352.00,331.00 352.00,288.00 352.00,288.00
             352.04,286.02 352.00,283.97 353.02,282.18
             355.76,277.40 366.63,273.65 372.00,273.46
             372.00,273.46 384.00,274.00 384.00,274.00
             384.00,271.46 384.44,264.45 382.98,262.60
             381.64,260.90 378.95,261.04 377.00,261.00
             365.55,260.80 361.02,263.03 352.00,270.00
             352.00,270.00 352.00,261.00 352.00,261.00
             352.00,261.00 339.00,261.00 339.00,261.00 Z
           M 394.00,261.00
           C 394.00,261.00 394.00,331.00 394.00,331.00
             394.00,331.00 407.00,331.00 407.00,331.00
             407.00,331.00 407.00,261.00 407.00,261.00
             407.00,261.00 394.00,261.00 394.00,261.00 Z
           M 471.00,261.00
           C 472.08,266.97 474.94,272.40 477.20,278.00
             477.20,278.00 490.99,311.00 490.99,311.00
             490.99,311.00 496.89,326.00 496.89,326.00
             497.51,329.80 495.30,333.64 493.77,337.00
             493.77,337.00 485.00,357.00 485.00,357.00
             485.00,357.00 491.00,357.00 491.00,357.00
             491.00,357.00 498.35,356.01 498.35,356.01
             498.35,356.01 501.85,350.00 501.85,350.00
             501.85,350.00 508.20,335.00 508.20,335.00
             508.20,335.00 529.00,286.00 529.00,286.00
             529.00,286.00 539.00,261.00 539.00,261.00
             539.00,261.00 526.64,261.99 526.64,261.99
             526.64,261.99 520.15,275.00 520.15,275.00
             520.15,275.00 506.00,310.00 506.00,310.00
             506.00,310.00 504.00,310.00 504.00,310.00
             504.00,310.00 489.20,273.00 489.20,273.00
             486.37,266.01 486.28,261.16 478.00,261.00
             478.00,261.00 471.00,261.00 471.00,261.00 Z
           M 1285.00,261.00
           C 1285.00,261.00 1285.00,331.00 1285.00,331.00
             1285.00,331.00 1298.00,331.00 1298.00,331.00
             1298.00,331.00 1298.00,261.00 1298.00,261.00
             1298.00,261.00 1285.00,261.00 1285.00,261.00 Z
           M 1355.00,261.00
           C 1355.00,261.00 1355.00,331.00 1355.00,331.00
             1355.00,331.00 1368.00,331.00 1368.00,331.00
             1368.00,331.00 1368.00,261.00 1368.00,261.00
             1368.00,261.00 1355.00,261.00 1355.00,261.00 Z
           M 1432.00,261.00
           C 1433.08,266.97 1435.94,272.40 1438.20,278.00
             1438.20,278.00 1451.99,311.00 1451.99,311.00
             1451.99,311.00 1457.89,326.00 1457.89,326.00
             1458.51,329.80 1456.30,333.64 1454.77,337.00
             1454.77,337.00 1446.00,357.00 1446.00,357.00
             1446.00,357.00 1452.00,357.00 1452.00,357.00
             1452.00,357.00 1459.35,356.01 1459.35,356.01
             1459.35,356.01 1462.85,350.00 1462.85,350.00
             1462.85,350.00 1469.20,335.00 1469.20,335.00
             1469.20,335.00 1490.00,286.00 1490.00,286.00
             1490.00,286.00 1500.00,261.00 1500.00,261.00
             1500.00,261.00 1487.64,261.99 1487.64,261.99
             1487.64,261.99 1481.15,275.00 1481.15,275.00
             1481.15,275.00 1467.00,310.00 1467.00,310.00
             1467.00,310.00 1465.00,310.00 1465.00,310.00
             1465.00,310.00 1450.20,273.00 1450.20,273.00
             1447.37,266.01 1447.28,261.16 1439.00,261.00
             1439.00,261.00 1432.00,261.00 1432.00,261.00 Z" />
</svg>
